<svg viewBox="0 0 229 352" fill="none" xmlns="http://www.w3.org/2000/svg"><defs></defs><path d="M189.4 104l-.8.8-.5.5c-.8.9-1.4.9-2.2 0l-.7-.7c-.5-.5-1-.3-1.2.3l-.2.9c-1.1 5.5-3 10.8-5.2 16l-3.8 8.6c-1 2.5-1.8 5-2.2 7.6-.2 1.5-.5 3-.1 4.5.1.6.3 1.2.7 1.6.8 1.3 1.8 2.5 2.7 3.8.6.9 1.4 1.3 2.5 1.5a26.9 26.9 0 0115.8 7.7c4 3.7 6.9 8.2 9.4 13 3.4 6.6 5.8 13.5 7.7 20.7 1.6 5.4 2.8 11 3.8 16.6a83 83 0 006 19l5 11.5a32.3 32.3 0 011.7 22.6 54.7 54.7 0 01-6.3 13.6c-2.5 4.1-5.5 7.9-8.4 11.8L200.7 303c-5.9 8.3-11.6 16.8-17.8 24.9-2.9 3.8-5.9 7.5-9.1 11.1-2.8 3-5.8 6-9.1 8.4a24.2 24.2 0 01-7.6 4 13 13 0 01-12.5-2.8c-1.6-1.3-2.8-2.9-4.2-4.4-3-3.5-6.2-6.6-9.6-9.5-5.5-4.7-11.3-8.9-17-13.2A194 194 0 0192 302.6 104.8 104.8 0 0172.3 274c-2.1-4.5-4-9-5.6-13.6a40.3 40.3 0 01-.8-27.1l3.3-11.2a63.2 63.2 0 002.6-17.3c.2-3.5.4-7 1-10.5.8-3.7 2-7.2 3.5-10.5l1.9-3.8c.5-1 .4-1.7-.5-2.4-8-7-14.4-15.3-19.7-24.5-.7-1.1-1.2-2.3-1.9-3.3a15 15 0 00-1.6-2.2c-1.5-1.6-3.3-1.9-5.3-1.2-1.7.6-3.2 1.7-4.5 2.9a34.6 34.6 0 00-5.1 5.4c-.3.4-.6.8-1 1-.2.2-.5.3-.8.2-.3 0-.4-.4-.4-.8.1-.8.2-1.7.5-2.5.6-2.5 1-5.1.8-7.7 0-1.4-.3-2.7-1-3.9-.6-1-1.5-1.6-2.7-1.7-1 0-2 .3-3 .7a57.8 57.8 0 00-8.9 4.8c-.4.2-.8.3-1.2 0-.3-.4-.2-.8 0-1.2l.8-1.2a38 38 0 003.8-7.9c.6-1.4.3-2.6-.8-3.6A12 12 0 0017 127c-1.4 0-2.8.2-4.2.5l-.9.1c-.3 0-.7 0-.8-.4-.1-.4 0-.7.3-.9l.7-.4c1.7-1 3.3-1.8 4.7-3 2.3-2 3.8-4.5 3.8-7.6l-.1-1c-.2-1-.8-1.5-1.8-1.7-1.8-.3-3.7-.2-5.5 0l-2.4.6c-.3 0-.5.1-.8 0-.2 0-.6-.1-.7-.4 0-.2 0-.6.3-.8.3-.3.8-.5 1.2-.7 2-1.3 4-2.7 5.6-4.7l.2-.3c1.1-1.5.9-2.6-.9-3.4-1.7-.8-3.5-1-5.4-1.2-2.4-.2-4.9 0-7.4 0a3 3 0 01-1-.2c-.5-.2-.6-.8-.2-1.2a3 3 0 011-.5 16.8 16.8 0 0010.5-11.5c.2-.9 0-1.4-.8-1.8l-2.1-1c-2.2-.7-4.4-1-6.7-1.1-.5 0-1 0-1.4-.2-.4 0-.8-.2-.8-.7 0-.2.3-.6.5-.8l1.5-.7 4.8-2c1.2-.6 1.5-1.8 1.3-2.9-.5-2.3-1.7-4.1-3.2-5.9C4.8 69.4 3 68 1.1 66.3l-.9-.8c-.2-.3-.3-.7 0-1l.8-.2 1.8.8c2.2 1 4.5 2 6.9 2.4 1.9.4 3.8.7 5.7.2l1.2-.4c1-.5 1.5-1.2 1.1-2.4-.4-1.4-.8-2.8-1.4-4.1-.9-1.8-2-3.6-3-5.3l-.4-1.2c0-.5.3-.8.8-.6l.9.6a17.7 17.7 0 006.1 4.5c1 .5 1.8.2 2.3-.8.8-1.6 1.2-3.4.8-5.2l-.9-3-.2-1c0-.2.1-.5.3-.6.2-.1.5 0 .7.1l.7.8 2 2.3c.8 1 2 1.5 3.2 1.6h1c.9-.3 1.2-.8 1-1.7-.5-1.5-1.2-2.9-2.2-4.1a121 121 0 00-4.4-5c-1.7-2-3.4-3.8-4.7-6-1-2-1.6-4-1.8-6 0-1-.2-1.8-.3-2.6-.4-1.6-1-2.1-2.6-2.2h-2.3c-1.5-.1-2.6-1-3.4-2.3-.8-1.4-1.1-3-1.4-4.5l-2-12.2-.5-4v-1l.5-.5c.3 0 .6.2.7.4.3.3.4.7.5 1.2.8 2.8 2 5.5 3.8 8 2.6 4 6.2 7 10.6 9 3 1.4 6.1 2.2 9.3 2.8 4.8 1 9.5 2.3 14 4.3 4 1.8 7.4 4 10 7.4.7.8 1.4 1.2 2.5 1.2 1.6 0 3-.3 4.6-.7 1.1-.4 2.4-.5 3.6-.8l1.9-.4c1.9-.6 3.8-1 5.7-1.7l3.4-1.4c2.2-1 4.4-2 6.8-2.6 4-1 8-.8 12 .4l1.6.6c.8.3 1.5.2 2.2 0 2-1 4.2-1.5 6.4-1.7 3.3-.3 6.6 0 9.9.8 1.8.4 3.5 1.1 5.1 2 .8.6 1.7.6 2.5.4l4.5-1c3.5-.4 7 0 10.2 1.4 1.6.7 3.1 1.6 4.7 2.4l.4.2c1 .6 1.5.5 2.3-.3 1.5-1.6 3-3 5-4l3.8-1.8c3-1.2 5.6-3.2 7.6-5.8a40 40 0 007.3-16l.3-2 .4-1c.3-.6.9-.7 1.4-.2l.5 1c.6 1.4.8 3 1 4.6.2 3.3-.3 6.5-.8 9.7-.4 3.2-.9 6.5-.6 9.9.2 1.8.6 3.6 1.5 5.3l2.7 5.7 1 3.5c.3 1 .7 1.7 1.5 2.2l3.3 2.2a7 7 0 012 2.5c.4.7 1 1.2 1.7 1.6C190 53 193 57 194.8 62l.9 2.7c.2.9.6 1.6 1.5 2.2 1.6 1 3 2.3 4 4 1.1 1.6 1.7 3.4 1.8 5.4l.1 4c0 3.1-.7 6-2.3 8.7-1.2 2-2.8 3.5-4.7 4.7-.8.6-1.3 1.2-1.1 2.3v.6a11.8 11.8 0 01-3.5 9.4c-.9.7-1.6.4-1.8-.7l-.3-1.2zm-80 56c1 .3 1.5.2 1.8-.7l1-2.7c.3-1 0-1.4-1-1.5-.8-.2-1.7-.2-2.5-.2l-9.5.2c-3.6 0-7.2.2-10.8-.3l-1.2-.2c-.7 0-.9.4-.6 1l.4.8 1.6 2.8c1.8 3.8 2.3 8 2.4 12l-.1 4c0 1.1-.2 2.1 0 3.1l.8 7.9c.2 3 .1 6-.2 9a32.7 32.7 0 01-5.3 14.5c-4 5.8-6.8 12.2-8.1 19-.2 1-.2 1.8.3 2.6.4.8.5 1.6.5 2.4 0 1.4-.4 2.6-1 3.8-1 2-1.3 4-1.1 6 .3 2.6 1 5 2.5 7A8.7 8.7 0 0085 254c.8.1 1.7.3 2.4.6a8 8 0 013.3 2.6c2 2.5 3.2 5.4 4.3 8.3a85.9 85.9 0 014 15.9 9.5 9.5 0 006 7.6l6.4 3a82 82 0 0128 23.7c3.5 4.7 6.9 9.6 11 13.8 1.4 1.4 2.8 2.7 4.5 3.7 2 1.2 4 1.2 6-.1l3.5-2.6c1-.8 1.4-1.7 1.7-3 1.1-5 3-9.7 6-14 2.7-3.8 6.1-6.8 10.6-8.3 1.6-.5 3-1.3 4.5-2.2 2.1-1.5 4-3.3 5.9-5.2 2.6-2.8 5-5.8 7.1-9a123.2 123.2 0 0012.8-23.7c.3-.8.4-1.6.3-2.5l-.1-2c0-4.3-.2-8.8.1-13.2l.3-6.7c0-4.5-.2-8.9-1.2-13.2a36 36 0 00-3.9-10.5c-.6-1-1-2.1-1.5-3.2a111.5 111.5 0 01-7.4-25.8c-.7-4.2-1.6-8.3-3-12.2a43 43 0 00-6.1-11.3 24.3 24.3 0 00-7.9-7l-1-.4c-.5 0-.8.2-.8.7l.3 1.3c.7 2.8 1 5.6 1 8.5 0 1.6.4 1.8 2 1.5 1-.2 2-.2 3 .5.4.2.6.4.8.8.3.4 0 .8-.5.8-.3 0-.7-.2-1-.4-1-.4-2-.4-3 .1l-1.2.7-2.5 1.7c-3.5 2-7 1.9-10.4-.4l-2.4-1.6a9 9 0 00-5.3-1.6l-2 .2c-.5 0-1 .2-1.2-.3-.1-.4.2-.8.8-1v-.1c1-.1 2-.4 3-.3 1.6 0 3 .5 4.5 1.1 1 .5 1.5.3 1.9-.8l.1-.5c1-3.3 1.6-6.6 1.9-10 .1-1.9-.4-2.2-2.2-1.7a172.6 172.6 0 01-15 3.7c-.5.2-.6.6-.2 1l.3.3c1.2 1.1 2 2.4 1.9 4.2v1.3a2 2 0 01-.6 1.6c-1 1.1-2.3 2-3.7 2.8l-2.8 1.2c-.3 0-.5.2-.9.4.8.5 1.5.6 2.2.7a20.8 20.8 0 0113.4 6.8c.6.9 1.2 1.9 1 3l-1.2 3c-.2.4-.6.7-1 1a9.4 9.4 0 01-5.8 1.2c-1.7-.2-3-1.1-4.1-2.1-2.5-2-5.1-3.7-8.1-4.7l-5-1.5-2.7-1c-1.2-.7-1.5-1.5-1-2.7l.3-.6c.3-1.1 1-1.8 2.2-2l2.6-.6c.4 0 .8-.2 1.2-.4v-.2l-.8-.3-2.2-.6c-2-.5-4-1-5.9-2-1-.5-1.6-1.4-1.6-2.5v-2.2c0-.4.1-1 .3-1.3.3-.8 1-1 1.6-.8l.7.4c3.9 1.8 7.4 1.1 10.8-1.2l.6-.7-.6-.2h-2l-6.6-.1c-4.4-.2-8.6-1.1-12.7-2.9l-1.7-.7c-1-.4-1.5 0-1.5 1v1.8a24.6 24.6 0 003.1 10.8c.5 1 1 1 1.9.7l.6-.3c.6-.3 1.3-.4 2-.3.5 0 1 .3 1.4.6.3.1.4.5.2.8-.1.2-.4.3-.7.3l-.6-.1c-1.2-.3-2.1.1-2.9 1l-1 1.3a7.5 7.5 0 01-6.5 3.3c-1.4 0-2.9-.4-4.2-.8-1.4-.5-2.7-.4-3.7.8-.3.3-.7.6-1.2.5-.7-.3-1.2 0-1.7.5-.6.6-1.2 1.2-2 1.6-2.4 1.5-5 .5-6-2-.5-1.2-1.1-2.5-1.3-3.9-.2-2.3 0-4.4 1.2-6.5a16 16 0 015-5.1l4-2.7.7-.5c-.6-.5-1.2-.3-1.7-.3h-4.4a20 20 0 01-6.4-1.5 2 2 0 01-.8-.5c-.2-.2-.3-.6-.3-.8.1-.2.4-.4.7-.5h3.5l8.8.3c.7 0 1.3 0 2 .2 1 .3 1.2 1.2.5 2l-.5.6zm118 91.3c.1-1.4-.1-3.3-.4-5.2-.7-3.6-2-7-3.4-10.4l-5.2-12a67.6 67.6 0 01-4.2-13.3c-1.2-6.3-2.5-12.5-4.1-18.6-2-7.4-4.5-14.6-8-21.3a45.7 45.7 0 00-9-12.4 26.2 26.2 0 00-13.8-7c-.8 0-1 .4-.8 1.2a4.4 4.4 0 002.7 3 22 22 0 018 5.5c2.6 2.7 4.6 5.7 6.3 9 2.5 5 4.1 10.3 5 15.8.8 4.5 1.6 9 2.8 13.3a86.2 86.2 0 007 18.4c3 5.5 4.2 11.5 4.6 17.7.2 3.1 0 6.2-.1 9.3l-.3 9.6.3 8.7c0 1.2-.1 2.4-.6 3.5l-3.4 7.3c-2.1 4.4-4.5 8.7-7.2 12.9a74.5 74.5 0 01-11.9 15 24.6 24.6 0 01-8.8 5.5c-2.7.9-5 2.5-7 4.5-1.7 1.6-3 3.4-4.1 5.4a41.2 41.2 0 00-4.5 12c-.2 1-.5 1.7-1.2 2.3l-4.6 3.5a6.4 6.4 0 01-7 .4c-1.5-.8-2.8-1.9-4-3-3.5-3.3-6.4-7-9.2-10.9a92 92 0 00-21.1-21.6c-5-3.6-10.3-6.6-16-9-1.5-.5-2.8-1.4-4-2.7-1.6-1.8-2.4-3.9-2.8-6.2-.8-5.1-2-10.1-3.8-15-1-2.8-2.1-5.5-4-8a6.9 6.9 0 00-4.7-3c-1.6-.1-3-.7-4.3-1.7a12 12 0 01-3.9-4.9c-1.4-3-2-6.1-1.2-9.4l1.2-3.1c.8-1.7 1-3.3 0-5-.3-.4-.3-1-.4-1.6l.3-1.2c1.2-6.6 3.9-12.7 7.4-18.4 1-1.6 2.2-3.3 3-5 2.2-4.3 3-9 3.2-13.7v-6l-.6-4.8c-.2-1.4-.5-2.8-.4-4.2.2-2 .3-3.9.2-5.8l-.4-4.9c-.4-2.7-1.3-5.2-2.6-7.6-1.2-2.2-3-3.8-5-5l-.8-.6c-.1-.2-.2-.6-.1-.8 0-.2.4-.3.6-.3l1.1.2c3 1 6.1 1.7 9.3 1.8 4 .3 8.1 0 12.1 0 2.7-.2 5.4-.2 8 0 1.5.2 2.2-.3 2.8-1.5.3-.8.1-1.4-.7-1.7-1.6-.5-3.2-1-4.8-1.3-2.3-.4-4.5 0-6.5 1s-4.1 1.7-6.4 1.8c-2.7 0-5.4-.2-8-.7l-9.6-1.8a16 16 0 00-3.3-.3c-1.3 0-1.8.7-1.3 2l1.1 2.3 4.5 6.2c1.4 2 2.6 4.2 3.4 6.6.6 2 .8 3.9.5 5.9-.3 1.7-1 3.3-1.8 4.9l-3.8 7.3c-2 4.2-3.3 8.7-3.8 13.4-.3 2.5-.4 5-.6 7.6l-.4 5.2c-.4 4.4-1.3 8.7-2.5 13-1 3.5-2.2 7-3.2 10.7-1.3 4.6-2 9.3-1.6 14.2.4 4.1 1.4 8.2 2.7 12.1a119 119 0 0018.5 33.9c3 4 6.4 7.7 10.1 11.1l5.3 5c4.5 3.8 9.1 7.4 13.8 11l13.5 10.2c4.9 3.9 9.4 8.2 13.3 13 1.4 1.7 3 3.2 5 4.3 1.7 1 3.6 1.6 5.7 1.5 2.5-.1 4.8-1 7-2.2 3-1.6 5.5-3.7 7.9-6 2.6-2.4 5-5 7.3-7.7 4.7-5.6 9.1-11.6 13.4-17.7 5.1-7.1 10-14.3 15.2-21.4 3.3-4.7 6.8-9.3 10.3-14 3.7-4.9 7.1-10 9.6-15.6 2-4.5 3.3-9.1 3.3-14.5zM18.5 19.7c.7 1 1.6 1.5 2.5 2a34 34 0 008.5 3.6c3 .8 5.9 1.8 8.7 3.3a22.3 22.3 0 0112.4 25c-.3 1.6-.8 3.2-1.5 4.7-1 2.2-2.6 3.4-5 3.3a11 11 0 01-5-1.3l-4.3-2.5c-.4-.3-.8-.6-1.3-.4-.4.2-.6.5-.9.8-1.6 2-3.8 3-6.3 3.1-2.4.2-4.6-.3-6.7-1.3a4 4 0 00-.9-.4c-.5 0-.8.1-.7.7l.3 1c.4 1.3.9 2.6 1.2 4 .7 3.3.3 6.5-1.9 9.3l-3 3.2c-2 1.6-4.1 2.8-6.4 4-.4.1-1.1.3-1 1 0 .5.7.5 1.2.6l3.4 1c2.4 1 4.5 2.2 6.1 4.1 2.7 3.1 3.4 6.8 3.1 10.8-.3 3.9-2 7.1-4.8 9.8l-.5.7c-.3.5-.2.8.4 1h.6l2.1.3c4.3.6 7.2 3 9 6.7 1.6 3.2 2 6.6 1.7 10.1-.3 3.8-1.4 7.3-3 10.6l-.6 1.8c-.2.4 0 .6.5.5a5 5 0 001-.4c1-.4 2-1 3-1.3 1.8-.8 3.7-1.7 5.6-2.3 2.8-.9 5.6-1.5 8.5-1.3 3.8.3 6.7 2 8.6 5.3 1.4 2.2 2.6 4.5 3.8 6.8 3.2 6.3 7 12.3 11.4 17.8a82.4 82.4 0 0010.7 11c.5.1.8-.2.7-.6a20.7 20.7 0 00-1.2-1.7 182.3 182.3 0 01-24.7-37.6l-5.4-11.7-5.5-12c-.8-1.7-1.8-3.3-3-4.8-1.5-1.8-3.3-3.2-5.8-3.3a2 2 0 01-1-.3l-.3-.5c0-.2.3-.5.5-.6h.5c1.5-.2 2.8.2 4 .9 1.8 1 3 2.4 4.2 4a56 56 0 014.7 9c2.4 5.4 4.7 10.7 7.2 16a167.5 167.5 0 0025 39l1.2 1.3c.6.5 1.2.2 1.3-.6.1-.4 0-.9-.3-1.3l-2.7-3.5a202.1 202.1 0 01-14.6-20.8c-3.3-5.7-6.2-11.6-8.5-17.7l-6-16.3c-1.4-3.8-2.7-7.5-4.5-11a24.5 24.5 0 00-5.5-7.5c-3-2.5-6.2-3.5-10-2l-.6.3c-.4 0-.7 0-.8-.3 0-.2 0-.6.2-.8l1-.7c3-1.2 5.8-.9 8.6.6 2.3 1.2 4 3 5.6 5.1 2.3 3 3.9 6.3 5.2 9.8l6.4 17.5A118.3 118.3 0 0067.9 151a213.3 213.3 0 0012.7 17.3c.2.2.5.5.8.3.2-.2.3-.6.2-.8 0-.7-.2-1.3-.4-1.8-.8-2.3-2-4.2-3.4-6.1-2-2.7-3.9-5.3-5.5-8.2A174 174 0 0156.9 116l-7-22.3c-.5-1.4-.9-2.9-.9-4.4 0-.6-.3-1.2-.7-1.6L45.6 85c-2-2-4.3-3.7-7-4.9-1.7-.8-3.6-1.3-5.5-1.4a12 12 0 00-7.5 2.1l-1 .5c-.2.1-.6.1-.8 0-.4-.2-.4-.6-.3-1 0-.3.3-.7.5-1a21 21 0 0110.6-9c1.5-.5 3.1-.8 4.7-1.2.5 0 1 0 1.3-.8-.3-.3-.6-.8-1-1-.7-.8-1.6-1.5-2.4-2.2l-1.7-1.6c-.3-.3-.5-.8-.3-1.2.3-.4.7-.5 1.2-.4l1 .3c3.8 1 7.7 1.8 11.6 1.7 2.1-.1 4.1-.4 6-1.4l.8-.4c.3 0 .5 0 .7.2v.6a2 2 0 01-.6.7 9.8 9.8 0 01-3.7 1.4 25 25 0 01-8 .1l-3.1-.4c-.3 0-.9 0-1 .2-.3.4.1.8.4 1l2.2 2c.4.3.8.6 1 1 .6.7.3 1.4-.5 1.5l-1.3.2h-2c-3 .3-6 1.3-8.5 3-1.2.8-2.2 1.8-3.2 2.7-.3.3-.6.7-.5 1.2.6.3 1.1.1 1.7 0 2.5-.6 5-.4 7.6.4 3.7 1.1 6.8 3.3 9.6 6 2.6 2.4 5 5.2 7.3 8 .2.3.6.5 1 .8h.1v-.8c-.2-1.5-.5-2.9-.5-4.3-.2-3 .3-5.9 1.4-8.6 1-2.8 2.6-5.3 4.9-7.3 3.3-3 7.4-4.2 11.7-4.6 3.2-.3 6.4 0 9.5.5a57.2 57.2 0 0022.2-.6l9.7-2.6a21.5 21.5 0 0112.3.4c.7 0 1-.2 1-.9V63c0-2.2.8-4 2.5-5.3 1.2-1 1.1-1.4 0-2.3l-.3-.2a8 8 0 00-4.3-1.4 14 14 0 01-4.6-1 23 23 0 01-5-3l-4.2-3.2c-2-1.2-4.3-1.7-6.7-1.4-1.6.1-3.2 0-4.7-.7-1-.4-1.8-.9-2.6-1.4-1-.5-2.1-1-3.3-1-1.2 0-2.4.2-3.6.5-1.8.4-3.7.7-5.5.2-1.3-.3-2.5-.8-3.7-1.4a13 13 0 00-5.8-1c-2 .1-3.8.2-5.6-.4-1.7-.5-3.3-1-5-1.7-1.7-.7-3.5-1.2-5.3-1.6-.5 0-1-.1-1.4.4-.4.5 0 .9.1 1.3l.2.3 1.2 3.2c.2.4.2.8.2 1.1 0 .5-.7.7-1 .4a3 3 0 01-.5-1l-.8-1.9a21.4 21.4 0 00-6.4-8.8 30.3 30.3 0 00-7.4-4.2c-4-1.6-8.2-2.8-12.5-3.7-4.1-.8-8.1-2-12-3.8l-.7-.3zM75 68.5c-1.6 0-3.6.2-5.6.6a15.8 15.8 0 00-12 10 20 20 0 00-1.3 10.1c.3 2 1 3.8 2.1 5.4 1.4 2 3.3 3.4 5.4 4.5 2.8 1.5 5.7 2.3 8.8 2.9 2.5.5 5 .8 7.6 1l6.5.2 6.2-.3c3.6-.2 7.2-.8 10.7-1.7A34.1 34.1 0 00122 88.8c2-2.2 3.9-4.4 6-6.4 2.6-2.7 5.7-4.6 9.4-5.5l1.2-.3c.7-.3.9-.7.5-1.4l-.3-.4c-.7-1-1.3-2.2-1.7-3.5l-1-4-.7-1.3c-.6-.7-1.5-.6-2 .2l-.4.8-1.3 1.4c-.7.5-1.6.2-2.3-.3-.7-.4-1.3-.9-2-1.2-4-1.7-8-2.1-12.2-1.2l-8 2a56.7 56.7 0 01-23.1 1.7c-2.9-.5-5.7-.9-9-.9zm105.8 27.2h2.6c3.6-.2 7-.8 10.3-2.4 2.7-1.3 4.8-3.3 6.2-6 1.2-2.2 1.6-4.7 1.7-7.2v-3.4c-.1-2.6-1.1-4.8-2.9-6.7a16 16 0 00-5.5-3.5 41 41 0 00-14-3 96 96 0 00-11.9.3l-8 1c-1.3 0-2.3.4-3 1.6-.7 1.2-2 1.3-3.1.3l-.7-.6c-.6-.6-1-.5-1.3.4l-.2 1c-.3 2-.7 4-1.5 5.9l-.9 1.5c-.5 1-.3 1.4.7 1.7l1.1.2c2.8.5 5.2 1.6 7.4 3.3 1.7 1.3 3 3 4.2 4.7 1.2 1.7 2.3 3.5 3.6 5.1 1.8 2.4 4.1 4 7 4.8 2.6.9 5.4 1.1 8.2 1zM9.8 14.5l-.2.8.4 2.9c.2 1.3.5 2.6 1 3.8.7 1.3 1.7 2 3 2h2c1.8 0 2.9.7 3.4 2.4.3 1 .5 2.3.6 3.4.2 2.3.9 4.3 2 6.2 1.1 1.8 2.5 3.3 3.9 4.8l4 4.5c2 2.6 3.5 5.4 3.8 8.7.1.9.6 1.5 1.3 2l2.3 1.6c1.8 1.1 3.6 2 5.7 2.4 2.3.4 3.8-.4 4.7-2.3 1-2.2 1.4-4.6 1.6-7 .3-2.7 0-5.5-.9-8.1-1-3.4-2.8-6.2-5.3-8.6-3-2.9-6.6-4.8-10.6-6.1l-6.3-2A31.8 31.8 0 0113.4 18l-2.6-3c-.2-.4-.5-.7-1-.6zm99 86.8v.2l1.2.3c1.5.3 2.7 1.2 3.4 2.6l.7 1.8c.3.8.7 1 1.4.7l.7-.4c1.1-.8 2.3-1.5 3.3-2.4 2.6-2.4 4.7-5.3 6.6-8.4.6-1.1 1-2.2.8-3.5-.1-2.5.5-4.8 1.9-6.8 1-1.4 2.6-2.4 4.4-1 .8.6 1.2.4 1.6-.5l.5-1.3c.8-1.4 2.2-1.6 3.3-.5l1.6 2c.5.9.8 1 1.5.3 1.3-1 2.3-1 3.5.2.8.8 1.4 1.9 2 3 .2.4.3.9.6 1.3.3.5.7.5 1 0l.8-1.4c.4-1 1-2 1.8-2.7 1-.8 2-.7 2.9.3l.6 1 .4.8c.4.6.7.6 1.2 0l.2-.2a4 4 0 012.2-1.9c.6-.1.7-.5.4-1l-1-1.2c-2.3-2.4-5.1-3.7-8.3-4.3-3-.6-6.2-.7-9.3-.4a19 19 0 00-8.1 2.7c-2 1.2-3.7 2.9-5.3 4.5-2.1 2.2-4 4.5-6 6.8a34.7 34.7 0 01-7.6 6.4l-4 2.2-1 .8zm48-45.9c-.7 0-1.3 0-2 .2l-2.2.3c-.2.1-.5.3-.6.6 0 .2.2.5.4.6l1.1.7 1.6 1c1 .8 1.4 2 1.8 3.1.2 1 .7 1.4 1.8 1.4h.4l5-.6a76.9 76.9 0 0116.8-.5c3.2.2 6.4.8 9.6 1.7l2 .6c1 .3 1.5-.1 1.2-1.1a18.9 18.9 0 00-8.7-11.6c-1.1-.6-1.7-.5-2.6.4a15 15 0 01-2 1.7 16 16 0 01-10 2.6c-2.8 0-5.6-.4-8.3-.7l-5.3-.4zm-1.3 8.2c0-2-.9-3.5-2.6-4.5l-2.3-1a6.6 6.6 0 00-4.2-.4l-2.1.5-3.7.6c-1.1 0-2.2-.3-3.4-.6a9 9 0 00-5 0c-3.7 1-4.3 5-2.4 8l.2.2c.6.6 1.2.6 1.6-.2l.6-1.1a2.4 2.4 0 013.4-1c1.3.9 1.8 2 2.1 3.5l.6 2.4c.5 1.6 1 3.1 2.1 4.4 1.6 1.8 4 2.3 6 .7.6-.5 1-1.1 1.4-1.8 1-1.8 1.4-3.9 1.7-5.9.2-1 .3-2 .7-2.9.6-1.4 2.1-1.5 3-.3l.7 1c.5.5 1.1.4 1.4-.3l.2-1.3zm25-14c.4-.1 1-.1 1.2-.6.2-.5-.2-.9-.5-1.2l-.9-.8-3.4-2.2a15 15 0 00-9-2.3l-5.3.4c-1.4 0-2.8.2-4.3 0-3.3-.5-6.2-1.8-9-3.7-2.2-1.6-4.4-3.3-6.7-4.8a22 22 0 00-10.8-3.9c-2.2-.1-4.4.1-6.5.7-1 .3-1.2.9-.6 1.7 1.2 1.5 2.6 2.8 4.6 3.2l2 .2c1.5.2 3 .5 4.3 1.2 1.6.8 3 2 4.3 3.3a11 11 0 012.8 4c.3.7.8 1 1.5.8h.8l4.8-1a29 29 0 0113.6.6c4 1.2 7.8 2.3 11.8 3.3 1.7.5 3.5.7 5.3 1.1zM139.4 160l3.3-.2c3-.1 6-.5 9-1a151.5 151.5 0 0018-4.4c.7-.4 1-1.3.7-2.2-.2-.8-.7-1-1.7-.8h-.5c-2.7.8-5.3 1.2-8 1.5l-10.6 1c-3.1.3-6.2.8-9.3.5l-7.5-.4-8.6-1-2.6-.5c-.5-.1-1 0-1.3.5-.7 1-.4 2.3.8 2.9a41.3 41.3 0 0018.3 4zm31.4-15.7c-.3.7 0 1.2.1 1.8 1 3.8 1.4 7.6 1 11.5a49 49 0 01-1.2 8.5l-1 4c-.2.7 0 1.3.5 1.7l.8.5a8 8 0 007.8-.2 3 3 0 001.7-2.7 34.3 34.3 0 00-8.8-24.5c-.3-.3-.6-.4-1-.6zm-.5-126.6h-.3l-1.2 1.5-3 5c-1.6 2.3-3.2 4.7-4.3 7.3a17.7 17.7 0 00-1.7 8c0 1.4.7 2 2 2l5.1-.4c2-.2 4-.2 6 .3l1 .3c.9.1 1.3-.2 1-1 0-.7-.2-1.3-.5-1.8-.9-2-1.8-4-2.8-5.8-.8-1.8-1.3-3.7-1.5-5.7-.2-2.5 0-5.1.3-7.7 0-.6.2-1.4-.1-2zM110.7 44v.3l.8.7 2 1.3 4.3 3.2c2 1.5 4.2 2.5 6.7 2.7 1.6.1 3.1.3 4.5 1 1.2.6 2.2 1.4 3.1 2.2.7.6 1.5.8 2.3.9 1 0 2.2.2 3.2.5a11.3 11.3 0 007.4-.5c.4-.3.5-.6.3-1l-.4-.5a16 16 0 00-9.3-4.5c-2.7-.3-5.2-1-7.5-2.6l-3.5-2.3A11.8 11.8 0 00117 43l-5.5.7c-.3 0-.5.2-.8.3zm8.8-4.7v-.2c-2-.5-3.7-1.7-5.2-3.1l-1.9-1.7c-1-.9-2-1.2-3.3-1-1.2.1-2.3 0-3.4-.2a37 37 0 01-7.2-2.5 21.3 21.3 0 00-19.3.3c-1 .5-1 1 0 1.6l.2.1 2.7 2a6 6 0 003.7 1.5h3.4l8.7-1.4c1.9-.3 3.7-.4 5.6 0a9 9 0 014.6 1.9l1.4 1.4a7 7 0 004 2c1.5.2 3 .1 4.5-.2.5 0 1-.3 1.5-.5zM109 131v-1.1c0-1.4-.3-2.8-.3-4.3a32.5 32.5 0 013.4-16c.7-1.3.7-2.7 0-4.2-.7-1.7-2.4-2.4-4.2-1.6-1 .4-1.8 1-2.4 1.8-2 2.2-3 4.8-3 7.7l.1 3.7c0 2.9.5 5.7 1.6 8.3.7 2 1.7 3.6 3.2 5 .4.4.8.7 1.6.7zm10.2 18c-.8.3-1.2.8-1.6 1.2a26.9 26.9 0 00-5.6 15c0 2.3 0 4.4.2 6.6 0 1 .3 2.1.5 3.2.1.9.7 1.4 1.5 1.7 1.4.4 2.8.6 4.3.3 1.2-.2 2.3-.7 3.2-1.6.6-.6.7-1.3.4-2.1l-.7-1.4c-1-2-2-4.1-2.4-6.4l-.8-5.2v-4.4c.2-2 .7-3.8 1-5.8v-1zM170 10l-.4.5-.7 1.6a43.8 43.8 0 01-5 9c-1.4 2-3 3.7-4.9 5.2-1.6 1-3.3 2-5 2.7-2.7 1-5 2.4-7 4.5-.8 1-.8 1.6.2 2.4l3.3 2.4c1.8 1.3 3.7 2.2 5.8 2.7 1.4.4 2 0 2-1.5v-.1c0-1.2 0-2.4.2-3.6.4-2.7 1.5-5.2 2.9-7.5l5.9-9.6c1.3-2.3 2.4-4.6 2.8-7.2 0-.4.2-1-.1-1.5zM169 123.2c.8 0 .8-.1 1.4-.6 2.6-2.5 4.4-5.5 5.9-8.7 1.5-3.5 2.4-7.1 2.9-10.9.2-1.8-.5-3.1-2.1-4a7.3 7.3 0 00-3.6-.6c-1 0-2 .2-2.8.7-1.5.8-2 2-1.5 3.5l.4 1c.7 2 1.2 4 1.4 6 .2 2.7 0 5.4-.7 8-.3 1.6-.8 3.1-1.2 4.7l-.1 1zM144.2 175H141c-.8 0-1.6.2-2.3.4-.6.2-.6.7-.1 1l1 .5 2 .5c4.4 1.2 8.5 3.1 12 6.1l1.4 1c2.2 1.3 4.3.9 6.4-.2 1-.5 1.1-1.3.6-2.3l-1.1-1.5a18.5 18.5 0 00-7.7-4.5c-3-.9-6-1.1-9-1zm-101-38l-4.2.7c-1 .2-1.2.7-.6 1.6a13 13 0 011.8 7.3l-.2 3c0 .4-.2 1 .3 1.1.5.3.8-.2 1.1-.5l2-1.8c2.4-2.2 5-4 8.6-3.9.7 0 1-.4.7-1l-.7-1.5a9.8 9.8 0 00-2.8-3.2 11 11 0 00-6-1.8zm55.3 37l.4 2.6c.6 1.8 2.3 2.4 4 1.5 1-.6 1.8-1.4 2.2-2.5l.7-2.9c.3-1.8 1-3.4 2.5-4.5l1.3-1c.3-.4.6-.7.7-1.1l.3-3c0-.7-.4-1-1-1-.8 0-1.4.3-2 .7a43.4 43.4 0 00-6.4 4.8 9.2 9.2 0 00-2.7 6.4zm58-120h1.3l6.9.6c1.2.1 1.7-.2 2.2-1.3.5-1 .6-2 .6-3.1 0-1.6-.5-2.2-2-2.6l-4.4-1.2c-1.6-.4-3.3-.7-5-.6-.8 0-1.5.1-2 .9a7 7 0 00-.6 6.4c.2.6.7 1 1.4 1h1.5zm-54.7-24.2c.3.6.2.6.8.8 2 .9 4.2 1.6 6.5 1.2a5 5 0 014.2 1.4l3.1 2.7c1.3 1.1 2.7 1.8 4.4 1.3h4.3l1-.2-.7-1.1a93.9 93.9 0 00-3.5-3.6 15.2 15.2 0 00-6.5-3.1c-3-.8-6-1-9-.8-1.2.1-2.3.4-3.5.7-.5 0-1 .2-1.1.7zM7.3 99.6c.6.4.7.4 1.5.5l2.6.2c2 .2 3.9.6 5.6 1.6 1 .6 1.7.6 2.1-1v-.2c.6-2.4.5-4.9-.2-7.3a9.6 9.6 0 00-2.7-4.3c-.7-.8-1.3-.6-1.8.4l-1 2.4c-1.2 2.6-3 4.7-5.2 6.5-.4.3-.8.6-.9 1.2zm20.8 26.3l-.4-3.5C27 119.6 26 117 24 115c-.4-.3-.8-.8-1.4-.6-.6.2-.5.9-.5 1.3-.2.9-.2 1.8-.5 2.6-.5 1.9-1.6 3.5-3 5-.4.2-.7.6-1 1-.4.4-.2.8.3 1l1 .2c2.7.4 5 1.6 7.2 3.4l.6.4c.4.3.8.2 1-.3l.2-.7.2-2.5zM80.3 105v-.2l-1-.3-3.6-.5c-3.6-.4-7-1.1-10.3-2.4-1.5-.6-3-1.4-4.4-2.1l-1-.4c0 .7.4 1.2.7 1.6l4.8 5.5 3.5 3.4c.3.3.8.7 1.3.7 1.3.1 2.7-.1 3.6-1.3l1.4-1.6c1-1 2.4-1.5 3.8-1.9l1.2-.5zm52.8 60.4c.1.7.3 1 1 1.2l3.1 1.1c2 .7 4.2 1 6.4 1.1 2.5.1 5-.2 7.1-1.4 1-.5 1.8-1.1 2.5-2 .3-.5.4-1 .1-1.6-.5-1.1-1.4-1.6-2.5-1.6-.9 0-1.8 0-2.7.3-1.5.3-2.8 1-4.1 1.8-3.1 1.7-6.4 2.2-9.8 1.2l-1.1-.1zM84 105.2l1.5.8c1.2.7 2.3 1.5 3 2.6.9 1.2 1.3 1.2 2.4.3 2.3-2.2 6.3-3.2 9.5-1 1 .7 1.4.6 1.9-.4.8-1.7 2-3 3.3-4.4l.5-.7c-.9-.2-1.6 0-2.2.2-4 1-8.1 1.7-12.2 2l-5.8.1c-.6 0-1.2 0-2 .5zm23-62l-.9-1-2-2a7.7 7.7 0 00-4.5-2c-1.5-.3-3-.1-4.4 0-3.8.6-7.6 1.2-11.5 1.2-.4 0-1 0-1.3.4 0 .5.4.6.7.8 1.5.8 3.1 1.1 4.8.9l4.2-.8c2-.4 4 0 5.7 1l1.3.8c2.2 1.3 4.6 1.3 7 1 .3 0 .5-.2.8-.3zM74.8 111c0 .4.2 1 .4 1.4.4 1 .9 1 1.5.2.4-.6.9-1 1.5-1.3 1.8-.7 5.1-.6 6.7 1.9l.5.6c.2.4.6.5 1 .4 1.2-.4 2.1-1.9 1.7-3.1a6 6 0 00-3-3.6c-1.9-1-3.9-1-5.9-.5-1.2.3-2.2.7-3.1 1.6-.7.6-1.3 1.3-1.3 2.4zm59.6-18.4c-.1-2.2-.7-4.2-1.5-6l-.6-.9c-.6-.5-1.1-.6-1.7-.1l-1 1c-.6 1.1-1 2.3-1.2 3.6-.1 1-.2 2.1.2 3.1a129 129 0 002.6 5.3c.3.7 1 .9 1.5 0 1-2 1.5-4 1.7-6zm6.2 1.6a21.6 21.6 0 00-2-9.5c-.2-.5-.6-1-1-1.3-.4-.4-1-.3-1.2.3-.2.4-.4 1-.4 1.4l-.2 5.2.3 2 2 6.9.2.7c.3.5.7.5 1 0l.5-1c.6-1.6.8-3.2.8-4.7zM18 70c0-1-.4-1.3-1.2-1.1l-2 .4c-2 .3-4 0-6-.4l-1.4-.3c-.6 0-.8.3-.5.8l.8 1c1.4 1.9 2.7 3.8 3.2 6.2.3 1 .9 1.2 1.8.6 1.8-1.3 3.3-2.8 4.4-4.7.5-.8.8-1.7.9-2.5zm144 18l-.3.2v1c0 1 .2 2 .4 3 .4 2.2 1 4.5 2.3 6.5a11 11 0 001.8 2c.5.5 1 .3 1.3-.2l.2-.4a5 5 0 012.8-2.6l1-.5c.4-.3.5-.5.1-.8l-.9-.5c-2.8-1.1-5-3-6.8-5.4l-1.3-1.7-.7-.5zm-20 1.4c0 .7.2 1.5.4 2.3.3 1.4.8 2.7 1.2 4l1.1 3.4c.4.9 1 1 1.5.2 1-1.3 1.5-2.8 1.3-4.3 0-2-.6-3.8-1.3-5.6a11 11 0 00-1.6-3.3c-.3-.4-.7-.7-1.3-.6-.6.1-.8.6-.9 1l-.5 2.9zm12.6 2.6c0-1.6-.3-3.2-.8-4.6-.2-.6-.4-1.2-1-1.2-.7-.1-1 .5-1.4 1-1 1.8-1.7 3.7-2.2 5.7v1c.6 1.5 1 3 1.7 4.3.3.9.9 1 1.5.2l.3-.3c1.1-1.9 1.8-4 2-6.1zm-54 19c0-.4-.4-1.2-1-1.7a5.1 5.1 0 00-4.3-1c-2.2.4-3.8 1.5-4.7 3.6-.3.7-.1 1.4.4 2 .6.7 1 .6 1.5-.2l.3-.5c1-1.8 3.1-2.4 5-1.2l1 .7c.3.2.6.3 1 0 .5-.4.8-1 .9-1.7zM83 37.4l-.6-.7-1.6-1.4a8.6 8.6 0 00-8.6-1.8c-.4.2-1 .2-1 .8-.1.6.4.7.8 1 2.7 1.4 5.5 2.1 8.5 2.4.8 0 1.6.3 2.5-.3zm-57 22.4c1.3 0 3-.5 4-1.3a5 5 0 002-2.4c.4-1 0-1.5-1-1.6H29l-2.1-.8c-1-.3-1.4 0-1.5 1l-.3 1.8-.7 2c-.2.8 0 1.2.8 1.3h.5zM125.6 39v.3l1.3.7c1.4.8 2.6 1.7 3.7 2.9l2.5 2.7a6 6 0 003.6 1.8c.3 0 .9.2 1-.3.1-.2-.2-.7-.4-1-.8-.8-1.5-1.9-2-3-.6-1-1.3-1.7-2.2-2-1.5-.7-3-1.2-4.5-1.6-1-.3-2-.3-3-.5zm30.7 53.1l1 4.5c.2.7.8.7 1.2.2.3-.3.5-.8.7-1.2.6-1 1.2-2.3 1.2-3.5-.1-1.4-.5-2.7-.8-4 0-.5-.3-1-.9-1-.5 0-.7.3-1 .7l-.2.6a57 57 0 00-.9 2.3l-.3 1.4zM121 41.6c.3.2.6.5 1 .6 1.6.8 3.1 1.7 4.6 2.7 1.3 1 2.6 1.7 4 2.4.3.2.8.3 1.3.4.3.1.5 0 .6-.4-1-1-1.9-2.2-2.8-3.3a8.2 8.2 0 00-7.4-3c-.5 0-1 0-1.3.6zm-9.1 0l-1-.7c-1.2-.7-2.3-1.6-3.3-2.6a6.8 6.8 0 00-4.2-2.1c-.7-.1-1.4-.3-2 .2v.3l.8.5c1.6.7 2.8 1.8 4 3 .9 1 1.9 1.6 3.1 1.8.8.2 1.7.3 2.6-.4zm-37.4-3.2l-.6-.5-1.7-.9c-1.7-.8-3.4-1.6-5.4-1.7-.6 0-1.3 0-1.9.2-.2 0-.5.3-.5.5s.2.4.4.6l.4.2c1 .4 2.2 1 3.3 1.3 1.2.4 2.5.6 3.8.8.7.1 1.5.1 2.2-.5zm57.7 0v.2l1.1.7c1.5.7 2.7 1.7 3.4 3.2.4.8 1 1.6 1.5 2.2a10 10 0 002 1.6c.2.1.7.2.9 0 .2-.1.2-.6.1-.9-.2-.7-.5-1.4-1-1.9-.8-1-1.8-2-2.9-3-1-.9-2.2-1.6-3.6-2-.5-.2-1-.3-1.5-.1zm54.5 59.1c0-.2-.2-.3-.5-.4h-1.4c-1.4.2-2.7.4-4 .2-.5 0-1 0-1.5.2-.5 0-.6.4-.4.8.5 1 1.5 1.2 2.4.6l.6-.3c.5-.3 1.1-.3 1.7.1l.7.5.8.2c.5 0 1.6-1.3 1.6-1.9zM108 175.8v.3c.1.7.3.9 1 .6l1.5-.9c.2-.2.5-.6.5-.9 0-.9-.2-1.8-.4-2.7-.1-.6-.7-.7-1.1-.3-.4.3-.7.7-.8 1l-.7 3zm78-73.7c0 .8.3 1.3.8 1.4.6.2.8-.3 1-.7.5-1 1-1.9 1.3-2.8.1-.4.1-.8-.2-1-.4-.3-.8-.1-1 .1l-1.7 2.1-.3 1zm-5 .5l.4 1c.2.5.5.6.8.2.6-.6 1-1.3 1.3-2.2 0-.5-.2-1-.6-1.2-.4-.2-.8-.1-1.2.3-.4.4-.6 1-.6 1.9zm12.3-3v-.4c-.2-.2-.3-.6-.5-.7-.2 0-.6 0-.7.2-.3.2-.5.6-.5.9v1.9c0 .2.3.4.4.5.2 0 .5-.2.6-.4l.8-2zm-1-3.5c-.7-.2-1.3 0-1.8.2-.3.1-.5.3-.4.6 0 .4.4.5.7.4.7-.2 1-.6 1.5-1.2zm-22 44.1c.6-.8.7-2 .3-2.7-.4.8-.8 1.6-.3 2.7zM122.7 39.1v-.2h-1v.2h1z" fill="#000"></path><path d="M109.4 160l.5-.7c.7-.8.5-1.6-.6-1.9l-2-.2-8.8-.3h-3.4c-.3 0-.6.3-.7.5 0 .2.1.6.3.8l.8.5c2 .8 4.2 1.3 6.4 1.5h4.4c.5 0 1-.2 1.6.3l-.7.5-3.8 2.7a16 16 0 00-5 5.1c-1.2 2-1.5 4.2-1.3 6.5.2 1.4.7 2.7 1.3 4 1 2.4 3.6 3.4 6 2 .8-.5 1.4-1.1 2-1.7.5-.5 1-.8 1.7-.6.5.2.9 0 1.2-.4 1-1.2 2.3-1.3 3.6-.8 1.4.4 2.9.8 4.3.8 2.7 0 4.9-1 6.4-3.3l1.1-1.4c.8-.8 1.7-1.2 2.9-.9l.6.1c.3 0 .6-.1.7-.3.2-.3.1-.7-.2-.8-.4-.3-1-.5-1.4-.6-.7-.2-1.4 0-2 .3l-.6.3c-1 .3-1.4.2-1.9-.7l-1.5-3.4c-.8-2.4-1.4-4.8-1.5-7.4 0-.6-.2-1.2-.1-1.9 0-1 .6-1.3 1.5-1l1.7.8c4 1.8 8.3 2.7 12.7 2.9l6.6.1h2l.6.2-.6.7c-3.4 2.3-7 3-10.8 1.1l-.7-.3c-.7-.2-1.4 0-1.6.8a5 5 0 00-.3 1.3v2.2c0 1.1.6 2 1.6 2.5 1.9 1 3.9 1.5 5.9 2l2.2.6c.3 0 .5.2.8.3v.2l-1.2.4-2.6.6c-1.2.2-2 .8-2.2 2l-.3.6c-.5 1.2-.2 2 1 2.6.9.4 1.8.8 2.8 1l4.9 1.6c3 1 5.6 2.7 8 4.7 1.3 1 2.5 1.9 4.2 2 2 .3 4 0 5.9-1.2.3-.2.7-.5.9-.9.4-1 .9-2 1.1-3 .3-1.1-.3-2.1-1-3a20.8 20.8 0 00-13.4-6.8c-.6 0-1.3-.2-2-.7l.8-.4 2.8-1.3c1.4-.6 2.6-1.6 3.7-2.8.4-.4.6-1 .6-1.5v-1.4c0-1.7-.7-3-2-4.1l-.2-.3c-.4-.4-.3-.8.2-1l1.6-.4c4.6-.9 9-2 13.4-3.3 1.8-.5 2.3-.2 2.2 1.7a50 50 0 01-2 10.5c-.4 1-1 1.3-2 .8a11 11 0 00-4.4-1.1l-3 .3c-.6.3-1 .7-.8 1 .2.6.7.5 1.1.4l2-.2a9 9 0 015.4 1.6l2.4 1.6a9.4 9.4 0 0010.4.4l2.5-1.7 1.2-.7c1-.5 2-.5 3 0l1 .3c.5 0 .8-.4.5-.9l-.7-.7c-1-.7-2-.7-3.2-.5-1.6.3-1.8 0-1.8-1.5a35.2 35.2 0 00-1.4-9.8c0-.5.2-.8.8-.7a24.3 24.3 0 019 7.4 43 43 0 016 11.3c1.4 4 2.3 8 3 12.2a111.2 111.2 0 009 29c1.8 3.2 3 6.8 3.8 10.5 1 4.3 1.3 8.7 1.1 13.2 0 2.2 0 4.4-.2 6.7-.3 4.4-.2 8.8-.1 13.3l.1 2c.1.8 0 1.6-.3 2.4a117.5 117.5 0 01-12.8 23.7 74.1 74.1 0 01-7.1 9 36 36 0 01-6 5.2 18 18 0 01-4.4 2.2c-4.5 1.5-8 4.5-10.6 8.3-3 4.3-4.9 9-6 14a4.6 4.6 0 01-1.7 3l-3.5 2.6c-2 1.3-4 1.3-6 .1-1.7-1-3.1-2.3-4.5-3.7-4.1-4.2-7.5-9.1-11-13.8a82.2 82.2 0 00-34.5-26.7 9.5 9.5 0 01-5.9-7.6 85.9 85.9 0 00-4-15.9c-1-3-2.3-5.8-4.3-8.3a8 8 0 00-3.3-2.6c-.7-.3-1.6-.5-2.4-.6a8.7 8.7 0 01-5.6-3.6c-1.5-2-2.3-4.4-2.5-7a11 11 0 011.1-6c.6-1.2 1-2.4 1-3.8a5 5 0 00-.5-2.4c-.5-.8-.5-1.6-.3-2.5 1.3-7 4.1-13.3 8-19 3-4.5 4.7-9.4 5.3-14.6.4-3 .5-6 .3-9-.2-2.7-.6-5.3-.9-7.9v-3l.2-4c-.1-4.2-.6-8.3-2.4-12.1l-1.6-2.8-.4-.8c-.3-.6 0-1 .6-1l1.2.1c3.6.6 7.2.5 10.8.4l9.5-.2c.8 0 1.7 0 2.5.2 1 .1 1.3.5 1 1.5l-1 2.7c-.3.8-.8 1-1.8.7zm31.6 70.2c-.2-1.1-.2-2.3-.5-3.5-1-4-3.7-6.6-7-8.7-1.4-1-3-1-4.7-.3l-1 .3c-4.7 1.5-8 4.7-10.3 9-1 1.7-1.5 3.6-2 5.5-.3 1.2-.5 2.4-.5 3.7 0 4 2.3 7.3 6.2 8.4 3.3 1 6.7 1.3 10.1.4 4.3-1.1 7.2-3.6 8.4-8l.8-3.1.5-3.7zm23 8c-1.2-.1-2.5 0-3.8.4a14 14 0 00-10 11c-.5 1.8-.4 3.7.4 5.5.4 1 .8 2 1.3 2.8.5 1 1 1.8 1.8 2.5 1.5 1.5 3.4 2.4 5.4 3 2.4.7 4.8 1 7.2.6 3.6-.5 6.1-2.4 7.9-5.5 1.2-2 1.8-4.1 2-6.4.2-2.1 0-4.2-1-6.2l-1-2.4a8.5 8.5 0 00-4.1-4.1c-1.9-1-3.9-1.3-6.1-1.3zm-1.5-15.8c1.3 0 2.6-.2 4-.6 1.8-.7 3-2 3.6-4 .2-.7.3-1.3.7-2 .7-1.3.8-2.8.6-4.3a23 23 0 00-3.2-8.8c-2-3.2-5-5-8.8-5a28.3 28.3 0 00-12.2 3.2c-1.4.8-2.4 2-2.9 3.6l-.8 2.2a5.9 5.9 0 00-.4 4c.6 2.4 1.9 4.3 3.7 5.9a27 27 0 0015.7 5.8zM104.9 199c.1 1.3.1 2.6.4 4a7 7 0 006.1 5.9c2.8.3 5.5.2 8.2-.5 2-.6 4-1.6 5.4-3.3a10 10 0 002.4-6.5v-4.2a8.5 8.5 0 00-6-8 15 15 0 00-9.8.1 7.9 7.9 0 00-5.3 4.9c-1 2.4-1.3 5-1.4 7.6zm91-2.4c0-1.5-.3-3.2-1-4.9l-2.2-4a14 14 0 00-6.3-6.2 8.9 8.9 0 00-10.4 1.8c-1.8 1.6-2.1 3.5-1.1 5.5 1 2.2 2 4.5 3.5 6.5s2.2 4.4 2.3 6.8c.1 2.7 1.4 4.8 2.6 7 .6 1 1.6 1.4 2.7 1.3 1 0 1.8-.3 2.6-.8a14 14 0 004.5-4.3c1.7-2.5 2.8-5.2 2.8-8.7zm11.5 37.8l-.4-2.6-1.2-3.5a7.6 7.6 0 00-2.2-3.4l-3-2.3c-3.2-2-6.5-3.6-10.1-4.6a9 9 0 00-3.8-.4c-1.4.2-2.2 1-2.5 2.3-.3 2.1-.3 4.3.2 6.4l1.4 4.9c.8 2.8 2 5.4 4 7.6a12 12 0 007.9 4.1c5.6.5 9.7-3.3 9.7-8.5zM125 269l-.3-3.4c-.4-2.4-1.2-4.7-2.8-6.7a6 6 0 00-5-2.4 17 17 0 00-5.5 1c-1.6.6-3 1.5-3.6 3.1l-1 2c-.5.9-.8 1.8-.6 2.8a26.5 26.5 0 006.1 14c1.1 1.4 2.4 2.5 4 3.2 1.5.6 3 .7 4.3-.4.6-.6 1-1.3 1.5-2l.8-1.7c1.6-2.9 2-6 2.1-9.5zm45.3 27.4a15 15 0 007.5-1.6c3.2-1.7 4.8-4.4 4.6-8l-.6-3c-.8-3.5-2.8-5.9-6-7.4a14 14 0 00-6.7-1.5c-1.4 0-2.8.2-4 .8-3.6 1.8-5.2 4.8-5.5 8.6 0 2 .4 3.8 1 5.6.5 2.1 1.8 3.7 3.7 4.9 2 1.2 4.1 1.7 6 1.6zm-26.4 3.2l3.5-.4c3.7-.8 5.5-3.7 5.4-7 0-1.4-.3-2.8-1-4l-1-2c-.9-2.3-2.4-4.2-4.3-5.7a13.5 13.5 0 00-5.3-2.9c-2.9-.7-5.7-.2-8.4 1.2a6.8 6.8 0 00-3 3.1 9.4 9.4 0 000 8.1l1 2.1c1 2.9 3 4.7 5.6 5.9 2.4 1 4.9 1.5 7.5 1.6zm-38.4-70c0-3.6-2-6.1-5.1-7-1.5-.6-3-.8-4.6-.9-1.2 0-2.3.3-3.2 1.1-.6.5-1.2 1-1.7 1.7-1.6 2-2.7 4.2-3.5 6.6a10.7 10.7 0 002.7 12c2.2 2 4.8 3.2 7.8 3.6 2.9.3 4.7-1.3 5.4-3.4.4-1.2.6-2.5.8-3.8l.8-6.1.6-3.9zm36.8 42.2l2-.3c1.9-.4 3.5-1.4 5-2.7a3 3 0 001.1-2.6c0-.8-.2-1.7-.5-2.5a18.6 18.6 0 00-5.2-7.2 12 12 0 00-2.5-1.7 3.4 3.4 0 00-3.8.3l-.7.5c-1.4.8-2.1 2-2.4 3.6a17.4 17.4 0 00.5 8c1.1 2.9 3.5 4.5 6.5 4.6zm54.8-19.7c-2.2-.1-5.2 1.4-7.2 3.6a16.6 16.6 0 00-3.2 6c-.8 2.2-1.3 4.6-1 7 .5 3.2 2.5 5.7 5.7 6.3 2.2.4 4.3 0 6.3-.9a16 16 0 008.6-10.5c.7-2.6.5-5.2-1-7.5-1.8-2.7-4.4-4-8.2-4zm-16.5-24.7c-.3-.3-.5-.5-.8-.5h-1l-2.2 1.2c-1 .7-2 1.2-3 1.4-.9.1-1.6.5-2.4.8-.3.2-.6.5-.4.9.1.4.5.5.9.3l1.2-.3c2-.6 3.3-.2 4.6 1.4l1.5 2.2c.1.3.3.5.6.6.4.3.9 0 .8-.5 0-.4-.1-.8-.4-1.1-.6-1-1.2-2-2-2.8-.8-1-.7-1.7.4-2.2l1.5-.7.7-.7zm-31.3 80.7c1.2-.3 2.3.2 3.3.9.5.4 1 .8 1.7 1 .3.3.8.3 1.2.4.2 0 .5-.2.5-.3l-.1-.7-.7-.5c-.4-.3-1-.5-1.4-.9a7.3 7.3 0 00-6-1.5c-1.3.3-2.7 0-4-.8-.2-.1-.5-.3-.8-.3-.5-.1-.8.3-.6.7.1.4.4.7.7.9 1 .7 2.1 1 3.4 1h2.8zm-14-115.4h-.2c-.5 0-.9.2-1 .6 0 .4.4.6.7.8l.8.2c.8.4 1 .8.9 1.6v.5c-.1.7.3 1 .9.7l.6-.4a4.3 4.3 0 014-.7c.3.1.6.2 1 .1.1 0 .4-.1.5-.3 0-.2 0-.5-.2-.7-.1-.2-.4-.4-.7-.5-.8-.4-1.7-.4-2.6-.3-1 .2-2 0-2.7-.8-.6-.5-1.3-.7-2-.8zm54.6-15.2v-.3c-.6-.8-1-1.6-1.7-2.3-.4-.5-1-.6-1.6-.4a18 18 0 01-4.2 1.4l-.5.6c0 .4.3.6.6.7h1l2.3-.7c1.2-.4 1.6-.3 2.3.7l.5.6c.1.1.3.3.5.3.5.2.8 0 .8-.6zm-91.5 32.7c-.9 0-1.8.2-2.2.5-.3.3-.6.6-.4 1 .2.4.6.4 1 .3l1.3-.2a6 6 0 014.2 1.5l.6.5c.2.1.5.3.7 0 .3-.2.4-.5.2-.8a4 4 0 00-.8-1 7.8 7.8 0 00-4.6-1.8zm76.3-2.1l.4 1.2c0 .2.4.4.6.3.2 0 .4-.3.5-.5v-1c.1-1.3.7-2.3 1.8-3l.8-.6c.2-.2.3-.5.2-.7 0-.1-.3-.3-.5-.3l-1 .1c-1.7 1-2.6 2.3-2.8 4.5zm-15.2 25.4c.1 0 .5-.2.5-.4.1-.2 0-.5-.2-.7-.2-.2-.6-.5-.9-.5-2-.5-3.8 0-5.6 1-.2.3-.4.6-.4.9.1.4.5.4.9.4l1.4-.5c1.2-.5 2.4-.7 3.7-.3l.6.1zm27 19.6c-2 0-3.4.7-4.7 1.9l-.5 1c-.1.5.3.8.7.6.3 0 .5-.2.8-.5 1-1 2.1-1.4 3.5-1.5l1-.2c.4-.2.5-.8 0-1l-.8-.3zm-33.1 64.3c0 .2.2.5.4.6l.7-.1.8-1c.6-.7 1.2-.9 2-.4l.6.2c.3.2.7.3 1-.1.3-.4 0-.7-.2-1l-.3-.3c-.8-.7-1.7-1-2.7-.6-1.2.5-1.9 1.4-2.3 2.7zm13-48c-1.4-.2-3.2 1.3-3.3 2.7 0 .2.1.5.3.7l.6-.1.8-.9c.7-.9 1.3-1 2.3-.5l.4.2c.4.2.7.2 1-.1.3-.3.1-.7-.1-1-.6-.6-1.2-1-2-1zM94.3 164.7c.3.6.8.7 1.4.6.5-.2 1-.3 1.4-.6.8-.5 1.5-1 2.5-1.1.2 0 .5-.3.5-.5 0-.3-.1-.6-.3-.8l-.7-.2c-.7 0-1.2.3-1.7.6A7 7 0 0195 164c-.4 0-.7.3-.7.8zm17 86c-.6 0-1.4.1-2 .6-.3.3-.5.6-.3 1 .2.3.6.3 1 .2 1.3-.5 2.4-.3 3.4.6.3.3.7.5 1 .2.4-.3.2-.7 0-1.1a2 2 0 00-.4-.5 4 4 0 00-2.7-1zm8.9.9c-.2 0-.6 0-.8.2-.6.2-1 .5-1.2 1l.1.8c.1.2.5.1.7.1l.2-.1c.8-.5 1.6-.4 2.4 0l1.1.5c.4.1.7.1 1-.2.1-.3 0-.7-.3-.9-.9-.7-2-1.3-3.2-1.4zm46.1-61.6c-.6.2-1.2.3-1.7.6-.5.2-.6.5-.5 1 0 .3.4.4 1 .3 1-.3 2-.3 2.8 0 .4.2.7.2 1 .2.4 0 .7-.1.8-.5 0-.4-.2-.7-.5-.8l-2.9-.8zM126.1 163c.7 0 1-.4.8-.9a1 1 0 00-.3-.4 5 5 0 00-2.4-1.1c-.6-.1-1.2-.2-1.7.2-.3.2-.6.5-.4 1l.7.3h.5c.7 0 1.4.2 2 .5l.8.4zm37.7-3c-1.1 0-2 .4-2.6 1-.3.3-.4.7-.2 1 .2.3.6.2.9.2l.4-.2c.8-.5 1.5-.5 2.3-.2.4 0 .8.1 1-.3.2-.2 0-.7-.3-1-.5-.4-1-.6-1.5-.5zM96 188c.4.3.8.2 1.2-.1.7-.6 1.5-1 2.4-.8.4 0 .9 0 1-.5 0-.5-.4-.8-.8-1h-.3c-1.4-.2-2.5.3-3.3 1.3-.3.3-.4.7-.2 1.1z" fill="#FEED01"></path><path d="M227.5 251.3c0 5.4-1.3 10-3.3 14.5-2.5 5.7-6 10.7-9.6 15.7-3.5 4.6-7 9.2-10.3 13.9L189 316.9c-4.2 6-8.7 12-13.4 17.6a94.6 94.6 0 01-7.3 7.8c-2.4 2.3-5 4.3-7.9 6-2.2 1.1-4.5 2-7 2-2 .2-4-.4-5.7-1.4-2-1-3.6-2.6-5-4.3-4-4.8-8.4-9-13.3-13-4.4-3.5-9-6.8-13.5-10.3-4.6-3.5-9.3-7-13.7-11-1.9-1.5-3.6-3.2-5.4-4.8A102.9 102.9 0 0177 279.8a119 119 0 01-8.6-19.4c-1.4-3.9-2.4-8-2.8-12.1-.4-4.9.3-9.6 1.6-14.2l3.2-10.7c1.2-4.3 2.2-8.6 2.5-13l.4-5.2c.2-2.6.3-5.1.6-7.6.5-4.7 1.7-9.2 3.8-13.4l3.8-7.3c.8-1.6 1.5-3.2 1.8-5 .3-1.9.1-3.9-.5-5.8-.8-2.4-2-4.5-3.4-6.6l-4.5-6.2-1.1-2.3c-.5-1.3 0-2 1.3-2 1.1 0 2.3 0 3.3.3L88 151c2.6.5 5.3.8 8 .7 2.3-.1 4.4-.8 6.4-1.7 2-1 4.2-1.5 6.5-1 1.6.2 3.2.7 4.8 1.2.9.3 1 .9.7 1.7-.6 1.3-1.3 1.7-2.7 1.5-2.7-.2-5.4-.1-8 0-4 0-8.1.3-12.2 0-3.2-.1-6.2-.8-9.3-1.8l-1-.2c-.3 0-.7.1-.7.3-.1.3 0 .6.1.8.2.3.5.4.7.5 2.2 1.3 3.9 3 5.1 5.1 1.4 2.4 2.2 5 2.6 7.6l.4 5c.1 1.8 0 3.8-.2 5.7-.1 1.4.2 2.8.4 4.2l.5 4.9c.1 2 .2 4 .1 5.9-.1 4.7-1 9.4-3.1 13.7l-3 5a54 54 0 00-7.5 18.4c-.1.4-.3.8-.2 1.3 0 .5 0 1.1.3 1.5 1 1.7.8 3.3 0 5-.4 1-.9 2-1.2 3.1-.7 3.3-.2 6.4 1.2 9.5a12 12 0 004 4.9c1.2.9 2.6 1.5 4.2 1.7 2 .3 3.5 1.4 4.7 3a29 29 0 014 8 84 84 0 013.8 14.9c.4 2.3 1.2 4.5 2.8 6.2 1.2 1.3 2.5 2.2 4 2.8a83.7 83.7 0 0137.1 30.6c2.8 3.8 5.7 7.5 9.2 10.8 1.2 1.1 2.5 2.2 4 3a6.4 6.4 0 007-.3c1.6-1.1 3-2.4 4.6-3.6.7-.6 1-1.4 1.2-2.2.9-4.2 2.3-8.3 4.5-12 1.1-2 2.4-3.9 4-5.5 2-2 4.4-3.6 7.1-4.5 3.4-1.1 6.3-3.1 8.8-5.5 4.8-4.4 8.5-9.6 12-15 2.6-4.1 5-8.5 7.1-13 1.2-2.3 2.3-4.8 3.4-7.2.5-1.1.6-2.3.6-3.5l-.3-8.7.3-9.6c.2-3 .3-6.2 0-9.3a41.8 41.8 0 00-4.5-17.7c-3.2-5.8-5.2-12-7-18.4a123 123 0 01-2.8-13.3 54.1 54.1 0 00-5-15.7 36.7 36.7 0 00-6.3-9 22 22 0 00-8-5.6 4.4 4.4 0 01-2.7-3c-.3-.8 0-1.2.9-1.1a26.3 26.3 0 0113.7 7c3.7 3.4 6.6 7.7 9 12.3 3.5 6.8 6 14 8 21.3 1.6 6.1 2.9 12.4 4.1 18.6a68 68 0 004.2 13.4l5.2 12c1.4 3.3 2.7 6.7 3.4 10.3.3 1.9.5 3.8.5 5.2z" fill="#FF65BE"></path><path d="M18.5 19.7l.8.3c3.8 1.9 7.8 3 12 3.8 4.2.9 8.4 2 12.4 3.7 2.7 1.1 5.2 2.4 7.4 4.2 3 2.4 5 5.4 6.4 8.8l.8 2 .5.9c.4.3 1 .1 1-.4l-.1-1-1.3-3.3-.2-.3c-.1-.4-.4-.8-.1-1.3.4-.5 1-.5 1.4-.4 1.9.4 3.7 1 5.4 1.6a72 72 0 005 1.7c1.7.6 3.6.5 5.5.4 2-.1 4 .3 5.8 1l3.7 1.4c1.9.5 3.7.2 5.6-.2 1.1-.3 2.3-.6 3.5-.5 1.2 0 2.3.4 3.3 1l2.6 1.4c1.5.7 3.1.8 4.7.7 2.4-.3 4.6.2 6.7 1.4l4.3 3.1a23 23 0 005 3.1c1.4.6 3 .9 4.5 1a8 8 0 014.4 1.4l.2.2c1.2.8 1.2 1.3 0 2.3a6.2 6.2 0 00-2.4 5.3v1c0 .6-.4.8-1 .8l-.8-.2a21.5 21.5 0 00-11.6-.2l-9.7 2.6a51.4 51.4 0 01-22.2.5c-3.1-.5-6.3-.7-9.4-.4a20 20 0 00-11.8 4.6c-2.3 2-3.9 4.5-5 7.3-1 2.7-1.4 5.6-1.3 8.5 0 1.5.4 3 .5 4.4v.7l-.2.1-.9-.8c-2.3-2.8-4.7-5.6-7.3-8.1a24.8 24.8 0 00-9.6-6c-2.5-.7-5-.9-7.6-.3-.5.1-1 .3-1.6 0-.2-.5.1-.9.4-1.2 1-.9 2-1.9 3.2-2.7 2.6-1.7 5.4-2.7 8.5-3h2c.4 0 .9 0 1.3-.2.8-.2 1-.8.6-1.5l-1-1-2.2-2c-.3-.3-.7-.6-.5-1 .2-.2.7-.2 1-.2 1 0 2 .3 3 .4 2.8.4 5.5.5 8.1 0 1.4-.3 2.6-.7 3.7-1.5.3-.2.5-.4.6-.7v-.6a.9.9 0 00-.6-.2c-.3 0-.6.2-.9.4a13 13 0 01-6 1.3c-4 .2-7.8-.5-11.6-1.6l-1-.3c-.5 0-1 0-1.1.4-.3.4-.1.9.2 1.2l1.7 1.6 2.5 2.1 1 1c-.3.8-.9.8-1.4 1-1.6.3-3.2.6-4.7 1.1a21 21 0 00-10.6 9l-.5 1c-.1.4 0 .8.3 1h.9c.3 0 .6-.3 1-.5a12 12 0 017.4-2.1c2 0 3.8.6 5.6 1.4 2.6 1.2 4.9 2.9 7 5l2.6 2.6c.4.5.7 1 .7 1.7 0 1.5.5 3 1 4.4l6.9 22.3a173.9 173.9 0 0015.4 35.7c1.6 2.9 3.6 5.5 5.5 8.2 1.4 1.9 2.6 3.8 3.4 6l.5 1.8c0 .3 0 .7-.3.9-.2.2-.5 0-.8-.3a118.2 118.2 0 01-25.8-44.1l-6.4-17.5c-1.3-3.5-3-6.8-5.1-9.8-1.6-2-3.4-4-5.7-5.2a9.6 9.6 0 00-8.5-.5L28 92c-.2.2-.2.6-.2.8.1.3.5.4.8.3l.7-.2c3.7-1.6 7-.6 9.9 1.9 2.4 2 4 4.7 5.5 7.4 1.9 3.6 3.2 7.3 4.5 11l6 16.4c2.3 6.1 5.2 12 8.6 17.6 4.3 7.3 9.3 14.2 14.5 20.9l2.8 3.5c.3.4.3.8.3 1.3-.1.8-.7 1-1.3.6l-1.3-1.3a176.5 176.5 0 01-25-39l-7.2-16c-1.3-3-2.7-6.1-4.7-9a13 13 0 00-4.1-4c-1.3-.7-2.6-1-4-1h-.6l-.5.7.4.5.9.3c2.5 0 4.3 1.5 5.9 3.3 1.2 1.5 2.2 3.1 3 4.8l5.4 12 5.4 11.7A167.7 167.7 0 0078.4 174l.9 1 .3.7c.1.5-.2.8-.6.6l-1-.7a82.3 82.3 0 01-9.8-10.2c-4.4-5.5-8.1-11.5-11.4-17.8l-3.7-6.8c-2-3.3-4.9-5-8.6-5.3-3-.2-5.8.4-8.6 1.3-2 .6-3.8 1.4-5.7 2.2l-2.8 1.4c-.3.2-.7.4-1 .4-.5.1-.7-.1-.6-.5l.7-1.8c1.5-3.4 2.7-6.8 3-10.6.3-3.5-.2-7-1.7-10.1a11.3 11.3 0 00-9-6.7l-2.2-.3H16c-.6-.2-.7-.5-.4-1l.6-.7c2.7-2.7 4.4-6 4.7-9.8.4-4-.4-7.7-3-10.8-1.7-1.9-3.8-3.2-6.1-4l-3.5-1c-.5-.2-1.1-.2-1.2-.8-.1-.6.6-.8 1-1a29 29 0 009.5-7.1c2-2.8 2.5-6 1.8-9.4l-1.2-4-.2-.9c-.1-.6 0-.8.7-.7l.8.4c2.1 1 4.4 1.5 6.7 1.3a8.7 8.7 0 006.3-3.2l.9-.7c.5-.2 1 0 1.4.4l4.3 2.5a11 11 0 005 1.3c2.4 0 4-1.1 5-3.3.7-1.5 1.1-3 1.4-4.7 1.3-7.2-.2-13.7-5-19.3a25 25 0 00-7.4-5.7 43.2 43.2 0 00-8.7-3.3c-3-.8-5.8-2-8.5-3.6a7 7 0 01-2.4-2zm78.2 38h3.4c2 0 4-.3 6-1.1l1-.7c.8-.6.7-1.5-.2-2l-1.9-.4-8.7-1c-3.2-.3-6.3-1-9.2-2.4L82.4 48c-1.9-.8-3.8-1.5-5.9-1.7-2.8-.2-5.6.4-8.1 1.7l-3.6 1.7a20.8 20.8 0 01-11.6 2c-.2 0-.4 0-.6.2-.6.2-.8.6-.4 1.2.2.4.6.7 1 1l3.2 1.9a72.1 72.1 0 0017.7 5.5c3.4.5 6.6.2 9.7-1.3 2.4-1.2 4.8-2 7.4-2.2l5.5-.2z" fill="#07B8BA"></path><path d="M75 68.5c3.4 0 6.2.4 9 .9a51.5 51.5 0 0023.3-1.6c2.6-.8 5.3-1.5 8-2 4-1 8.1-.6 12 1.1.8.3 1.4.8 2.1 1.2.8.5 1.6.8 2.3.3.5-.3.9-.9 1.3-1.4l.4-.8c.5-.8 1.4-1 2-.2l.7 1.4 1 4c.4 1.2 1 2.3 1.7 3.4l.3.4c.4.7.2 1.1-.5 1.4l-1.2.3c-3.7.9-6.8 2.8-9.5 5.5-2 2-4 4.2-5.9 6.4a34.1 34.1 0 01-18.6 12.4c-3.5 1-7 1.5-10.7 1.7-2 .1-4.1.3-6.2.3l-6.5-.3a53 53 0 01-7.6-1c-3-.5-6-1.3-8.8-2.8-2.1-1-4-2.5-5.4-4.5a11.8 11.8 0 01-2-5.4 20 20 0 011.3-10c2.1-5.5 6.2-8.7 11.9-10 2-.5 4-.7 5.6-.7zm0 11.6c.5 0 .8-.4.7-.8l-.5-.9c-.8-1.2-.7-1.6.3-2.5.2 0 .3-.2.4-.3l.5-.6c.3-.5 0-1-.6-.9-.3 0-.5.2-.7.3l-.8.6c-.8.5-1.4.4-2-.3l-.8-.8c-.3-.3-.6-.4-1-.2-.3.3-.2.6 0 1l.6 1c.5.9.5 1.3-.3 2l-1 1c-.1.2-.3.5 0 .8.2.4.6.3 1 .1l1.2-.8c.6-.4 1.2-.3 1.7.2l.5.6.8.5zm36.2-6.8c0-.5-.2-.7-.6-.7-.3 0-.6.2-.8.4l-.7.8c-.7.7-1.2.8-2 .2a28 28 0 00-1-.5c-.3-.3-.7-.4-1 0-.2.3 0 .7.2 1l.8.8c.7.6.8 1.1.3 2l-.7 1c-.2.3-.4.7 0 1 .2.3.6.2 1-.2l.8-.8c.7-.8 1.3-.8 2.1-.3l.8.5c.3.2.7.3 1 0 .2-.4 0-.8-.2-1l-.7-.7c-.7-.8-.7-1.2-.2-2l.5-.7.4-.8zM75.5 86.2c0-.4 0-.9-.5-1-.4 0-.6.2-.8.5l-.3.9c-.5 1.2-1 1.5-2.2 1.1-.4 0-.8-.2-1.1-.1-.3 0-.7.2-.7.4-.1.2.1.6.4.7.4.3.9.4 1.3.6.9.3 1.1.8 1 1.7l-.2 1.1c0 .3.2.6.4.7.3.2.6 0 .8-.3l.4-1c.4-1 .9-1.2 2-1l1 .2c.5.1.9 0 1-.4 0-.4-.2-.7-.6-.9l-1.1-.4c-1-.3-1.2-.8-1-1.9l.2-1zm21 2.2c0-.5-.3-.7-.6-.7l-1.4.4c-1.2.4-1.6.2-2.2-1l-.6-.9c-.2-.2-.5-.4-.8-.2-.2.2-.3.5-.3.8 0 .4.2.7.3 1 .4 1.2.2 1.6-.9 2.1l-1 .5c-.4.3-.5.6-.4 1 .2.4.6.4 1 .3l.6-.2c1.6-.6 1.9-.5 2.6 1l.4.5c.2.1.6.3.8.2.2 0 .3-.5.3-.7 0-.4-.2-.7-.3-1.1-.2-1 0-1.4.8-1.8L96 89l.5-.6zm-3.7-6.8c.7 0 1-.4.6-1l-.7-.9c-.6-.7-.6-1.2 0-1.8 0-.1 0-.2.2-.3l.6-.7c.3-.5.3-1 0-1.1-.4-.4-.7-.1-1 .1l-.7.7c-1 1-1.7.6-2.4 0l-.8-.6c-.3-.2-.7-.3-1 0v.9l.7.8c.9 1 .9 1.4 0 2.4l-.7 1c-.2.2-.2.6 0 .8h.9l.8-.7c1-1 1.5-1 2.6-.1l.9.5zm19.9 8.3c.5 0 .8-.2.6-.8l-.2-.4c-.3-.6-.3-1.2 0-1.8l.2-.7c0-.4-.2-.6-.6-.5a1 1 0 00-.5.2c-.7.5-1.4.6-2.2.2a1 1 0 00-.9 0c-.3.2-.2.7 0 1 .6.7.6 1.4 0 2.2 0 .3-.2.7.2.9.2.1.6.1.8 0 .8-.6 1.5-.7 2.4-.3h.2zM180.8 95.7c-2.8.1-5.6-.1-8.3-1-2.8-.8-5.1-2.4-6.9-4.7-1.3-1.7-2.4-3.5-3.6-5.2a17.4 17.4 0 00-11.5-8l-1.2-.2c-1-.3-1.2-.7-.7-1.6l.9-1.6c.8-1.8 1.2-3.8 1.5-5.8l.2-1.1c.2-.9.7-1 1.3-.4l.7.6c1 1 2.4 1 3.1-.3.7-1.2 1.7-1.6 3-1.7 2.7-.2 5.3-.6 8-.9a53.5 53.5 0 0112-.2c4.7.3 9.4 1 13.9 2.9 2 .9 4 2 5.5 3.5 1.8 2 2.8 4 2.8 6.7l.1 3.4c0 2.5-.5 5-1.7 7.3a13.5 13.5 0 01-6.2 6 26.2 26.2 0 01-10.3 2.3h-2.6zm3.9-12.4c0-.4-.4-.8-.8-.7a5 5 0 00-1 .4c-1.2.4-2 .4-2.5-.9-.1-.3-.3-.6-.6-.8a1 1 0 00-.7-.3c-.4 0-.4.4-.4.7l.2.8.3.6c.2.8 0 1.3-.6 1.7l-1 .5-.6.5c-.1.2-.2.5-.1.7 0 .1.3.3.5.3l1-.2 1-.4c.5-.2.9 0 1.2.4l.5.8.5.6c.2.2.5.3.7.2l.3-.6-.3-1.2c-.3-1 0-1.4.8-1.9l1-.6.6-.6zM166 73.6l-.6-1c-.6-1-.5-1.4.3-2.2l1-.9c.1-.2.3-.6 0-.9-.3-.3-.6-.2-.9 0l-1 .7c-1 .6-1.4.6-2.2-.3l-.4-.4-.5-.4c-.2 0-.7-.2-.8 0a1 1 0 00-.1.7c0 .4.3.7.5 1 .7 1 .7 1.4-.2 2.2l-.6.5-.5.7.1.7c.2.1.5.2.7 0 .4-.1.8-.4 1.3-.7.9-.6 1.3-.6 2 .2l1 .8c.5.3.9 0 .9-.7zm26-1.5c-.7 0-1 .3-.7.8l.7 1c.8 1 .8 1.5 0 2.4a7 7 0 00-.8.9c-.1.3-.2.6 0 .9.4.3.7.2 1 0l1-.8c.8-.8 1.3-.8 2.2 0l.5.4c.3.2.7.4 1.1 0 .3-.1.2-.6-.2-1 0-.3-.3-.4-.4-.6-.7-.8-.7-1.2 0-2l.8-1.1c.2-.3.3-.7 0-1-.3-.2-.6-.1-1 0 0 .2-.2.4-.4.5l-.8.7c-.5.4-1 .4-1.5 0l-1-.8-.6-.3zm-8-2.2c0-.5-.4-.8-.9-.6l-1.2.9c-.8.7-1.4.7-2.3 0l-1-.7c-.2-.2-.5-.2-.7 0a1 1 0 000 .8c0 .3.3.5.5.8 1 1.3 1 1.4 0 2.8-.2 0-.3.2-.4.3-.1.2-.3.4-.3.7-.1.4.2.7.6.7l.7-.4.6-.6c1-.8 1.4-.8 2.4 0l.7.5c.3.2.6.3.9 0 .2-.3.1-.6 0-.9l-.7-.8c-.6-.8-.6-1.3.1-2.2l.6-.6.3-.7zm-11.6 11.7l-.6-.5h-.7c-.7.2-1.2 0-1.7-.5-.2-.3-.5-.8-1-.6-.5.3-.4.8-.3 1.2 0 .7-.1 1.2-.7 1.5l-.3.4-.2.7c.1.2.5.3.7.4l.7-.1c.4 0 .8 0 1.1.4.2 0 .3.2.5.3.2.2.5.5.8.2.2-.2.3-.5.3-.8-.1-.8.2-1.4.8-1.8l.6-.8zm22.9 5.6c.7 0 .9-.3.7-.8 0-.1 0-.3-.2-.4-.3-.5-.3-1 0-1.6.1-.4.5-.9 0-1.3-.4-.4-.8 0-1.2.3-.5.3-1 .4-1.6 0l-.7-.1c-.5 0-.9.3-.6.8.6.9.7 1.7.1 2.7-.3.5.3 1 .8.8.9-.6 1.8-.9 2.7-.4z" fill="#FFFDDF"></path><path d="M9.7 14.5c.6-.1.9.2 1.1.5.9 1 1.7 2.1 2.7 3 3.5 3.7 7.9 6.2 12.7 7.9l6.3 2c4 1.3 7.6 3.2 10.6 6a21.6 21.6 0 014.6 23.7c-1 2-2.4 2.8-4.7 2.4-2-.3-4-1.3-5.7-2.4L35 56a2.9 2.9 0 01-1.3-2c-.3-3.3-1.7-6.1-3.8-8.7l-4-4.5c-1.4-1.5-2.8-3-3.9-4.8-1.1-1.9-1.8-4-2-6.2-.1-1.1-.3-2.3-.6-3.4-.5-1.7-1.6-2.5-3.4-2.5h-2c-1.4 0-2.3-.6-3-1.9-.5-1.2-.8-2.5-1-3.8l-.4-2.9.1-.8zM108.7 101.3l1-.8 4-2.2c2.8-1.8 5.3-4 7.5-6.4l6.1-6.8c1.6-1.6 3.2-3.3 5.3-4.5a19 19 0 018.1-2.7c3.1-.3 6.2-.2 9.3.4a14.8 14.8 0 019.3 5.5c.3.5.2.8-.4 1a4 4 0 00-2.2 1.9l-.2.3c-.5.5-.8.4-1.2-.1l-.4-.9-.6-.9c-.8-1-2-1.1-3-.3-.7.8-1.3 1.7-1.7 2.7l-.8 1.4c-.3.5-.7.5-1 0l-.7-1.3a9.9 9.9 0 00-2-3c-1.2-1.2-2.1-1.2-3.4-.2-.7.6-1 .5-1.6-.2l-1.5-2c-1.1-1.2-2.5-1-3.3.4l-.5 1.3c-.4.9-.8 1-1.6.5-1.8-1.4-3.5-.4-4.4 1a11 11 0 00-1.9 6.8c.1 1.3-.2 2.4-.8 3.5-1.9 3-4 6-6.6 8.4-1 .9-2.2 1.6-3.3 2.4l-.7.4c-.7.3-1.2 0-1.4-.7l-.7-1.8a4.6 4.6 0 00-3.4-2.6l-1.2-.3v-.2z" fill="#FF65BE"></path><path d="M156.8 55.4l5.3.4c2.7.3 5.5.6 8.3.7 3.6.2 7-.5 10-2.6.8-.5 1.4-1.1 2-1.7 1-1 1.5-1 2.6-.4a18.8 18.8 0 018.7 11.6c.3 1-.1 1.4-1.2 1.1l-2-.6c-3.2-1-6.4-1.5-9.6-1.7a80 80 0 00-16.9.5l-4.9.6h-.4c-1 0-1.6-.4-1.8-1.4a5.6 5.6 0 00-1.9-3l-1.5-1.1-1.1-.7c-.2-.1-.4-.4-.4-.6 0-.2.4-.5.6-.6l2.2-.3 2-.1z" fill="#07B8BA"></path><path d="M155.5 63.6c0 .4 0 .9-.2 1.3-.3.7-.9.8-1.4.2l-.6-.9c-1-1.2-2.5-1.1-3.1.3-.4 1-.5 2-.7 3-.3 2-.7 4-1.7 5.8-.3.6-.8 1.3-1.4 1.8-2 1.6-4.4 1-6-.7-1-1.3-1.6-2.8-2.1-4.4l-.6-2.5c-.3-1.3-.8-2.6-2-3.3a2.4 2.4 0 00-3.5.9l-.6 1.1c-.4.7-1 .8-1.6.2l-.2-.2c-1.9-3-1.3-7 2.5-8a9 9 0 015 0c1 .3 2.2.6 3.3.6 1.3 0 2.5-.4 3.7-.6l2-.5c1.5-.3 3-.2 4.3.4l2.3 1c1.7 1 2.7 2.4 2.6 4.5z" fill="#FFFDDF"></path><path d="M180.5 49.6c-1.8-.4-3.6-.6-5.3-1.1-4-1-7.9-2.1-11.8-3.3a29 29 0 00-13.6-.6l-4.8 1h-.8c-.7.1-1.2-.1-1.5-.8a11 11 0 00-2.8-4c-1.3-1.2-2.7-2.5-4.3-3.3-1.4-.7-2.8-1-4.3-1.2l-2-.2c-2-.4-3.4-1.7-4.6-3.2-.6-.8-.3-1.4.6-1.7 2.1-.5 4.3-.8 6.5-.7a22 22 0 0110.8 4c2.3 1.4 4.5 3 6.8 4.7 2.7 2 5.6 3.2 9 3.7 1.4.2 2.8 0 4.2 0l5.4-.4a15 15 0 019 2.3l3.4 2.2.8.8c.3.3.7.7.5 1.2-.2.5-.8.5-1.2.6z" fill="#07B8BA"></path><path d="M139.4 160a41.2 41.2 0 01-18.3-4.1c-1.2-.6-1.5-1.8-.8-3 .3-.4.8-.5 1.3-.4l2.6.4c2.8.4 5.7.8 8.6 1 2.5.3 5 .3 7.5.5 3.1.3 6.2-.2 9.3-.5l10.5-1a48 48 0 008-1.4l.6-.1c1-.2 1.5 0 1.7.8.3.9 0 1.8-.7 2.2l-.7.2a154 154 0 01-17.2 4.2c-3 .5-6 .9-9 1l-3.4.2z" fill="#000"></path><path d="M168.7 151.5a48.5 48.5 0 01-8.6 1.5c-3.5.2-7 .7-10.5 1-3.1.3-6.2.8-9.3.5l-7.5-.4-8.6-1-2.6-.5c-.5-.1-1 0-1.2.4a49.1 49.1 0 005.4 2.6c4.4 1.5 9 2 13.6 2l3.3-.1c3-.1 6-.6 9-1a151.9 151.9 0 0018.4-4.8c-.3-.3-.7-.3-1.4-.2z" fill="#FF65BE"></path><path d="M170.8 144.3l.9.6a35.4 35.4 0 018.8 24.5 3 3 0 01-1.7 2.7 8 8 0 01-8.6-.3c-.5-.4-.7-1-.5-1.6l1-4a50 50 0 001.3-8.6c.3-4 0-7.7-1.1-11.5-.2-.5-.4-1.1-.1-1.8z" fill="#FFFDDF"></path><path d="M170.3 17.7c.3.6.2 1.4 0 2-.3 2.6-.4 5.2-.2 7.7.2 2 .7 3.9 1.6 5.7a235.8 235.8 0 013.3 7.5c.2.9-.2 1.3-1 1-.4 0-.7 0-1-.2-2-.5-4-.5-6-.3l-5.2.4c-1.3 0-2-.5-2-2 0-2.8.5-5.4 1.7-8 1.2-2.6 2.7-5 4.2-7.4l3.1-5 1.2-1.5.3.1zM110.7 44c.3-.1.5-.3.8-.3l5.5-.7c2.8-.2 5.3.8 7.6 2.4l3.5 2.3c2.3 1.5 4.8 2.3 7.5 2.6a15.9 15.9 0 019.7 5c.2.4.1.8-.3 1l-.7.3c-2.2.7-4.5.9-6.8.2-1-.3-2-.4-3-.5-1 0-1.7-.3-2.4-.9-1-.8-2-1.6-3-2.2-1.5-.7-3-.9-4.6-1-2.5-.2-4.7-1.2-6.7-2.7l-4.2-3.2-2-1.3-1-.7.1-.3zM119.5 39.3l-1.5.5c-1.5.3-3 .4-4.5.2a7 7 0 01-4-2l-1.4-1.4a9.1 9.1 0 00-4.6-2c-1.9-.3-3.7-.1-5.6.1l-8.7 1.4h-3.4a6 6 0 01-3.7-1.5l-2.7-2-.3-.1c-.8-.6-.8-1.1.1-1.6a21.4 21.4 0 0119.3-.3c2.4 1 4.7 2 7.2 2.5 1.1.2 2.2.3 3.4.2 1.2-.2 2.4.1 3.3 1 .6.6 1.3 1 1.9 1.7 1.5 1.4 3.1 2.6 5.2 3.1v.2z" fill="#FF65BE"></path><path d="M109 130.9c-.8 0-1.2-.3-1.6-.7a13 13 0 01-3.2-5c-1-2.6-1.6-5.4-1.6-8.3v-3.7c0-3 .9-5.5 2.9-7.7.6-.8 1.5-1.4 2.4-1.8 1.8-.8 3.5-.1 4.3 1.7.6 1.4.6 2.8-.1 4.2a32.3 32.3 0 00-3.4 16l.3 4.2v1.1zM119.2 149v1c-.3 2-.8 3.9-1 5.8v4.4l.8 5.2a25.3 25.3 0 003 7.8c.4.8.3 1.5-.3 2.1-1 1-2 1.4-3.2 1.6-1.5.3-2.9 0-4.3-.3-.8-.3-1.4-.8-1.5-1.7-.2-1-.5-2.1-.5-3.2-.2-2.2-.3-4.3-.2-6.5a27 27 0 015.6-15.1c.4-.4.8-.9 1.6-1.2z" fill="#FFFDDF"></path><path d="M170 10c.4.5.2 1 .2 1.4-.4 2.6-1.5 5-2.8 7.2l-6 9.6a21 21 0 00-2.8 7.5l-.3 3.6c0 1.5-.5 2-1.9 1.6-2-.5-4-1.4-5.8-2.7l-3.3-2.4c-1-.8-1-1.4-.1-2.4 1.9-2 4.2-3.5 6.8-4.5 1.8-.8 3.5-1.6 5.1-2.7 2-1.5 3.5-3.2 5-5.2a43.8 43.8 0 005.6-10.6c0-.2.2-.3.4-.5z" fill="#07B8BA"></path><path d="M169 123.2v-1c.5-1.5 1-3 1.3-4.6.6-2.6.9-5.3.7-8-.2-2-.7-4-1.4-6l-.4-1c-.5-1.6 0-2.7 1.5-3.5.8-.5 1.8-.7 2.8-.7 1.2 0 2.4 0 3.6.7 1.6.8 2.3 2 2 4-.4 3.7-1.3 7.3-2.8 10.8a26 26 0 01-6 8.7c-.5.5-.5.5-1.3.6z" fill="#FFFDDF"></path><path d="M144.2 175c3-.2 6 0 9 .9 3 .8 5.5 2.4 7.7 4.5l1.1 1.5c.5 1 .4 1.8-.6 2.3-2 1.1-4.2 1.5-6.4.2l-1.4-1a29.7 29.7 0 00-14-6.6 4 4 0 01-1-.4c-.5-.4-.5-.9 0-1a11 11 0 012.4-.5h3.2zM43.1 136.9c2.2.1 4.3.5 6 1.7 1.3 1 2.2 2 3 3.3l.6 1.4c.2.7 0 1.1-.7 1.1-3.5 0-6.2 1.7-8.6 3.9l-2 1.8c-.3.3-.6.7-1.1.5-.5-.2-.3-.7-.3-1l.2-3c0-1.9 0-3.7-.7-5.4l-1-2c-.7-1-.6-1.4.5-1.7l4.1-.6zM98.5 174c0-2.6 1-4.7 2.7-6.5a29.6 29.6 0 016.4-4.8c.6-.4 1.2-.7 2-.7.6 0 1 .3 1 1l-.3 3c0 .4-.4.7-.7 1l-1.3 1a6.8 6.8 0 00-2.5 4.6l-.7 2.9c-.4 1-1.2 1.9-2.2 2.5-1.7 1-3.4.3-4-1.5l-.4-2.6z" fill="#FF65BE"></path><path d="M156.4 54H155c-.7 0-1.2-.4-1.4-1a7 7 0 01.6-6.4c.5-.8 1.2-1 2-1 1.7 0 3.4.3 5 .7l4.4 1.2c1.5.4 2 1 2 2.6 0 1-.1 2.1-.6 3.1-.5 1.1-1 1.4-2.2 1.3l-6.9-.5h-1.4zm6.5-5.7c-.9 0-1.5.6-1.6 1.5 0 .8.7 1.5 1.5 1.5 1 0 1.6-.6 1.6-1.5s-.6-1.5-1.5-1.5z" fill="#FFFDDF"></path><path d="M101.8 29.7c.2-.5.6-.6 1-.7 1.3-.3 2.4-.6 3.6-.7 3-.2 6 0 9 .8a15.2 15.2 0 017.9 4.4 90 90 0 012 2.3l.9 1-1.2.3h-3.9-.3c-1.8.5-3.1-.2-4.4-1.3l-3.1-2.7a5 5 0 00-4.2-1.4c-2.3.4-4.4-.4-6.5-1.2-.6-.2-.5-.2-.8-.8z" fill="#07B8BA"></path><path d="M7.3 99.6c0-.6.5-.9.9-1.2 2.2-1.8 4-4 5.2-6.5l1-2.4c.5-1 1-1.1 1.8-.4a9.6 9.6 0 012.7 4.3c.7 2.4.8 4.9.2 7.4v.1c-.4 1.6-1 1.6-2.1 1-1.7-1-3.7-1.4-5.6-1.6l-2.6-.2c-.8 0-1-.1-1.5-.5zM28.1 125.9l-.2 2.5-.2.7c-.2.5-.6.6-1 .3-.3 0-.4-.3-.6-.4-2.1-1.8-4.5-3-7.3-3.4l-.9-.2c-.6-.2-.7-.6-.3-1l1-1c1.4-1.5 2.5-3 3-5 .3-.8.3-1.7.5-2.6 0-.4 0-1 .5-1.3.6-.2 1 .3 1.4.6 2 2 3.1 4.5 3.7 7.3l.4 3.5zM80.3 105l-1.2.5c-1.4.4-2.7 1-3.8 2L74 109c-1 1.2-2.2 1.4-3.6 1.3-.5 0-1-.4-1.3-.7l-3.5-3.4-4.8-5.5A3 3 0 0160 99l1 .4c1.5.7 2.9 1.5 4.4 2a41 41 0 0010.3 2.5l3.7.5.9.3v.2zM133.1 165.4l1 .1c3.5 1 6.8.5 9.9-1.2 1.3-.7 2.6-1.5 4.1-1.8a12 12 0 012.7-.3c1.1 0 2 .5 2.5 1.6.3.5.2 1.1-.1 1.6-.7.9-1.6 1.5-2.5 2a12.4 12.4 0 01-7 1.4 28.5 28.5 0 01-9.6-2.2c-.7-.3-.9-.5-1-1.2zM84 105.2c.7-.5 1.3-.5 1.9-.5l5.8-.2a58 58 0 0012.2-1.9c.6-.2 1.3-.4 2.2-.2l-.5.7a17 17 0 00-3.3 4.4c-.5 1-1 1-2 .4-3.1-2.2-7.1-1.2-9.4 1-1 1-1.5 1-2.3-.3-.8-1.1-1.9-2-3.1-2.6l-1.5-.8z" fill="#FF65BE"></path><path d="M107 43.2l-.8.3c-2.5.3-4.9.3-7-1l-1.4-.8a7.8 7.8 0 00-5.7-1l-4.2.8c-1.7.2-3.3-.1-4.8-.9-.3-.2-.7-.3-.7-.8.4-.4.9-.4 1.3-.4 3.9 0 7.7-.6 11.5-1.1 1.5-.2 3-.4 4.5-.2 1.6.3 3.1 1 4.3 2.1l2.1 2 .8 1z" fill="#000"></path><path d="M74.9 111c0-1 .6-1.7 1.3-2.3.9-.9 2-1.3 3.1-1.6 2-.4 4-.5 6 .5 1.4.8 2.3 2 2.9 3.6.4 1.2-.5 2.7-1.7 3-.4.2-.8 0-1-.3l-.5-.6c-1.6-2.5-4.9-2.6-6.7-2-.6.3-1.1.8-1.5 1.4-.6.8-1.1.7-1.5-.2l-.4-1.4zM134.5 92.7c-.2 2-.7 4-1.7 6-.5.9-1.2.7-1.5 0-1-1.8-1.8-3.5-2.6-5.3-.4-1-.3-2-.2-3.1.2-1.3.6-2.5 1.3-3.6.2-.4.5-.7.9-1 .6-.5 1.1-.4 1.7 0l.6 1c.8 1.8 1.4 3.8 1.5 6zM140.7 94.3c0 1.5-.2 3.1-.8 4.7l-.5 1c-.3.5-.7.5-1 0a3 3 0 01-.2-.7l-2-7c-.2-.6-.3-1.3-.3-2 0-1.7 0-3.4.2-5.1 0-.5.2-1 .4-1.4.3-.6.8-.7 1.2-.3.4.4.8.8 1 1.3l1.2 3.3c.5 2 .8 3.9.8 6.2z" fill="#FFFDDF"></path><path d="M18 70c-.1.8-.4 1.7-1 2.5-1 2-2.5 3.4-4.3 4.7-.9.6-1.5.5-1.8-.6-.5-2.4-1.7-4.3-3.2-6.1l-.8-1.1c-.3-.5 0-.8.5-.8l1.3.3c2 .4 4 .7 6.1.4.7 0 1.3-.3 2-.4.8-.2 1.2 0 1.2 1.1zM162 88l.6.6 1.3 1.7c1.9 2.3 4 4.2 6.8 5.4.3 0 .6.3.9.5.4.3.3.5 0 .8l-1 .5a5 5 0 00-2.9 2.5l-.2.5c-.4.5-.8.7-1.3.2-.7-.6-1.3-1.2-1.8-2-1.3-2-2-4.3-2.3-6.6l-.4-2.8v-1.1l.2-.1z" fill="#FF65BE"></path><path d="M142 89.4l.4-2.8c.1-.5.3-1 .9-1.1.6 0 1 .2 1.3.6a21.5 21.5 0 013 8.8c0 1.6-.4 3.1-1.4 4.4-.6.8-1.2.7-1.5-.2l-1-3.4c-.5-1.3-1-2.6-1.3-4l-.5-2.3zM154.6 92c0 2.2-.8 4.2-2 6.1 0 .1 0 .2-.2.3-.6.7-1.2.7-1.5-.2l-1.6-4.2v-1.1c.4-2 1.1-4 2.1-5.7.3-.5.7-1.1 1.4-1 .6 0 .8.6 1 1.2.5 1.4.8 3 .8 4.6zM100.7 111c-.1.7-.4 1.3-1 1.7-.3.3-.6.2-1 0l-1-.7a3.4 3.4 0 00-4.9 1.2l-.3.5c-.5.8-.9.9-1.5.1-.5-.5-.7-1.2-.4-1.9.9-2.1 2.5-3.2 4.7-3.6 1.6-.3 3.1 0 4.4 1 .5.5 1 1.3 1 1.7z" fill="#FFFDDF"></path><path d="M82.9 37.4c-1 .6-1.8.4-2.5.3-3-.3-5.8-1-8.5-2.5-.4-.2-1-.3-.9-.9.1-.6.7-.6 1.1-.8 3.2-1 6-.4 8.6 1.8l1.6 1.4.6.7z" fill="#07B8BA"></path><path d="M25.8 59.8h-.5c-.7-.1-1-.5-.8-1.2l.7-2 .3-2c.1-1 .5-1.2 1.5-.9.6.3 1.3.6 2 .7l1.8.1c1.1 0 1.5.5 1.1 1.6a5 5 0 01-2 2.4c-1 .8-2.7 1.3-4 1.3zM125.7 39c1 .2 2 .2 3 .5l4.5 1.5c1 .4 1.6 1.2 2.1 2.1.6 1.1 1.3 2.2 2.1 3 .2.3.5.8.4 1-.1.5-.7.4-1 .3a6 6 0 01-3.6-1.8c-1-.9-1.7-1.8-2.5-2.7-1-1.2-2.3-2.1-3.7-2.9l-1.4-.7V39z" fill="#000"></path><path d="M156.4 92.1l.3-1.4a57 57 0 011.2-2.9c.2-.4.4-.8 1-.7.5 0 .7.5.8 1 .3 1.3.7 2.6.8 4 0 1.2-.6 2.4-1.2 3.5-.2.5-.4.9-.7 1.2-.4.5-1 .5-1.2-.2l-1-4.5z" fill="#FFFDDF"></path><path d="M121 41.6c.3-.6.8-.6 1.3-.6 3-.2 5.4.7 7.4 3l2.8 3.3c0 .4-.3.5-.6.5l-1.4-.5-3.9-2.4c-1.5-1-3-2-4.6-2.7-.4-.1-.7-.4-1-.6zM111.9 41.6c-1 .7-1.8.6-2.6.4a5.5 5.5 0 01-3-1.7 13.7 13.7 0 00-4.1-3.2c-.3 0-.5-.2-.7-.4l-.2-.3c.7-.5 1.4-.3 2-.2 1.7.2 3.2.8 4.4 2 1 1.1 2 2 3.3 2.7l.9.7z" fill="#07B8BA"></path><path d="M74.5 38.4c-.7.6-1.5.6-2.2.5-1.3-.2-2.6-.4-3.8-.8-1.1-.3-2.2-.9-3.3-1.3l-.4-.2c-.2-.2-.5-.4-.5-.6 0-.2.4-.5.6-.5.6-.2 1.3-.2 2-.2 1.9 0 3.6 1 5.3 1.7l1.7 1c.2 0 .3.2.6.4zM132.2 38.4c.5-.2 1 0 1.5 0 1.4.5 2.6 1.2 3.6 2.2l3 3c.4.4.7 1.2 1 1.8 0 .3 0 .8-.2 1l-1-.1c-.6-.5-1.4-1-1.9-1.6a9.6 9.6 0 01-1.5-2.2 6.9 6.9 0 00-3.4-3.2l-1.2-.7.1-.2zM186.7 97.5c0 .6-1.1 2-1.6 2-.3 0-.5-.2-.8-.3l-.7-.5c-.6-.4-1.2-.4-1.7-.1l-.6.3c-1 .6-1.9.3-2.4-.6-.2-.4 0-.8.4-.9h1.5c1.3.1 2.6-.1 4-.2h1.4c.3 0 .5.1.5.3z" fill="#FF65BE"></path><path d="M108 175.8l.7-2.8c.1-.4.4-.8.8-1.1.4-.4 1-.3 1 .3.3.9.4 1.8.5 2.7 0 .3-.3.7-.5 1l-1.6.8c-.6.3-.8.1-.8-.6v-.2h-.1z" fill="#000"></path><path d="M186 102.1c0-.2 0-.6.3-.9.4-.7 1-1.4 1.6-2 .2-.3.6-.5 1-.2.3.2.3.6.2 1l-1.3 2.8c-.2.4-.4.9-1 .7-.5-.1-.8-.6-.9-1.4zM181 102.6c0-.9.3-1.5.7-2 .4-.3.8-.4 1.2-.2.4.2.7.7.6 1.2-.2.8-.7 1.6-1.3 2.2-.3.3-.6.3-.8-.1l-.3-1.1zM193.4 99.6l-.8 2c-.1.2-.4.3-.6.4-.1-.1-.4-.3-.4-.5v-2c0-.2.2-.6.5-.8.1-.1.5-.3.7-.2.2.1.3.5.5.8v.2z" fill="#FFFDDF"></path><path d="M192.3 96.1c-.4.6-.8 1-1.5 1.2-.3 0-.6 0-.7-.4-.1-.3.1-.5.4-.6.5-.2 1-.4 1.8-.2zM170.3 140.2c-.5-1 0-1.9.3-2.7.4.7.3 2-.3 2.7zM122.7 39l-1 .1V39h1v.2zM141 230.2l-.5 3.7a35 35 0 01-.8 3.1 10.9 10.9 0 01-8.4 8c-3.4.9-6.8.6-10.1-.4a8.7 8.7 0 01-6.2-8.4c0-1.3.2-2.5.5-3.7.5-2 1-3.8 2-5.6 2.4-4.2 5.6-7.4 10.4-9l1-.2c1.6-.8 3.2-.7 4.7.3 3.2 2 6 4.7 6.9 8.7.3 1.2.3 2.4.5 3.5zm-14 11.3c1.5 0 2.9-.1 4.3-.4a9.5 9.5 0 007.1-5.8c1.2-2.7 1.3-5.6.6-8.5a10 10 0 00-7.5-7.4c-.6-.1-1.2-.2-1.9-.1-1.6 0-3.1.7-4.6 1.6-2 1.2-3.5 2.8-4.9 4.6-1.7 2.4-3 5-2.9 8.1 0 3.7 2.1 6.4 5.7 7.3l4.2.6zm1.9 1.8c-.8 0-1.6 0-2.3-.2a39 39 0 01-2.4-.3l-2.3-.5c-.7-.1-1.4-.6-2.3-.6 1.6 1.7 6.5 2.6 9.3 1.6zM164 238.1c2.2 0 4.2.3 6 1.3 1.9.9 3.3 2.2 4.1 4l1.2 2.5c1 2 1.1 4 .9 6.2-.2 2.3-.8 4.4-2 6.4-1.8 3-4.3 5-7.9 5.5-2.4.4-4.8 0-7.1-.6-2.1-.6-4-1.5-5.5-3a11 11 0 01-1.8-2.5l-1.3-2.8c-.8-1.8-.9-3.7-.5-5.5A14 14 0 01164 238zm9.5 10l-.1-1.3a7 7 0 00-4.7-6.4 12.7 12.7 0 00-17.1 9.6c-.3 1.8-.2 3.4.7 5a8.6 8.6 0 003.6 3.3c2.4 1.3 5 1.7 7.7 1.7 3 0 5.3-1.2 7.1-3.5 2-2.4 2.7-5.2 2.8-8.5zm-12.2 13.7c.5.5 1.1.6 1.7.6 3.3.5 6.2-.2 8.4-2.7.6-.7 1.1-1.4 1.2-2.4l-1 .8c-2 2-4.5 3.3-7.4 3.5l-3 .2zM162.5 222.4a26.8 26.8 0 01-15.7-5.8c-1.8-1.6-3.1-3.5-3.7-5.8-.4-1.4-.2-2.8.4-4.1l.8-2.2a6.3 6.3 0 012.9-3.6 28.5 28.5 0 0112.2-3.1 10 10 0 018.8 4.9 23 23 0 013.2 8.8c.2 1.5 0 3-.6 4.4-.3.5-.5 1.2-.7 1.9-.5 2-1.8 3.3-3.7 4-1.3.4-2.6.6-4 .6zm-4.6-23.1c-1.7 0-4.5.6-7.3 1.6-1.2.4-2.3 1-3.3 1.7-1 .9-1.6 2-1.5 3.4 0 1 .4 2 .9 2.9a12 12 0 004.3 4.5c3.7 2.3 7.8 3.6 12.1 4 1.5 0 3 0 4.3-.7 1.3-.6 2.3-1.5 2.5-3v-2.2c-.5-2.2-1.1-4.4-2.1-6.5-1.8-3.7-4.5-5.8-10-5.7zM145 209.8c-.5.7-.2 1.2 0 1.7a11 11 0 004.3 5.1c2.8 1.9 6 3.1 9.2 3.8 1.9.4 3.7.6 5.6.4 1-.2 2-.4 2.8-1 .4-.3.6-.6.4-1.1h-1.2c-1.2 0-2.3.2-3.5.1-2.4-.2-4.8-.7-7-1.6a19.8 19.8 0 01-9.9-6.8l-.7-.6zM105 199c0-2.6.4-5.2 1.3-7.6 1-2.5 2.8-4 5.3-4.9a15 15 0 019.8 0 8.5 8.5 0 016 7.9v4.2a10 10 0 01-2.4 6.5 10.6 10.6 0 01-5.4 3.3 21 21 0 01-8.2.5 7 7 0 01-6.1-6c-.3-1.3-.3-2.6-.4-3.9zm20.8-3.8c.2-3.7-1.9-6.5-5.4-7.5-3.2-.9-6.4-.7-9.5.7a5.7 5.7 0 00-3 3.3c-.4.8-.7 1.6-.9 2.5-.5 2.3-.7 4.5.1 6.8.7 2 2 3.3 4 3.7 3.3.5 6.4.3 9.5-.9a7.6 7.6 0 003.2-2.3c1.5-1.8 2-3.9 2-6.3zm-15.6 11.2c.3.5.8.7 1.2.8 1.5.3 3 .2 4.5.1 1.3 0 2.6-.3 3.9-.9l.6-.3v-.2c-3.4.7-6.8.9-10.2.5zM195.9 196.6c0 3.5-1.1 6.2-2.8 8.7a14.2 14.2 0 01-4.5 4.3c-.8.5-1.6.8-2.6.9-1.1 0-2.1-.4-2.7-1.4a14.8 14.8 0 01-2.6-7c0-2.4-.8-4.7-2.3-6.8-1.4-2-2.5-4.3-3.5-6.5-1-2-.7-3.9 1-5.5a8.9 8.9 0 0110.5-1.9 14 14 0 016.3 6.2l2.1 4.1c.8 1.7 1.2 3.4 1.1 5zm-3-2.2v-1.5c-.7-4.2-2.8-7.5-6.4-9.7a7.5 7.5 0 00-9.5 1.2c-1 1-1.4 2.3-.8 3.7l.8 1.5 2 3.2c1.8 2.9 3 6 3.3 9.5 0 .8.2 1.6.5 2.4.4 1.2 1.3 1.6 2.5 1.3l.8-.3c1.6-.8 3-2 4-3.6 1.6-2.3 2.9-4.8 2.8-7.7zm.4 6.6l-.2-.1-.6.7-.7 1a14.1 14.1 0 01-6.4 5.2c-.3.2-.3.6 0 .8.2.2.5.2.7.2.8 0 1.6-.3 2.2-.8 2.2-1.5 3.8-3.6 4.8-6l.2-1zM207.4 234.4c0 5.2-4.2 9-9.7 8.5a12 12 0 01-7.9-4.1c-2-2.2-3.2-4.8-4-7.6-.5-1.6-1-3.2-1.4-5-.5-2-.5-4.2-.2-6.3.3-1.3 1.1-2 2.5-2.3a9 9 0 013.7.4 37.6 37.6 0 0113.2 7c1 .8 1.7 2 2.2 3.3l1.2 3.5.4 2.6zm-10 4.1h.6c2-.1 3.7-.6 5-2 1.8-2.1 2.2-4.6 1.5-7.2-.5-2-1.8-3.4-3.5-4.6-2.8-2-5.9-3.6-9.1-4.7-1.3-.5-2.6-.7-4-1-1.4-.2-2.1.5-2.3 2v.7a18.5 18.5 0 006.4 14.9 9.1 9.1 0 005.5 2zM195 240v.3c.2.2.5.5 1 .6 2 .8 4.2.7 6.2-.3 1-.4 1.8-1.1 2.3-2 .2-.3.4-.7 0-1.1-1.3 1-2.8 1.9-4.4 2.3-1.7.4-3.4.2-5.1.2zM125 269.1c-.1 3.5-.5 6.6-2 9.5l-1 1.8c-.3.6-.8 1.3-1.4 1.9-1.3 1-2.8 1-4.3.4-1.6-.7-2.9-1.8-4-3.1a26.4 26.4 0 01-6.1-14.1c-.2-1 .1-1.9.6-2.8l1-2c.7-1.6 2-2.5 3.6-3 1.8-.7 3.6-1 5.4-1a6 6 0 015.1 2.3c1.6 2 2.4 4.3 2.8 6.7l.3 3.4zm-1.5.3v-1.2c-.1-1.8-.5-3.4-1-5-.4-1.2-1-2.2-1.7-3.1a4.9 4.9 0 00-4.4-2c-2 .2-3.8.5-5.4 1.4-1.6.8-2.1 1.8-1.9 3.5.7 4.6 2.5 8.8 5.4 12.5 1 1.2 2.1 2.3 3.6 3 1.4.6 2.6.3 3.5-.9l.6-1c1-2.2 1.2-4.7 1.3-7.2zm-12.8 3.6l-.3.1.3 1 1.6 2.9c.9 1.3 1.9 2.5 3.2 3.5.8.5 1.6 1 2.6 1 .3 0 .6 0 .9-.2.3-.2.3-.5 0-.8l-.6-.2-1.8-.9c-1.7-1-3-2.5-4.2-4l-1.7-2.4zM170.3 296.5c-1.9 0-4-.4-6-1.6a8.2 8.2 0 01-3.8-4.9c-.5-1.8-1-3.7-.8-5.6.2-3.8 1.8-6.8 5.4-8.6a14 14 0 0110.8.6c3 1.6 5.1 4 5.9 7.5l.6 3c.2 3.6-1.4 6.3-4.6 8a15 15 0 01-7.5 1.6zm0-3.7c2 0 4-.3 5.7-1.1a7 7 0 003.6-9.6c-1-2-2.7-3.5-4.7-4.4-2.2-1-4.5-1.3-6.8-1.1-1.4 0-2.7.6-3.9 1.5a8.5 8.5 0 00-3 5.5 7.7 7.7 0 004.8 8.5c1.4.6 2.8.7 4.2.7zM143.9 299.7c-2.6 0-5.1-.5-7.5-1.6a10 10 0 01-5.7-5.9c-.2-.7-.6-1.4-1-2.1a9.4 9.4 0 01.1-8 6.8 6.8 0 013-3.2c2.7-1.4 5.5-1.9 8.4-1.2 2 .5 3.7 1.6 5.3 2.9 2 1.5 3.4 3.4 4.4 5.7l.9 2c.7 1.2 1 2.6 1 4 0 3.3-1.7 6.2-5.4 7l-3.5.4zm-1-4.7c.5 0 1.5 0 2.4-.2 2.3-.3 4-1.8 4.4-3.9.3-1.5.1-3-.4-4.4a12 12 0 00-4.5-5.3c-1.2-.9-2.4-1.7-3.9-2-2.4-.5-4.8-.2-7 1-.8.3-1.4.8-2 1.4-1.7 2-1.8 4.5-1 7a8.1 8.1 0 004.2 4.7c2.3 1.3 4.8 1.7 7.8 1.7zm7.9-1.6l-1.4 1c-.9 1-2 1.5-3.1 1.8-2.3.5-4.6.4-7 .2-.6 0-1.2-.3-2.1 0l1.2.7c1.9.8 4 1 6 1a10 10 0 003.9-.7c1.4-.6 2.3-1.6 2.6-3.1l-.1-1zM105.5 229.6l-.6 3.9-.8 6.1c-.2 1.3-.4 2.6-.8 3.8-.7 2.1-2.5 3.7-5.4 3.4-3-.4-5.6-1.6-7.8-3.7-1.9-1.7-3-3.9-3.4-6.5a12 12 0 01.7-5.4c.8-2.4 1.9-4.7 3.5-6.6.5-.6 1-1.2 1.7-1.7.9-.8 2-1.1 3.2-1 1.6 0 3.1.2 4.6.7a7 7 0 015.1 7zm-1.5 0c0-2.7-1.3-4.6-4-5.5-1-.4-2.3-.6-3.5-.7-2.2-.3-3.4.8-4.1 2.2-.5 1-1 2-1.3 3-.7 1.8-1 3.8-.5 5.9a10 10 0 004.3 5.8c1.8 1.2 3.6 2 5.8 2 1 0 1.5-.5 1.7-1.5l.3-1.9.8-6.3.5-3zm-15.2 5.2h-.3l-.2.8c-.1 1.2.1 2.3.6 3.4 1.1 2.4 3 4 5.4 5.2 1.4.7 3 1.1 4.5 1a3 3 0 001.3-.3c.5-.3.4-.8-.2-1l-1.3-.4a13 13 0 01-9.1-7.4l-.7-1.3zM142.3 271.9c-3 0-5.4-1.7-6.5-4.7a17.6 17.6 0 01-.5-8c.3-1.4 1-2.7 2.4-3.5l.7-.5c1.2-.8 2.5-.9 3.8-.3.9.5 1.8 1 2.5 1.7 2.3 2 4 4.4 5.2 7.2.3.8.5 1.7.5 2.5a3 3 0 01-1.1 2.6 11.4 11.4 0 01-5 2.7l-2 .3zm-4.1-10.8c0 1.7.2 3.2.8 4.7a4.7 4.7 0 002.7 2.8c2.3.9 4.5.4 6.5-.9.7-.4.8-1.1.7-2-.3-1.5-1-2.9-2-4.1-1.2-2-2.7-3.7-4.7-5-1.8-1-3.2-.5-3.7 1.6l-.3 3zM197.1 252.2c3.8 0 6.4 1.3 8.2 4a8.8 8.8 0 011 7.5 16 16 0 01-8.6 10.5c-2 1-4 1.3-6.3 1-3.2-.7-5.2-3.2-5.7-6.4-.3-2.4.2-4.8 1-7 .7-2.2 1.7-4.3 3.2-6 2-2.2 5-3.7 7.2-3.6zm-9.9 15v1a5.6 5.6 0 004.6 5.4c1.3.3 2.5.2 3.7-.2 2.6-.7 4.6-2.2 6.3-4.3 2-2.5 3.4-5.3 3.3-8.7a6.5 6.5 0 00-3.5-5.6 8.3 8.3 0 00-10.4 1.9c-2.7 3-3.7 6.6-4 10.5zM180.6 227.5l-.7.7-1.5.7c-1 .5-1.2 1.2-.4 2.2.8.9 1.4 1.8 2 2.8.3.3.4.7.4 1.1 0 .5-.4.8-.8.5a2 2 0 01-.6-.6l-1.5-2.2c-1.3-1.6-2.7-2-4.6-1.4l-1.2.4c-.4 0-.8 0-1-.4 0-.4.2-.7.5-.8.8-.4 1.5-.8 2.3-.9 1.2-.2 2.1-.7 3-1.3.7-.5 1.5-.9 2.3-1.2.3-.2.7-.2 1-.1.3 0 .5.2.8.5zM149.3 308.2h-2.8c-1.3 0-2.4-.4-3.4-1.1-.3-.2-.6-.5-.7-.9-.2-.4.1-.8.6-.7l.9.3c1.2.8 2.6 1 4 .8 2.2-.3 4.2.1 6 1.5l1.3 1c.3 0 .5.2.7.4.1.2.2.5.1.7 0 .1-.3.3-.5.3-.4 0-.9-.1-1.2-.3l-1.7-1.1c-1-.7-2-1.2-3.3-1zM135.4 192.8c.6 0 1.3.3 1.9.8a3 3 0 002.7.8c.9 0 1.8 0 2.6.3.3.1.6.3.7.5.2.2.3.5.2.7 0 .2-.4.3-.6.4a2 2 0 01-.8-.2 4.3 4.3 0 00-4 .7l-.7.4c-.6.2-1 0-1-.7v-.4c.2-.9 0-1.3-.8-1.7l-.8-.2c-.3-.2-.7-.4-.6-.8 0-.4.4-.6 1-.6h.2zM190 177.6c-.1.6-.4.8-.9.6-.2 0-.4-.2-.5-.3l-.5-.6c-.7-1-1.1-1.1-2.3-.7l-2.2.7h-1.1c-.3 0-.6-.3-.6-.7 0-.2.3-.4.5-.6 1.5-.3 2.9-.8 4.2-1.4.6-.2 1.2 0 1.6.4l1.6 2.3.1.3zM98.4 210.3c1.7.1 3.3.6 4.6 1.7.4.3.6.7.8 1.1.2.3.1.6-.2.9-.2.2-.5 0-.7-.1l-.6-.5a6 6 0 00-4.2-1.5l-1.3.2c-.4.1-.8.1-1-.3-.2-.4 0-.7.4-1 .4-.3 1.3-.6 2.2-.5zM174.7 208.2c.2-2.2 1.1-3.6 2.9-4.5l.8-.1c.3 0 .6.2.6.3 0 .2 0 .5-.2.7l-.8.6a3.5 3.5 0 00-1.7 3l-.1 1c0 .2-.3.5-.5.5s-.5-.1-.6-.3l-.4-1.2zM159.5 233.6h-.6a5.4 5.4 0 00-3.7.2l-1.4.5c-.4 0-.8 0-.9-.4 0-.3.2-.6.3-.8h.1c1.7-1 3.6-1.6 5.6-1.1.3 0 .7.3 1 .5 0 .2.2.5.1.7 0 .2-.4.3-.5.4zM186.5 253.2c.2 0 .5 0 .8.3.5.2.4.8 0 1a3 3 0 01-1 .2c-1.4 0-2.5.6-3.6 1.5l-.7.6c-.5.1-.8-.2-.7-.6 0-.4.3-.9.5-1.1a6.8 6.8 0 014.7-2zM153.4 317.5c.4-1.3 1.1-2.2 2.3-2.7 1-.4 2-.1 2.8.6l.2.3c.2.3.5.6.2 1s-.7.3-1 .1l-.5-.2c-1-.5-1.5-.3-2.1.5l-.8.9c-.2.1-.5.2-.7 0-.2 0-.3-.3-.4-.5zM166.4 269.4c.8 0 1.4.5 2 1 .2.4.4.8 0 1.1-.2.3-.5.3-.9 0a8 8 0 00-.4-.1c-1-.5-1.6-.4-2.3.5l-.8.9c-.1 0-.5.2-.6 0-.2 0-.4-.4-.3-.6.1-1.4 2-2.9 3.3-2.8zM94.3 164.8c0-.5.3-.7.8-.8a7 7 0 002.3-1.2c.5-.3 1-.6 1.7-.6.2 0 .5 0 .7.2.2.2.4.5.3.8 0 .2-.3.5-.5.5-1 .1-1.7.7-2.5 1.1-.4.3-1 .4-1.4.6-.6 0-1.1 0-1.4-.6zM111.3 250.7c1.1 0 2 .4 2.7 1l.4.6c.2.3.4.8 0 1-.3.4-.7.2-1 0-1-1-2.1-1.2-3.4-.7-.4.1-.8.1-1-.2-.2-.4 0-.7.3-1 .6-.5 1.4-.6 2-.7zM120.2 251.7c1.3.1 2.3.7 3.2 1.4.3.2.4.6.2.9-.2.3-.5.3-.9.2l-1-.5c-.9-.4-1.7-.5-2.5 0l-.2.1h-.7a1 1 0 01-.1-.8c.1-.6.6-.9 1.2-1.1l.8-.2zM166.3 190l2.9 1c.3 0 .6.3.5.7 0 .4-.4.5-.8.5a3 3 0 01-1-.1c-.9-.4-1.8-.4-2.8-.2-.6.2-1 .1-1-.2-.1-.5 0-.9.5-1 .5-.3 1.1-.4 1.7-.6zM126.1 163l-.8-.4c-.6-.3-1.3-.5-2-.5h-.5c-.2 0-.6-.2-.7-.4-.2-.4 0-.7.4-1 .5-.3 1.1-.2 1.7-.1a5 5 0 012.4 1.1l.3.4c.2.5 0 .9-.8.9zM163.8 160c.5 0 1 .1 1.5.5.4.3.5.8.3 1-.2.4-.6.4-1 .3-.8-.3-1.5-.3-2.3.2l-.4.2c-.3 0-.7.1-1-.2-.1-.3 0-.7.3-1 .7-.6 1.5-1 2.6-1zM96 188.1c-.2-.4-.1-.8.2-1.1.8-1 1.9-1.5 3.3-1.3h.3c.4.2.8.5.7 1 0 .5-.5.6-1 .5-.8-.1-1.6.2-2.3.8-.4.3-.8.4-1.2.1zM96.7 57.7l-5.5.2c-2.6.1-5 1-7.4 2.2a16.5 16.5 0 01-9.7 1.3 72.7 72.7 0 01-17.7-5.5c-1.1-.6-2.2-1.2-3.3-2-.3-.2-.7-.5-1-1-.3-.5-.1-1 .5-1.1.2-.1.4-.2.6-.1 4.1.6 8-.5 11.6-2.1l3.6-1.7a14.9 14.9 0 0114 0l4.7 2.2c2.9 1.4 6 2 9.2 2.4l8.7 1c.7 0 1.3.2 1.9.5.9.4 1 1.3.3 2l-1.1.6c-2 .8-4 1.1-6 1.2h-3.4zM77 60.1c1.6 0 3.1-.3 4.6-.8.9-.3 1.6-.7 2.1-1.4 1.2-1.4 2-3 2-4.8.2-1.4 0-1.9-1.3-2.5-1.3-.7-2.7-1.3-4-1.8a13 13 0 00-10.6 0c-1 .6-1.6 1.3-1.7 2.4a9 9 0 002.3 7c.7.8 1.6 1.4 2.8 1.5l3.8.4zM75 80l-.8-.4-.5-.6c-.5-.5-1.1-.6-1.7-.2l-1.3.8c-.3.2-.7.3-1 0-.3-.4 0-.7.2-1l1-.9c.7-.7.7-1.1.2-2l-.7-1c-.2-.4-.2-.7.1-1 .3-.2.7 0 1 .2l.8.8c.6.7 1.2.8 2 .3l.8-.6c.2-.1.4-.3.7-.3.6 0 .9.4.6.9l-.5.6-.4.3c-1 1-1 1.3-.3 2.5l.4.9c.2.4-.1.8-.6.8zM111.2 73.3l-.4.8-.5.6c-.6.9-.5 1.3.2 2l.7.7c.3.3.4.7.1 1-.2.4-.6.3-.9.1l-.8-.5c-.8-.5-1.4-.5-2.1.3l-.8.8c-.4.4-.8.5-1 .2-.4-.3-.2-.7 0-1l.7-1c.5-.9.4-1.4-.3-2l-.8-.8c-.3-.3-.4-.7-.2-1 .3-.4.7-.3 1 0l.9.5c.8.6 1.3.5 2-.2l.8-.8.8-.4c.4 0 .6.2.6.7zM75.5 86.2l-.2 1c-.2 1 0 1.4 1 1.8l1.1.4c.4.2.7.4.6.9-.1.3-.5.5-1 .4l-1-.2c-1.1-.2-1.6 0-2 1 0 .4-.2.7-.4 1-.2.3-.5.5-.8.3a1 1 0 01-.4-.7l.2-1.2c.1-.9-.1-1.3-1-1.6-.4-.2-1-.3-1.3-.6-.3-.1-.5-.5-.4-.7 0-.2.4-.4.7-.4l1 .1c1.4.3 1.8.1 2.3-1.1l.3-.9c.2-.3.4-.6.8-.5.4.1.5.6.5 1zM96.5 88.4l-.5.6-1.1.6c-.9.4-1 .9-.8 1.8l.2 1c0 .3-.1.7-.3.8-.2.1-.6 0-.8-.2-.2-.1-.2-.4-.3-.6-.8-1.4-1.1-1.5-2.6-1l-.8.3c-.3 0-.7 0-.9-.3-.1-.4 0-.7.4-1l1-.5c1-.5 1.3-1 .9-2-.1-.4-.3-.7-.3-1.1 0-.3.1-.6.3-.8.3-.2.6 0 .8.2l.6 1c.6 1.1 1 1.3 2.2.9a6 6 0 011.4-.4c.3 0 .6.2.6.7zM92.8 81.6l-.9-.5c-1.1-.9-1.5-.9-2.6.1l-.8.7c-.2.1-.6.1-.8 0-.3-.2-.3-.6 0-.9l.7-1c.8-1 .8-1.4-.1-2.3-.2-.3-.5-.5-.6-.8-.1-.3-.2-.7 0-.9.2-.3.6-.2.9 0l.8.6c.7.6 1.4 1 2.4 0l.6-.7c.4-.2.7-.5 1.1-.1.3.2.3.6 0 1l-.6.8-.3.3c-.5.6-.5 1.1 0 1.8l.8 1c.3.5 0 1-.6 1zM112.7 90l-.2-.1c-.9-.4-1.6-.3-2.4.2-.2.2-.6.2-.8 0-.4-.1-.3-.5-.1-.8.5-.8.5-1.5 0-2.3-.3-.2-.4-.7 0-.9.1-.1.5-.2.8 0 .8.4 1.5.3 2.2-.2.2-.2.4-.2.5-.2.4 0 .6.1.6.5 0 .3 0 .5-.2.7-.3.6-.3 1.2 0 1.8l.2.4c.2.6-.1.9-.6.8zM184.7 83.3l-.5.6-1.1.6c-.9.5-1 1-.8 1.9l.3 1.2-.3.6c-.2 0-.5 0-.7-.2l-.5-.6-.5-.8c-.3-.4-.7-.6-1.2-.4l-1 .4a3 3 0 01-1 .2c-.2 0-.5-.2-.5-.3l.1-.7.7-.5.9-.5c.6-.4.8-.9.6-1.7l-.3-.6-.2-.8c0-.3 0-.6.4-.7.3 0 .6.1.7.3.3.2.5.5.6.8.5 1.3 1.3 1.3 2.4.9a5 5 0 011-.4c.5 0 .9.3.9.7zM166 73.6c0 .7-.4 1-.8.7l-1-.8c-.8-.8-1.2-.8-2.1-.2a8 8 0 01-1.3.8l-.7-.1v-.7c0-.3.3-.5.4-.7l.6-.5c.9-.8 1-1.2.2-2.2l-.5-1c-.1-.2 0-.6.1-.8l.8.1c.2 0 .3.3.5.4l.4.4c.8.9 1.2.9 2.2.3l1-.7c.3-.2.6-.3.9 0 .3.3.1.7 0 1l-1 .8c-.8.8-.9 1.3-.3 2.2l.6 1zM192 72l.5.4 1 .7c.5.4 1 .4 1.5 0l.8-.6.5-.4c.3-.2.6-.3 1 0 .2.2.1.6 0 .9l-1 1c-.6.9-.6 1.3 0 2.1l.5.5c.4.5.5 1 .2 1.2-.4.3-.8 0-1.1-.2-.2 0-.4-.2-.5-.4-1-.7-1.5-.7-2.3.1l-1 .8c-.2.2-.6.3-.9 0-.2-.3-.1-.7 0-1l.8-.8c.8-1 .8-1.4 0-2.4l-.7-1c-.3-.5 0-.8.6-.8zM184 70l-.4.6-.6.6c-.7.9-.7 1.4 0 2.2l.6.8c.1.3.2.6 0 .9-.3.3-.6.2-.9 0l-.7-.5c-1-.8-1.4-.8-2.4 0l-.6.6-.7.4c-.4 0-.7-.3-.6-.7 0-.3.2-.5.3-.7l.3-.3c1.2-1.4 1.2-1.5 0-2.8l-.5-.8c0-.2 0-.6.2-.8.1-.2.4-.2.7 0l1 .7c.8.7 1.4.7 2.2 0l1.2-.9c.5-.2.8 0 .8.6zM172.4 81.6l-.6.8c-.6.4-.9 1-.8 1.8 0 .3-.1.6-.3.8-.3.3-.6 0-.8-.2-.2 0-.3-.2-.5-.3-.3-.4-.7-.5-1.1-.4h-.7c-.2 0-.6-.1-.7-.3l.2-.7c0-.2.2-.3.3-.4.6-.3.8-.8.7-1.5 0-.4-.2-1 .3-1.2.5-.2.8.3 1 .6.5.5 1 .7 1.7.5h.7c.2 0 .4.3.6.5zM195.3 87.2c-.9-.5-1.8-.2-2.7.4-.5.3-1-.3-.8-.8.6-1 .5-1.8 0-2.7-.4-.5 0-.9.5-.8.3 0 .5 0 .7.2.6.3 1 .2 1.6-.1.4-.3.8-.7 1.2-.3.5.4.1.9 0 1.3-.3.5-.3 1 0 1.6l.2.4c.2.5 0 .8-.7.8zM163 48.3c.8 0 1.4.6 1.4 1.5s-.7 1.6-1.6 1.5c-.8 0-1.5-.7-1.5-1.5 0-.9.7-1.6 1.6-1.5z" fill="#000"></path><path d="M127 241.5c-1.3-.2-2.7-.3-4-.6a7.1 7.1 0 01-5.8-7.3c0-3 1.2-5.7 3-8 1.3-2 2.9-3.5 4.8-4.7 1.5-.9 3-1.5 4.6-1.6l1.9.1a10 10 0 017.5 7.4c.7 3 .6 5.8-.6 8.5a9.5 9.5 0 01-7.1 5.8c-1.4.3-2.8.4-4.2.4zM128.9 243.3c-2.8 1-7.7.1-9.3-1.6 1 0 1.6.5 2.3.6l2.3.5 2.4.3 2.3.2zM173.5 248c-.1 3.3-.8 6.1-2.8 8.5a8.8 8.8 0 01-7.1 3.5c-2.7 0-5.3-.4-7.7-1.7a8.6 8.6 0 01-3.6-3.3c-.9-1.6-1-3.2-.7-5 .9-4.7 4.4-9 9.5-10 2.6-.6 5.2-.5 7.6.4a7 7 0 014.7 6.4v1.2z" fill="#FF65BE"></path><path d="M161.3 261.8l3-.2c2.8-.2 5.3-1.5 7.3-3.6l1-.7c0 1-.6 1.7-1.2 2.4-2.2 2.5-5.1 3.2-8.3 2.7-.7 0-1.3 0-1.8-.6zM157.9 199.3c5.4-.1 8.1 2 9.9 5.7 1 2 1.6 4.3 2 6.5.2.7.2 1.5 0 2.2-.1 1.5-1 2.4-2.4 3-1.3.6-2.8.7-4.3.6-4.3-.3-8.3-1.6-12-3.9a12 12 0 01-4.4-4.5 7 7 0 01-1-2.9c0-1.4.6-2.5 1.6-3.4 1-.8 2.1-1.3 3.3-1.7a29 29 0 017.3-1.6z" fill="#FF65BE"></path><path d="M145 209.8l.7.6c2.5 3.5 6 5.4 9.8 6.8 2.3.9 4.7 1.5 7 1.6l3.6-.1h1.2c.2.5 0 .8-.4 1-.8.7-1.8 1-2.8 1a16 16 0 01-5.6-.3c-3.3-.7-6.4-1.9-9.2-3.8a11 11 0 01-4.3-5c-.2-.6-.5-1.1 0-1.8zM125.8 195.2c0 2.4-.5 4.5-2 6.3-.8 1-2 1.8-3.2 2.3-3 1.2-6.2 1.4-9.4.9-2.1-.4-3.4-1.8-4.1-3.7-.8-2.3-.6-4.5 0-6.8.1-.9.4-1.7.8-2.5a5.7 5.7 0 013-3.3c3-1.4 6.3-1.6 9.5-.7 3.5 1 5.6 3.8 5.4 7.5zM110.2 206.4c3.4.4 6.8.2 10.1-.5v.2l-.5.3c-1.3.6-2.6.8-4 1-1.4 0-2.9 0-4.4-.2-.4-.1-1-.3-1.2-.8zM193 194.4c0 3-1.3 5.4-3 7.7a11 11 0 01-4 3.6c-.2.2-.5.3-.7.3-1.2.3-2.2-.1-2.5-1.3-.3-.8-.5-1.6-.5-2.4a21 21 0 00-3.3-9.5l-2-3.2-.8-1.5c-.6-1.4-.3-2.7.8-3.7a7.5 7.5 0 019.5-1.2c3.6 2.2 5.7 5.5 6.3 9.7l.1 1.5zM193.3 201l-.3 1c-1 2.4-2.5 4.5-4.7 6-.6.5-1.4.9-2.2.8-.2 0-.5 0-.7-.2-.3-.2-.3-.6 0-.8l.4-.2c2.6-1 4.4-3 6-5l.7-1 .6-.7.2.1zM197.5 238.5c-2 0-4-.7-5.5-2-2.5-1.9-4.2-4.4-5.3-7.4-.9-2.3-1.3-4.8-1.1-7.3v-.8c.2-1.5 1-2.1 2.4-2l3.9 1c3.2 1.1 6.3 2.8 9.1 4.7 1.7 1.2 3 2.6 3.5 4.6.7 2.6.3 5-1.5 7.1-1.3 1.5-3 2-5 2.1h-.5zM194.9 240c1.7 0 3.4.2 5-.2 1.7-.4 3.2-1.4 4.6-2.3.3.4.1.8 0 1-.6 1-1.4 1.7-2.4 2.1-2 1-4.2 1.1-6.3.3l-1-.6.1-.3zM123.5 269.4c-.1 2.5-.3 5-1.3 7.3l-.6 1c-.9 1.1-2.1 1.4-3.5.8a9.7 9.7 0 01-3.6-3c-2.9-3.7-4.7-7.9-5.4-12.5-.2-1.7.3-2.7 1.9-3.5 1.6-.9 3.5-1.2 5.4-1.3 1.8-.2 3.3.5 4.4 1.9.8.9 1.3 2 1.7 3 .5 1.7.9 3.4 1 5.1v1.2zM110.7 273c.5.8 1 1.6 1.7 2.3 1.2 1.6 2.5 3.1 4.2 4.1l1.8.9.6.2c.3.2.3.6 0 .8a2 2 0 01-1 .2c-1 0-1.7-.5-2.5-1-1.3-1-2.3-2.2-3.2-3.5l-1.6-3-.3-1h.3zM170.2 292.8a10 10 0 01-4.2-.7 7.7 7.7 0 01-4.8-8.5c.4-2.2 1.3-4.1 3-5.5 1.2-1 2.5-1.4 3.9-1.5 2.3-.2 4.7 0 6.8 1 2 1 3.6 2.4 4.7 4.5a7 7 0 01-3.6 9.6 13 13 0 01-5.8 1zM142.9 295c-3 0-5.5-.4-7.8-1.7-2-1-3.6-2.5-4.3-4.7-.7-2.5-.6-5 1.2-7 .5-.6 1.1-1.1 1.8-1.5 2.3-1.1 4.7-1.4 7.1-1 1.4.4 2.7 1.2 3.9 2 2 1.4 3.6 3.1 4.5 5.4.5 1.4.7 3 .4 4.4-.4 2.1-2 3.6-4.4 4l-2.4.1z" fill="#FF65BE"></path><path d="M150.8 293.4c0 .4.2.7.1.9-.3 1.5-1.2 2.5-2.6 3.1a10 10 0 01-3.8.7c-2.1 0-4.2-.2-6.2-1l-1.1-.7c.9-.3 1.5 0 2.1 0 2.4.2 4.7.3 7-.3 1.2-.2 2.2-.8 3.1-1.6l1.4-1.1zM104 229.7l-.5 2.9-.8 6.3-.3 1.9c-.2 1-.7 1.4-1.7 1.4-2.2 0-4-.7-5.8-1.9a10 10 0 01-4.3-5.9c-.5-2-.2-4 .5-5.9.3-1 .8-2 1.3-2.9.7-1.4 2-2.5 4.1-2.2 1.2.1 2.4.3 3.6.7 2.6 1 3.8 2.8 3.9 5.6z" fill="#FF65BE"></path><path d="M88.8 234.8l.7 1.3c1.8 4 5 6.4 9 7.4l1.4.4c.6.2.7.7.2 1a3 3 0 01-1.3.3c-1.6.1-3-.3-4.5-1a10.6 10.6 0 01-5.4-5.2c-.4-1.1-.7-2.2-.6-3.4l.2-.8h.3zM138.2 261.1c.1-1 .1-2 .4-2.9.4-2 1.8-2.6 3.6-1.5 2 1.2 3.5 3 4.8 4.9.9 1.2 1.6 2.6 1.9 4.2.1.8 0 1.5-.7 2a7.2 7.2 0 01-6.5.8 4.7 4.7 0 01-2.7-2.8 12 12 0 01-.8-4.7zM187.2 267.2c.3-4 1.3-7.6 4-10.5 2.7-3.1 7-4 10.4-2a6.5 6.5 0 013.5 5.7c.1 3.4-1.3 6.2-3.3 8.7-1.7 2-3.7 3.6-6.3 4.3-1.2.4-2.4.5-3.7.2a5.6 5.6 0 01-4.6-5.3v-1.1z" fill="#FF65BE"></path><path d="M77 60.1l-3.8-.4c-1.2-.1-2-.7-2.8-1.6a8.9 8.9 0 01-2.3-6.9c0-1.1.6-1.8 1.7-2.3 3.5-1.6 7-1.6 10.6-.1 1.3.5 2.7 1.1 4 1.8 1.3.6 1.5 1.1 1.4 2.5-.2 1.8-1 3.4-2 4.8-.6.7-1.4 1-2.2 1.4-1.5.5-3 .8-4.6.8zm4-6.5c0-1.3-.8-2.1-2-2.2a2 2 0 00-2.1 2c0 1.2.8 2.1 2 2.1s2-.8 2-2z" fill="#FFFDDF"></path><path d="M81 53.6c0 1.1-1 2-2.1 2a2 2 0 01-2-2.2c0-1.1 1-2 2.1-2 1.2 0 2 1 2 2.2zM33.4 78.7c-9 .6-4.8 9.6-4.8 9.6s16.7-10.1 20.8 1.2c0 0-1.7-9.3-16-10.8zM60 74.4c-6.8 9.6-1.1 24 28.6 24 16.6 0 28.2-3.5 37-22.8 1.3-3 5.3-5.6 8.2-3.9l-5-4 2.3.4 2.1-2.9h2.5s1.2 2.8 1.4 2.9l1.8 5.8 2.4 3-3.8.8c0 .2-7.3 2.4-9.9 5.8-2.6 3.4-9.7 20.3-41.8 20.3-32 0-31.7-14.9-30.6-19.3 0 0 1.5-7.7 4.8-10zM153.2 66.7l-.7-.6c-.6-.6-1-.5-1.3.4l-.2 1c-.3 2-.7 4-1.5 5.9l-.9 1.5c-.5 1-.3 1.4.7 1.7l1.1.2c2.7.5 5.2 1.6 7.4 3.3 1.7 1.3 3 3 4.2 4.7 1.2 1.7 2.3 3.5 3.6 5.1 1.8 2.4 4.1 4 7 4.8 2.6.9 5.4 1.1 8.2 1h2.6c3.6-.2 7-.8 10.3-2.4 2.7-1.3 4.8-3.3 6.2-6 1.2-2.2 1.6-4.7 1.7-7.2l-.1-3.5c0-1-.2-1.8-.4-2.7 1.4 8.2-1 18.2-17.6 18.2s-19.1-9.7-23.5-13.3c-4.4-3.6-6.8-6.3-3.7-12.4-.7 1.2-2 1.3-3.1.3zM167 62.3c-7.8 1-10.2-6.9-10.2-6.9h-7.6l3.2 1.7.9 1.3 2.5 2.7.9 2.4 2.1.4 8.1-1.6zM82 34.6c-2.8-3.7 13.9-3.5 22.1-2l-4-2.7-8-1.7-5-.5-7 1.7-3.7 1.7 5.7 3.5zM127.5 36c-3.5-3.1-6.4-5.2-.8-5.8 5.7-.7 11.7-.4 21.1 6.7 9.5 7.2 15.4 5.2 15.4 5.2s-3.5 1.4-8.9-.2c-5.4-1.6-19.9-9.6-26.8-5.8z" fill="#000"></path><path d="M169.2 41c-4.2-.2-3.8-16.5-1.2-20.6 0 0-8.5 8.9-8.5 16.7 0 3.5-1.2 5.3 4.8 4.6 6-.7 4.9-.7 4.9-.7zM25.9 40.8c6.6 6.5 10 5 12.2 12 2.3 7 9.3 2.3 4-6-5-8.3-3.1-16.4-15.9-21l2-.3 11 4.6 5.1 4.6 2.6 2.8 2.5 4.5.7 5-.4 6.6-1.4 4.6s-3 5.4-9.1 1.1c-6.2-4.2-6.4-3-6.7-6.4a30 30 0 00-6.6-12zM40.2 151.4c3.6-10 5.3-14.4 8.1-13.3 2.8 1.1 4.8 3.7 5.5 6.6-3 .7-6.6.9-13 6.7h-.6zM28.1 131c.8-6.3.6-5.2-.4-8.6-1-3.5-4.3 4.1-8.9 3.2l9.3 5.3zM19.2 94.8c1.4 6.4-6.9 1.4-11.9 4.8l-.8 1 7.8.9 3.8 1.8 1.3-1.5.7-6.8-.9-.2zM6.9 68.7c-.5.7 6 2.3 6 5.4-.2 3 3.7-.6 4.2-1.6l.3 1.6-5.9 5-1.9-3.5-4.2-7 1.5.1z" fill="#000"></path><path d="M29.5 126.2c-1.1 11.5-.2 9.8 7.5 3.4 7.8-6.4 11.3-3 19.6 12.6 8.2 15.5 22.4 32 24.5 32.7l-1.3 3.5s-16.3-13.6-25-33.3c-4.9-7.8-7.6-12-20.5-7.1-8.2 3.8-10.7 6.7-9 2.2 1.6-4.5 4.2-14 4.2-14z" fill="#000"></path><path d="M74 151.6c1.9 3 3.2-.6 4 2 .7 2.7 3.7 2.3 4.4 6.4.7 4 1 6.2 1 8.8 0 2.6-.3 5.2-1.9 8a16.4 16.4 0 00-1.1 9.6c.2.8-.5 1.7-1.3 1.7-.8.1-1.4.8-1.3 1.7l.3 2.5c0 .5-.1 1-.5 1.4-1.3 1-3.8 3.4-4 7.9 0 0-.4-13 5.3-21.3 5.6-8.2 4.6-15 .8-19.4-3.8-4.4-5.7-9.3-5.7-9.3zM119.6 324c-4-3-13-10-13.5-17-.5-7.2-10.4-.6-13.4-9.7s-1.6 0-3-12.6c-1.4-12.8-8 2.5-8.1-4.8 0-7.4-7-4.8-9.5-10a123.8 123.8 0 0014.7 24.4c3.1 4 6.4 7.7 10.1 11.2l5.4 4.9c4.4 3.9 9 7.4 13.7 11l3.6 2.6zM70.4 223.4L67.2 234c-1.3 4.6-2 9.3-1.6 14.2.4 4.2 1.4 8.2 2.8 12.1.9 2.7 1.9 5.3 3 8-2-5-3-11.2-1.7-16.7 1.3-6.1.1-7-1.4-11-1.6-4 .4-4 3.4-22.1l-1.3 4.8zM97 279.1c1.6 13.3 4.6 14.3 4.6 14.3s-2-5 1.5-3.4c0 0-6-6.3-6.1-10.9zM76 247.2c3.5 8 8.5 12.8 8.5 12.8s-2.9-5.8.4-4.4c0 0-6.1-2.5-8.9-8.4zM156 342.4c-9.5 0-20-6.2-30.3-13.7l3.8 3c4.9 3.8 9.4 8.1 13.3 13 1.4 1.6 3 3.2 5 4.2 1.7 1 3.7 1.6 5.7 1.5 2.5-.1 4.8-1 7-2.2 3-1.6 5.5-3.6 7.9-6 2.6-2.3 5-5 7.3-7.7a266.2 266.2 0 0014.7-19.5c-2.6 3.7-7.5 2.8-8 5.5s-3.8 8.7-8.1 6.5c-4.4-2.2-2-6.4 3.1-17.1l-1.6 1.4c-1.6 1.6-2.9 3.4-4 5.4a41.1 41.1 0 00-4.5 12.1c-.8 7.9-1.7 13.6-11.3 13.6zM198.7 303.3c7.5-10.6 5.6-15.5 9.5-18.6 3.9-3.2 5.2-11.2 6.3-6.8 1.2 4.5 7.4-7.4 7.4-7.4s-7.4 13.3-11.2 17.1a70.9 70.9 0 00-8.1 11.8l-4 3.9zM214.2 266.1c8.5-.4 4.6-14.5 4.6-14.5s-4 6-4.2-1.8l-1.1 10.2s0 6.1.7 6.1zM214.2 210.4c2 13.1 3.2 18 4.3 22.4 1.2 4.3 1.3-3.6 3.4 2 2 5.6-.7 9 2.2 13.4 2.8 4.3 3.7 5.3 2.9 8.9 0 0 2.5-6.5.3-14.1-2.3-7.6-10.1-22-10.7-25.5-.6-3.5-2.4-7.1-2.4-7.1zM80.6 152.6c-4-2.4-7-3.2-7-3.2s4.4.5 8.6 2.3l-1.6 1z" fill="#000"></path><path d="M79.4 152c-3-1.6-6.7-2.9-5.4-.4 0 0-2-2.6-1.4-3 .6-.4 3.4-.9 3.4-.9l.7 1.3c-2.1 0-.2.9 1.2 1.3 1.4.3 1.5 1.6 1.5 1.6zM178.5 152.3c9.7 2 16 5.6 20.4 26.1 0 0-4.9-19.1-19.7-22.8l-.7-3.3z" fill="#000"></path><path d="M156 132.5c-1.8-7.9-6.3-10-10-9.3-4.2.7-7.5 1.7-6.2 5.2 1.3 3.3 4.7 7.8.9 8.1-6.5.5.1-12.8-10.9-12.1-8.1.4-9 5.6-6.5 13.4 4.2 12.5 37 12.9 32.7-5.3z" fill="#FF65BE"></path></svg>