<svg viewBox="0 0 90 269" fill="none" xmlns="http://www.w3.org/2000/svg"><defs></defs><g clip-path="url(#sword-burger_svg__clip0)"><path d="M39.8 36.5v-14c0-2.2.7-4.2 2.4-5.8.8-.7.8-1 .2-1.9a7.2 7.2 0 01-1.5-4.3c0-1.6.5-3.1 1.5-4.4l.6-.7c.4-.5.6-1 .7-1.6.2-1 .6-1.9 1.3-2.6a4.2 4.2 0 017 2.3c.2.9.6 1.6 1.2 2.3 1 1 1.6 2.4 1.7 4a7 7 0 01-1.2 4.7l-.4.6c-.4.6-.4 1 .1 1.5l1.4 1.5a6 6 0 011.2 3.6v28.5c0 1.5.4 2.6 1.5 3.5l.8.7c.4.3.9.5 1.4.5h19.1c5 0 9 3.5 10 8 1 4.6-1.4 8.8-5.7 10-2.2.7-4.3.5-6.2-1a6.4 6.4 0 01-2.8-5.2v-1.4c0-.5-.1-.8-.7-.9H61.6h-.1c-1.2 0-1.4.4-.9 1.4 1 1.9 2 3.7 3.2 5.5 1 1.4 1 3 .8 4.5l-.8 8.3-.2 1.8c0 .9.3 1.4 1 1.8a36.6 36.6 0 0110.2 6.6A33.7 33.7 0 0186 120.1a5 5 0 01-1.3 3.1c-1 1.1-2.1 2-3.4 2.6-1.9 1-4 1.7-6 2.3l-1.7.5-.5.2-.2.3.2.1.4.1c3.2.2 6.3.9 9.4 1.7l2.6.5c.6 0 1.1.2 1.6.5.8.4 1.3 1.1 1.2 2.1a109.6 109.6 0 01-1.8 6.3c-.2.6-.5 1.1-.9 1.6-.8 1-1.9 1-2.5-.1-.3-.4-.5-1-.6-1.4l-.5-1.5c-.3-.8-.8-1.1-1.7-.9a9 9 0 00-1.5.6l-6.4 3.5-3.9 2-.7.5c-.2.2-.2.4.1.6l.7.4c1.7.7 3.2 1.8 4.3 3.2 1.2 1.6 2.8 2.6 4.6 3.3a63.8 63.8 0 009.9 2.8c1.1.3 1.5 1 1.2 2.2a8 8 0 01-3.7 4.7 4 4 0 01-2 .5l-1.6-.2h-1.6c-.8 0-1 .5-.7 1.2.3.9.7 1.5 1.6 1.9.4.1.7.3 1 .6 1.4.8 2 2 1.8 3.6v2l-.3 5.9-.1 2c-.1 1-.7 1.8-1.5 2.4-1 .7-2 1.1-3 1.5a45.6 45.6 0 01-9.9 2.5l-.4.3.4.4 1.7.6c2.7.8 5.3 1.9 7.7 3.3 2.5 1.5 4.7 3.2 6.4 5.6 1.4 1.9 2.3 4 2.4 6.4a878 878 0 00.7 9.7c.2 2.5-.4 4.7-1.5 6.8-1.2 2.2-2.8 4-4.7 5.6-3.7 3-7.8 5-12.2 6.4a58.3 58.3 0 01-11.4 2.6l-2 .3c-1 0-1.4.4-1.6 1.4l-.6 4a7992 7992 0 00-4.5 28.3c-.1.4-.4.7-.8.6a1 1 0 01-.9-.6l-.3-1.2-1.1-6.5-2.6-15.9-1.5-8.5v-.4c-.3-.9-.6-1.2-1.5-1.4-1.3-.2-2.6-.3-3.8-.6-4.5-.8-8.8-2.2-12.8-4.4a20.7 20.7 0 01-7-6 11 11 0 01-2.2-5l-.1-3.2-.6-8.1c-.2-1.3 0-2.5.3-3.7.4-1.8 1.3-3.4 2.4-4.9 1.9-2.5 4.3-4.3 7-6a45.9 45.9 0 019.3-4.3c.2 0 .3-.2.3-.3l-.3-.3-1.3-.2c-3.7-.4-7.3-.9-11-1.8l-3.7-1.4-1.3-.8c-1-.7-1.6-1.7-1.6-3a7924 7924 0 01.2-8c0-.5-.3-.7-.8-.7h-.6L9 172.4l-1 .5c-.9.4-1.6.1-2-.8-.3-1.1-.2-2.2 0-3.3l.3-2c.2-.9.1-1.2-.7-1.6l-3-1.3c-.5-.2-1-.3-1.4-.6-1-.5-1.1-1.3-.6-2.2a6 6 0 013.6-2.8c1-.3 2-.5 3.1-.6 1.5-.1 2.5-.8 3.4-2l1.6-2.2c1-1.2 2.2-2.1 3.7-2.6l2.2-.5c1-.2 2.1-.4 3.2-.8 1-.2 1.6-.8 2.1-1.6l.3-.7c0-.4-.1-.7-.6-.7H21c-.7-.1-1-.8-.7-1.5l.7-.8c.7-.6 1-1.3 1.2-2.2v-.5c0-.2-.2-.5-.4-.5-.1-.1-.4 0-.6.2l-.5.6-1.3 1.5c-1.8 1.9-4.2 1.8-6 0l-1-1c-.5-.7-1.2-1-2-1-1.2 0-2.2-.3-3.2-.9-2-1.2-2-3 0-4 1-.6 2-1 3-1.1l4.4-.5a22 22 0 006.8-1.2c1.7-.6 3.4-1.3 5.2-1.8.9-.3 1.8-.6 2.7-.7.8 0 1.6 0 2.4.2l.8.1c.3 0 .6.2.7-.2 0-.3-.3-.4-.5-.4l-.6-.1a85.2 85.2 0 01-16.9-3.2c-1.9-.6-3.7-1.4-5.4-2.5a8.2 8.2 0 01-3-3c-.4-.6-.6-1.5-.6-2.3a33 33 0 018-21.9c4.2-5 9.5-8.6 15.6-11l1.2-.4c.9-.4 1.2-.7 1.1-1.6a2188.6 2188.6 0 00-1-10.3c-.1-1 .2-1.8.7-2.6l2.9-5.1.7-1.4c.3-.5.1-.9-.5-1h-.7a5380.8 5380.8 0 00-11.5 0c-.8 0-1 .3-1 1v1c0 4-3.1 7-7 6.9-4.6-.1-9-4.5-7.7-10.2A10.1 10.1 0 0117 54.9h18.4c1.2 0 2-.3 2.8-1.2l.3-.3c1-.8 1.2-1.7 1.2-3V36.6zm6.4 93l6.5-.1a141.1 141.1 0 0011.5-1c2-.1 4-.7 5.8-1.5a8 8 0 004.4-4.1 18 18 0 001.2-10.6c0-.2-.3-.5-.5-.7-.5-.5-.7-.8-.3-1.4.2-.5.2-.9 0-1.3-.4-1.7-.9-3.3-1.7-4.8-1-1.8-2.3-3.4-4-4.6-1.1-.8-2.4-1.2-3.6-1.6-1.2-.4-2.5-.4-3.7-.5-2.6-.2-5.2-.8-7.8-1.4-3.8-1-7.5-2.1-11.4-2.4a22 22 0 00-10 1.5c-2.4.9-5 1.6-7.5 1.8-.6.1-1 0-1.6-.3-.7-.4-.8-1.2-.2-1.8l.5-.4 1.8-.7c1-.3 1.9-.5 2.8-1 1-.3 1.6-1 2.1-1.9.2-.2.3-.6 0-.8-.3-.4-.8-.7-1.4-.6-.8 0-1.5.3-2.2.7A36.7 36.7 0 0016 98.2 31.5 31.5 0 009 112c-.2 1.9.2 3.6 1 5.4.8 2.3 2.3 4.3 4.2 6 1.6 1.4 3.4 2.5 5.4 3.2.2 0 .4 0 .6.2.5.4 1.2.5 1.9.7a89.8 89.8 0 0012.7 1.6l6.1.4h5.3zm39.4 83.2v-.4l-.3-2.3c0-.6-.4-.6-.8-.2A41.4 41.4 0 0166.2 221c-2.3.7-4.5 1.7-7 1.7-1 0-1.9.2-2.8.3-2.4.4-4.7.4-7.1.5h-4.5a46 46 0 01-6.6-.6c-.6-.1-.6-.1-.7.5 0 .6-.5 1-1 .9a1 1 0 01-.8-1v-.3c.2-.4 0-.6-.3-.6l-1.9-.4-6.8-2.1a6 6 0 00-1.5-.2h-2.5c-2.3-.2-4.3-1-5.6-3.2l-.3-.4c-.1-.2-.3-.2-.4.1v1c0 1.4.6 2.7 1.4 3.8 1.2 2 2.8 3.4 4.7 4.7a45.8 45.8 0 0020.7 6.3l6 .2c.3 0 .7 0 1-.4.4-.4 1-.4 1.4 0 .4.3 1 .3 1.5.3l2.5-.3a55.9 55.9 0 0020-5.9 25 25 0 006.6-5c2.1-2.3 3.4-5 3.4-8.3zm-11.8-4.2c1 0 2.4-.3 3.3-.7 2.2-1 3.4-2.9 3-5.6a10 10 0 00-1.9-4.7 20 20 0 00-7-6 18.2 18.2 0 00-10-2.5c-1.2 0-2.4.3-3.4 1a4.8 4.8 0 00-2.6 4.3c0 1.3.3 2.5.8 3.7.6 1.3 1.4 2.4 2.4 3.5a21.6 21.6 0 0015.4 7zm-52-69.8c.9 0 1.5.4 1.9 1.3.4 1 .4 1.9 0 2.9l-.2 1c0 .4.2.6.7.7h.4c2 0 3.9 0 5.8.3 3 .4 5.6 1.9 7.7 4.1l1.9 2.3c.6.7 1 .7 1.7 0l1-1.3a2675.5 2675.5 0 004.7-6.7c.2-.8-.5-2-1.2-2.4-1-.5-2.1-1-3.1-1.7-1.5-1-3-1.9-4.8-2.4l-1.9-.6c-2.9-1-5.8-1.4-8.9-1-.5 0-1 0-1.6.2l-5.4.8-2.3.1h-.9l-2.7.2c-1.7 0-3.3.2-4.9.7-.5 0-1 .3-1.4.5-.6.4-.6 1 0 1.4.3.1.6.3 1 .3.7.2 1.5.3 2.2.3.6 0 1 .3 1.5.7l.8.8c.4.4.8 1 1.3 1.3a2 2 0 002.6 0c.5-.4 1-.8 1.3-1.3.5-.5.8-1 1.2-1.6.4-.5 1-.9 1.6-.9zm19.8-98V50.5l.1.2.2-.2.1-.2c1.3-2.4 2.6-5 3.5-7.6.8-2.3 1.5-4.6 1.5-7 0-.6.3-1 .7-1 .3 0 .6.2.7.8l.5 2.6c.3 1.4.5 2.7 1 4 .9 3 2.4 5.6 3.9 8.3l.3.3c0-.2.2-.4.1-.5 0-6.3.2-12.6 0-18.9-.2-2-.4-4-.9-6a16 16 0 00-4.3-7.6 5 5 0 00-1-.8c-.8-.4-1.4-.3-2 .4L44.6 20a27.3 27.3 0 00-2.8 11.2c-.2 3.2 0 6.3 0 9.4zM22.8 213.4l3-.6c3.4-.7 6.4-2.4 9.2-4.4a25 25 0 007-7.7c.9-1.6 1.5-3.2 1.5-5 0-2.2-1-3.5-3-4.1-1.8-.5-3.6-.3-5.4 0A27.2 27.2 0 0019.5 203c-.8 1.4-1.5 2.7-1.9 4.1-.2 1-.3 1.9 0 2.9a3.8 3.8 0 002.4 3c1 .3 1.8.4 2.8.5zm25 8.3l4.6-.1c2.3-.1 4.5-.5 6.7-.8a17 17 0 009-4c.3-.3.6-.6.7-1 .5-.8 0-1.7-1-1.9l-1-.2a23 23 0 01-7.4-3.2c-.8-.6-1.6-.6-2.4-.2a17.2 17.2 0 01-7.1 1.8H46c-1.5 0-3-.1-4.4-.5l-.7-.2c-.3 0-.6.2-.8.4-.2.2 0 .5.2.7.2.3.4.5.7.6 1.2.8 2.4 1.4 3.8 1.8.5.1 1 .3 1 1 0 .5-.5.6-.9.8a46.6 46.6 0 01-8.9 3.3l-.9.2-.1.1.1.2 2 .4c2.4.4 5 .7 7.4.8h3.2zm15-52.7c0-.6 0-1.2-.2-1.8A10 10 0 0061 163c-.5-.8-1.3-1.1-2.1-1.6h-.3c-.3-.1-.5 0-.7.3 0 .3 0 .6.4.8.2 0 .4 0 .6.2.5.2.6.7.3 1.1l-.6.5-1.1.6c-2.6.9-5.2 1.4-7.9 1.5-3 0-6.1 0-9.2-.3-1.4-.2-2.8-.2-4.2-.7-.4-.1-.8 0-1.1.2-.8.7-1.3 1.5-1.6 2.4-.2.4 0 .7.3 1l.7.1 2.2.4c2.7.4 5.3 1 7.7 2.2 3.7 2 7.3 4.2 10.8 6.6l1.7 1.2c.7.4 1.1.3 1.5-.3l.5-.9L62 173l.5-1.3.3-2.5zm-35 8.5c.7 0 1-.2 1.2-.8l.5-2.2c.5-2.3 1.2-4.5 2-6.7a9.7 9.7 0 014.3-5l1.4-.7c2-1 3.3-2.4 4.3-4.3 1-1.7 1.7-3.6 3-5.2l.1-.4c.1-.2 0-.4-.2-.4a2 2 0 00-1 .2 8 8 0 00-1.2 1c-.6.7-1.4 1-2.3.6l-.3-.2c-.4-.2-.9-.1-1.3.1-1 .5-1.8 1.1-2.4 2l-1.5 3c-.8 2-2 3.5-4.1 4.4-2 .8-3.3 2.4-4 4.4-.6 1.4-1 2.8-1.2 4.3l-.4 1c-.1.3-.4.5-.8.4-.4 0-.5-.3-.6-.7v-1.1l1-4c1-2.7 2.7-4.7 5.4-5.9a5.7 5.7 0 002.9-2.9l2-4 .2-.4c0-.4-.2-.5-.5-.5l-.5.1a7 7 0 00-3.4 2.6l-1.3 2.3a5.7 5.7 0 01-4 3.2c-1 .2-1.8.8-2.3 1.7l-1.9 3.4a21 21 0 00-2 7c0 1 .3 1.4 1 1.7l.7.2 6.6 1.6.7.2zM67 157c1.6 0 2.9.6 4 1.7 2.1 2 3.3 4.6 4.3 7.3v.8c-.1.6-.7.8-1.2.4l-.5-.7-.6-1.6c-.7-1.7-1.6-3.4-3-4.8a4.3 4.3 0 00-4-1.3 4.3 4.3 0 01-5.2-4.3v-1.8c0-1.6-.7-2.7-2-3.4-1.2-.5-2.3-1-3.5-1.3l-6-1.5c-1.6-.3-2-.2-2.9 1.2-.5.8-.3 1.2.5 1.4h.4l2.4.4c1.4.2 2.8.5 4.1 1 2 .9 3.3 2.3 3.7 4.4l.2 1.1.5 2c.4 1.1 1.2 1.7 2.3 2l1.5.1c1.6 0 2.8.8 3.8 2l2.1 3 3 5.6c.5.9.9 1 1.7.6l5.3-3c1-.4 1-.9.6-1.8l-.2-.6-2.6-4.9c-.6-1.1-1.3-2.2-2.1-3.2s-2-1.6-3.3-1.8l-2.7-.5c-.8-.3-1.6 0-2.3.3-.4.3-.5.6-.4 1 .2.2.5.4 1 .3l1.1-.1zM26.5 56.6H17l-2 .3a8.2 8.2 0 00-6.3 6.9c-.4 2.8.5 5 2.8 6.7C13.6 72 17 72 19 69.8a4.6 4.6 0 00.4-5.4c-1.3-2.1-4.6-2.5-5.8.1l-.4.6c-.3.4-1 .6-1.5.4-.5-.3-.5-.7-.5-1.2 0-1 .4-1.8 1-2.5a8.5 8.5 0 014.4-3c2.4-.7 4.9-.5 7.3-.4 1.7 0 3.4.3 5 .4H33a13 13 0 005-.9c1-.5 2-1.2 2.7-2.2.3-.4.2-.6 0-.9-.2-.2-.5-.2-.9 0l-.7.6c-.8 1-1.9 1.3-3.2 1.2h-9.3zM12.8 159.1a1.2 1.2 0 00-.7-1.1c-.6-.3-1.1-.2-1.6.2-.8.6-1.7 1-2.7 1-.5.2-1.1.2-1.6.3-.9 0-1.7.3-2.5.7l-.8.7c-.5.5-.4 1 .2 1.3l1 .4 5.9 2.5 2 .9c1.3.5 1.7.3 2.5-.8l.7-1a7.3 7.3 0 014.8-3.3c1.2-.3 2.5-.5 3.7-.6 1.8-.2 3.1-.9 3.9-2.5l.5-1a9 9 0 014.8-4.5l.6-.3c.2-.1.3-.3 0-.5-.3-.3-.6-.7-1-.9-.7-.4-1.3-.4-2 .2a9.8 9.8 0 01-4 2l-2.8.6A9.1 9.1 0 0018 157l-2 2.2a9.5 9.5 0 01-4.6 2.7c-.5.1-1 .5-1.6.8l-.8.4c-.3.1-.6.1-.8-.2-.2-.3-.2-.6 0-.8l.5-.7c.6-.5 1.4-1 2.3-1.2l1.2-.3c.3-.2.5-.4.5-.7zm2.8 18.4c0 1 0 1 .8 1.3l2.3 1c.4.3.7.4 1.1.2.8-.2 1.5 0 2.2.3l.7.3.7.2c1.1-.1 2.2 0 3.1.6.7.3 1.4.4 2.2.2 1.4-.2 2.7-.1 4 .4.5.3 1 .3 1.5.1 1.1-.4 2.3-.4 3.4 0l.7.3c.5.2 1 .1 1.5 0l1.6-.5c1.5-.3 3-.3 4.3.4.5.2 1 .2 1.4-.1 1.5-1 3-1 4.7-.4.3.1.6.3 1 .3.3.1.7.2 1 .1l2.2-.5c.4-.1.5-.3.1-.6l-1.7-1.2c-1.5-1.1-1.6-1.1-3.5-1h-.5l-2.4.5c-1.4.2-2.7.2-4-.1a9 9 0 00-3.2-.2c-.8 0-1.5.2-2.3.3-1.6.3-3.2.4-4.8-.4-1.2-.6-2.4-.3-3.6.2a3 3 0 01-2.1.2l-3.2-.8c-.6-.2-1.1-.2-1.7 0-1 .4-2 .2-2.8-.6l-.3-.3c-.2-.1-.5-.3-.8-.3-.7 0-1.2-.2-1.7-.5l-1-.5c-.5-.2-.7 0-.8.5l-.1.6zM63 74.2c0-1-.6-1.3-1.4-.8a26576.5 26576.5 0 00-10.3 7l-2.2 1.5a2 2 0 01-2.3 0l-.8-.5L35.2 74l-1.1-.7c-.7-.3-1.1-.1-1.2.6-.1 1.4 0 2.5 1.4 3.4 4.1 2.5 8.1 5.2 12.2 7.8 1 .7 1.8.7 2.8 0l10-7.2 2.8-1.9c.6-.4.9-1 .9-1.8zm10.4-15.9l5.6.2c.7 0 1.4 0 2.2.2 2.3.3 3.6 1.8 4.2 4 .2.7.1 1.5-.2 2.1-.5 1.2-1.7 1.4-2.4.4-.3-.3-.4-.7-.6-1-.4-.7-1-1.2-1.8-1.4-1.5-.4-2.6.1-3.6 1.2-1.7 1.8-1 4.8.7 6.3 1.1 1 2.4 1.3 3.8 1.2a6 6 0 004.4-2.2c1.6-1.8 2-4 1.4-6.2-.9-3.7-4-6.4-8-6.5H60c-1.4 0-2.5-.3-3.5-1.4l-.6-.4c-.4-.3-.9 0-1 .5 0 .3 0 .7.2 1 .1.4.4.8.6 1.1.2.4.5.6 1 .6l3.7.2 12.8.1h.1zm-5.8 89.2h-.3c-.8 0-1.1.5-1 1.3l.2 1.8.5 2c.2 1 1 1.5 2 1.6l1.4.2c1.7.2 3.2.9 4.2 2.2l2.1 3c.5.7 1 1 1.9 1h4.3c1.8-.3 2.8-1.4 3.5-3 .3-.6 0-1-.6-1.2L84 156a52 52 0 01-8.3-2.7c-1.5-.7-2.9-1.6-4-2.9l-2-2c-.7-.6-1.5-.8-2.2-.9zm-25-87.7l.1 1.7c.3 2 1 3.8 2.5 5.2a3.8 3.8 0 005.4 0c.8-.7 1.5-1.7 1.9-2.8 1.1-2.9 1-5.8 0-8.8-.4-1.1-1-2.1-2-3a3.6 3.6 0 00-4.7-.3c-.9.6-1.4 1.3-2 2.2-.9 1.7-1.2 3.6-1.3 5.8zm6.2 98.5v5.4c0 .5.3.8.9.9h.6l4.1-.6c1.2-.3 1.5-.7 1.6-2l.1-1.5c.3-2 0-3.8-.5-5.6-.3-1-1-1.8-1.8-2.3-.9-.5-1.8-.8-2.7-1-1.4-.1-2.3.6-2.3 2v4.7zm32.5 17.4c0-1 0-1.1-1-.9l-1.5.6c-1.3.6-2.6 1-4 .7-1.4-.4-2.8 0-4 .5l-1.4.7c-1.2.6-2.5.7-3.9.3a7 7 0 00-3.8.2c-.5.1-.8.4-1 .8l-1.1 2.1c-.4.7-.4.8.4 1l.5.2c.4.3.8.2 1.2 0l.8-.3c.9-.2 1.7-.5 2.6-.6 1.2-.2 2.3 0 3.3.5.7.3 1.1.2 1.7-.3a6.7 6.7 0 015.5-2c.6.1 1.2 0 1.7-.4.5-.5 1.2-.8 2-.9l1.4-.1c.3 0 .5-.2.5-.5l.1-1.6zm-34-100.9l-.5-4.6c0-.5-.3-.8-.7-1a6.8 6.8 0 01-3-2.3 11.8 11.8 0 01-2.1-5c0-.2 0-.5-.2-.7-.1-.5-.4-.6-.7-.2l-.6.8a779.9 779.9 0 00-3.1 5.5c-.5 1-.4 1.3.4 2l.6.3 9 5.9c.3.1.6.5.9.2.1-.1 0-.5 0-.8zm.6-59.7h1.5c1.2 0 2-.5 2.6-1.3a5.2 5.2 0 00.3-6.4c-.4-.6-.8-.6-1.3-.2l-.9.5c-1.5 1-3.1 1-4.6-.1l-.5-.4c-.7-.4-1-.4-1.5.3l-.5.9c-.3.7-.4 1.5-.3 2.3 0 1.5.6 2.7 1.6 3.6.5.5 1.2.8 2 .8h1.6zM47 198.6v-.6-9.2c0-1.2-.2-1.5-1.4-1.5-1.5 0-3 .5-4.4.8-.4.1-.5.4-.5.8.1.7.5 1.1 1.2 1.4 2 1 3.1 2.6 3.4 4.8.1 1 .2 2 .5 3 .6 2 .4 3.8-.3 5.7a20 20 0 01-2 3.8l-.6 1.5c-.2.7 0 1 .8 1.2.7.2 1.4.3 2.2.3.8 0 1.3-.2 1.2-1.4V208v-9.3zM45.8 92.1c.1 0 .4 0 .5-.2.2-.3 0-.6-.2-.8l-.7-.5-9.9-6.7-.7-.5c-.6-.4-1-.2-1 .5l.1 1.4.6 5.7c.2 1.1.5 1.3 1.5 1.2l4.6-.5 3.4.2 1.8.2zM60 145.4c1 0 2-.3 2.9-.6 3.2-1.2 6.2-2.8 9.2-4.4l.3-.3c.5-.4.4-1-.2-1.2-.7-.3-1.4-.3-2.1-.2a27 27 0 00-5.5 1.9l-3.2 1.4c-.6.3-1.2.4-1.9.4a17 17 0 01-3.4-.3h-.6l.2.7.4.5c1 1.3 2.3 2.1 4 2zM72.5 131c-1.6-.1-3.5.4-5.4.9h-.3.3c2 0 4 .3 6 .9l2.3.7c2 .6 4 1 5.8 1.7 1 .5 1.7 1.1 2.2 2.1l.4.8c.2.3.3.5.7.5.4 0 .7-.2.8-.6l1.1-3.4c.2-.6-.1-1.1-.7-1.4l-.8-.2-4.3-1c-2.5-.5-5-1-8-1zm-49 86.9h1.6l2.8-.7c1.8-.4 3.1-1.6 4.7-2.4l.3-.3c1-1 1.7-2.1 2.3-3.4l.1-.7-.7.3a28 28 0 01-6.4 3.3c-1.7.5-3.4 1-5.2 1-1.2 0-2.4-.2-3.6-.5-.6-.2-1 .1-.8.8l.2.6c.5.9 1.3 1.3 2.1 1.7.9.3 1.8.4 2.7.3zm29.2-19.5c.1 1.4.5 2.7 1.2 4a20.3 20.3 0 008.2 7.7l.8.2c.6-.1 1.2-.4 1.7-1s.5-1-.4-1.4c-2.1-1.1-4.1-2.4-5.9-4.1a17 17 0 01-4.6-6.7c-.2-.4-.5-.4-.7 0l-.3 1.3zm-3.9 45.7v9l.2.7c.4-.1.4-.4.4-.7l.7-3.8 2-13.1.1-1c.1-.8-.2-1.2-1-1.2h-.7c-1.4 0-1.7.3-1.7 1.6v8.5zm-33.3-39.4v.3c.1.3-.1.8.3.9.4 0 .4-.4.6-.7.6-1 1-2.2 1.7-3.2 2.6-4 6.2-7.1 10.4-9.5l.6-.3c.3-.2.3-.4 0-.6l-.6-.3c-.5 0-1 0-1.4.3-1 .6-2 1-3 1.7a21.5 21.5 0 00-6.5 5.8 10 10 0 00-2 5.6zm29.1-71.2h1.2c.8 0 1.2-.4 1.2-1.2 0-.7-.4-1-1.1-1.1h-.5l-7.7-.3h-1.3c-.3 0-.6.2-.6.5 0 .4 0 .6.4.8l.9.3c2.5.6 5 .9 7.5 1zm21-37.9v.1l2.6-.2c.4 0 .8-.4.9-.8 0-.5-.3-.7-.6-.9-1.2-.7-2.5-1-3.8-.7-.5 0-1 .3-1.4.5a1 1 0 00-.5 1.2c.1.5.4.8 1 .8h1.8zm3.7 76.2v-.4l-1-2c-.4-.5-.9-.6-1.4 0-.8.8-1.6 1.8-2.3 2.8-.2.2-.2.6-.1.8.1.3.5.3.8.2l2-.2 1.4-.3c.4-.1.6-.4.6-1zM16 168.6l1.3-.2c.7 0 1.2-.4 1.6-1.2l1.7-3.5.2-.4v-.4l-.4.1-.4.4a5023.1 5023.1 0 00-4.6 4.8l.1.4h.5zm-8.4.6c0 1.4.3 1.6 1.3 1.2l2.5-.9c.2 0 .3-.2.4-.3l-.3-.4-2.7-1.5c-.5-.3-.7-.2-.9.3l-.3 1.6zm51 17.7H58c-.3 0-.7.1-1 .3-.3.1-.5.4-.3.7.1.3.4.3.7.2l1.1-.4 1-.3.1-.2-.2-.3h-1z" fill="#000"></path><path d="M46.2 129.5H41c-2 0-4-.3-6.1-.4l-3.8-.3c-3-.3-6-.8-9-1.3-.6-.2-1.3-.3-1.8-.7l-.6-.2c-2-.7-3.8-1.8-5.4-3.2a15.9 15.9 0 01-4.3-6 13 13 0 01-1-5.4c0-.3 0-.7.2-1 1.3-4.8 3.6-9.1 7-12.8 3-3.5 6.7-6.1 10.8-8.2.7-.4 1.4-.6 2.2-.7.6-.1 1 .2 1.5.6.2.2.1.6 0 .8-.6.9-1.3 1.6-2.2 2l-2.8 1-1.8.6c-.2 0-.3.2-.5.4-.6.6-.5 1.4.2 1.8.5.3 1 .4 1.6.3 2.6-.2 5-1 7.5-1.8a22 22 0 0110-1.5c3.9.3 7.6 1.4 11.4 2.4 2.6.6 5.2 1.2 7.8 1.4 1.2.1 2.5.1 3.7.5 1.2.4 2.5.8 3.6 1.6 1.7 1.2 3 2.8 4 4.6.8 1.5 1.3 3.1 1.8 4.8.1.4.1.8-.1 1.3-.4.6-.2 1 .3 1.4.2.2.5.5.5.7a18 18 0 01-1.2 10.6 8 8 0 01-4.4 4.1 21 21 0 01-5.8 1.6 221 221 0 01-11.5.9l-6.5.2v-.1zm-26.7-27.3l.4-.1c.5-.2.7-.5.7-.9 0-.3-.2-.7-.6-.8h-.9c-.5.1-.8.6-.7 1 0 .4.5.8 1.1.8zm45.8 13.1c0-.5-.3-1-.8-1-.6 0-1 .6-1 1.2 0 .5.4 1 .9 1s1-.5 1-1.2zm-13-5c0 .5.4 1 1 1 .5 0 1-.5 1-1 0-.6-.5-1-1-1-.6 0-1 .4-1 1zm17 11.5c0-.6-.5-1.2-1-1.1a1 1 0 00-1 1c0 .5.6 1 1 1 .6 0 1-.4 1-.9zm-38.7 2.4c0-.6-.3-.9-.9-.9-.5 0-1 .5-1 1 0 .6.3 1 .8 1 .6 0 1.1-.6 1.1-1.1zM18 113.4c0-.5-.6-1-1.1-.9-.5 0-1 .5-1 1s.5.9 1.1.9c.6 0 1-.5 1-1zm49.5-8.2a.9.9 0 001-.8c0-.6-.6-1.2-1.1-1.2a1 1 0 00-.9.9c0 .5.5 1 1 1zm-39.9 1.6c0-.5-.4-.9-1-.9a1 1 0 00-1 1c0 .4.5.8 1 .8.6 0 1-.3 1-.9zm5 4c.6 0 1-.4 1-.9s-.4-1-1-.9c-.5 0-1 .4-1 1 0 .4.4.8 1 .8zm7.2-10.2c0 .5.4 1 1 1 .4-.1.8-.6.8-1 0-.5-.4-1-1-1a.9.9 0 00-.8 1zm-22.1 22.8a.9.9 0 00-1-.8c-.5 0-1 .5-.9 1 0 .4.4.8 1 .8.5 0 .9-.4.9-1zm39 1.3c0 .5.4 1 .9 1 .4 0 .8-.5.8-1 0-.4-.4-1-1-.9-.4 0-.8.4-.8.9zm13.2-13c.6 0 1-.4 1-1 0-.4-.6-.8-1-.8a1 1 0 00-.9 1c0 .4.4.8 1 .8zm-18-9.8c0-.5-.4-.9-.9-.9-.4 0-.9.5-.8 1 0 .4.4.8.9.8s.8-.4.8-.9zm-7 16.5c.5 0 .9-.3 1-.8 0-.4-.5-.8-1-.8-.4 0-.8.4-.9.8 0 .4.5.8 1 .8zm5 9.6a1 1 0 00-.8-.9c-.4 0-.9.4-.9.9a.9.9 0 00.6.8h.3c.5 0 .8-.3.8-.8zm-8.1-10.6c0-.5-.4-.9-.9-.8-.4 0-.8.4-.8.8 0 .5.5.9.9.8a.8.8 0 00.8-.8zm-8.4-17.3a.7.7 0 00-.7-.7c-.3 0-.7.3-.7.7 0 .4.3.7.7.7a.7.7 0 00.7-.7zM85.6 212.7c0 3.3-1.3 6-3.4 8.3a25 25 0 01-6.6 5 47.6 47.6 0 01-20 6c-.8 0-1.7 0-2.5.2-.5 0-1 0-1.5-.3-.5-.4-1-.4-1.4 0-.3.4-.7.4-1.1.4l-6-.2a45.9 45.9 0 01-20.6-6.3 16.3 16.3 0 01-4.7-4.7 7.7 7.7 0 01-1.4-3.7v-1c0-.4.3-.4.4-.2l.3.4c1.3 2.1 3.3 3 5.6 3.2h2.5c.5 0 1 0 1.5.2l6.8 2c.6.3 1.3.4 1.9.5.3 0 .5.2.3.6v.3c0 .5.3.9.8 1 .5 0 1-.3 1-.9 0-.6 0-.6.7-.5 2.2.3 4.4.5 6.6.5 1.5 0 3 .2 4.5.1 2.4 0 4.7-.1 7-.5 1-.1 2-.4 2.8-.3 2.6 0 4.8-1 7.1-1.7 4.4-1.2 8.6-3 12.4-5.7a23 23 0 006-5.6c.3-.4.6-.4.7.2.2.8.2 1.6.2 2.3v.4zm-22.4 16c0-.6-.4-1-.9-1s-1 .6-1 1.1c0 .6.4 1 1 1 .5 0 .9-.5.9-1zm-8.4-3c.5 0 .9-.3.9-.8 0-.7-.4-1.1-1-1.1a1 1 0 00-.9 1c0 .5.5 1 1 1zm28.4-11c0-.5-.4-.9-.9-.9s-.9.5-.9 1c0 .6.5 1 1 1 .4 0 .8-.5.8-1zm-58.6 8.8c-.5 0-1 .3-1 .8s.5.9 1 .9c.6 0 1-.4 1-.8 0-.5-.4-1-1-1zm43.8-1.4c-.5 0-.9.4-.9.8 0 .5.5.9 1 .9.4 0 .8-.4.8-.8 0-.5-.4-.9-.9-1zm-36.2 7c.5 0 1-.4 1-.9a1 1 0 00-.9-.8 1 1 0 00-.9.8.9.9 0 00.8 1zm34.6-1.6a.9.9 0 00.9-1c0-.4-.4-.8-.8-.8a1 1 0 00-1 1c0 .4.4.7.9.8zM44.6 229a.8.8 0 00.8-.8c0-.5-.4-1-.8-1-.5 0-.9.4-1 .8 0 .5.5 1 1 1zm34-6.8a.8.8 0 00-1-.8.8.8 0 00-.6.7c0 .4.4.8.8.8s.8-.3.8-.7z" fill="#FEED01"></path><path d="M73.8 208.5a21.6 21.6 0 01-15.4-7c-1-1-1.8-2.2-2.4-3.5a8.3 8.3 0 01-.8-3.7c0-2 1-3.4 2.6-4.4 1-.6 2.2-.8 3.3-1 3.6-.2 7 .9 10.1 2.5a20 20 0 017 6c1 1.5 1.8 3 2 4.8.3 2.7-.9 4.6-3.1 5.6-1 .4-2.4.8-3.3.7zm3.8-2.7c.2-.1.5-.2.6-.4.2-.3.1-.6 0-.8l-.8-.5-7.2-4.8c-.7-.4-.7-.5-.1-1.2l1.9-2.3.4-.7c.2-.3 0-.6-.2-.8-.3-.3-.6-.3-.8 0l-.6.5-2.3 2.7c-.3.4-.4.4-.9.1 0 0-.2 0-.3-.2l-7-4.6-.8-.4c-.4-.2-.8-.1-1 .2-.2.3-.1.7.2 1l.6.4 7.1 4.7c.7.4.7.5.2 1.1l-2.3 2.8-.4.7c-.2.3 0 .5.1.7.3.2.6.3.8.1l.7-.5 2.3-2.9c.6-.7.7-.7 1.5-.2a3723.3 3723.3 0 017.5 5l.8.3zM21.8 138.7c-.7 0-1.2.4-1.6 1l-1.2 1.5c-.4.5-.8 1-1.3 1.3a2 2 0 01-2.6 0l-1.3-1.3-.8-.8c-.4-.4-.9-.6-1.5-.7l-2.3-.3-.9-.3c-.6-.4-.6-1 0-1.4l1.4-.5c1.6-.5 3.2-.6 4.9-.7l2.7-.2h1l2.2-.1 5.4-.8 1.6-.2c3-.4 6 0 9 1l1.8.6c1.7.5 3.3 1.3 4.8 2.4l3 1.7c.8.4 1.5 1.6 1.3 2.4l-.3.6-4.5 6.1-1 1.3c-.5.7-1 .7-1.6 0l-2-2.3c-2-2.2-4.5-3.7-7.6-4.1a36.5 36.5 0 00-6.2-.3c-.5-.1-.7-.3-.7-.8l.3-1c.3-1 .3-1.9-.1-2.8-.4-.9-1-1.3-1.9-1.3zM41.6 40.6v-9.4c.3-3.9 1-7.7 2.9-11.2.4-1 1-1.7 1.6-2.6.5-.7 1.1-.8 1.9-.4l1 .8a16 16 0 014.3 7.7c.5 2 .7 4 .8 6 .3 6.2 0 12.5.1 18.8v.5l-.4-.3c-1.5-2.7-3-5.3-4-8.3l-1-4-.4-2.6c0-.6-.3-.9-.7-.8-.4 0-.7.4-.7 1 0 2.4-.7 4.7-1.5 7a47.9 47.9 0 01-3.8 8v-.2l-.1-.7v-9.3z" fill="#07B8BA"></path><path d="M22.8 213.5c-1-.1-1.9-.2-2.8-.6a3.8 3.8 0 01-2.5-3c-.2-.9 0-1.8.1-2.8.4-1.4 1-2.7 1.9-4A27.2 27.2 0 0135 191.8c1.8-.4 3.6-.6 5.4-.1 2 .6 3 2 3 4 0 1.9-.6 3.5-1.5 5a25 25 0 01-7 7.8c-2.8 2-5.8 3.7-9.1 4.4-1 .3-2 .4-3.1.6zm2.7-3.6c0 .6.3 1 .6 1 .4 0 .7-.2.9-.7l.8-2.5 1.6-4.2c.2-.7.3-.7.9-.2l2 2.2 1.3 1.2c.3.3.6.3 1 0 .2-.3.2-.6 0-1l-.3-.4-2.5-2.6c-.2-.3-.7-.5-.6-.8.2-.2.6-.3 1-.4l6.7-1.3.5-.2c.4-.2.6-.5.6-.8-.1-.4-.5-.6-1-.6h-.4l-4 .9h-.9l.6-.6 5.4-4 .8-.7c.2-.3.3-.6 0-.9-.1-.3-.4-.4-.8-.2a4 4 0 00-.7.4l-7 5.3c-.3.1-.5.5-.9.4l.3-.9 1.5-3.3.3-1.2c.1-.4 0-.6-.4-.8-.4-.1-.6 0-.8.3l-.4.8-2.3 5.1v.2l-.5.1-.3-.3-1-1-.6-.5c-.3-.2-.7-.2-.9 0-.2.3-.3.7 0 1l1.2 1.4.4.7-.7.3-5.6 1.1-1 .3c-.3.1-.4.4-.3.8 0 .3.3.4.5.5l1-.1 4-.8h.7l-.5.5-6 4.6-1 .8c-.2.3-.3.6 0 .8.2.3.4.4.8.3l.7-.5a1716.2 1716.2 0 007-5V205c-.6 1.4-1 2.8-1.5 4.3l-.2.6z" fill="#FF65BE"></path><path d="M47.8 221.8h-3.2a54 54 0 01-7.5-.9l-1.9-.3-.1-.2h.1l.9-.3c3-.8 6-1.9 9-3.3.3-.2.9-.3.8-.9 0-.6-.5-.8-1-1-1.4-.3-2.6-1-3.8-1.7a3 3 0 01-.7-.6c-.2-.2-.4-.5-.2-.7l.8-.4.7.2c1.5.4 3 .6 4.4.5H50c2.4-.2 4.9-.6 7-1.8 1-.4 1.7-.4 2.5.2a23 23 0 007.4 3.2l1 .2c1 .2 1.5 1 1 2-.1.3-.4.6-.7.8a17 17 0 01-9 4c-2.2.4-4.4.8-6.7.9l-4.6.2v-.1zM62.9 169.1l-.3 2.5-.5 1.3-3.2 5.4-.5.9c-.4.6-.8.7-1.5.3l-1.7-1.2a104 104 0 00-10.8-6.6c-2.4-1.3-5-1.8-7.7-2.2l-2.2-.4c-.3 0-.5 0-.7-.2-.3-.2-.5-.5-.3-.9.3-.9.8-1.7 1.6-2.4.3-.2.7-.3 1.1-.2 1.4.5 2.8.5 4.2.7 3 .4 6.1.4 9.2.3a25.7 25.7 0 009-2l.6-.6c.3-.4.2-.9-.3-1.1l-.6-.2c-.3-.2-.5-.5-.4-.8.2-.3.4-.4.7-.3h.3c.8.5 1.6.8 2.2 1.6a10 10 0 011.5 4.3l.3 1.8z" fill="#FEED01"></path><path d="M27.9 177.6l-.7-.1a4806.1 4806.1 0 01-7.2-1.9c-.8-.3-1.2-.8-1-1.6a21 21 0 012-7.1l1.8-3.4c.5-.9 1.3-1.5 2.4-1.7a5.7 5.7 0 004-3.2c.3-.8.7-1.6 1.2-2.3a7 7 0 014-2.7c.3 0 .4.1.4.5l-.2.4-2 4a5.7 5.7 0 01-3 3 9.3 9.3 0 00-5.2 5.9l-1 3.9v1.1c0 .4.1.7.5.7.4.1.7 0 .8-.4l.4-1c.2-1.5.6-3 1.1-4.3.8-2 2-3.6 4.1-4.4 2-.9 3.3-2.4 4.1-4.4l1.5-2.9c.6-1 1.4-1.6 2.4-2 .4-.3.9-.4 1.3-.1h.3c1 .5 1.7.2 2.4-.4a8 8 0 011.2-1 2 2 0 01.9-.3c.2 0 .3.2.2.4 0 .2 0 .3-.2.4-1.2 1.6-2 3.5-2.9 5.2a9.4 9.4 0 01-4.3 4.3l-1.4.8a9.7 9.7 0 00-4.2 4.9c-1 2.2-1.5 4.4-2 6.7-.3.7-.4 1.5-.6 2.2-.1.6-.5.8-1.1.8zM67 157l-1.3.2c-.4 0-.7 0-.9-.4-.1-.3 0-.6.4-.9.7-.4 1.5-.6 2.3-.3l2.7.5c1.4.2 2.5.7 3.3 1.8.8 1 1.5 2 2.1 3.2 1 1.6 1.7 3.2 2.6 4.9l.2.6c.4 1 .3 1.4-.6 1.9l-5.3 3c-.8.4-1.2.2-1.7-.7-1-1.8-1.9-3.7-3-5.5-.6-1.1-1.3-2.1-2.1-3.1-1-1.2-2.2-2-3.8-2l-1.5-.1c-1-.3-1.9-.9-2.3-2l-.5-2-.2-1a5.8 5.8 0 00-3.7-4.4c-1.3-.6-2.7-.9-4-1.1l-2.5-.3-.4-.1c-.8-.2-1-.6-.5-1.3.9-1.5 1.3-1.6 2.9-1.3l6 1.5 3.4 1.3c1.4.7 2.2 1.8 2.1 3.4v1.8c0 2.8 2.4 4.8 5.2 4.3 1.6-.3 2.9.1 4 1.3 1.4 1.4 2.3 3 3 4.8l.6 1.6.5.7c.5.4 1 .2 1.2-.4v-.8c-1-2.7-2.2-5.3-4.3-7.3a5.5 5.5 0 00-4-1.7z" fill="#FF65BE"></path><path d="M26.5 56.6h9.3c1.3 0 2.4-.2 3.2-1.2l.7-.6c.4-.2.7-.2.9 0 .2.3.3.5 0 1-.7.9-1.6 1.6-2.7 2.1a13 13 0 01-5 1l-4-.1-5.1-.4c-2.4 0-4.9-.3-7.3.4a8.5 8.5 0 00-4.5 3c-.5.7-.8 1.6-.9 2.5 0 .5 0 1 .5 1.2.4.2 1.2 0 1.5-.4l.4-.6c1.2-2.6 4.5-2.2 5.8-.1 1.1 1.6.8 3.8-.4 5.4-2 2.2-5.3 2.2-7.5.7a6.4 6.4 0 01-2.8-6.7c.5-3.5 3-6.1 6.3-7l2-.2h9.6z" fill="#FEED01"></path><path d="M12.8 159.1c0 .3-.2.5-.5.6l-1.2.4c-.9.2-1.7.7-2.3 1.2l-.6.7c-.1.2-.1.5 0 .8.3.3.6.3.9.2.3 0 .5-.3.8-.4.6-.3 1-.7 1.6-.8a9.5 9.5 0 004.6-2.7l2-2.2c1.4-2 3.3-3 5.6-3.5l2.8-.6c1.5-.4 2.9-1 4-2 .7-.6 1.3-.6 2-.2.4.2.7.6 1 .9.3.2.2.4 0 .5l-.6.3a9 9 0 00-4.8 4.4l-.5 1.1c-.8 1.6-2.1 2.3-3.9 2.5-1.2.1-2.5.3-3.7.6-2 .4-3.7 1.5-4.8 3.2l-.7 1c-.8 1.2-1.2 1.3-2.4.9l-2.1-1a13061 13061 0 01-7-2.8c-.5-.4-.6-.8-.1-1.3l.8-.7c.8-.4 1.6-.6 2.5-.8l1.6-.1c1-.1 2-.5 2.7-1 .5-.5 1-.6 1.6-.3a1.2 1.2 0 01.7 1.1zM15.6 177.5v-.6c.2-.6.4-.7 1-.5l.9.5c.5.3 1 .6 1.7.5.3 0 .6.2.8.3l.3.3c.8.8 1.8 1 2.8.6.6-.2 1.1-.2 1.7 0l3.2.8a3 3 0 002-.2c1.3-.5 2.5-.8 3.7-.2 1.6.8 3.2.7 4.8.4l2.3-.3a9 9 0 013.2.2c1.3.3 2.6.3 4 .1l2.4-.4h.5c1.9-.2 2-.2 3.5.9l1.7 1.2c.4.3.3.5 0 .6l-2.3.5h-1l-1-.4a4.9 4.9 0 00-4.7.4c-.4.3-.9.3-1.4 0a6.3 6.3 0 00-4.3-.3l-1.6.5c-.5.1-1 .2-1.5 0l-.7-.3c-1-.4-2.3-.4-3.4 0a2 2 0 01-1.6 0 6.6 6.6 0 00-3.9-.5c-.7.2-1.5.1-2.2-.2-1-.6-2-.8-3-.6-.3 0-.5 0-.8-.2l-.7-.3c-.7-.4-1.4-.5-2.2-.3-.4.2-.7 0-1.1-.1-.7-.4-1.5-.8-2.3-1-.8-.4-.8-.4-.8-1.4z" fill="#FF65BE"></path><path d="M63 74.2c0 .8-.3 1.4-1 1.8l-2.6 2-10 7c-1 .8-2 .8-3 .1l-12-7.8c-1.4-.9-1.6-2-1.5-3.4 0-.7.5-1 1.2-.6l1 .7 11 7.4.7.5a2 2 0 002.3 0l2.2-1.5a24648.6 24648.6 0 0010.3-7c.8-.5 1.4-.1 1.4.8z" fill="#FFFDDF"></path><path d="M73.4 58.3h-.1l-12.8-.1-3.7-.2c-.5 0-.8-.2-1-.6l-.6-1c-.1-.4-.2-.8-.1-1.1 0-.6.5-.8 1-.5.2 0 .4.3.5.4 1 1.1 2.1 1.5 3.5 1.5h19c4 0 7.1 2.7 8 6.4.6 2.3.2 4.4-1.4 6.2a6 6 0 01-4.4 2.2c-1.4 0-2.7-.2-3.8-1.2-1.7-1.5-2.4-4.5-.7-6.3 1-1 2.1-1.6 3.6-1.2.8.2 1.4.7 1.8 1.4.2.3.3.7.6 1 .7 1 2 .8 2.4-.3.4-.7.4-1.5.2-2.3-.6-2.1-2-3.6-4.2-4a20 20 0 00-2.2-.1l-5.6-.2zm8 12.4c1.4 0 2.5-.7 3.5-1.6l.3-.6c.2-.6-.2-1-.8-.9a5 5 0 00-.7.3c-.6.2-1.1 0-1.6-.4s-.4-.9-.2-1.4c.2-.4.1-.7-.1-1a2.3 2.3 0 00-3.5-.6 3.6 3.6 0 00-.2 4.8c.9 1 2 1.4 3.4 1.4zM67.6 147.5c.7.1 1.5.3 2.2.8a26 26 0 012 2.1c1.1 1.3 2.5 2.2 4 3 2.7 1.1 5.5 1.9 8.3 2.6l1.7.4c.6.3.9.6.6 1.3-.7 1.5-1.7 2.6-3.5 3h-.3l-4-.1a2 2 0 01-1.9-1l-2-3c-1.1-1.3-2.6-2-4.3-2.2l-1.3-.2c-1-.1-1.9-.6-2.1-1.6l-.5-2-.2-1.8c-.1-.8.2-1.2 1-1.3h.3z" fill="#FEED01"></path><path d="M42.5 59.8c.1-2.2.4-4 1.4-5.8.4-.9 1-1.6 1.9-2.2 1.6-1 3.3-1 4.7.3 1 .9 1.6 1.9 2 3 1 3 1.1 6 0 8.8-.4 1.1-1 2-1.9 2.8a3.8 3.8 0 01-5.4 0 8.9 8.9 0 01-2.5-5.2l-.2-1.7zm.7-.5v.8c.2 1.4.5 2.8 1.2 4a4.3 4.3 0 003.4 2.4c.8.1 1.1-.2 1-1l-.1-1.3-.4-4-.4-5.3v-1.3c-.3-1-1-1.3-1.8-.7-1 .6-1.7 1.4-2.1 2.5-.5 1.2-.8 2.6-.8 3.9z" fill="#FF65BE"></path><path d="M48.8 158.3v-4.7c0-1.4 1-2.1 2.3-2 1 .2 1.8.5 2.7 1 .9.5 1.5 1.3 1.8 2.3.5 1.8.8 3.7.5 5.6v1.6c-.2 1.2-.5 1.6-1.7 1.9l-4.1.6h-.6c-.6-.1-.8-.4-.8-1v-1.8-3.5z" fill="#FFFDDF"></path><path d="M81.3 175.7v1.6c0 .3-.3.5-.6.5l-1.4.1c-.8 0-1.5.4-2 .9-.5.4-1 .5-1.7.4-2.2-.2-4 .6-5.5 2-.6.5-1 .6-1.7.3-1-.5-2.2-.7-3.3-.5-.9.1-1.7.4-2.6.6l-.8.4c-.4.1-.8.2-1.2 0l-.5-.2c-.8-.3-.8-.4-.4-1l1-2.2c.3-.4.6-.7 1-.8a7 7 0 014-.2c1.3.4 2.6.3 3.8-.3l1.4-.7c1.2-.5 2.6-.9 4-.5 1.4.3 2.7 0 4-.7l1.5-.6c1-.2 1-.1 1 1z" fill="#FF65BE"></path><path d="M47.3 74.8v.1c0 .3.1.7 0 .8-.4.3-.6 0-.9-.2l-9-5.9-.6-.4c-.8-.6-1-1-.4-1.9l.5-1a2829.5 2829.5 0 013.2-5.3c.3-.4.6-.3.7.2l.2.7c.3 1.8 1 3.5 2 5 .9 1 1.8 1.9 3 2.4.5.1.8.4.8.9l.6 4.6z" fill="#FFFDDF"></path><path d="M48 15h-1.8c-.7.1-1.4-.2-1.9-.7-1-1-1.6-2.1-1.6-3.6 0-.8 0-1.6.3-2.3l.5-1c.5-.6.8-.6 1.5-.2l.5.4c1.5 1 3 1 4.6.1l.9-.5c.5-.4 1-.4 1.3.2.3.6.7 1.2.8 1.9.3 1.6 0 3.2-1 4.5-.7.8-1.5 1.3-2.6 1.3h-1.6z" fill="#07B8BA"></path><path d="M47 198.6a13014.5 13014.5 0 00.1 10.6c.1 1.2-.4 1.4-1.2 1.4-.8 0-1.5-.1-2.2-.3-.7-.1-1-.5-.8-1.2l.7-1.5 2-3.8c.6-1.9.8-3.8.2-5.7-.3-1-.4-2-.5-3a5.8 5.8 0 00-3.4-4.8c-.7-.3-1-.7-1.1-1.4 0-.4 0-.7.4-.8 1.5-.3 2.9-.8 4.4-.8 1.2 0 1.4.3 1.4 1.5V198.6zM45.8 92.1L44 92l-3.4-.2c-1.5 0-3 .3-4.6.5-1 .1-1.3-.1-1.5-1.2l-.6-5.7v-1.4c0-.7.3-.9.9-.5l.7.5A12349.3 12349.3 0 0146.1 91c.3.2.4.5.2.8 0 .2-.4.2-.5.2z" fill="#FFFDDF"></path><path d="M60 145.4c-1.7 0-3-.8-4-2l-.4-.6-.2-.6h.6c1.1.2 2.3.2 3.4.2.7 0 1.3 0 1.9-.4l3.2-1.4c1.8-.8 3.6-1.5 5.5-1.9.7-.1 1.4 0 2 .2.7.2.8.8.3 1.2l-.3.3c-3 1.6-6 3.2-9.2 4.4-1 .3-1.9.5-2.9.6zM72.5 131c3 .1 5.6.6 8.1 1.2l4.3.9.8.2c.6.3.9.8.7 1.4l-1 3.4c-.2.4-.5.6-.9.6-.3 0-.5-.2-.7-.5l-.3-.8c-.5-1-1.3-1.6-2.3-2-1.9-.8-3.9-1.2-5.8-1.8l-2.3-.7c-2-.6-4-1-6-.8h-.3l.3-.1c2-.5 3.8-1 5.4-1z" fill="#07B8BA"></path><path d="M23.6 218c-1 0-1.8 0-2.7-.3-.8-.4-1.6-.8-2-1.7l-.3-.6c-.1-.7.2-1 .8-.8 1.2.3 2.4.5 3.6.5 1.8 0 3.5-.5 5.2-1a28 28 0 006.4-3.3l.7-.3-.1.7a8.9 8.9 0 01-2.3 3.4l-.3.3c-1.6.8-3 2-4.7 2.4l-2.8.7h-1.5z" fill="#FF65BE"></path><path d="M52.7 198.5l.3-1.3c.2-.4.5-.4.7 0l.3.6a17 17 0 004.3 6c1.8 1.8 3.8 3 6 4.2.8.4.8.8.3 1.5-.5.5-1 .8-1.7 1-.3 0-.6-.2-.8-.3a20.3 20.3 0 01-8.2-7.7c-.7-1.3-1.1-2.6-1.2-4z" fill="#07B8BA"></path><path d="M48.8 244.2v-8.5c0-1.3.3-1.6 1.7-1.6h.7c.8 0 1.1.4 1 1.2l-.1 1a12837.2 12837.2 0 01-2.7 17c0 .2 0 .5-.4.6l-.1-.7v-6-3z" fill="#FFFDDF"></path><path d="M15.5 204.8c0-2 .9-3.9 2-5.6 1.8-2.4 4-4.2 6.6-5.8l3-1.7c.4-.2.9-.3 1.4-.3l.7.3c.2.2.2.4 0 .6-.3 0-.5.2-.7.3a29.3 29.3 0 00-10.4 9.5c-.7 1-1.1 2.1-1.7 3.2-.2.3-.2.8-.6.7-.4 0-.2-.6-.3-1v-.2z" fill="#FEED01"></path><path d="M44.6 133.6a36.4 36.4 0 01-8.4-1.3.7.7 0 01-.4-.8c0-.3.3-.5.6-.5h1.3c2.6 0 5.1.2 7.7.3h.5c.7 0 1.1.4 1.1 1.1 0 .7-.3 1.1-1.1 1.2h-1.3z" fill="#FFFDDF"></path><path d="M65.6 95.7h-1.8c-.6 0-.9-.3-1-.8a1 1 0 01.5-1.2l1.4-.5c1.3-.3 2.6 0 3.8.7.3.2.7.4.6.9a1 1 0 01-1 .8l-2.4.2z" fill="#FEED01"></path><path d="M69.3 171.9c0 .5-.2.8-.6.9l-1.3.3-2.1.2c-.3 0-.7 0-.8-.2-.1-.2 0-.6 0-.8l2.5-2.9c.4-.5.9-.4 1.2.2l1 1.9.1.4z" fill="#FF65BE"></path><path d="M16 168.6h-.5c-.2 0-.2-.2 0-.4l.3-.4 4.2-4.4.4-.4h.4v.3l-.2.4-1.7 3.5c-.4.8-.9 1.1-1.6 1.2l-1.3.2zM7.6 169.2l.3-1.6c.2-.5.4-.6.9-.3l2.7 1.5.3.4c-.1.1-.2.3-.4.3l-2.5 1c-1 .3-1.3 0-1.3-1.3z" fill="#FEED01"></path><path d="M58.6 186.9h.9l.2.3-.2.2-.9.3-1.1.4c-.3 0-.6.1-.7-.2-.2-.3 0-.6.3-.7.3-.2.7-.2 1-.3h.5z" fill="#fff"></path><path d="M19.5 102.2c-.6 0-1-.4-1.1-.8 0-.4.2-.9.7-1h1c.3.2.5.5.5.8 0 .4-.2.7-.7.9a3 3 0 01-.4 0zM65.3 115.3c0 .7-.4 1.2-1 1.2-.4 0-.8-.5-.8-1 0-.6.4-1.2 1-1.2.5 0 .8.5.8 1zM52.3 110.2c0-.5.4-.9 1-.9.5 0 1 .4 1 1 0 .5-.5 1-1 1-.6 0-1-.5-1-1zM69.3 121.8c0 .5-.4.9-1 .9a1 1 0 01-1-1c0-.5.4-1 1-1 .5 0 1 .5 1 1.1zM30.6 124.2c0 .5-.5 1-1 1-.6 0-1-.3-1-.8 0-.6.6-1 1.1-1 .6 0 1 .2 1 .8zM18 113.4c0 .5-.4 1-1 1s-1-.4-1-1c0-.4.4-.8.9-.9.5 0 1 .4 1 1zM67.5 105.2c-.5 0-1-.6-1-1.1 0-.5.4-.9.9-.9s1 .6 1 1.2a.9.9 0 01-.9.8zM27.6 106.8c0 .6-.4 1-1 1-.5-.1-1-.5-1-1s.5-1 1-.9c.6 0 1 .4 1 1zM32.6 110.8c-.6 0-1-.4-1-.9s.5-.9 1-.9c.6 0 1 .4 1 1 0 .4-.4.8-1 .8zM39.8 100.6a.9.9 0 01.9-1c.5 0 1 .5 1 1 0 .4-.5.9-1 1-.5 0-1-.5-1-1zM17.7 123.4c0 .6-.4 1-1 1a.9.9 0 01-.9-.8c0-.5.4-1 1-1a.9.9 0 01.6.2.9.9 0 01.3.6zM56.6 124.7c0-.5.4-.9.9-.9s1 .5 1 1c0 .4-.5.8-1 .8a1 1 0 01-.9-1zM70 111.7c-.6 0-1-.4-1-.8 0-.5.4-1 .9-1 .4 0 1 .4 1 .9s-.4.9-1 .9zM51.9 101.9c0 .5-.3.9-.8.9a.8.8 0 01-1-.8c0-.5.5-1 1-1 .4 0 .8.4.8.9zM45 118.4c-.5 0-1-.4-1-.8s.5-.8 1-.8c.4 0 .8.4.8.8 0 .5-.4.8-.9.8zM50 128c0 .5-.4.8-.9.8a.9.9 0 01-.6-.2.9.9 0 01-.3-.6c0-.5.5-1 .9-.9.4 0 .8.4.8 1zM41.8 117.4a.8.8 0 01-.8.8c-.4 0-.9-.3-1-.8 0-.4.5-.8 1-.8.4 0 .8.3.8.8zM33.4 100.1a.7.7 0 01-.7.7c-.4 0-.7-.3-.7-.7 0-.4.4-.7.7-.7a.7.7 0 01.7.7zM63.2 228.7c0 .6-.4 1-1 1-.5 0-.9-.3-.9-.9 0-.5.5-1.1 1-1.1s.9.4.9 1zM54.8 225.8a1 1 0 01-1-1c0-.5.4-1 1-1 .5 0 .9.4.9 1s-.4 1-.9 1zM83.2 214.7c0 .6-.4 1-.9 1-.4 0-.8-.3-.9-.8 0-.6.4-1 1-1 .4 0 .8.3.8.8zM24.6 223.5c.6 0 1 .4 1 .9 0 .4-.4.8-1 .8-.5 0-1-.4-1-.9s.5-.8 1-.8zM68.4 222c.5.1 1 .5.9 1 0 .4-.4.8-.8.8-.5 0-1-.4-1-.9 0-.4.4-.8.9-.8zM32.2 229.1a.8.8 0 01-.8-.9c0-.4.5-.8 1-.8.4 0 .8.4.8.8 0 .5-.5 1-1 1zM66.8 227.5c-.5 0-.8-.4-.8-.8 0-.5.4-1 .9-1a.8.8 0 01.7 1.2.9.9 0 01-.8.6zM44.6 229c-.5 0-1-.4-.9-.9 0-.4.4-.7.9-.7.4 0 .9.4.8.9a.8.8 0 01-.8.8zM78.6 222.3c0 .4-.4.8-.8.7a.8.8 0 01-.8-.8.8.8 0 01.3-.5.8.8 0 01.6-.2c.4 0 .8.4.7.8zM77.6 205.8l-.8-.4a217.9 217.9 0 01-7.5-4.9c-.8-.5-.9-.5-1.5.2l-2.3 2.9a3 3 0 01-.7.5c-.2.2-.5.1-.8 0-.2-.3-.3-.5-.1-.8 0-.3.2-.5.4-.7l2.3-2.8c.5-.6.5-.7-.2-1.1a2231.3 2231.3 0 00-7.7-5.1c-.3-.3-.4-.7-.2-1 .2-.3.6-.4 1-.2l.8.4 7 4.6.3.2c.5.3.6.3 1-.1l2.2-2.7.6-.5c.2-.3.5-.3.8 0 .3.2.4.5.2.8l-.4.7-2 2.3c-.5.7-.5.8.2 1.3 2.4 1.5 4.8 3 7.2 4.7l.7.5c.2.2.3.5.1.8-.1.2-.4.3-.6.4zM25.5 209.9l.2-.6a1737 1737 0 011.5-4.9h-.3l-.7.6a14481.6 14481.6 0 00-6.7 4.9c-.4.1-.6 0-.8-.3-.3-.2-.2-.5 0-.8l1-.8 6-4.6.5-.6h-.7l-4 .9h-1a.6.6 0 01-.5-.4c-.1-.4 0-.7.3-.8l1-.3 5.6-1.1.7-.3-.4-.7-1.3-1.5c-.2-.2-.2-.6.1-.8.2-.3.6-.3.9-.1l.6.5 1 1 .3.3h.4l.1-.3 2.3-5.1.4-.8c.2-.2.4-.4.8-.3.3.2.5.4.4.8L33 195l-1.5 3.3-.3.9c.4 0 .6-.3.9-.4l7-5.3.7-.4c.4-.2.7-.1.9.2.2.3.1.6-.1.9a7 7 0 01-.8.7l-5.4 4-.6.7.9-.1 4-.8.5-.1c.4 0 .8.2.9.6 0 .3-.2.6-.6.8l-.5.2-6.7 1.3c-.4 0-.8.2-1 .4-.1.3.4.5.6.8l2.5 2.6c0 .2.2.3.3.5.2.3.2.6 0 .9-.4.3-.7.3-1 0l-1.3-1.2-2-2.2c-.6-.5-.7-.5-1 .2l-1.5 4.2-.8 2.5c-.2.5-.5.8-.9.7-.3 0-.6-.4-.6-1zM81.5 70.7c-1.4 0-2.5-.4-3.4-1.4-1.1-1.3-1-3.6.2-4.8 1-1 2.8-.7 3.5.5.2.4.3.7 0 1.1-.1.5-.2 1 .3 1.4.5.4 1 .6 1.6.4l.7-.3c.6-.1 1 .3.8.9l-.3.6c-1 1-2 1.7-3.4 1.6zM43.2 59.3c0-1.3.3-2.7.8-4 .4-1 1-1.8 2-2.4 1-.6 1.6-.3 1.8.7L48 55l.4 5.2.4 4 .1 1.4c.1.8-.2 1.1-1 1-1.5-.2-2.7-1-3.4-2.4-.7-1.2-1-2.6-1.1-4v-.8z" fill="#000"></path></g><defs><clipPath id="sword-burger_svg__clip0"><path fill="#fff" transform="translate(.3)" d="M0 0h88.8v268.1H0z"></path></clipPath></defs></svg>