  <svg viewBox="0 0 178 152" fill="none" xmlns="http://www.w3.org/2000/svg"><defs></defs><path d="M121.3 62.9l.2 2.8a81 81 0 01-.8 17c-.5 3-1.2 5.8-2.4 8.5-.6 1.6-1.5 3.1-2.5 4.5-.9 1.2-.9 1.3 0 2.4a2089 2089 0 006.6 8.4c.2.2.5.1.6-.2l.2-.7 2.9-14.4.2-1.1c.4-1 1.4-1.3 2.3-.6l.5.7a1057.3 1057.3 0 0115.5 19.4 24322.2 24322.2 0 0032.5 41.1c.2.3.2.6 0 1-.2.2-.6.4-1 .3l-.6-.3-.7-.6a17901.8 17901.8 0 01-23-21.5l-.6-.6-8.8-8.2-2.7-2.5c-.8-.7-1.8-1-2.9-1-.4 0-.7.2-.8.7l-1.7 4.2-3.7 10.7-.5 1.5c-.3 1.2-1.6 1.3-2.3.6l-1.2-1.5a21795.8 21795.8 0 01-19.1-23.2c-.6-.7-1.5-.6-2 0-.6.9-1 1.8-1 2.8l-.2 3.7-.2 4.5-.1 3.4-.2 2c-.2 1.6-1.9 2.4-3.3 1.2l-.7-.7-1.4-2a104.1 104.1 0 01-4.5-8c-.4-.6-.8-.8-1.6-.5-2 .7-4 1.7-5.8 2.7l-5.4 3a31 31 0 01-15.3 3.2H60l-2.3.1a87.8 87.8 0 01-35.8-6.7 110 110 0 01-10.7-5.1c-.4-.5-.4-1 .2-1.5l.8-.5c1.6-.8 3-1.9 4-3.3a7.9 7.9 0 001.9-5.4c-.2-3-1.4-5.4-3.3-7.5a23 23 0 00-7-5.1l-2.6-1.2-.7-.4c-.8-.5-.9-1.3-.2-2l.7-.7c1.2-1 2.3-2.3 3-3.7.9-1.6 1.3-3.4 1.3-5.2a16 16 0 00-1.7-6.7A33 33 0 002 62.8l-1-1.1-.5-.7c-.3-.6-.2-1.2.3-1.7l.7-.5c1.4-.9 2.7-1.9 3.8-3A12 12 0 008.8 48a17 17 0 00-2.3-9L6 38c-.1-.3-.3-.5-.3-.8-.3-.7 0-1.4.6-1.8l1-.5a17 17 0 004.2-2.6c1.5-1.3 2.7-2.8 3.5-4.6 1.6-3.5 1.5-7-.2-10.5L13.3 15l-.6-1c-.4-.8-.3-1.6.4-2.2l.8-.7A62.8 62.8 0 0144.4.4l2-.2 7-.2c2.7 0 5.4.2 8 .5h2.7c1 .1 2.1.2 3.1.5 1.5.3 2.8 1 3.8 2.2.4.5 1 .7 1.6.8l3.4.5a51.9 51.9 0 0121.3 9 38.1 38.1 0 0112 14.8l3 3.8a50 50 0 017 16 82 82 0 011.9 13.5l.1 1.3zm-27.1 5.3c-.5 0-.9.3-1.2.5a42.5 42.5 0 01-12.6 5.8c-.2.1-.3.3-.1.5l1.6 1.4c.3.4.7.4 1.1.2a40.1 40.1 0 0010.2-7.3l1-1.2zM8.8 39l.4 1c1 2.6 1.7 5.2 1.6 8-.1 1.8-.5 3.5-1.2 5-1 2.4-2.6 4.2-4.5 5.8l-.7.6c-.5.4-.4.7.2 1l.8.2c1.4.4 2.8.7 4.1 1.2 1 .3 1.9 0 2.7-.2.5-.2.9-.5 1-1 0-.6-.3-1-.8-1.3l-1.1-.3-2.1-.4c-.3 0-.5 0-.7-.3 0-.3 0-.6.4-.9l.5-.3 1.3-1.1c1-1 1.5-2.1 1.8-3.4.7-2.4.8-4.8.4-7.3a11 11 0 00-2.3-5c-.5-.6-1-1-1.8-1.3zm34.7 32.2l2.9 2.2A35.5 35.5 0 0067.9 80l3.5-.2c1-.1 1.5-1.2 1-2.1 0-.2-.2-.4-.4-.6-.7-.7-1.6-1-2.6-1a53 53 0 01-24-4.3l-1.9-.7zM59 9.9l-.2-3.6a8 8 0 00-.7-2.7c-.5-1-1.4-1.6-2.6-1.7-.6 0-1.2 0-1.8.3l-2.8 1.5a22.9 22.9 0 01-7.5 3c-2 .8-4.2.9-6.3.6-.8 0-1.6-.2-2.4 0a49.6 49.6 0 00-11.1 4.3c-.3.1-.4.5-.2.7l.8.9c1 1.1 1.7 2.4 2.2 3.8.3 1.1.6 2.2.6 3.4l.1 4c.1 1.6 0 3.1-.3 4.7-.5 2.2-1.5 4.3-3 6a28.2 28.2 0 01-5.2 4.4c-1 .6-1 1-.2 1.8 1 1.1 1.9 2.4 2.6 3.7a14 14 0 011.6 6.9c0 2.7-1 5-2.8 7.2-1.3 1.5-3 2.7-4.7 3.6l-.8.4c-.3.3-.3.6 0 .9l.6.6c1.3 1.1 2.4 2.4 3.2 3.8 1.3 2.2 2.1 4.4 2.3 7v2c.1.7.3.9 1 1l1.8.3c1.7.4 3.2 1 4.4 2.2.7.8 1.3 1.6 1.8 2.6l1.1 1.9a4 4 0 002.1 1.5l1.2.4c1.3.4 2.4 1.2 3.3 2.2 2.3 2.5 1.8 6-1 7.9-.8.5-1.7.8-2.6 1l-2.5.6a7 7 0 00-2.6 1.6c-.7.6-1 1.3-.8 2.2l.1 1a18.5 18.5 0 01-1.2 7.1c-.1.4 0 .7.3.9l.4.3 4.5 2.7.3.2c.5.2.8.2 1.2-.2 0 0 .2 0 .2-.2 2.1-1.7 4.6-2.9 7.2-3.6l3.5-.9c1.5-.4 3-1 4.2-1.9.8-.5 1.6-1 2.3-1.7l4.2-3.7 2.2-1.7c1.2-.7 2.3-.7 3.5 0 1.8 1 2.8 2.7 3.2 4.7 0 .6.2 1.1.3 1.7.4 2.7 1.7 5 3.6 7 1.3 1.4 3 2.3 4.9 2.7l1.9.3A4 4 0 0177 119l.5.6c.4.5 1 .7 1.6.7a5 5 0 002.7-.8l3.2-2.3c1-.6 1.6-1.4 2.2-2.2a7.1 7.1 0 001.5-5.3v-.7c-.1-.8-.5-1.5-1-2.2-.3-.6-.8-1-1.5-1.1l-.9-.3c-3-1.2-4.6-3.7-4.5-7.2 0-1 .2-2 .4-3a3 3 0 00-.3-2L75.2 83c-.4-.8-1-1.2-2-1.3a4 4 0 00-1.5 0l-1.2.1a38.8 38.8 0 01-24.9-6.8L39.7 71a53 53 0 00-6.6-4 13 13 0 00-4.3-1.5c-1 0-1.8 0-2.7-.2l-1.4-.1c-.7-.2-.9-.8-1-1.4 0-.6.2-1 .7-1.3l1-.4a191.7 191.7 0 003.5-1.6.5.5 0 00.1-.7l-.6-.8c-.9-1.2-1-2.5-.4-3.8l1.1-1.6 1.2-1c.8-.8 1.5-1.4 2-2.3.5-.8.8-1.5.7-2.4l-.3-3.1c0-1-.3-2-.4-3-.2-2 .1-3.8 1-5.5 1-1.8 2.3-3.2 4-4.2 4.3-2.5 8.6-2.6 13-.6l3.5 1.9 7 3.9c.8.5 1.7.6 2.6.5 1.6-.1 3.2-.4 4.8-.4A37.3 37.3 0 0191 44.2l6.9 5c2 1.5 4.1 2.9 6.4 4a18.8 18.8 0 008.8 2.2c.6.2 1 .6 1 1.1.1.6-.1 1.2-.7 1.4-.2.2-.5.2-.8.3l-3.2 1.3a31.6 31.6 0 00-7.5 4.9c-3 2.5-5.8 5.1-8.7 7.7a37 37 0 01-8.6 6c-.3.2-.3.3-.1.5l.3.3 5.8 5.1c.3.2.5.6.8.4.3-.2.3-.5.3-.8 0-1.3.3-2.5.8-3.6l1-2.1c.4-.6.7-1.3.7-2a10.7 10.7 0 01.2-2c.2-.5.8-.9 1.4-.7.2 0 .4 0 .6.2.4.1.8 0 1.1-.2l1-.7a8 8 0 014.2-1.4c1.8.2 3.6-.2 5.2-1l2-1c1-.3 1.9-.4 3-.4.9.1 1.8.4 2.7.7l.9.4h.7c.8-.2 1.4-.7 1.7-1.5.4-1.2.6-2.5.6-3.7a69.3 69.3 0 00-1.7-13.8l-1-4.7a30.5 30.5 0 00-6.1-12.5c-1.3-1.4-2.9-1.9-4.7-1.2-1.8.6-3.4.3-4.8-.8l-1.2-1.1-.5-.5a.8.8 0 00-1-.1l-.4.2c-.7.4-1.4.6-2.2.7-1.5.1-2.9-.1-4.3-.3-1.8-.3-3.5-1-5.1-1.8-1.8-1-3.6-2-5.3-3.2l-3-1.8-1.7-.8c-.6-.2-1.3-.2-1.9 0l-1.2.5a6 6 0 01-2.9.4 17.7 17.7 0 01-9.5-4.7 5.6 5.6 0 01-1.8-4c.1-1.8 0-3.5-.2-5.2zm34.8 17.4v-.1l1.7-.1c1.2-.2 2.3-.6 3.4-1.3 2-1.3 2.6-3.4 1.6-5.6a9.6 9.6 0 00-2.7-3.5 41 41 0 00-17.4-9c-2.8-.7-5.6-1.2-8.4-1.6-.9 0-1.7-.4-2.2-1.2C68.2 3 66 3 63.9 3h-.1a4 4 0 00-3 3.1c-.2 1-.3 2.2 0 3.3.3 1.1.5 2.3.4 3.4V15c0 1.3.6 2.4 1.6 3.2.8.7 1.6 1.2 2.5 1.8 1.4.8 3 .9 4.5.4 1.2-.3 2.3-.8 3.4-1.5a5.6 5.6 0 014.2-1c1.8.4 3.3 1.1 4.5 2.5l1 1.2c1 1.4 2.2 2.7 3.5 3.8a8 8 0 004.4 1.9h3zM68 123.7l2.2-.2a57.4 57.4 0 004-.8c.6-.4.7-1 .3-1.7-.3-.6-.8-1-1.4-1.3l-1.4-.6-3.3-1.6c-1-.6-2-1.5-2.9-2.5-2-2.3-3.3-5-3.7-8.2l-.3-1.6c-.2-.7-.5-1.3-1.2-1.5-.8-.2-1.7-.3-2.6 0-1 .5-1.8 1-2.5 1.9a16.5 16.5 0 00-3.3 4.5c-.6.9-1.2 1.7-2 2.3a9 9 0 01-5.5 1.6l-2.2-.2a11.4 11.4 0 00-7.2 2c-.3.3-.3.6.1 1l.4.2a54 54 0 0026.2 6.9l6.3-.2zm15-63.9c-.2-3.5-1.7-7-3.8-9.4a3.4 3.4 0 00-2-1.3l-1-.3c-1.7-.5-3.4-1-5.2-1.1-1.4 0-2.8-.3-4.1 0l-3.7.8c-3.4 1-6.4 2.8-8.8 5.4a3 3 0 00-.9 1.5 16.2 16.2 0 009 18.5c.8.3 1.6.5 2.5.5h3c.7-.2 1-.6 1-1.3l-.2-.8-.8-1.5c-.3-.6-.8-1-1.5-1A10 10 0 0160 65a9.7 9.7 0 01-1-8.8 9 9 0 0111-5.7c5.5 1.4 8.6 7 7.6 12a8.6 8.6 0 01-1.9 4L74.2 68c-.4.4-.4.6 0 1 .9 1 1.8 2 3 2.9.4.3.5.3.9 0 1.4-1.2 2.5-2.7 3.3-4.3 1.2-2.4 1.8-5 1.6-7.8zM43.4 32.3c-1.9.1-3.7.7-5.2 1.8-2.7 1.8-4.2 4.3-3.9 7.7l.7 4.4a7 7 0 01-1.6 6.2l-2.2 2.1-1.2 1.3c-.6 1-.4 2 .7 2.7.3.3.7.3 1 .1.3 0 .4-.2.6-.3l3.4-3 6.5-6.5 3.7-3.6 4-3.6c.9-.8 1.4-1.8 1.6-3 .4-1.5 0-2.9-1-4a5.3 5.3 0 00-2.1-1.7c-1.6-.6-3.2-.7-5-.5zm22.8 7.3l-4 .5a35.9 35.9 0 00-17.7 9.4l-.6.6c-.1.4 0 .8.3 1.1.2.2.5.2.9 0l.4-.3 2.8-1.6A47.7 47.7 0 0177 44.7a45.3 45.3 0 0117.2 5.6l1.8.7h.2v-.2l-.7-.6-2.6-2c-1.5-1-2.9-2.1-4.4-3-6.7-4.3-14-6-22.4-5.6zM103.7 73h-1c-1.4 0-2.7.6-3.8 1.6-.3.2-.3.4 0 .7l1 .7A11963.8 11963.8 0 00115 86.9c.3.2.5 0 .6-.2l.5-2.3c.2-1.3.6-2.5 1.3-3.6.6-1 1.1-2 1.3-3.1.3-2-.1-3.8-1.8-5.1a12 12 0 00-2-1.2c-1.7-.9-3.5-.8-5.3 0l-1.6.7c-1.3.7-2.8 1-4.3 1zM29.2 97.3l1.9-.3 2.8-.7c1.1-.4 2-1.1 2.4-2.3.5-1.5-.1-2.8-1.6-3.3l-1.5-.2c-1-.1-2-.2-2.9-.5-.8-.2-1.6-.6-2.1-1.3-.6-.7-1-1.5-1.4-2.4a4 4 0 01-.1-2.5c.2-.6 0-1.1-.5-1.6-.4-.3-.8-.6-1.3-.6a5.3 5.3 0 00-3.4.4c-1.5.8-2.7 1.9-3.7 3.1L16 87.2c-.3.5-.3.8.3 1l.8.3 2.3 1.3c2.1 1.3 3.8 3.1 5.2 5.2l1 1.3c.7.7 1.5 1 2.4 1h1.1zm22.9-44.4c-.1-1.2-.5-1.6-1.4-1.9-.6-.1-1.1 0-1.7.3-1.8.9-3.4 2-5 3.2l-3.7 2.8a58 58 0 01-7.1 4.8l-.2.3h.3l8.8-.3a86.4 86.4 0 015 .1c1.4.5 2.4 1.4 3.2 2.6.8 1.2 1.5 2.6 2.2 4 .7 1.2 1.6 2.3 2.6 3.3l.7.4c.2.1.4 0 .5-.2v-.5c0-.2-.2-.3-.4-.5a18.7 18.7 0 01-4.8-13c0-1.5.3-3 .7-4.4l.3-1zm45.6 4.3H99l2.4.2H106.2l-.1-.2-.6-.2c-2-.5-3.9-1.1-5.7-2L93 52c-2.3-1-4.5-2.2-7-3a6 6 0 00-3.4-.2c-.3 0-.5.2-.8.3-.3.2-.5.5-.4.9l.5.9c2 3.7 3 7.6 2.7 11.9a13 13 0 01-1.5 5.4l-.6.9-.2.7a.5.5 0 00.8.5c.2 0 .4-.2.6-.4l.9-1.5c.6-1.3 1-2.7 1.3-4.2l.2-3.4c0-1.9 1.2-3.1 3-3.3h1.1l7.4-.3zM13 76.3l-.4-2.5c0-.4-.2-.7-.3-1.1l-.2-1c0-.3.2-.6.6-.5l.7.1 1.5.4h1.3c.7 0 1-.6.8-1.3l-.4-.7c-1.2-2.1-3-3.9-5-5.1a5 5 0 00-1.1-.6l-5-1.4h-.6c-.1 0-.2.1-.2.3l.5.7 2.1 3c1.2 1.6 2.1 3.5 2.8 5.5 1 2.9 1.5 5.8.7 8.8v1.5c.2.4.6.4.8.1l.2-.3c.5-.9 1-1.7 1-2.7.2-1 .3-2.1.2-3.2zm8.5 26l-.2-.8c-.2-1.1-.5-1.5 1.2-1.9a8 8 0 001.6-.5c.5-.2.5-.4.3-.8l-.8-1.7-.8-1.3c-.3-.4-.7-.5-1.2-.3l-1 .3c-1.7.7-1.6.4-2.4-.7a14 14 0 00-6.5-4.9H11a.3.3 0 00-.3 0l.1.4.6.4c1.3.9 2.6 1.8 3.8 3a15 15 0 014.7 8.3 10.1 10.1 0 01-3.1 9.2l-.6.7s0 .2.2.3c.3 0 .6 0 .9-.3l1.5-1.5c1.1-1.3 2-3 2.4-4.6.3-1 .4-2.1.4-3.2zm-1.7-80.7c0-1.3-.4-2.5-.9-3.7-.4-.9-.9-1.6-1.7-2l-.9-.6H16v.3l.7 1.2A13.8 13.8 0 0115 31.6 17.2 17.2 0 019.9 36c-.2.2-.2.4 0 .5l1 .4 2.6.7 2 .5c.4.2.9.1 1.3-.1 1-.5 1.7-1.1 2.5-1.8.2-.2.1-.4-.1-.5l-.5-.1a718.2 718.2 0 00-4-1c-.6-.3-.7-1-.2-1.4l.6-.5 1.1-1c2.6-2.8 3.7-6.2 3.6-10.1zM30 117.3l-.8.1c-.4.1-.6.5-.4 1l.5.5c.7.8 1.5 1.4 2.5 1.7l5 1.3 2 .3c.4 0 .7-.2.7-.4 0-.3-.2-.5-.4-.6l-1.9-1c-1.6-1.1-3.3-1.8-5-2.5-.8-.2-1.5-.4-2.2-.4zm66-31a50454.3 50454.3 0 00-.6-6.1l-.1-.2-.4-.2a1 1 0 00-.4.3c-.6.9-1.2 1.8-1 3 .1 1 .1 2-.3 2.9-.1.2 0 .4.2.6a379.3 379.3 0 002.6 2l.1-.2-.1-2.1zM82.7 99.2l.3 1.4a4.6 4.6 0 002.8 3l.5.2a.3.3 0 00.3-.1.3.3 0 000-.3l-.3-.6-2.5-4.4c-.2-.4-.3-1-.7-.9-.5.1-.4.7-.4 1.1v.6zM38.1 3.5l-4 1-.2.2a.2.2 0 000 .1.2.2 0 000 .2h.3c1.5-.1 2.9 0 4.3.4h.5c.4 0 .8-.3.8-.8 0-.3-.1-.6-.5-.8L38 3.5zm-18.7 7.4c.4-.1.8-.2 1-.4a525 525 0 005.2-2.7v-.2s0-.2-.1-.1H25a37.7 37.7 0 00-5.8 3v.3l.2.1z" fill="#000"></path><path d="M59 10c0 1.6.2 3.3.1 5 0 1.6.7 3 1.8 4.1.8.9 1.7 1.7 2.8 2.3 2 1.2 4.3 2 6.7 2.4 1 .1 2 0 3-.4l1.1-.4c.6-.3 1.3-.3 1.9 0a44 44 0 014.7 2.6l5.3 3.1c1.6.9 3.3 1.5 5 1.8 1.5.2 3 .4 4.4.3.8-.1 1.5-.3 2.2-.7l.5-.2c.3-.2.6-.2.9 0l.5.6 1.2 1c1.4 1.1 3 1.5 4.8.9 1.8-.7 3.4-.2 4.7 1.2a30.6 30.6 0 016 12.5l1.1 4.7c.3 1 .4 2.2.6 3.3a158.1 158.1 0 011 10.5 10 10 0 01-.5 3.6c-.3.9-1 1.4-1.7 1.7h-.7l-1-.5c-.8-.3-1.7-.6-2.7-.7-1 0-2 .1-2.9.5l-2 .8a8.8 8.8 0 01-5.2 1 8 8 0 00-4.2 1.5l-1 .7a1 1 0 01-1 .2l-.7-.2c-.6-.2-1.2.1-1.4.8l-.1.7L94 76c0 .7-.3 1.3-.7 2a22 22 0 00-1 2 9.4 9.4 0 00-.8 3.7c0 .3 0 .6-.3.7-.3.2-.5 0-.8-.3a1399 1399 0 01-6.1-5.4c-.2-.2-.2-.3 0-.5l.6-.3a37 37 0 008-5.7l8.8-7.7c2.3-2 4.7-3.6 7.5-4.9l3.2-1.3c.3 0 .6-.2.8-.3.6-.2.8-.8.7-1.4 0-.6-.4-1-1-1l-.7-.2c-2.9 0-5.6-.8-8.1-2.1a50 50 0 01-6.4-4l-6.9-5c-5.5-3.9-11.6-6-18.2-6.7l-4.5-.1c-1.6 0-3.2.3-4.8.4-1 0-1.7 0-2.6-.5a506 506 0 00-7-4l-3.5-1.8c-4.4-2-8.7-1.9-13 .6-1.7 1-3 2.4-4 4.2a9.2 9.2 0 00-1 5.5l.4 3c.2 1 .3 2 .3 3.1 0 .9-.2 1.6-.6 2.4-.6.8-1.3 1.5-2.1 2.2l-1.2 1.1c-.4.5-.8 1-1 1.5-.7 1.4-.6 2.7.3 3.9l.6.8a.5.5 0 01-.1.7 211 211 0 01-3.6 1.6l-.9.4c-.5.2-.7.7-.7 1.3.1.6.3 1.2 1 1.4l1.4.1 2.7.2c1.5.2 3 .8 4.3 1.5a53 53 0 016.6 4l6 4.1A37.5 37.5 0 0070.4 82l1.2-.1c.5-.2 1 0 1.6 0 .8.1 1.5.5 1.9 1.3l5.7 10.1c.4.7.4 1.4.3 2.2-.2 1-.4 2-.4 2.9-.1 3.4 1.5 6 4.5 7.2l1 .3c.6.1 1 .5 1.5 1 .4.7.8 1.5.8 2.3v.7c.4 2-.2 3.7-1.4 5.2-.6 1-1.3 1.7-2.2 2.3l-3.2 2.3a5 5 0 01-2.7.8 2 2 0 01-1.6-.7l-.5-.6a4 4 0 00-2.7-1.6l-2-.3c-1.8-.4-3.5-1.3-4.8-2.7-1.9-2-3.2-4.3-3.6-7l-.3-1.7c-.4-2-1.4-3.6-3.2-4.7a3.1 3.1 0 00-3.5 0l-2.2 1.7-4.2 3.7-2.3 1.7c-1.3 1-2.7 1.5-4.2 2l-3.5.8c-2.6.7-5 1.9-7.2 3.6l-.2.2c-.4.4-.7.4-1.2.2l-.3-.2a2148.5 2148.5 0 01-5-3c-.2-.3-.3-.5-.2-.9l.4-1.3c.7-1.9.8-3.9.8-5.9v-1c-.2-.8 0-1.5.7-2.1.7-.7 1.6-1.3 2.6-1.6.8-.2 1.6-.5 2.5-.6 1-.2 1.8-.5 2.6-1a5.1 5.1 0 001-8c-1-1-2-1.7-3.3-2l-1.2-.5a4 4 0 01-2.1-1.5 23 23 0 01-1.1-2 8.5 8.5 0 00-6.1-4.7l-1.9-.3c-.7-.1-.8-.3-1-1v-2c-.2-2.6-1-4.9-2.3-7-.8-1.4-2-2.7-3.2-3.8l-.7-.6c-.2-.3-.2-.7.1-.9l.8-.4c1.8-1 3.4-2 4.7-3.7 1.8-2 2.8-4.4 2.8-7.1A14 14 0 0021 45c-.7-1.3-1.6-2.6-2.6-3.7-.8-.9-.8-1.2.2-1.8 2-1.3 3.6-2.8 5.2-4.4 1.6-1.7 2.5-3.8 3-6 .3-1.6.4-3.1.3-4.7v-4c-.1-1.2-.4-2.3-.7-3.4a9.8 9.8 0 00-2.2-3.8l-.8-.9c-.2-.3 0-.6.2-.8l.4-.3c2.6-1.3 5.2-2.5 8-3.3l2.7-.7H37c2.1.4 4.2.3 6.3-.4l1.8-.6c2-.5 4-1.5 5.7-2.5l2.8-1.5 1.8-.3c1.2 0 2.1.6 2.6 1.7.4.9.6 1.8.7 2.7l.2 3.6z" fill="#07B8BA"></path><path d="M159 130.8l-1.7-1.6c-3.2-3.3-6-7-9-10.4l-11.2-13.9-6.1-7.2-.8-.9c-.2-.2-.6 0-.7.2l-.1 1-1.4 14.6-.7 8.8-.2.9c-.1.2-.5.3-.6.1l-.7-.8a1135 1135 0 01-3.8-5.7l-7.3-11-8.8-13-3.6-5.4-1.4-2.1-.6-.7a.5.5 0 00-.8.2l-.2.8.1 1.8.8 11.7v3c0 .5-.1.9-.3 1.3-.4.8-1.4 1-2 .4-.4-.2-.7-.6-1-.9a907.6 907.6 0 01-13.6-16.8 81614.3 81614.3 0 01-9.4-11.4h-.5c-.2 0-.3.3-.2.5l.3.7A7613.7 7613.7 0 0087 96.2l3.8 6.1 7.9 12.5 1 1.7.6.7c.2.1.5 0 .5-.2a10.1 10.1 0 000-2.1v-9c0-.9 0-1.7.2-2.6 0-1 .5-1.7 1-2.4.7-.9 2-1 2.7 0l2.7 3a8895.4 8895.4 0 0119.2 22.8l.6.4a.4.4 0 00.6-.2l.2-1a3591.8 3591.8 0 003.5-19c.2-.4.5-.5.8-.3l.4.3 7 7 7.8 7.7 5.2 5.2 2.8 2.9 1.2 1.4.8 1-2.9-2.6-.7-.7-5-4.6-7.8-7.3-5.8-5.4-.7-.6c-.7-.4-1.5-.1-1.8.6l-.4 1.3-1.2 6.3-2.3 12-.2.8c-.1.3-.4.4-.7.2l-.5-.6a2808.6 2808.6 0 01-21.6-26.3l-1.6-2-.4-.5c-.5-.4-1.1-.2-1.4.4l-.1.5-.1 1v3.8l-.1 4v6.8a394.4 394.4 0 01-.3 5.3h-.3l-.1-.2L99 121l-6.7-11.4-6.9-11.8C80 87.8 74 78 68.3 68.3a49.9 49.9 0 01-1-2c-.2-.3-.2-.5 0-.6.2-.2.4-.1.6 0l2.1 2.1 7.5 8.7A399138.6 399138.6 0 0098 100l.2.3c.2.1.5.4.6.3.4 0 .2-.4.2-.7l-.5-4.9-.3-4.3-1-11.4-.3-1.4.2-.3.2.1 1.6 2 3.4 4.3a962 962 0 017 9.5l6.8 9.5a13126.6 13126.6 0 008.5 11.4.4.4 0 00.4 0v-.2l.3-1a3084.4 3084.4 0 003.3-20.1c0-.2.2-.2.3-.1l.4.5 6.2 7.7 11.7 14.6 6.2 8 4.3 5.3 1 1.3.4.4z" fill="#FEED01"></path><path d="M93.7 27.3l-3-.1a8 8 0 01-4.3-1.9c-1.3-1-2.4-2.4-3.5-3.8l-1-1.2a7.3 7.3 0 00-4.5-2.4c-1.5-.3-3 0-4.2.9-1 .7-2.2 1.2-3.4 1.5-1.6.5-3.1.4-4.5-.4L62.8 18c-1-.8-1.6-1.9-1.6-3.2v-2.2c0-1.1-.1-2.3-.4-3.4a7.2 7.2 0 010-3.3 4 4 0 013.1-3.1c2.2 0 4.3.1 5.8 2 .5.8 1.3 1.1 2.2 1.2a47.8 47.8 0 0125.7 10.5c1.2 1 2.2 2.2 2.8 3.6 1 2.2.4 4.3-1.6 5.6-1 .7-2.2 1-3.4 1.3h-1.7v.2zM68 123.7c-2.1 0-4.3.2-6.4.1a54 54 0 01-26.5-7c-.4-.4-.4-.7 0-1l.5-.5c2-1.2 4.3-1.6 6.6-1.5l2.3.2a9 9 0 005.4-1.6c.8-.6 1.4-1.4 2-2.3l.4-.6c.7-1.5 1.8-2.7 2.9-4 .7-.7 1.6-1.3 2.5-1.8 1-.3 1.8-.2 2.6 0 .7.3 1 .8 1.2 1.5.2.5.3 1 .3 1.6.5 3.1 1.7 5.9 3.7 8.2.9 1 1.8 1.9 3 2.5l3.2 1.6 1.4.6c.6.3 1.1.7 1.4 1.3.4.6.3 1.3-.4 1.7l-.9.4-3 .4-2.2.2z" fill="#000"></path><path d="M83 59.8a14.3 14.3 0 01-5 12c-.3.4-.4.4-.8 0C76 71 75 70 74.2 69c-.4-.3-.4-.5 0-.9l1.4-1.4c1-1.2 1.6-2.5 1.9-4 1-5-2.1-10.6-7.6-12a9 9 0 00-11 5.7c-1.1 3-.7 6 1 8.8a10 10 0 006.6 4.6c.7.2 1.2.5 1.5 1.1l.8 1.5.1.8c.1.7-.2 1.1-.9 1.2l-1.7.1H65c-.8 0-1.6-.2-2.3-.5a16.2 16.2 0 01-9-18.5c0-.6.4-1 .8-1.5 2.4-2.6 5.4-4.4 8.8-5.4l3.7-.8c1.3-.3 2.7 0 4 0 2 0 3.6.6 5.4 1.1l.9.3c.8.2 1.4.6 2 1.3 2 2.5 3.6 5.9 3.8 9.4z" fill="#FEED01"></path><path d="M43.4 32.4c1.8-.2 3.4 0 5 .5.8.4 1.6 1 2.2 1.6 1 1.2 1.3 2.6 1 4.1a5.5 5.5 0 01-1.7 3l-4 3.6-3.7 3.6-6.5 6.5-3.4 3-.5.3a1 1 0 01-1.1 0c-1-.7-1.3-1.8-.7-2.8l1.2-1.3 2.2-2.1a7 7 0 001.6-6.2l-.7-4.4c-.3-3.4 1.2-5.9 3.9-7.7 1.5-1 3.3-1.7 5.2-1.7z" fill="#000"></path><path d="M66.2 39.6C74.6 39 82 40.9 88.6 45l4.4 3.2 2.6 2 .7.5v.2h-.2a35.4 35.4 0 01-4.6-2 45.3 45.3 0 00-21.4-4.7 48 48 0 00-21.8 5L45.5 51l-.4.3c-.4.2-.7.2-1 0-.2-.3-.3-.7-.2-1l.6-.7a33.5 33.5 0 0117.7-9.3l4-.6z" fill="#07B8BA"></path><path d="M103.7 73.1c1.5 0 3-.3 4.3-1l1.6-.7c1.8-.8 3.6-.9 5.4 0 .6.3 1.3.7 1.9 1.2 1.7 1.3 2.1 3 1.8 5a8 8 0 01-1.3 3.2c-.7 1.1-1 2.3-1.3 3.6l-.5 2.3c0 .3-.3.4-.6.2l-1.6-1.1a12853.6 12853.6 0 01-14.5-10.4c-.3-.3-.3-.5 0-.7 1.1-1 2.4-1.6 3.9-1.6h1zM29.2 97.3h-1c-1 0-1.8-.3-2.4-1l-1-1.3c-1.5-2-3.2-4-5.3-5.2l-2.3-1.3c-.3 0-.6-.2-.8-.3-.6-.2-.6-.5-.3-1l1.7-2c1-1.3 2.2-2.4 3.7-3.2 1-.6 2.2-.6 3.4-.4.5 0 .9.3 1.3.6.5.5.7 1 .5 1.6a4 4 0 00.1 2.5c.3 1 .8 1.7 1.4 2.4.5.7 1.3 1 2.1 1.3 1 .3 2 .4 3 .5.4 0 1 0 1.4.2 1.5.5 2.1 1.8 1.6 3.3-.4 1.2-1.3 2-2.4 2.3L31 97c-.6 0-1.3.2-1.9.4v-.1z" fill="#000"></path><path d="M52 52.9c0 .2 0 .6-.2 1a17.3 17.3 0 00.5 11.6c.8 2.2 2.1 4 3.6 5.8l.5.5v.5c-.2.2-.4.3-.6.2-.3 0-.5-.2-.7-.4-1-1-1.9-2.1-2.6-3.4l-2.2-4a6.2 6.2 0 00-3.2-2.5L46 62H42l-8.8.4H33a58.2 58.2 0 007.3-5.1l3.6-2.8c1.7-1.2 3.3-2.3 5.1-3.2.6-.3 1.1-.4 1.7-.3.9.3 1.3.7 1.4 1.9zM97.7 57.2c-2.5 0-5 .2-7.4.3h-1c-2 .2-3 1.4-3.1 3.3l-.2 3.4a12.7 12.7 0 01-2.2 5.7l-.6.4a.5.5 0 01-.7-.5l.1-.7.6-1c1-1.6 1.3-3.4 1.5-5.3.3-4.3-.7-8.2-2.7-12l-.5-.8c0-.4 0-.7.4-1l.8-.2a6 6 0 013.4.1c2.5.9 4.7 2 7 3l6.7 3.1a38.6 38.6 0 006.3 2.2l.2.1-.2.1h-4.8l-2.4-.2h-1.2z" fill="#fff"></path><path d="M43.5 71.2l2 .7a50.3 50.3 0 0024 4.4c.9 0 1.8.2 2.5 1 .2 0 .3.3.4.5.5 1 0 2-1 2l-3.5.3a35.5 35.5 0 01-21.5-6.7l-2.9-2.2zM13 76.3l-.1 3.2a7.8 7.8 0 01-1.3 3c-.2.3-.6.3-.7-.1l-.2-.6v-.9c.9-3 .5-6-.6-8.8-.7-2-1.6-3.9-2.8-5.6l-2.1-3-.5-.6c0-.2 0-.3.2-.3h.6l5 1.4 1.1.6a14.1 14.1 0 015.4 5.8c.2.7 0 1.2-.8 1.3h-1.3l-1.5-.4a7 7 0 00-.7-.1c-.4 0-.7.2-.6.6l.2.9.3 1.1.4 2.5zM8.8 39c.8.2 1.3.7 1.8 1.3a11 11 0 012.3 5c.4 2.5.3 5-.4 7.3a7.3 7.3 0 01-1.8 3.4l-1.3 1-.5.4c-.3.3-.5.6-.4.9.2.2.4.3.7.3l2 .4 1.2.3c.5.2.7.7.7 1.2 0 .6-.4 1-.9 1-.8.4-1.7.6-2.7.3-1.3-.5-2.7-.8-4.1-1.2-.3 0-.6-.2-.8-.3-.6-.2-.7-.5-.2-.9l.7-.6c2-1.6 3.5-3.4 4.5-5.7.7-1.6 1-3.3 1.2-5 .1-2.9-.6-5.5-1.6-8L8.8 39zM21.5 102.4c0 1 0 2.1-.4 3.2a13 13 0 01-2.4 4.7l-1.5 1.4a1 1 0 01-1 .3s-.2-.2-.1-.3l.6-.7a10.2 10.2 0 003-9.2 15 15 0 00-4.6-8.4 24.5 24.5 0 00-4.4-3.3v-.3a.3.3 0 01.2-.2l.8.1 1.6.7c2 1 3.6 2.4 5 4.2.7 1 .6 1.4 2.3.7l1-.3c.5-.2.9 0 1.2.3l.8 1.3.8 1.7c.2.4.2.6-.3.8a8 8 0 01-1.6.5c-1.7.4-1.4.8-1.2 1.9l.2.9zM19.8 21.6c.1 3.9-1 7.3-3.6 10.1l-1 1-.7.5c-.5.5-.4 1.1.3 1.4l.4.1a1614.6 1614.6 0 014 1c.2.1.3.3 0 .5-.7.7-1.5 1.3-2.4 1.8-.4.2-.9.3-1.3.1l-2-.5-2.7-.7c-.3 0-.6-.2-1-.4V36l.6-.4c1.7-1 3.3-2.4 4.6-4a13.8 13.8 0 001.7-14.8l-.7-1.2v-.3h.3l.9.5c.8.5 1.3 1.2 1.7 2 .5 1.3.8 2.5.9 3.8zM94.2 68.1l-1 1.2A48.2 48.2 0 0183 76.6c-.4.2-.8.2-1.1-.2L80.3 75c-.2-.2-.1-.4.1-.5l.7-.2c4.2-1.2 8.2-3.1 11.8-5.6.4-.2.8-.5 1.3-.5z" fill="#07B8BA"></path><path d="M30 117.3c.7 0 1.4.2 2.1.4 1.8.7 3.5 1.4 5.1 2.4l1.9 1c.2.2.5.4.4.7 0 .2-.3.4-.8.4l-1.8-.3-5-1.3a5.3 5.3 0 01-3-2.3c-.3-.4-.1-.8.3-.9h.8zM96 86.3l.1 2-.1.3h-.2l-2.4-2c-.2-.2-.3-.4-.2-.6.4-1 .4-2 .3-3-.2-1.1.4-2 1-2.9l.4-.3c.1 0 .3 0 .4.2v.2l.1.3.6 5.8zM82.7 99.2v-.6c0-.4 0-1 .4-1 .4-.1.5.4.7.8l2.5 4.4.3.6a.3.3 0 01-.3.4l-.5-.1a4.6 4.6 0 01-2.8-3l-.3-1.5zM38 3.5l1.3.3c.4.2.6.5.5.8 0 .5-.4.8-.8.9h-.5A11.3 11.3 0 0034 5a.2.2 0 01-.2-.2.2.2 0 01.1-.1l.3-.2 3.9-1zM19.4 11l-.3-.2.1-.3.6-.4a37.9 37.9 0 015.7-2.6h.1v.3a524.8 524.8 0 01-5.1 2.7l-1 .4z" fill="#000"></path><path d="M94.2 68.2zM43.5 71.2zM8.8 39zM160 132.2zM158.8 133.5z" fill="#fff"></path><path d="M118.7 7.2c.2 0 .2-.3 0-.3s-.2.3 0 .3z" fill="#000"></path></svg>