<svg viewBox="0 0 163 149" fill="none" xmlns="http://www.w3.org/2000/svg"><defs></defs><g clip-path="url(#hand-holding-phone_svg__clip0)"><path d="M132.2 57.9v.8l.1 3.4a41.8 41.8 0 007.8 21.5 74.8 74.8 0 0012.4 14.5c1.2 1.2 2.5 2.4 3.8 3.4a11 11 0 012.2 2.4c.7 1 1.5 2.1 2 3.3.5 1 1 2.1 1.2 3.3l.4 3.3v1.8a42.2 42.2 0 01-2.9 13.7 29.2 29.2 0 01-6.2 9 33.8 33.8 0 01-3.9 3.4 35.3 35.3 0 01-12.7 6.2l-3 .5-2.6.3H127c-1 0-2-.2-3-.4-.6-.2-1.1-.5-1.5-1-.9-1.3-1.9-2.4-3-3.4-2-2-4.4-3.5-7-4.3-1.6-.4-3-.6-4.6-.5l-3.2.3-1.4.1-3 .2a56.3 56.3 0 01-4.3 0 5 5 0 01-1.8-.6c-.6-.3-1-.3-1.6 0l-3 1.4-4.5 2.3a5.8 5.8 0 01-1.8.6H70a6 6 0 01-2-.2 4.6 4.6 0 01-2.7-2.7l-1-2.6-3-8.7-.8-2c-.4-1-.5-1-1.5-.8l-1.4.3c-1.4.3-2.7.2-4-.1l-2-.5a6 6 0 01-2.2-1.5 9.8 9.8 0 01-2.9-5.6c-.3-2-.1-4 .5-5.9l.2-.6c.2-.5.2-.9 0-1.3-.4-.5-.6-1-.8-1.5-.8-1.8-1-3.7-.7-5.6v-.8c0-.2 0-.4-.3-.5l-.4-.2a7.2 7.2 0 01-3.4-3 11 11 0 01-1.6-4.7 12.2 12.2 0 01.7-5.7c.4-1.6 1-3 1.6-4.5.4-1 .9-2.1 1.1-3.2l.3-1.7v-.4l-.4-1c-.2-.5-.5-.6-.9-.4l-2.3 1.3c-.4.2-.6.6-.7 1-.5 1.5-1.3 2.8-2.3 3.9a25.4 25.4 0 01-3.7 3.2 57.6 57.6 0 01-13.8 7.2l-1.6.1-.8.1c-.9 0-1.8 0-2.6-.4h-.5c-.4-.2-.7-.1-1 0l-1.3 1a55.9 55.9 0 01-9.2 5H1.3c-1 0-1.4-1-1.3-1.8.1-.7.4-1.4.7-2 1-2 2-3.7 3.3-5.3 1.1-1.5 2.3-2.8 3.6-4.2L9 85.5c.4-.4.8-1 1-1.5 1-1.5 2-2.8 3.4-4l2.7-2c1.4-1.1 2.7-2.3 4-3.6A27.7 27.7 0 0026 65c.2-.8.7-1.3 1.3-1.7L35 59l.7-.4c.5-.3.6-.6.4-1.1l-.6-1.7a10848.6 10848.6 0 00-9-25.5 5.8 5.8 0 011.1-6c.5-.5 1-.8 1.5-1l2.8-1.5 2.9-1.4A17269.1 17269.1 0 0175.9.2L77 0h13.6c1.5.4 2.5 1.2 3.2 2.5.6 1 .9 2.1 1.3 3.2l2 5.7.3 1c.1.2.3.2.5 0l.2-.5a16.7 16.7 0 013.4-5v-.5l-.1-2.3c-.2-1-.3-2-.1-3 .1-.7.7-1.1 1.4-1.2 1 0 1.7.3 2.2 1 .4.4.7 1 .9 1.5l.6 2.1 1 3.1 4.2 15.2 1.5 5.4a27 27 0 001.6 4.2 9.2 9.2 0 004 4.2l3.8 2a13.6 13.6 0 018 8.6c.7 1.7 1 3.4 1.2 5.2l.3 3.2V58h.1zM2.6 96.9l.8-1.4a8.6 8.6 0 014.8-3.7l1.2-.3c.5-.1.5-.2.4-.6v-.3a1029.1 1029.1 0 01-.9-2.1l-.2.2L7 90.5l-1.9 2c-.8 1-1.5 2-2 3.1-.3.4-.5.8-.5 1.2zm126.6-36.3L129 58l-.3-3-.6-4.4c-.4-1.7-1-3-2.3-4.2-1-.7-2-1.2-3.2-1.3-1-.1-2.2 0-3.2.3a5 5 0 01-1.2.1c-.6 0-1-.2-1.2-.6-.3-.4-.4-.9-.3-1.4 0-.7.3-1.3 1-1.7l.7-.3c.5-.4.8-1 .6-1.6 0-.3-.3-.6-.6-.8a13.6 13.6 0 01-5.2-6.3 122.2 122.2 0 01-.9-1.7c-.6.5-1.3.4-2 0a3 3 0 01-.7-.4c-.5-.4-.9-1-1.2-1.5-.7-1.1-1.4-2.3-1.9-3.6l-1.5-4c-.8-2.7-1.5-5.3-2-8 0-.6-.3-1-.6-1.5-.3-.4-.8-.6-1.3-.6-.4-.1-.6.2-.9.4l-.4.5-.4 1.2c-.3.8-.5 1.7-.6 2.6-.3 1.2-.4 2.4-.5 3.6a30 30 0 001.4 9.3 34.3 34.3 0 004.6 9 42.4 42.4 0 0013.4 12c.4.3.7.6 1 1.1.3.6.1 1-.4 1.3h-.1v.5c.9 1.3 1.3 2.7 1.8 4l.2 1 .2 3.2V65l-.3 1c-.2.3-.4.4-.8.3a1 1 0 01-.5-.5 22 22 0 01-.6-1.2c-.6-1.2-1.3-2.2-2.1-3.1-.5-.6-1-1.1-1.7-1.5l-.7-.3c-.6-.2-1 .1-1 .7l.2.7 1.7 5a8552 8552 0 0112.3 35.7l1.8 5.3 2.6 7.5c.2.7.2 1.3 0 2-.3 1.2-.9 2.2-1.6 3.1l-.6.5-7.7 5.3-5.7 3.8-3.4 2.2-1 .7c-.6.7-1.2 1.4-1.4 2.4 0 .6 0 1.1.5 1.6.4.4 1 .5 1.5.5 1.1 0 2.2 0 3.2-.5 2.1-.8 4.3-1.3 6.5-1.6h.8c.8 0 1.6 0 2.4.2.5 0 1 .1 1.6.4.7.3 1.4.8 2 1.3a6 6 0 012.1 4.2c.2 1.5-.1 3-.8 4.3l-.8 1.3c-.2.5 0 1 .6 1s1.2 0 1.8-.2l2.8-.8a21.6 21.6 0 0011.5-8.6 46.2 46.2 0 004.9-11.2c.3-1.6.5-3.3.6-5l-.1-1-.2-3.4-.1-1c0-.3-.2-.6-.5-.8l-.6-1c-.2 0-.3-.3-.4-.4l-2.3-2.5c-1-1-2-2-2.8-3.1a272 272 0 01-3.9-4.7c-1.3-1.6-2.7-3.2-3.8-5l-4-5.9-.5-1a38.7 38.7 0 01-3.5-14l-.2-3.5-.1-1v-1.8l.2-2 .4-3.3c.2-1.8.5-3.5.5-5.4zM66 70.4c1.5 0 3 .3 4.5 1a10 10 0 015.3 5.3c.2.5.4 1 .3 1.5v.3c0 .8.2 1.5.8 2.1a3.8 3.8 0 01.8 2.8c-.2.5-.1 1 0 1.6.3 1 .3 2 .1 3l-.1.6c-.2.5 0 .7.4 1l.7.3a25 25 0 015 3l2.2 1.8c.5.5 1.1.8 1.8 1 1.2.2 2.3.5 3.4 1l1 .6c.6.4.9 1 .8 1.7a2 2 0 01-1 1.6l-1 .4c-.2.1-.5.1-.5.3 0 .2.3.2.5.1h.6c.5-.1 1-.4 1.4-.6l1.4-.6c1-.4 2-.1 2.8.6l.4.5c.4.5 1 .6 1.6.6a5 5 0 001.8-.6l1.5-.7c.7-.3 1.5-.3 2.2 0 .7 0 1.3.4 2 .8l.7.4c.4.2.9.3 1.3.2.7-.2.7-.3.5-1l-4-11.7a3587 3587 0 01-12.1-35L89 42.2l-.5-1.2c0-.3-.2-.5-.5-.5h-1.4c-1.1 0-2.2 0-3.3-.3a7 7 0 01-2.8-1.6l-.8-.7a8.6 8.6 0 00-4.6-1.8c-1-.1-1.8 0-2.7.2a13 13 0 00-3.5 1.6l-1.6 1c-.5.3-1 .5-1.6.5-1.2 0-2.3-.4-3.3-1l-1.8-1a10 10 0 00-2.4-1.2c-1-.3-2-.4-3-.3-1.3.2-2.5.6-3.8 1.1l-1.9.7c-.9.2-1.8.2-2.6-.2-1-.3-1.8-.7-2.6-1.3a6 6 0 00-1.4-.9c-1-.3-2-.4-3-.3-1 .2-2 .5-3 1-.8.3-1.5.9-1.7 1.8l-.1.2c-.3.5-.3 1 0 1.5L39 51c1 3.2 2.2 6.3 3.3 9.5A3098.6 3098.6 0 0051 84.8c.1.3.3.6.7.8l1.6.6c.4.1.6 0 .5-.5l-.1-.2c-.4-1.3-.5-2.7-.4-4a12 12 0 014.5-8.1c2.3-2 5-3 8.1-3zM31.3 33.5c0-1.4.3-2.3.9-3.2.6-1 1.4-1.6 2.4-2a801.6 801.6 0 009.9-4.7c.5-.2 1-.2 1.3.2 0 .2.2.3.3.4.3.3.6.3 1 .2l.7-.3a3804.8 3804.8 0 0014.3-6.8l.4-.3c.5-.2.7-.6.7-1.1 0-.9.4-1.4 1.2-1.7a28128.5 28128.5 0 0110-4.9C75 9 75.5 9 76.2 9c.3 0 .6 0 .9.2a5 5 0 011.8 1.3c.7.7 1 1.6 1.3 2.5a5575.6 5575.6 0 0010.8 31.3l3.8 11.2a25485.1 25485.1 0 0117.5 51l2 5.6c.3 1 .4 2 .2 3a5.2 5.2 0 01-3.2 3.8l-4.6 2.3-2 1-2.1 1c-.7.4-1.4.8-2.2 1-.7.3-1.3.9-2 1.1l-.2.1-3.7 1.9a312660.8 312660.8 0 00-21.3 10.5 4 4 0 01-2 .3 4 4 0 01-3.2-2.3l-.4-1-1.2-3.2-1-2.6c-.1-.5-.5-1-1-1.2l-1.5-1-.4-.2H62v.8l1 2.8a3938.3 3938.3 0 003.6 9.8c.2.6.6 1 1 1.5.9.6 1.8.8 2.7.3l3.5-1.6 9.8-4.8 9.4-4.6 9.8-5 7.6-3.7 1.2-.5a58.6 58.6 0 006-3.5c.8-1 1-2.2.7-3.5a2129 2129 0 00-11.6-33.2 4876.2 4876.2 0 00-11.5-32.7l-3-8.6A6108 6108 0 0180.9 8l-1.4-4-.6-1.2a3 3 0 00-3.5-.9l-.6.3-8 4-5.5 2.6a9159.6 9159.6 0 01-32 16c-.7.4-1.2 1-1.5 1.7-.4 1.1-.4 2.2 0 3.3l1.6 4.6a12991.6 12991.6 0 0012 33.9l3.1 9a2.3 2.3 0 002.2 1.7c.7 0 .7-.2.5-.7V78a141133.8 141133.8 0 00-15.5-42.7l-.4-1.8zm-14 60l1.8-.2a17 17 0 009-4.8c1.1-1.1 2-2.4 2.7-4 .4-1 .6-2 .7-3 0-2-.6-3.6-1.9-5-.5-.6-1-1-1.8-1.2l-.8-.2c-.5-.1-.6-.4-.4-.8l.1-.3 2-4.2c.2-.8.6-1.6 1-2.4.6-1.1 1.3-2 2.4-2.8l3.8-2.6c.6-.4.8-.9.7-1.5 0-.7-.3-.8-.9-.5l-.1.1-5.3 3.2-2.1 1.2c-.4.3-.7.6-.8 1l-.1.4-1 2.2A38 38 0 0117.1 79L14.4 81c-1 .8-1.8 1.7-2.5 2.8a7 7 0 00-1.2 4.7 5 5 0 001.7 3.2 7.3 7.3 0 005 1.8zm90-31.7v-1.2l.2-.6c.3-.7.9-1 1.6-.8l.6.2c.3.1.5.1.7-.1l.6-.7c.2-.1.2-.3.2-.5l-.2-.3-.6-1.5-3.5-8.8c-.3-.8-.8-1.4-1.5-1.9l-.3-.2-.4-.3c-.2.2 0 .4 0 .5l1.6 5.1.6 2c.2.6 0 1.3-.7 1.6a9 9 0 01-1.5.7c-1 .4-2 0-2.9-.7-.4-.4-.7-1-.8-1.4l-.6-1.7-2.3-6.7-1-3c-.3-.9-.2-1.8.5-2.6l1.3-1h.2c.2-.2.2-.3.1-.6-.3-.7-.3-.7-1-.5-1.1.3-2.1 0-3-.8l-.8-1.3-.5-1.5a7175.8 7175.8 0 01-3.5-10.4c-.1-.7 0-1.2.4-1.8l1.1-1 1.2-.6a2 2 0 011.2 0c.6.2 1 .5 1.4 1l.4.7v.1l.2-.2v-1.2l.5-3.2v-1.2a64 64 0 00-3.3-11.1c-.7-1.6-1.8-2.8-3.6-3H89.3c0 .3.1.4.3.4l.2.1 1 .5c.8.5 1.4 1.2 1.8 2l1 2.5a21.2 21.2 0 011 3.7c0 .3 0 .4-.2.4-.4 0-.5.1-.5.4-.2.4-.3.8-.7 1.1-.4.5-1 .7-1.5.5l-.7-.4-1-.6c-.6-.5-.8-.4-1.2.2l-.7 1c-.7.6-1.2.5-1.9.1l-.8-.6-.7-.6c-.2 0-.4-.2-.6 0-.2.1 0 .3 0 .5a1143.2 1143.2 0 016.4 18 5607.6 5607.6 0 0013.8 39.3s0 .3.2.2l.2-.3.1-.6c0-1.2-.2-2.3-.3-3.4a6 6 0 010-2c.3-.8 1-1.5 2.1-1 .2.1.3.3.5.3.1.1.2 0 .3-.1v-1zM81 95.1h2.2c.1 0 .3 0 .3-.2l-.2-.2-.5-.2h-1.2a4 4 0 01-2.3-.8l-2-1.2-1.8-.6-2.3-.3H69.5c-1.4.2-2.8.6-4.2 1.2L62.7 94c-1.5.7-3.1.7-4.7 0l-1.3-.5-2-1c-1.6-1-3.3-1.5-5.1-1.6h-.9a6.4 6.4 0 00-4.8 3.3 5.5 5.5 0 001 6.4c.5.6 1.1 1 1.9 1.1l1.9.4a6 6 0 002 0l2-.5c1.4-.4 2.9-.3 4.3.5l1 .7c1.1.6 2.3 1.1 3.6 1.4a3 3 0 002.6-.5l1-.8 1.2-.7a9 9 0 013.9-1h.4l.3-.1-.2-.3-.4-.5c-.9-.7-1-2-.1-3l1.2-.8c.8-.4 1.6-.7 2.5-.9l2.9-.3a36 36 0 014-.2zm9.1 18h-3.3a40 40 0 01-4-.4 11 11 0 01-3-1c-.6-.2-1.1-.5-1.5-1-.4-.7-.4-1.4 0-2.1l.6-.8 2-1c1-.4 2.3-.6 3.5-.7l1.7-.1 2.2-.2H91l.4-.1c.2 0 .2-.2.1-.3l-.4-.3c-1.4-.9-2.9-1.6-4.5-2.3-.6-.2-1.2-.2-1.8-.1a29.7 29.7 0 01-9 .3l-2.8-.3h-.7c-.6 0-1.2.3-1.8.5a4 4 0 00-1.4.8l-1.4 1.2-1.6 1.4a6 6 0 01-3.9 1.4l-1-.1c-.7 0-1.3-.2-2-.4-1-.3-2-.6-3.2-.7-.7 0-1.3 0-1.8.2-.7.2-1.4.7-1.8 1.2-.7.8-.9 1.7-.6 2.6.2.6.6 1.2 1.1 1.6 1.3 1 2.8 1.4 4.5 1.4.8 0 1.6-.2 2.3-.3 1.6-.4 3.2-.2 4.6.6l1 .5c1.2.8 2.6 1.3 4 1.6 1 .1 1.8 0 2.5-.5l.6-.3a11.3 11.3 0 017.6-2.2h.5l2.1.2 1.8.1 3.2.2c1.5 0 2.9 0 4.3-.2l1.4-.2.5-.1v-.1H90zm-2.5 5.3H90.2a.2.2 0 00.1-.1.2.2 0 000-.2l-.3-.3c-1.1-.9-2.2-1.7-3.5-2.3-.6-.3-1.2-.5-2-.5l-1.7-.2c-2.2-.3-4.2.1-6 1.3l-1.7 1.2a15 15 0 01-3.7 1.8c-2.1.7-4.2.5-6.1-.5l-1.7-1-1.5-.7c-.7-.4-1.4-.5-2.2 0l-.7.5-1.3.6c-1 .5-2.2.8-3.4.6a5 5 0 01-3.3-1.8l-.7-.8a1 1 0 00-.4-.3c-.5-.1-1.4.2-1.5.8l-.2 1.6c0 1 .3 1.8.7 2.7.3 1 .9 1.7 1.6 2.3a7.3 7.3 0 005.8 1.5l2.2-.6.8-.2c1.1 0 2.2.2 3.2.7L65 126c1.4.8 3 1 4.6.6.8-.2 1.6-.5 2.4-1l1-.5c1-.3 2-.6 3-.6l1.2-.1.1-.1a.2.2 0 000-.2l-.6-.5a2 2 0 01-.2-2.4c.2-.5.6-.8 1-1 .8-.6 1.8-1 2.8-1.2 1.6-.3 3.3-.4 5-.5h2.2zM65.8 71.6l-1.5.1c-1.7.3-3.2 1-4.6 1.8a8.8 8.8 0 00-3.4 3.7c-.6 1.4-1 2.7-1 4.2 0 .3 0 .3.3.4.2 0 .3.1.4.3.2.2 0 .5-.2.5h-.1c-.4.1-.4.2-.4.5v.4a8 8 0 001.4 3c.2.3.4.4.7.3a.2.2 0 00.1-.1v-.3c0-.2.2-.4.4-.4a.5.5 0 01.5.3v.2c.1.4.1.4.5.4l2.4-.3c.2 0 .4-.1.5-.4 0-.3.3-.4.6-.2.3.3.5.2.8.1a31.5 31.5 0 005-1.9c.2 0 .2-.1 0-.3l-.1-.1a.4.4 0 01.1-.6.4.4 0 01.5.2v.3c0 .2.1.2.3.1l.4-.2c1.2-.6 2.4-1.4 3.4-2.3l1-1.1.6-2.4c.1-.8 0-1.5-.5-2.2a9.4 9.4 0 00-8.1-4zM85 136.5l1-.1 1-.1 2.8-.5a73 73 0 0013.2-4l2-1a5532.6 5532.6 0 0115-7.7l3.6-1.8.8-.5.4-.3-.1-.3-.2-.1-2.2-.2h-3.2c-1.3 0-1.3 0-2.5.5l-.3.2-2.1 1.1-9.2 4.6-9.2 4.5-7.3 3.7-2.4 1.1-1.2.7v.2zm38.5-25.2h-2.8-.2l.3.1 1.2.2 4.9.8h1c.6 0 .8-.4.7-1l-.2-.6-1.5-4.4a18297 18297 0 01-14-40.8l-.9-2.7c0-.2-.2-.4-.3-.5h-.2c-.3.1-.4.3-.4.6l.2.5 1.7 5.2 7 20.8 2.8 8.4 2.2 7a40.5 40.5 0 002 5.4c.2.6 0 1-.7 1h-2.8zM103 2v.4l.3 2 .3 2.4a88 88 0 003 14.5l1 2.7 1 2.6c.4.9 1 1.6 1.6 2.3l.5.4a.4.4 0 00.5 0v-.6h-.2a5.8 5.8 0 01-1.6-2.2 68.5 68.5 0 01-3.7-11.2l-.8-4.1c0-.5 0-1 .3-1.5.1-.3.4-.5.8-.6a.4.4 0 00.3-.5L106 8l-1.4-4.5-.4-1.5-.3-.6a.5.5 0 00-.7-.3.6.6 0 00-.4.5v.4zm2.8 50.5l-.2-.9-2.4-7.2-.4-1.1c0-.3-.2-.6-.4-.8a22.9 22.9 0 01-2.5-4h-.3c-.2.3-.3.6-.2.9l.6 1.7 3.1 9 .6 1.4c.2.7.6 1.3 1.3 1.6.3.1.8-.2.8-.6zM93.9 20.4c-.7 0-1.1.5-1 1 0 .4.2.8.3 1.1l2.8 8.1 1 3c.2.4.5.8.9 1l.1.2h.1v-.4l-.7-2.4c-.4-1.8-.7-3.7-.9-5.6l-.3-1.5-1.6-4c-.1-.3-.4-.4-.7-.5zm-4 91.6h3.5c1.5-.3 3-.4 4.4-.5l3-.6 1-.5c.6-.4.5-1 .1-1.5-.3-.3-.8-.6-1.3-.7l-2.6-.6h-.5-.2l.1.2.8.4c.5.3.7.7.8 1.3a1.2 1.2 0 01-.8 1.3l-.8.2-1.3.2h-1.7c-1.3.2-2.5.3-3.8.3l-3-.1c-.6 0-1.3 0-2-.2-1 0-2.1-.2-3.3-.4h-.5l-.2.2.1.3.6.2 2.4.2 3.2.3h2zm-4.1 12.8l2.8-.2 3.5-.3A34 34 0 0098 123c.5-.2.8-.8.3-1.5a2 2 0 00-.9-.6 30.9 30.9 0 00-2-.5v.2l.3.2c.4.2.7.5.9 1 .1.5 0 .8-.5 1l-1.5.3-3.9.7-3.6.3h-1.8l-2.7-.2a18.7 18.7 0 01-4.5-1H78v.2l.2.1c.9.4 1.8.8 2.7 1 1.6.3 3.2.5 4.9.5zm-5-23.2H83a53.2 53.2 0 007.5-1.4c.3 0 .6-.2.8-.3.6-.3.7-.8.2-1.3l-.4-.3-1-.4-2-.6a5 5 0 00-.6-.2h-.5c0 .2 0 .3.3.4l.5.3.6.3c.6.6.6 1.2 0 1.8l-.3.3-1.3.5a76 76 0 01-10 .3 25.6 25.6 0 01-4.5-.9v.2c.1.2.2.2.4.3l.9.3c2.1.4 4.3.7 6.4.7h1zm13.5-71.3h.1c.4 0 .2-.1.1-.5v-.2a2148.2 2148.2 0 00-1.4-3.8c-.1-.2-.2-.2-.4-.1-.4.2-.3.5-.1.9l1 3.2c.2.4.3.5.7.5zM76.8 86.7v-.4c-.1-.3-.3-.4-.6-.3l-.1.1-1.2 1-.4.5c-.2.3-.1.6.2.8l1 .3c.4 0 .7 0 .8-.6.2-.4.3-1 .3-1.4zm22.7-41v.3l.9 2.6c0 .2.4.3.5.1l.3-.5v-.5c-.4-.7-.6-1.5-.9-2.3l-.1-.2-.3-.1c-.3 0-.4.2-.4.6zm25.5 69.8h.3l3.7.3h.1v-.1l-.4-.1-3-.4-4.8-.7a2 2 0 00-.5 0c-.2 0-.3.3-.2.4a.6.6 0 00.5.3l1.4.1 2.9.2zm-55.1-28l.4-.2 1-.3c1.3-.7 2.5-1.4 3.7-2.3l1-1 .1-.2a.1.1 0 00-.1-.1l-.3.1-2.5 1.8a9 9 0 01-1 .6l-2 1-.4.2a.2.2 0 000 .2v.1zm.8-2.6l.6-.1c.3-.1.5-.5.4-.8l-.2-.2-1.2.8c-.2 0-.1.2 0 .3h.4zm3.2-1.6h.1c.5-.4 1-.7 1.3-1.1l.2-.3a.1.1 0 000-.1h-.2c-.5.3-1 .7-1.4 1.2l-.1.1v.2zM65 87.4c.4 0 .7-.1.9-.4a.3.3 0 000-.2l-.2-.2-1.1.4v.3l.4.1z" fill="#000"></path><path d="M129.2 60.6c0 1.8-.3 3.6-.5 5.4l-.4 3.2-.2 2v2.9l.3 3.5a70.3 70.3 0 001.4 8 38.7 38.7 0 002.7 7l3.9 6c1.1 1.7 2.5 3.3 3.8 4.9a285 285 0 003.8 4.6l3 3.2 2.2 2.5.4.5c.2.3.3.6.6.8.3.3.4.6.5 1l.1.9.2 3.4v1a25.4 25.4 0 01-2.7 11.3c-.8 1.7-1.7 3.4-2.7 5a21.5 21.5 0 01-11.5 8.5l-2.8.8-1.8.2c-.6 0-.8-.5-.6-1l.8-1.3c.7-1.4 1-2.8.8-4.4a6 6 0 00-2-4.1 11 11 0 00-2.1-1.4l-1.6-.4-2.4-.2-.8.1c-2.2.3-4.4.8-6.5 1.6-1 .4-2 .5-3.2.5-.5 0-1-.1-1.5-.5-.4-.5-.6-1-.5-1.6.1-1 .8-1.7 1.4-2.4l1-.7 3.4-2.2 5.7-3.8a6587 6587 0 008.3-5.8c.7-1 1.3-2 1.6-3.1.2-.7.2-1.4 0-2-1-2.5-1.8-5-2.6-7.5l-1.8-5.3A9094.6 9094.6 0 00114.6 66l-1.7-5-.2-.7c0-.6.4-1 1-.8l.7.4c.6.4 1.2.9 1.6 1.4.9 1 1.6 2 2.2 3.2l.6 1.2c0 .2.3.4.5.5.4 0 .6 0 .8-.3l.2-1 .1-2.2v-1.5a23.6 23.6 0 00-.4-4.1c-.5-1.4-1-2.8-1.8-4v-.3-.2l.1-.1c.5-.3.6-.8.4-1.3-.3-.5-.6-.8-1-1.1l-1.8-1.1c-.9-.4-1.7-1-2.5-1.6a42.4 42.4 0 01-12.3-15 34.4 34.4 0 01-2.6-8.5 30 30 0 01.3-7.7 11.8 11.8 0 011-3.8l.4-.5c.2-.3.5-.5.9-.4.5 0 1 .1 1.2.6.4.4.7.9.8 1.5a54.3 54.3 0 005.3 15.6c.3.6.7 1 1.2 1.5l.7.5c.7.3 1.4.4 2-.1h.3l.6 1.7a14.4 14.4 0 005.2 6.3c.3.2.5.5.6.8.2.6 0 1.2-.6 1.6l-.7.3c-.7.4-1 1-1 1.7 0 .5 0 1 .3 1.4.2.4.6.6 1.2.6l1.2-.1c1-.3 2.1-.4 3.2-.3 1.2 0 2.2.6 3.1 1.3 1.3 1.1 2 2.5 2.4 4.2l.6 4.4.3 3 .2 2.6z" fill="#FF65BE"></path><path d="M66 70.4a12.7 12.7 0 00-12.5 11.1c-.2 1.3 0 2.7.3 4v.2c.2.5 0 .6-.4.5l-1.6-.6c-.3-.2-.6-.5-.7-.8l-.4-1a11456.3 11456.3 0 01-8.3-23.3L39 51l-4-11.5c-.2-.5-.2-1 0-1.5l.2-.2c.2-1 .9-1.5 1.7-1.8 1-.5 2-.8 3-1 1-.1 2 0 3 .3.5.3 1 .5 1.4.9.8.6 1.7 1 2.6 1.3.8.4 1.7.4 2.6.2a26 26 0 002-.7c1.2-.5 2.4-.9 3.8-1 1-.2 2-.1 3 .2.8.3 1.6.6 2.3 1.1l1.8 1.1c1 .6 2.1 1 3.3 1 .6 0 1.1-.2 1.6-.5l1.6-1a13 13 0 013.5-1.6 8.6 8.6 0 017.3 1.6l.8.7c.8.8 1.8 1.2 2.8 1.6 1.1.3 2.2.4 3.3.3H88c.3 0 .4.2.5.5l.5 1.2a38114.6 38114.6 0 0120.2 58.8c.2.7.3.8-.5 1a2 2 0 01-1.3-.2c-.3 0-.5-.2-.8-.4-.5-.4-1.2-.7-1.9-.9-.7-.2-1.5-.2-2.2.1l-1.5.7a5 5 0 01-1.8.6c-.6 0-1.1-.1-1.6-.6l-.4-.5c-.8-.7-1.7-1-2.8-.6l-1.4.6-1.4.6H91l-.5-.1c0-.2.3-.2.4-.3l1-.4A2 2 0 0093 99c.1-.7-.1-1.3-.7-1.7l-1.1-.6c-1-.5-2.2-.8-3.4-1-.7-.2-1.3-.5-1.8-1L83.8 93a25 25 0 00-5.7-3.4c-.5-.3-.6-.5-.4-1l.1-.7c.2-1 .2-2 0-3-.2-.5-.3-1-.1-1.5v-.2c0-1-.2-1.8-.8-2.6-.6-.6-.7-1.3-.8-2.1v-.3c0-.5 0-1-.3-1.5a10 10 0 00-5.3-5.4c-1.4-.6-3-.9-4.5-.9zm23.8 23.4H91c1.9-.3 3.6-1 5.2-2 .7-.6 1.3-1.2 1.8-1.9.4-.6.7-1.3.7-2.1 0-.6-.2-1-.3-1.6-1-3.8-2.2-7.6-3.4-11.4L93 68a4280.9 4280.9 0 00-4-13c.1-.7 0-1.3-.3-1.8a2.8 2.8 0 00-2.8-1.9c-.6 0-1.2 0-1.9.2-1.3.2-2.5.6-3.8 1l-1.3.5c-.5.1-.8.1-1.1-.4l-.1-.2c-.6-1.3-1.2-2.6-1.6-4l-.5-2c0-.4 0-.8.4-1.1l.9-1c.3-.3.7-.5 1.2-.7a36.6 36.6 0 002-.6c.5-.2.6-.5.6-1s-.2-1-.5-1.5a1 1 0 00-1.2-.4l-.9.3c-1 .4-1.9.7-2.9.9l-.5.1a5 5 0 00-2 1.9c-.3.3-.4.6-.4 1l.1 1.1c.2 1.4.4 2.7.9 4 .4 1.4 1 2.8 1.7 4.2.3.9.3 1-.5 1.5l-2.8 1.7c-1 .7-2 1.5-2.7 2.4-.4.5-.6 1-.7 1.6 0 1 .3 1.8 1 2.6.4.5.9 1 1.2 1.6l.7 1.5 4 7.2 3 5.7 3.8 7 2.4 4.4a5.6 5.6 0 005.5 3zM64.3 62.7h.7c1 0 1.7-.8 1.5-1.9l-.2-1.1-.4-1.6c-.1-.5 0-.9.5-1.1l.4-.3 1.7-.9.6-.4c.5-.5.7-1 .4-1.7l-.4-.5-.7-.7-1.6-1.4c-.5-.5-.6-1-.3-1.6a103.4 103.4 0 001-2.7c.1-.8-.2-1.5-1-1.8l-.6-.2-1-.1-2-.3c-.4 0-.8-.3-1-.8l-.1-.6-.6-1.8-.4-.9c-.4-.6-1-.8-1.7-.6-.6.1-1.1.4-1.6.7l-1.2.7c-.5.3-1 .3-1.4 0l-1-.8-1-.8c-.4-.2-.7-.4-1.1-.4-1 0-1.7.4-2.1 1.3l-.5 1.2-.4 1a1 1 0 01-1 .6H47c-.7-.2-1.4 0-2 .1-1 .5-1.4 1-1 2.2 0 .7.3 1.5.4 2.2.2.5 0 1-.4 1.3l-.5.4-1.3.9c-.7.5-.7 1.3-.1 2l.2.2 1 1 .7.7c.4.4.5.8.4 1.3l-.2.7-.4 1.4c-.3 1 .1 1.7 1.1 2l.7.1 1.6.4c.5 0 1 .4 1 1l.3.6.6 1.8c.3.7.8 1 1.5 1s1.4 0 2-.4l.8-.4c.5-.2 1-.2 1.5.2a44.4 44.4 0 002.1 1.7c.6.4 1.3.4 1.9.2.6-.2 1-.6 1.1-1l.7-1.6c.5-.8.7-.9 1.6-.8l2 .3z" fill="#FFFDDF"></path><path d="M31.3 33.5l.4 1.8a1540.5 1540.5 0 008.7 24A69659.6 69659.6 0 0147.2 78v.1c.2.6.2.7-.5.8l-.6-.1c-.8-.3-1.3-.7-1.6-1.5l-3.2-9.1a5802.8 5802.8 0 01-12-33.9l-1.6-4.6c-.3-1.1-.3-2.2.1-3.3.3-.7.8-1.3 1.5-1.8l.7-.4A3960.8 3960.8 0 0161.3 8.7L67 6a5437 5437 0 018.5-4.2 3 3 0 013.5 1l.6 1 1.4 4A2042.1 2042.1 0 0192.3 40l3 8.6a4386.1 4386.1 0 0114.5 41.1 4077 4077 0 007.6 21.6c.4 1 .8 2.1 1 3.2.3 1.3.1 2.5-.7 3.5a59.1 59.1 0 01-6 3.4l-1.2.6a53077.8 53077.8 0 01-17.4 8.7l-9.4 4.6a18515 18515 0 01-13.3 6.4c-1 .5-1.8.3-2.6-.3-.5-.4-1-.9-1.1-1.5a149.4 149.4 0 01-3.6-9.8 560.6 560.6 0 01-1-3v-.5c0-.2.3-.1.5 0l.4.1 1.5 1c.5.2.9.7 1 1.2l1 2.6 1.2 3.2.4 1a4.1 4.1 0 003.3 2.3 4 4 0 002-.3l1.2-.5 20-10 3.7-1.9h.2c.7-.3 1.3-1 2-1.2.8-.2 1.5-.6 2.2-1l2-1 2.1-1 4.6-2.3c.7-.4 1.4-.8 2-1.4a5.3 5.3 0 001-5.4l-2-5.6a10834.5 10834.5 0 01-17.5-51l-3.8-11.2A88781.5 88781.5 0 0080.3 13c-.3-1-.6-1.8-1.3-2.5a5 5 0 00-1.8-1.3l-.9-.2c-.7 0-1.3.1-2 .4l-.8.4-9 4.5h-.1c-.8.3-1.2.8-1.2 1.7 0 .5-.2.8-.7 1.1l-.4.2a2591 2591 0 01-15 7.2c-.4.1-.7 0-1-.2l-.3-.4c-.4-.4-.8-.4-1.3-.2a4 4 0 00-.4.1l-6 3-3.5 1.6c-1 .4-1.8 1-2.4 2-.6.8-.8 1.8-.9 3.2zM45 21.3l.7-.3 2.6-1.2a30776.7 30776.7 0 017.5-3.8.7.7 0 00.2-.8.7.7 0 00-.8-.3l-.4.1-4.3 2.1-2.4 1.2a318.4 318.4 0 00-3.6 1.8c-.2.2-.2.5 0 .7 0 .3.3.4.5.5zm14.3-6.5c.5 0 1-.5 1-1 0-.6-.3-1-1-1-.6 0-1 .5-1 1.1 0 .6.4 1 1 1z" fill="#07B8BA"></path><path d="M17.4 93.5c-1.9 0-3.6-.5-5-1.8a5 5 0 01-1.7-3.2 7 7 0 011.2-4.7c.7-1 1.5-2 2.5-2.8l2.7-2A38 38 0 0026.3 68l1-2.2v-.3c.2-.5.5-.8.9-1l2-1.3 5.4-3.2h.1c.6-.4.8-.3 1 .4 0 .6-.2 1.1-.8 1.5a96 96 0 00-3.8 2.6c-1 .7-1.8 1.7-2.4 2.8-.4.8-.8 1.6-1 2.4a42.8 42.8 0 01-2.1 4.5c-.2.4 0 .7.4.8l.8.2c.8.2 1.3.6 1.8 1.2 1.3 1.4 2 3 1.9 5 0 1-.3 2-.7 3-.7 1.6-1.6 2.9-2.7 4a17 17 0 01-9 4.8l-1.7.2z" fill="#FF65BE"></path><path d="M107.4 61.8v1c0 .3-.2.3-.3.2l-.5-.2c-1-.6-1.8 0-2 .8a6 6 0 00-.1 2.1c0 1.1.3 2.2.3 3.4v.6l-.3.3-.2-.2-.5-1.4a105487.5 105487.5 0 01-18.6-52.7l-1.1-3.2c0-.2-.2-.4 0-.5.2-.2.4 0 .6 0l.7.6.8.6c.7.4 1.2.4 1.9-.1l.7-1c.4-.6.6-.7 1.2-.2l1 .6c.2.2.4.3.7.3.6.3 1 0 1.5-.4.3-.3.5-.7.6-1.1.1-.3.2-.5.6-.4.2 0 .3-.1.2-.4v-.3l-1-3.4-1-2.4c-.4-.9-1-1.6-1.9-2.1l-1-.5h-.1c-.2-.2-.3-.2-.3-.4l.4-.2h.2c1.8.3 3 1.5 3.6 3a64 64 0 013.3 11.2v1.2c-.2 1-.4 2.1-.4 3.2l-.1 1.2-.1.2-.1-.1-.4-.7c-.3-.5-.8-.8-1.4-1a2 2 0 00-1.2 0c-.5.1-.8.3-1.2.6-.4.3-.8.6-1 1-.5.5-.6 1.1-.5 1.8l.2.8a4237.6 4237.6 0 003.8 11.1l.8 1.3c.9.9 1.9 1.1 3 .8.7-.2.7-.3 1 .4v.1c.1.3.1.4-.1.5l-.2.2-1.3 1c-.7.7-.8 1.6-.5 2.6l1 2.9 2.3 6.6.6 1.7c.1.6.4 1 .8 1.5.8.8 1.8 1 2.9.7a9 9 0 001.5-.7c.6-.4.8-1 .7-1.7l-.6-1.9-1.6-5c0-.2-.2-.4 0-.6l.4.3.3.2c.7.4 1.1 1 1.5 1.8l3.5 8.9.6 1.5.2.3c0 .2 0 .4-.2.5l-.6.7c-.2.2-.5.2-.7.1l-.6-.2c-.7-.2-1.3 0-1.6.8l-.1.6v1.2z" fill="#07B8BA"></path><path d="M81 95a37 37 0 00-4.1.3l-3 .3c-.8.2-1.6.4-2.4.8l-1.2 1c-1 1-.8 2.2 0 3 .2 0 .4.2.5.4l.2.2-.3.2h-.4a9 9 0 00-5 1.7l-1.1.8a3 3 0 01-2.6.5c-1.3-.3-2.5-.8-3.5-1.5l-1.1-.6a5.6 5.6 0 00-4.4-.5l-1.8.5h-2.1l-1.9-.4c-.8-.1-1.4-.5-1.9-1a5.5 5.5 0 01-1-6.5c1-1.9 2.7-3 4.8-3.3h.9c1.8.1 3.5.6 5.1 1.6l2 1 1.3.5c1.6.7 3.2.7 4.7 0l2.6-1.2a16.1 16.1 0 015-1.2H73l2.3.3c.6 0 1.2.4 1.8.6l2 1.2a4 4 0 002.3.7l1.2.1c.2 0 .3 0 .5.2l.2.2c0 .2-.2.2-.3.2h-2.2zM90 113.1h3.6l-.4.2-1.4.2c-1.4.1-2.8.3-4.3.2l-3.2-.2-1.8-.1-2-.2h-.7c-2-.1-4 0-5.8 1l-1.7 1.2-.6.3c-.7.5-1.5.6-2.4.5-1.5-.3-2.9-.8-4.1-1.6l-1-.5c-1.4-.8-3-1-4.5-.6l-2.4.3c-1.7 0-3.2-.3-4.5-1.4-.5-.4-.9-1-1-1.6-.4-1-.2-1.8.5-2.6a4.1 4.1 0 013.6-1.4c1.1 0 2.2.4 3.3.7l1.8.4h1.1a6 6 0 004-1.3l1.5-1.4L69 104a4 4 0 011.4-.8l1.8-.5h.7c1 0 1.9.2 2.8.3a40.4 40.4 0 009-.3c.6-.1 1.2 0 1.8.1a26.1 26.1 0 015 2.6c0 .1 0 .3-.2.3a2 2 0 01-.4 0l-2.7.1-2.2.2-1.7.1c-1.2.1-2.4.3-3.6.7l-1.9 1-.6.8c-.4.7-.4 1.4 0 2 .4.6.9.9 1.4 1.2 1 .4 2 .7 3.2.9 1.3.2 2.6.3 4 .3l3.2.1z" fill="#FF65BE"></path><path d="M87.5 118.4h-2.3l-5 .6c-1 .2-1.9.6-2.7 1.1-.4.3-.8.6-1 1a2 2 0 00.2 2.5l.6.5a.2.2 0 010 .2h-.1l-1.2.2a10.7 10.7 0 00-4 1.1c-.8.5-1.6.8-2.4 1-1.6.5-3.2.2-4.6-.6l-2.3-1.5c-1-.5-2-.8-3.2-.7-.3 0-.5 0-.8.2l-2.2.6c-.8.2-1.6.1-2.4 0a7.3 7.3 0 01-3.4-1.5 5.4 5.4 0 01-1.6-2.3c-.4-.9-.7-1.8-.7-2.7 0-.5 0-1 .2-1.6.1-.6 1-1 1.5-.8l.4.3.7.8a5 5 0 003.3 1.8c1.2.2 2.3 0 3.4-.6l1.3-.7.7-.4c.8-.5 1.5-.4 2.2 0l1.5.8 1.7.9c2 1 4 1.2 6.1.5a15 15 0 003.7-1.9l1.7-1a8.5 8.5 0 016-1.4l1.8.2c.7 0 1.3.1 1.9.4a20.7 20.7 0 013.9 2.8.2.2 0 01-.1.2 3 3 0 01-.5 0h-2.3z" fill="#FF65BE"></path><path d="M65.8 71.6c2.1 0 4 .5 5.6 1.5 1 .7 1.8 1.5 2.5 2.5.5.7.6 1.4.5 2.2 0 .8-.3 1.6-.7 2.4-.2.4-.5.8-.9 1.1a19.4 19.4 0 01-3.8 2.5c-.2.1-.2 0-.3-.1v-.3a.4.4 0 00-.5-.2.4.4 0 00-.1.6l.1.1c.2.2.2.2 0 .3l-1 .5c-1.3.6-2.6 1-4 1.4-.3.1-.5.1-.8 0-.3-.3-.5-.2-.6.1-.1.3-.3.4-.5.4l-2.4.3c-.4 0-.4 0-.5-.4v-.2a.5.5 0 00-.5-.3c-.2 0-.4.2-.4.4v.3a.2.2 0 01-.1.1c-.3 0-.5 0-.7-.3a8 8 0 01-1.3-3v-.4c-.1-.4 0-.4.3-.5h.1c.3 0 .4-.3.2-.5 0-.2-.2-.2-.4-.3-.3 0-.3 0-.3-.4 0-1.5.4-2.8 1-4.2a8.8 8.8 0 013.4-3.7c1.4-.9 3-1.5 4.6-1.8l1.5-.1zm-8 7c.3 0 .5-.1.5-.3a.5.5 0 00-.5-.5c-.3 0-.5.2-.5.4 0 .3.2.5.5.5zm6.8 1.7c.2 0 .5-.2.5-.5a.4.4 0 00-.4-.4c-.2 0-.5.2-.5.4s.2.4.4.5zm-5 1.7a.4.4 0 00-.4-.4.5.5 0 00-.4.4c0 .2.1.5.3.5.3 0 .5-.2.5-.5zm1.9-3.4a.4.4 0 00.4.4c.2 0 .4-.2.4-.4s-.2-.4-.4-.4-.4.2-.4.4zm4.7-3.6c0-.2-.2-.4-.4-.4s-.4.1-.4.4c0 .1.1.3.3.3.3 0 .5-.1.5-.3zM65 76.3c0-.2-.2-.4-.4-.4s-.4.2-.4.4.2.4.4.4.4-.2.4-.4zm-4.8-1.7c0-.2 0-.4-.3-.5-.2 0-.4.2-.5.4 0 .2.2.4.4.4a.4.4 0 00.4-.3zm8.8-.4c0-.2-.2-.4-.4-.4s-.4.3-.4.4c0 .2.2.4.4.4s.4-.2.4-.4zm-4.8-.2c0-.2-.1-.3-.4-.4-.2 0-.4.2-.4.4s.1.4.4.4a.4.4 0 00.4-.4zm3.5 4.1c0-.1-.2-.3-.4-.3s-.4.1-.4.3a.4.4 0 00.3.4c.2 0 .5-.2.5-.4zm2.8-.8c-.3 0-.4.1-.4.4a.4.4 0 00.4.4.4.4 0 00.4-.5c0-.2-.2-.3-.4-.3zm2.4 2.2c0-.2-.2-.4-.4-.4-.3 0-.4.2-.4.3a.4.4 0 00.4.4c.2 0 .4-.1.4-.3zm-3.6.7c0-.2-.2-.4-.4-.4s-.3.1-.3.4c0 .2 0 .3.3.3a.4.4 0 00.4-.3zm-6.3 3s-.2-.3-.4-.2a.4.4 0 00-.3.4l.3.3c.2 0 .4-.2.4-.4zm10.9-6.7a.4.4 0 00-.4-.4c-.1 0-.3.2-.3.4a.4.4 0 00.3.3.4.4 0 00.4-.3z" fill="#FEED01"></path><path d="M85 136.5v-.2l1.2-.7 2.4-1.1a7040.6 7040.6 0 0025.7-12.8l2.1-1.1.3-.2c1.2-.5 1.2-.6 2.5-.5h3.2l2.2.2h.2c0 .1.2.3 0 .4l-.3.3-.8.5-3.7 1.8a6290.6 6290.6 0 00-15 7.7l-1.9 1a73 73 0 01-13.3 4l-2.7.5h-1l-1 .2zM123.6 111.3h2.8c.7 0 .9-.4.7-1l-.5-1.3-1.5-4-2.2-7-2.7-8.5-7-20.8a1329.8 1329.8 0 01-2-5.7c0-.3.1-.5.4-.7h.2l.3.6 1 2.7 3.2 9.4a8182.2 8182.2 0 0010.7 31.4l1.5 4.4.2.6c.1.6-.1 1-.7 1h-1l-4.9-.8c-.4 0-.8 0-1.2-.2l-.3-.1h3z" fill="#07B8BA"></path><path d="M102.9 2.1v-.4a.6.6 0 01.8-.5l.3.3.3.6.4 1.5 1.4 4.5V9l-.2.2c-.4 0-.7.3-.8.6-.2.5-.4 1-.3 1.5l.8 4a68.3 68.3 0 003.7 11.3 5.9 5.9 0 001.7 2.2c.2.2.2.4 0 .5a.4.4 0 01-.4 0c-.2 0-.3-.1-.5-.3a8.8 8.8 0 01-1.6-2.3l-1-2.6-1-2.7a71.2 71.2 0 01-3-14.5l-.3-2.5-.3-2v-.3zM105.7 52.6c0 .4-.5.7-.8.6-.7-.3-1-.9-1.3-1.6l-.6-1.5-3-8.9-.7-1.7c-.1-.4 0-.6.2-.9h.3l.2.4a23 23 0 002.3 3.6c.2.2.4.5.4.8l.4 1 2.4 7.3.2.9zM93.9 20.4c.3 0 .6.2.7.6l1.6 3.9.3 1.5c.2 2 .5 3.8 1 5.6l.6 2.4v.3h-.2c-.4-.3-.7-.7-.9-1.2l-1-2.9-2.8-8-.3-1.1c-.1-.6.3-1 1-1zM89.9 112h-2l-3.1-.3a103 103 0 01-3-.4c-.2 0-.2-.2-.2-.3l.2-.2h.5l3.4.4 2 .2 2.9.1c1.3 0 2.6 0 3.8-.2l1.7-.2h1.3l.8-.3a1.2 1.2 0 00.8-1.3c0-.6-.3-1-.8-1.3l-.8-.4v-.2h.6l2.6.6c.5.1 1 .4 1.3.7.4.4.5 1.1 0 1.5l-1 .5-3 .6-4.5.4-2.4.1h-1.1zM85.8 124.7c-1.7 0-3.3-.1-4.9-.4a13.4 13.4 0 01-2.9-1.1v-.2h.5c1.4.5 2.7.8 4.1 1l2.7.2h1.8l3.6-.3 3.9-.7 1.5-.3c.4-.2.6-.5.5-1-.2-.5-.4-.8-.9-1l-.3-.2v-.2h.3l1.7.5c.4 0 .7.3.9.6.6.7.2 1.3-.3 1.5l-1.5.4c-1.4.4-3 .6-4.4.8-1.2 0-2.4.2-3.5.3l-2.8.1zM80.8 101.6H80a29.8 29.8 0 01-7.3-1 2 2 0 01-.4-.3.2.2 0 010-.1h.4a25.7 25.7 0 006.4 1 75.2 75.2 0 007.7-.5 3.7 3.7 0 001.6-.8c.6-.6.6-1.2 0-1.8l-.6-.4-.5-.2c-.3-.1-.4-.2-.3-.3.1-.2.3-.2.5-.1l.6.1 2 .7 1 .4.4.3c.5.5.4 1-.2 1.3l-.8.3a53.2 53.2 0 01-7.5 1.4h-2zM2.6 96.8c0-.4.2-.8.4-1.2l2.1-3 2-2 1.6-1.9.2-.2h.3v.3l.6 1.8v.2c.1.5 0 .6-.4.7A10.3 10.3 0 005.6 93c-.8.7-1.6 1.5-2.2 2.4l-.8 1.3zM94.3 30.3c-.4 0-.5-.1-.6-.5l-1.1-3.2c-.2-.4-.2-.7.1-1 .2 0 .3 0 .4.2l.1.3 1.2 3.5.1.2c.1.4.3.4 0 .5h-.2z" fill="#FFFDDF"></path><path d="M76.8 86.7c0 .5-.1 1-.3 1.4-.1.5-.4.7-.9.6a4 4 0 01-.9-.3c-.3-.2-.4-.5-.2-.8l.4-.5 1.2-1h.1c.3-.2.5 0 .5.2v.4z" fill="#FEED01"></path><path d="M99.5 45.7c0-.4 0-.6.4-.6h.3l.1.3.8 2.3v.5c0 .2 0 .3-.2.5-.1.2-.4 0-.5-.1a194.7 194.7 0 01-1-3z" fill="#FFFDDF"></path><path d="M125 115.5l-3-.2-1.3-.1a.6.6 0 01-.5-.3c0-.1 0-.3.2-.4h.5l4.7.7 3.1.4h.4v.1h-.1l-3.6-.2h-.4z" fill="#07B8BA"></path><path d="M69.9 87.4l-.2-.1a.2.2 0 01.1-.2l.4-.2 2-1a9 9 0 001-.6l2.5-1.8.3-.1a.1.1 0 01.1.1l-.2.3-1 .9a20.4 20.4 0 01-4.6 2.6l-.4.1zM70.7 85l-.4-.1c-.1 0-.2-.2 0-.3l1.2-.8s.2 0 .2.2c.1.3 0 .7-.4.8l-.6.1zM73.9 83.3l-.1-.2V83a7 7 0 011.5-1.2h.1a.1.1 0 010 .1v.3a5.3 5.3 0 01-1.5 1zM65 87.4h-.4c0-.1-.1-.3 0-.4a3 3 0 011.1-.4l.2.2a.3.3 0 010 .2c-.2.3-.5.4-.9.4z" fill="#FEED01"></path><path d="M2.6 96.8z" fill="#FFFDDF"></path><path d="M89.8 93.8c-1 0-2-.1-3-.5-1-.6-1.9-1.4-2.5-2.5L82 86.5l-3.8-7.1-3-5.7-4-7.2-.7-1.5-1.2-1.6c-.7-.8-1-1.7-1-2.6 0-.6.3-1.1.7-1.6.8-.9 1.7-1.7 2.7-2.4l2.8-1.7c.8-.5.8-.6.5-1.5-.7-1.4-1.3-2.8-1.7-4.3-.5-1.2-.7-2.5-.9-3.9v-1c0-.5 0-.8.2-1.1a5 5 0 012-1.9l.6-.1 3-.9.8-.3c.5 0 .9 0 1.2.4.3.5.5 1 .5 1.5 0 .4-.2.8-.5 1l-.6.2-1.5.4c-.5.2-.9.4-1.2.7l-1 1c-.3.3-.4.7-.3 1.1l.5 2c.4 1.4 1 2.7 1.6 4l.1.2c.3.5.6.5 1 .4l1.4-.5a21.3 21.3 0 015.7-1.2c1.4 0 2.3.6 2.8 1.9.3.5.4 1.1.3 1.8l.2 1 .9 2.9 2.9 9 2.1 6.9 3.4 11.4c.1.5.3 1 .3 1.6 0 .8-.3 1.5-.7 2.1-.5.7-1.1 1.3-1.8 1.8a12.2 12.2 0 01-5.6 2.1h-.8zm-.1-1.4a10 10 0 006.6-2.9c.7-.7 1-1.6.8-2.6v-.3L95 79.3l-2-6.5-2.1-7a3252.3 3252.3 0 00-2.9-8.7c-.1-.2-.3-.2-.5 0l-.5.3-2 1.6a35 35 0 01-12.3 5h-.8c-.3 0-.5.3-.4.7l.2.3 3.1 5.9c.3.4.7.8 1.1 1l1 .5a4 4 0 012.2 2.5l.3.9c.1.4.4.8.8 1l1 .8c1.2 1 1.9 2.2 1.8 3.7 0 .5.1 1 .5 1.3.4.4.8.8 1 1.4.3.7.3 1.5.2 2.4a4 4 0 00.1 2.3l1 1.6.5.5c.6.5 1.3 1 2 1.3l1.4.3zm-4.3-39.9c-1 0-2 .2-2.9.4l-1.1.4c-.3.1-.3.3-.1.5.4.4.6.8.8 1.3.2.7.1 1.3-.4 1.8l-.8.8-.2.2.6-.1a17.8 17.8 0 005-3.5c.2-.3.4-.5.5-.9.2-.5 0-.8-.6-.9h-.8zM71 61.4h.4a15 15 0 003.3-.8l2-.7v-.1h-.9c-.9 0-1.4-.2-1.9-1-.2-.4-.4-.8-.4-1.3 0-.3-.2-.4-.5-.3l-.3.2-2.3 1.8c-.4.4-.7.7-.8 1.1-.2.5-.1.7.3.9l.4.1h.7zm2.9-14.5l-.1.2.1.7c.4 1.6 1 3.2 1.7 4.7l1.1 2.2.3.4a.3.3 0 00.3 0 .3.3 0 00.1-.2l-.1-.4-1.3-2.7c-.5-1.2-1-2.4-1.3-3.7a3 3 0 00-.6-1l-.2-.2zm13 8.8v-.1h-.1c-.2 0-.3.2-.5.3-2 1.7-4.2 3-6.5 4L77 61.1c-.1 0-.3 0-.4.2v.3h.5a38 38 0 008.6-4.8l1-1 .1-.1zm-8.3-14l-.3-.2a.2.2 0 00-.2.2l.4.2.1-.2zM64.3 62.7c-.7 0-1.3-.2-2-.3-.9 0-1.1 0-1.6.8l-.6 1.5c-.3.5-.6 1-1.2 1-.6.3-1.3.3-1.9 0a46.2 46.2 0 01-2.2-1.7c-.4-.5-.9-.5-1.4-.3l-.8.4c-.6.3-1.3.4-2 .4s-1.2-.3-1.4-1l-.7-1.8-.2-.7c-.2-.5-.5-.8-1-1-.6 0-1.2-.2-1.7-.3l-.7-.1c-1-.3-1.4-1-1.1-2 0-.4.2-1 .4-1.4l.2-.7c.1-.5 0-1-.4-1.3l-.6-.6-1-1-.3-.3c-.6-.7-.6-1.5.1-2l1.3-1 .5-.3c.4-.4.6-.8.5-1.3l-.6-2.2c-.3-1.2 0-1.7 1.1-2.2.6-.2 1.3-.3 2-.2h.9a1 1 0 00.9-.5l.4-1 .5-1.2c.4-1 1.2-1.2 2-1.3.5 0 .8.2 1.1.4l1.2.8.9.7c.4.4.9.4 1.4.1l1.2-.7 1.6-.7c.6-.2 1.4 0 1.7.6l.4.9.6 1.8.2.6c.1.5.5.8 1 .8l1.8.3 1.1.1.6.2c.8.3 1.1 1 1 1.8l-.3.8-.7 2c-.3.5-.1 1 .3 1.5a104.4 104.4 0 012.7 2.6c.3.6.1 1.2-.4 1.7l-.6.4-1.7 1-.4.2c-.4.2-.6.6-.5 1.1l.4 1.6.2 1.1c.2 1-.5 1.8-1.5 1.8h-.7zm-18-18h-.7c-.5 0-.6.2-.6.7v.1l.3 1.1.3 1.3c.1.7-.1 1.3-.6 1.7l-.7.5-1 .7c-.4.4-.4.7 0 1v.2l1 1 .9.9c.2.2.3.5.3.8v1.1l-.5 1.5c-.3 1 0 1.2.8 1.3l1.7.4c1 .2 1.6.8 1.8 1.7a97.8 97.8 0 00.8 2.1c.1.4.4.5.7.4l.6-.3 1.5-.7c.6-.2 1.1-.2 1.7.1l.7.6 1.5 1.2.4.3c.3.1.5 0 .7-.2l.2-.5.9-1.7c.4-.7 1.1-1 2-.9l1.7.3h1c.3 0 .4 0 .4-.4v-.5l-.6-2.2a2 2 0 01.9-2c.1-.2.3-.3.4-.3l1.6-1c.2 0 .3-.2.5-.3.2-.1.2-.3 0-.5l-.3-.4-2-1.9a2 2 0 01-.6-2l.3-1 .6-1.5c.3-.7.1-1-.6-1l-2.6-.4c-1-.1-1.6-.7-2-1.6l-.3-1-.5-1.7c-.2-.4-.5-.4-.9-.3l-.3.1-.7.5-1.2.7c-.7.5-1.4.5-2.1 0a152.8 152.8 0 01-2-1.6c-.7-.3-1-.4-1.3.4l-.6 1.5-.2.5c-.4 1-1.2 1.4-2.3 1.3l-1-.1zM45 21.3c-.2 0-.5-.2-.6-.4l.1-.8.5-.3 3.1-1.5 2.4-1.2a1918.9 1918.9 0 004.7-2.2.7.7 0 01.8.3.7.7 0 01-.2.8 4164 4164 0 01-7.5 3.7c-.9.5-1.7 1-2.6 1.3l-.6.3zM59.3 14.8c-.6 0-1-.3-1-.9 0-.6.4-1.1 1-1 .7 0 1 .3 1 .9 0 .5-.5 1-1 1zM57.8 78.7c-.3 0-.5-.2-.5-.5 0-.2.2-.4.5-.4a.5.5 0 01.5.5c0 .2-.2.4-.5.4zM64.6 80.3c-.2 0-.4-.3-.4-.5s.3-.4.5-.4a.4.4 0 01.4.4c0 .3-.3.5-.5.5zM59.6 82c0 .3-.2.5-.5.5-.2 0-.4-.3-.3-.5a.5.5 0 01.4-.4.4.4 0 01.4.3v.1zM61.5 78.6c0-.2.2-.3.4-.4.2 0 .4.2.4.4s-.2.4-.4.4a.4.4 0 01-.4-.4zM66.2 75c0 .2-.2.3-.5.3-.2 0-.3-.2-.3-.3 0-.3.2-.4.4-.4s.4.2.4.4zM65 76.3c0 .2-.3.4-.5.4s-.4-.2-.4-.4.2-.4.4-.4.4.2.4.4zM60.1 74.6a.4.4 0 01-.4.3c-.2 0-.4-.2-.4-.4s.3-.4.5-.4.4.3.3.5zM69 74.2c0 .2-.3.4-.5.4s-.4-.2-.4-.4c0-.1.2-.4.4-.4s.4.2.4.4zM64 74a.4.4 0 01-.3.4c-.3 0-.4-.2-.4-.4s.2-.4.4-.4.4.2.4.4zM67.6 78.1c0 .2-.3.4-.5.4a.4.4 0 01-.3-.4c0-.2.2-.4.4-.3.2 0 .4.2.4.3zM70.4 77.3c.2 0 .4.1.4.3a.4.4 0 01-.3.4.4.4 0 01-.4 0 .4.4 0 01-.1-.3c0-.3.1-.4.4-.4zM72.8 79.5c0 .2-.2.3-.4.4a.4.4 0 01-.4-.4c0-.2.1-.4.4-.4.2 0 .4.2.4.4zM69.2 80.2a.4.4 0 01-.4.3c-.2 0-.3-.1-.3-.3 0-.3.1-.4.3-.4.3 0 .4.2.4.4zM63 83.3c0 .2-.3.4-.5.4l-.3-.3a.4.4 0 01.3-.4c.2 0 .4.1.4.3zM73.8 76.5a.4.4 0 01-.4.3.4.4 0 01-.3-.3c0-.2.2-.4.3-.4a.4.4 0 01.4.4z" fill="#000"></path><path d="M89.7 92.4c-.4 0-1-.1-1.4-.3a10.5 10.5 0 01-2.5-1.8l-1-1.6a4 4 0 01-.1-2.3c0-.9.1-1.7-.2-2.4a4 4 0 00-1-1.4c-.4-.4-.5-.8-.5-1.3 0-1.5-.6-2.7-1.8-3.7l-1-.7a2 2 0 01-.8-1.1l-.3-.9a4 4 0 00-2.2-2.5l-1-.4c-.4-.3-.8-.7-1-1.1l-3.2-6-.2-.2c-.1-.4.1-.6.4-.7h.8A35 35 0 0085 59l2-1.6.5-.4.5.1.3.6a162.3 162.3 0 012.6 8.2l2.1 6.9 2 6.5 2 7.3.1.3c.3 1 0 1.9-.8 2.6-.8 1-1.8 1.5-2.9 2a10 10 0 01-3.7.9zM85.4 52.5h.8c.6 0 .8.4.6 1l-.5.8a18 18 0 01-5.5 3.7h-.1v-.1l.2-.2.8-.8c.5-.5.6-1.1.4-1.8a3 3 0 00-.8-1.3c-.2-.2-.2-.4 0-.5l1.2-.4c1-.2 1.9-.4 2.9-.4zM71 61.4h-.7l-.4-.2c-.4-.2-.5-.4-.3-.8.1-.5.4-.8.8-1.2a16.1 16.1 0 012.6-2c.3-.1.5 0 .5.3 0 .5.2 1 .4 1.4.5.7 1 1 2 .9H76.6l-2 .8c-1 .4-2.2.6-3.3.7H71zM73.9 47h.2c.3.4.5.7.6 1.1a34.7 34.7 0 002.6 6.4l.1.4a.3.3 0 01-.1.3.3.3 0 01-.2 0l-.4-.5-1-2.2a30.3 30.3 0 01-2-5.4l.2-.2zM87 55.7l-.2.1-1 1a38 38 0 01-9.1 4.8v-.3l.4-.2 2.7-1.2c2.3-1 4.5-2.3 6.5-4l.5-.3h.1z" fill="#FEED01"></path><path d="M78.6 41.7v.2c-.3 0-.5 0-.5-.2a.2.2 0 01.2-.2c.1 0 .3 0 .3.2z" fill="#FFFDDF"></path><path d="M46.2 44.7l1 .1c1.2 0 2-.3 2.4-1.3l.2-.5.6-1.5c.3-.8.6-.7 1.2-.3a141 141 0 002 1.6c.8.4 1.5.4 2.2 0L57 42l.7-.5.3-.1c.4-.1.7 0 .9.3l.5 1.7.3 1c.4 1 1 1.5 2 1.6l2.6.3c.7.1.9.4.6 1.1l-.6 1.6-.3.9a2 2 0 00.6 2l2 1.9.4.4-.1.5-.5.4-1.6.9-.4.2a2 2 0 00-.9 2.1l.5 2.2v.5c0 .3 0 .4-.3.4a6 6 0 01-1 0c-.6 0-1.1-.2-1.7-.3-.9-.1-1.6.2-2 1l-.9 1.6-.2.5c-.2.3-.4.3-.7.2-.2 0-.3-.2-.4-.3L55.3 63l-.7-.6c-.6-.3-1.1-.3-1.7 0l-1.5.6-.6.3c-.3 0-.6 0-.7-.4l-.3-.7-.4-1.4c-.3-1-1-1.5-2-1.7l-1.6-.4c-.8-.1-1-.4-.8-1.3l.4-1.4c.2-.4.1-.8.1-1.2 0-.3-.1-.6-.3-.8a12 12 0 00-.9-1l-1-.9v-.1c-.4-.4-.4-.7 0-1l1-.8.7-.5c.5-.4.7-1 .6-1.7 0-.5-.2-.9-.3-1.3l-.2-1v-.2c-.1-.5 0-.7.5-.7h.6z" fill="#FEED01"></path></g><defs><clipPath id="hand-holding-phone_svg__clip0"><path fill="#fff" d="M0 0h162.2v148.7H0z"></path></clipPath></defs></svg>