<svg viewBox="0 0 40 40" fill="none" xmlns="http://www.w3.org/2000/svg"><defs></defs><path d="M20 5.5l-7.3.1a10 10 0 00-3.3.6c-.9.3-1.5.7-2 1.4-.7.6-1.1 1.2-1.4 2a10 10 0 00-.7 3.4A125 125 0 006 30.9c.3.8.7 1.4 1.3 2 .6.7 1.2 1 2 1.4.7.2 1.7.5 3.4.6a125 125 0 0018-.6c.8-.3 1.4-.7 2-1.4.6-.6 1-1.2 1.3-2 .3-.7.6-1.6.7-3.4A125 125 0 0034 9.6c-.3-.8-.7-1.4-1.3-2-.6-.7-1.2-1-2-1.4a10 10 0 00-3.4-.6L20 5.5zm0-3.3c4.9 0 5.5 0 7.4.2 2 0 3.2.4 4.4.8A8.8 8.8 0 0137 8.5c.4 1.1.7 2.4.8 4.3A127.7 127.7 0 0137 32c-.5 1.2-1.1 2.2-2.1 3.2s-2 1.6-3.2 2.1c-1.2.5-2.5.8-4.4.8a127.7 127.7 0 01-19.2-.8A8.8 8.8 0 013 32c-.4-1.1-.7-2.4-.8-4.3A127.7 127.7 0 013 8.5C3.4 7.3 4 6.3 5 5.3s2-1.6 3.2-2.1c1.2-.4 2.5-.8 4.4-.8l7.4-.1zm0 8.8a9.2 9.2 0 110 18.5A9.2 9.2 0 0120 11zm0 15.3a6 6 0 100-12 6 6 0 000 12zM8.2 10.6a2.2 2.2 0 104.4 0 2.2 2.2 0 00-4.4 0z" fill="currentColor"></path></svg>