<svg viewBox="0 0 40 40" fill="none" xmlns="http://www.w3.org/2000/svg"><defs></defs><g clip-path="url(#linkedin_svg__clip0)"><path d="M29.9 2H9.3C5.3 2 2 5.3 2 9.3V30c0 4 3.3 7.3 7.3 7.3H30c4 0 7.3-3.3 7.3-7.3V9.3c0-4-3.3-7.3-7.3-7.3zM13.7 29.9H9.3V13.7h4.4V30zm-2.2-18a2.6 2.6 0 010-5.2c1.5 0 2.6 1.2 2.6 2.6 0 1.4-1.1 2.6-2.6 2.6zm19.8 18H27v-8.2c0-5-5.8-4.6-5.8 0v8.2h-4.4V13.7H21v2.6c2-3.8 10.2-4 10.2 3.7v9.9z" fill="currentColor"></path></g><defs><clipPath id="linkedin_svg__clip0"><path fill="#fff" transform="translate(2 2)" d="M0 0h35.2v35.2H0z"></path></clipPath></defs></svg>