<svg viewBox="0 0 135 132" fill="none" xmlns="http://www.w3.org/2000/svg" class="footer_illustration__2yJKb"><defs></defs><g clip-path="url(#lunchMoney_svg__clip0)"><path d="M53.6 0a31 31 0 017.5 1.2 18.5 18.5 0 015.8 3 .8.8 0 00.8 0l.4-.2A18.9 18.9 0 0176.8.4c.9-.2 1.7-.3 2.6-.3h4.5a30 30 0 018 1.8 38.7 38.7 0 0111 5.6A50.2 50.2 0 01118.4 25l3 5.5 1.7 3c.9 1.8 1.7 3.5 2.7 5.2l2.4 3.3 1.1 1 2.3 1.7c.6.5 1.3 1 1.8 1.6.6.7 1 1.5 1.2 2.5.1 1-.2 2-.7 2.9-.4.7-1 1.3-1.6 1.8l-2.7 2.2-1.4 1.1-1.2 1.5c-.8 1-1.4 2.1-2 3.2l-2.6 4.9L120 71l-2.3 4.1a28 28 0 01-6.2 7.7 43.7 43.7 0 01-10 7.1l-1 .6-.5.3c-.2.2-.3.4-.3.7l.2.5.7 1.5c.3.7.3 1.4.2 2.1 0 .8-.4 1.4-1 1.9-.4.5-1.1.8-1.8 1-1 0-1.8 0-2.6-.5a5.1 5.1 0 01-1.8-2.1l-.6-1.3-.2-.3c-.2-.4-.5-.5-.8-.4-.5 0-.9.2-1.3.3-.4.2-.6.4-.6 1v.2l.3 2a28.3 28.3 0 01.1 3c0 2-.3 3.7-1 5.5-.6 1.7-1.5 3.2-2.7 4.6a27.5 27.5 0 01-14.6 7.7l-1.3.2c-.5 0-.8.3-1 .7a3 3 0 00-.4 1.4v1c.2.8.7 1.3 1.5 1.7l1.5.3 1.6.1a4 4 0 012.4.8A3.7 3.7 0 0175 131c-1.2.3-2.3 0-3.3-.8-1-1-1.9-2-2.6-3-.7-1-1.2-2-1.5-3.1l-.7-1.5-1.9-3-.1-.3c-.3-.5-.8-.8-1.4-.9a25.4 25.4 0 01-7.9-2.3 26.7 26.7 0 01-7.1-4.8A14.3 14.3 0 0144 101V100a46.6 46.6 0 01.4-5c0-.4-.2-.6-.5-.8l-.5-.2a45.5 45.5 0 01-26-18l-1.4-2.5-2.7-5-2.2-4c-.8-1.4-1.5-3-2.4-4.4L8 58.7a12 12 0 00-3-3l-2.2-1.8a9 9 0 01-2-2.2c-.4-.7-.6-1.4-.7-2.1 0-.7 0-1.4.4-2a6 6 0 011.4-2L4 44l1.5-1.1c.6-.5 1.1-1 1.6-1.7 1-1.2 1.7-2.5 2.5-3.8l2.7-5.3 5-9A57.3 57.3 0 0131.7 7.7 47.4 47.4 0 0143 1.8 36.9 36.9 0 0151.4.1l2.2-.1zm-8.2 100c0 1.2.1 2.5.4 3.7a13.2 13.2 0 004.5 7.4c1.3 1.1 2.7 2 4.2 2.9l1.1.4h1c.8 0 1.6 0 2.3-.2 1.1-.3 2-1 2.6-2l.7-1.6c0-.4.2-.8.4-1.2l.3-.5c.4-.8.7-1.6 1.2-2.3.7-1.2 1.6-2.3 2.8-3 1-.8 2.2-1.3 3.5-1.4.8-.1 1.6 0 2.4.2h1.4l1.2-.2c1.2 0 2.2.5 3 1.2a5.2 5.2 0 011.5 3.5c0 1-.3 1.8-.7 2.6l-1 1.5c-.5.7-.8 1.4-.9 2.1v.9c.3.6.9.8 1.4.6l.5-.2 2-1a20 20 0 004.4-3.7 13.1 13.1 0 003.5-8.4v-1c0-.5 0-1-.4-1.4l-.3-.4a11 11 0 01-1.4-2.8c-.2-.3-.3-.3-.7-.3H86c-.4 0-.7-.2-.6-.6a.7.7 0 01.5-.7h.4a.4.4 0 00.4-.4l.1-.9a8 8 0 01.6-2.8c.2-.4.2-.9.1-1.3l-.1-.8-.4-2a21.5 21.5 0 010-6.9c.2-1.4.5-2.9.9-4.3l1.4-5.4c.6-2.2 1.1-4.4 1.3-6.6l.2-2.1-.1-2a12.8 12.8 0 00-2.3-6.2l-.5-.6-.2-.4c-.1-.3 0-.5.2-.6.1-.2.3-.2.5-.1.2 0 .4.2.5.3l.7.8 1.1 1.4 1 1.3 1 1.6a9 9 0 001.5 2c1 1 2 1.2 3.3.8a6 6 0 001.4-.7 25 25 0 013.1-2c.3-.2.3-.4.2-.8a19 19 0 00-3.6-4.3A23 23 0 0089 46c-1.7-.5-3.5-.8-5.3-.9h-2a22.5 22.5 0 00-8.9 2.2 17.1 17.1 0 00-6 5.1l-.6.9-.6.6c-.4.2-.8-.2-.8-.5l.1-.5.3-.8c.3-1.2.1-2.2-.6-3.1a6.4 6.4 0 00-2-1.8 19.8 19.8 0 00-10.5-2h-1.3a25.4 25.4 0 00-10.9 4l-.8.6-.5.4a21.3 21.3 0 00-5.2 5.6c-.2.4-.1.7.3 1l.5.4a14.4 14.4 0 012.8 2h.6l1-.5a14 14 0 005.7-5.8c.3-.7.8-1.3 1.3-1.8.1-.2.3-.4.6-.4h.5a.5.5 0 01.2.7l-.1.3-.3.4c-1 1-1.5 2.2-2 3.6-.5 1.5-.6 3-.7 4.7v.8l.3 2.2.6 3.3c.3 1.7.8 3.3 1.2 4.9.7 2.3 1.3 4.7 1.6 7.1l.3 2.3c0 1.5 0 3-.2 4.6a64 64 0 01-.5 3.2l-1 4.6a86.8 86.8 0 00-.6 5v1.6zm8.3-87.8h-1.3A46.9 46.9 0 0026.6 23a78.5 78.5 0 00-7.9 6.8l-2.4 2.4-2 2.3a18 18 0 00-1.7 2.2 160 160 0 01-3.7 5.1l-1.4 1.6c-.7.6-1.4 1.3-2.2 1.8-.9.5-1.6 1.1-2.3 1.9-.4.4-.7.8-1 1.4-.2.3-.2.7 0 1 0 .7.5 1.4 1 1.8l2.8 2 3 1.6a27.4 27.4 0 019 7.7l2.9 4.3a93.1 93.1 0 005.4 7.7 24.2 24.2 0 004.5 3.7l3.1 1.8.8.4c.5.2.6 0 .7-.3l.1-.7c.3-1 .8-1.9 1.5-2.6l.9-.9c.2-.3.5-.6.6-1 .2-.5 0-1.2-.6-1.4a20 20 0 01-11.8-6.2L24.6 66l-1.9-2a129.3 129.3 0 00-8.6-8 30 30 0 00-5.7-4l-.3-.3c-.2-.3-.2-.6 0-.8l.5-.4 1.6-1.2.8-.7c.9-.8 1.8-1.5 2.6-2.4l1.6-1.7c.8-.8 1.6-1.8 2.1-2.8.3-.5.5-1 .5-1.6 0-.3.2-.6.5-.7l.5-.2 1-.4 2.4-1.3c2-1.2 3.7-2.5 5.6-3.7l2.8-2.1 2-1.3.7-.7.2-.2c.1-.1 0-.3 0-.4h-.3l-.4-.2a.5.5 0 01-.2-.4c0-.3 0-.5.3-.7l.7-.2 1.3-.2c1 0 1.8-.3 2.7-.5a45.2 45.2 0 008.7-3.4c.2-.2.2-.3 0-.5 0-.2-.2-.3-.3-.4-.2-.4 0-.9.3-1h.8l2.9.6a18.6 18.6 0 004.7.2l2-.1 2.4-.3 1.7-.1a466.9 466.9 0 014.5-.5l.7-.1h1.3l1.2.4c.9.3 1.9.4 2.8.5l2.3.2h.5l2 .2h1.5l3-.1 1.7-.1a34.6 34.6 0 007.6-1.7c.5.2.7.6.4 1l-.7.5-.5.2-.4.3c-.2.3 0 .6.2.8l.4.1 2.6.8c1.5.5 3 1.1 4.3 1.9l1.7 1c1 .7 2 1.4 3.2 1.8l2.3 1c.3 0 .6.1.8.3.3.2.4.6.2.9l-.1.2c-.2.2-.2.4 0 .7l.5.4 2.4 1.8 3.1 1.9c.6.3 1.2.6 1.8.7l1.4.4h.4c.3.2.5.5.4.8 0 .5 0 .8.3 1.2L116 41a45.8 45.8 0 005.9 6l2.2 2c.6.5 1 1 1.8 1.4l.3.3c.2.2.2.4 0 .6 0 .2-.2.4-.4.6l-1 .6-1.5 1a43 43 0 00-6.7 5.4l-2.3 2.1-3 3-1.4 1.5-.8.9c-.6.6-1.2 1.3-1.9 1.8a22 22 0 01-5.5 3.5c-2.2 1-4.6 1.7-7 2.2a4 4 0 00-1.5.7 6 6 0 00-1.8 2.1 5 5 0 00-.6 2l.1 1.8c.1.4.2.9.5 1.3.4.7.9.9 1.6.7h.1c1.7-.3 3.3-.8 5-1.3 1.4-.4 2.8-1 4.1-1.8a30.8 30.8 0 008-7 57 57 0 002.8-4 87 87 0 015.6-8 42.5 42.5 0 016.3-5l3-1.7a25.6 25.6 0 004-2.8c.4-.3.6-.7.7-1.1 0-.8-.1-1.6-.6-2.2a10.8 10.8 0 00-2.3-2.2l-2-1.6a14 14 0 01-2.2-2 35.3 35.3 0 01-3-4.2l-1.4-2.2a116.2 116.2 0 00-2-2.4l-1.6-1.7-2.8-2.8a58.2 58.2 0 00-7.8-6.4 60.5 60.5 0 00-16.7-8.4 40.7 40.7 0 00-8-1.5l-1.7-.2-2.3.1-2.1.3-2 .2c-1.7.3-3.3 1-4.8 1.8l-1.7 1.1-.5.4a1 1 0 01-1 0 14.8 14.8 0 00-6-2.9 32 32 0 00-6.4-1zm30.5 20.7v1.6c0 .3 0 .6.2.8l.5.8 1.9 2.2a11636.7 11636.7 0 014 4.6c.3.3.6.3 1 .1l.3-.2c1-1 2-2.2 2.9-3.4a21.7 21.7 0 002.7-6.1 1 1 0 00-.3-1l-.1-.3-.8-.7c-.8-.9-1.7-1.6-2.7-2.3a32.5 32.5 0 00-5.8-3 26.2 26.2 0 00-3.5-.8c-.3 0-.4.2-.5.5v.6l.1 2.3.1 2.9v1.4zm-31.7-4v2.5c0 .8.2 1.5.3 2.2l.1 1.1c.1.6.5 1 1 1l1.2.3c1.2 0 2.4 0 3.6-.2a27.8 27.8 0 007.5-2.5c.5-.2.7-.6.7-1.1v-.4-1.6l-.1-2.6v-1.2l-.1-1.4-.1-.8-.2-.5a.6.6 0 00-.4-.3c-.3 0-.5-.1-.8 0h-1l-3.6.8-4 1-3.3.9c-.7.2-.8.4-.8 1V29zm30 1v-2.2c0-.6 0-.8-.6-1h-.1l-1.8-.5-5-1.3-3.5-.8-2.1-.5h-.7c-.3.1-.4.3-.5.5v.5l.1 1.7.3 2.8a119 119 0 00.5 3.4c0 .3.3.7.6.9l.6.3C73.1 35 76 35.8 79 36a8.5 8.5 0 002.5-.3c.5-.2.7-.5.8-1l.1-.8.2-1.7v-2.2zM51 27v-.7-.5c-.1-.2-.3-.4-.6-.3h-.1L49 26c-1 .3-2 .6-2.8 1-2.1.8-4.1 1.9-5.9 3.3l-2.5 2-.3.2a.8.8 0 00-.3.7v.4l.2 1 .5 3 .2.8c0 .3.3.5.6.6h.3c.6.2 1.2.2 1.8.2.6 0 1.2 0 1.8-.2a22 22 0 007.7-3.2c.3-.2.5-.6.5-1V34 31v-2l.1-2zM36 62.1v-1.2c0-.6-.2-1-.7-1.4a16.7 16.7 0 00-3-1.9c-2-1-4-1.8-6.3-2h-1.8c-.5 0-.9.4-1 .9l-.3 1.1.1 1.4.4.7a50.6 50.6 0 005 6.2l1.4 1.3c.8.8 1.6 1.5 2.5 2.1l2 1.4.4.3c.3 0 .6 0 .7-.4v-.3l.3-2v-.4l.1-1.7.1-1.8v-.7L36 62zm62.6-.1v1.4l.1 1.6.2 2.6.2 2.6.1.5c.1.2.3.4.6.3h.4l1-.6a444.8 444.8 0 003.2-2.9l1.2-1.4 3.7-5 1.6-2 .6-.9.2-.7a5 5 0 00-.3-1.2c-.2-.4-.5-.6-1-.7a12 12 0 00-3.8.3c-2.4.7-4.6 1.8-6.7 3.2l-.7.5c-.5.4-.6.8-.6 1.3v1zm-34.7 50.2c0 .7 0 1.3.2 2l.7 2.1c.3.6.7 1 1.1 1.3.3.2.5.3.8.3.4 0 .8-.2 1-.5.5-.6.8-1.2.9-1.9 0-.5-.1-.9-.5-1.2l-.6-.4-1.6-1.5c-.5-.6-.9-1.3-1-2-.1-.3-.1-.6 0-.8.2-.4.7-.5 1-.1l.2.3.2.6c0 .3.3.7.5 1 .4.6 1 1 1.7 1.3 1 .4 2 .6 3.2.4.5 0 1-.2 1.4-.4a3 3 0 001.3-1l.2-.5v-.4H74l-.2.1-.4.3-1.2.5c-1 .2-2 0-2.9-.3-.6-.3-1-.7-1.4-1.1l-.2-.6a.4.4 0 01.2-.5h.7l.5.1c.8.2 1.5.3 2.3.2 1-.2 1.9-.7 2.5-1.6 0-.2.2-.3.4-.4.3-.3.6-.4 1-.3.4.1.6.3.7.6l.3.5c.2.4.7.6 1.2.2l.1-.1c.5-.6.7-1.1.6-1.8 0-.7-.2-1.3-.6-1.8-.2-.3-.5-.5-.9-.6-.7-.2-1.2.2-1.2.9v.4c0 .2 0 .3-.2.5-.2.3-.7.3-1 0l-.1-.4-.6-1a3 3 0 00-1.9-1c-1.2-.2-2.4 0-3.4.6-1 .5-2 1.3-2.7 2.3-.8 1.1-1.3 2.4-1.6 3.7-.2.7-.2 1.3-.2 2zM36 38.7v-2.3l-.1-.6-.1-1.8-.2-1.9-.1-.7c0-.1-.2-.2-.4 0l-.3.1-.6.7-1.7 2-1.6 1.7-1 1-1.5 1.7L27 40a299.4 299.4 0 00-3.7 4.2c-.1.2 0 .4.1.6.2.3.5.4.8.4h2a23.8 23.8 0 009-3.9c.5-.4.7-.9.7-1.5v-1zm71.8 5.5h.8c.6-.1 1-.5 1.1-1 .2-.4 0-.8-.2-1.1 0-.1 0-.2-.2-.3l-1.7-2-1.9-2.1-1.7-2-2.1-2.3-.3-.3c-.3-.2-.8-.2-1 0l-.3.4c-.6.7-1 1.4-1.3 2.2l-1.6 3a4 4 0 00-.2.6.6.6 0 000 .5l.3.4.6.4a22.9 22.9 0 007 3.2l2.7.4zM43.2 76a5.8 5.8 0 00-.4-2.4c-.2-.4-.5-.3-.7-.1l-.3.3c-.3.6-.8 1.1-1.3 1.6l-1.7 1.5a8 8 0 00-1.3 1.3 4 4 0 00-1 2l.3 1.2c.3.5.7.9 1.4.9.5 0 1 0 1.4-.3 1-.5 2-1.3 2.6-2.3a6 6 0 001-3.7zm49.9 12.6v.7a22.8 22.8 0 001.2 5.3c.1.3.3.6.6.8l1 .5a2 2 0 001.8-.4c.3-.2.5-.6.6-1 .2-.3.2-.7.2-1.1 0-.4-.2-.7-.3-1-.1-.6-.4-1-.8-1.5a15 15 0 00-3.7-3c-.3-.2-.5 0-.6.3v.4zM37 69.2v.4c0 .3.1.5.3.7.3.2.6.1.8-.1l.2-.4.5-1.2c.4-.9.8-1.8 1-2.7l1.2-3.2.2-.4v-.4l-.4-.2H39l-.1.1c-.4.1-.7.4-.8.7l-.2.5-.3 1.9-.3 2.1-.1 1-.1 1.2zm34.4 57.4v.5c.2.8.5 1.5 1.2 2a2.3 2.3 0 003.8-2 2.3 2.3 0 00-1-1.7c-.4-.3-.9-.4-1.4-.4h-1.2c-.6 0-1 .2-1.2.6-.2.3-.2.7-.2 1zm26-57.7l-.2-2a154.5 154.5 0 00-.7-4.3c-.2-.4-.5-.7-.9-.8l-.9-.1h-.7c-.3.1-.4.3-.3.6 0 .3 0 .5.2.7l1.5 4.7.6 1.8.1.5c.2.2.4.3.6.1.5-.2.8-.6.7-1.2z" fill="#000"></path><path d="M45.4 100v-1.6l.2-1.8.6-3.1.9-4.7.5-3.2c.2-1.5.2-3 .2-4.6l-.3-2.3c-.3-2.4-1-4.8-1.6-7.1-.4-1.6-.9-3.2-1.2-4.9a35.4 35.4 0 01-.8-5.5v-.8c0-1.6.1-3.2.6-4.7a10.4 10.4 0 012.3-4l.1-.3a.5.5 0 00-.2-.7h-.5c-.3 0-.5.2-.6.4-.5.5-1 1.1-1.3 1.8a15.9 15.9 0 01-3.2 4 14 14 0 01-2.5 1.8l-1 .5H37l-.3-.2a14.4 14.4 0 00-3-2.2c-.4-.3-.5-.6-.3-1l.3-.3a21.3 21.3 0 014.9-5.3l.5-.4.8-.6 1.5-1a24.2 24.2 0 019.4-3H52a15 15 0 014 0 19.8 19.8 0 016.6 2c.8.4 1.5 1 2 1.8.7.9 1 2 .6 3l-.3.9-.1.5c0 .3.4.7.8.5l.6-.6.6-.9a17.1 17.1 0 0110.1-6.6 21.3 21.3 0 014.8-.7h2a24.5 24.5 0 0114.8 6 21.7 21.7 0 013.6 4.3c.1.4 0 .6-.2.9l-.5.3-2.6 1.6a6 6 0 01-1.4.7c-1.3.4-2.4.1-3.3-.8a9 9 0 01-1.6-2l-1-1.6-.9-1.3-1-1.4-.8-.8c-.1-.1-.3-.3-.5-.3h-.5c-.2.2-.3.4-.2.7l.2.4.5.6a12.8 12.8 0 012.2 6.2l.2 2-.2 2c-.2 2.3-.7 4.5-1.3 6.7l-1.4 5.4a36.4 36.4 0 00-1 9.3l.1 1.9.4 2 .1.8V90a9.2 9.2 0 00-.7 2.8v.9a.4.4 0 01-.5.3l-.4.1a.7.7 0 00-.5.7c0 .4.2.7.6.7h.4c.4-.1.5 0 .7.2l.1.4 1.3 2.4.3.4c.4.4.5 1 .4 1.4v1c0 1-.3 2-.5 3-.6 2-1.6 3.9-3 5.4a20 20 0 01-4.5 3.6l-1.9 1.1a3 3 0 01-.5.2c-.5.2-1 0-1.3-.6v-.9c0-.7.3-1.4.8-2l1-1.6c.4-.8.7-1.7.7-2.6v-.6c-.3-1-.7-2-1.5-2.9a4.2 4.2 0 00-3-1.2c-.4 0-.8 0-1.2.2a3 3 0 01-1.4 0c-.8-.2-1.6-.3-2.4-.2-1.3.1-2.5.6-3.5 1.3-1.2.8-2 1.9-2.8 3l-1.2 2.4a254.5 254.5 0 01-1.4 3.3c-.6 1-1.5 1.7-2.6 2-.7.2-1.5.3-2.2.2h-1c-.5 0-.8-.2-1.2-.4-1.5-.8-3-1.8-4.2-3a13.2 13.2 0 01-4.5-7.4c-.3-1.1-.4-2.4-.4-3.6zM75 68.3v-.7l-.2-.7a8 8 0 00-1.3-2.6l-.6-1c-.8-1-1.3-2.3-1.6-3.7l-.2-1-.1-.7c-.2-.4-.6-.6-1-.3l-.3.1-.6.7-1.4 2.6-.3.7-.4.5a.4.4 0 01-.5 0 1 1 0 01-.4-.4l-.2-.6c0-.2-.2-.4-.3-.5-.3-.4-.9-.4-1.3 0l-.2.3c-.4.7-.8 1.3-1 2a19.3 19.3 0 00-1.9 6.5V71c-.1.3-.2.5-.5.7l-1 .5c-.3 0-.5 0-.7-.2l-.2-.3c-.3-.3-.7-.4-1-.2l-.6.4a23.6 23.6 0 00-4.7 5.8 9.3 9.3 0 00-1.1 4.7l-.2 1c-.2.7-.5 1.5-.5 2.3v1.4a22.6 22.6 0 002 7.7l1 1.9.6.8.4.7.8 1.6c.4 1 .5 1.8.2 2.7-.2 1.2-.6 2.4-1.3 3.4l-1.3 2-.5.7v.5c-.1.4 0 .6.3.8h.9c0-.2.2-.2.2-.3.2-.1.2-.3.3-.4L56 107l2.4-2.4A23.1 23.1 0 0172 99h3.9l1.8.3c1.9.3 3.7.9 5.5 1.7l1.7.8.6.2c.3 0 .5 0 .6-.2v-.6l-.3-.3a113.8 113.8 0 00-2.3-1.2l-1.3-.8-1-1c-.3-.4-.3-.8-.2-1.3 0-.4.2-.8.5-1A15.2 15.2 0 0084 87v-.7c0-.8 0-1.5-.2-2.3a16.1 16.1 0 00-5.4-9.6 16.7 16.7 0 00-4-2.8c-.4-.2-.4-.4-.3-.7l.2-.5c.4-.6.6-1.4.6-2.2zm-.7-18.7c-.3 0-.6.2-.7.4a.7.7 0 000 .6c.1.6 1 .7 1.4.3.2-.2.3-.4.2-.6a1 1 0 00-1-.7zm-34.6 7c0-.3-.3-.7-.7-.7-.4 0-.8.4-.8.8 0 .5.4.8.8.8s.7-.4.7-.8zm12 19.7c.5 0 .8-.3.7-.6 0-.3 0-.5-.2-.7-.3-.3-.7-.3-1 0-.3.3-.4.6-.1 1a.7.7 0 00.6.3zM39.5 50.6c0 .4.4.8.8.7a.8.8 0 00.7-.7c0-.4-.2-.8-.8-.8-.4 0-.7.3-.7.8zm8.2 16.6c0 .4.3.8.8.8.3 0 .7-.4.7-.7a.8.8 0 00-.7-.8c-.4 0-.8.3-.8.7zM76 56.5c0-.4-.4-.8-.9-.7-.5.2-.7 1-.3 1.3l.4.2c.4 0 .8-.4.8-.8zM59.1 49a.7.7 0 00-.7.7c0 .4.3.8.8.8.3 0 .6-.3.6-.7 0-.4-.3-.8-.7-.8zm-8.5 1.2c.4 0 .8-.4.8-.7 0-.4-.3-.7-.8-.7-.4 0-.7.3-.7.7a.7.7 0 00.7.7zm34.7 14a.7.7 0 00.7.8.8.8 0 00.7-.7c0-.4-.3-.7-.7-.7-.3 0-.8.2-.7.7zm7.2-10.1a.7.7 0 00.7-.7c0-.4-.3-.8-.7-.8-.4 0-.7.4-.7.8s.3.7.7.7zm-8.7 51c-.4 0-.7.4-.7.8 0 .5.4.7.8.7.3 0 .6-.4.6-.7 0-.4-.3-.8-.7-.8zm-5.4-41.8c-.4 0-.7.4-.7.8 0 .3.3.6.8.6.4 0 .7-.3.7-.7 0-.3-.4-.7-.8-.7zm-12.8 39.2c0-.4-.3-.8-.7-.8a.7.7 0 00-.7 1 .7.7 0 00.7.4c.4 0 .7-.2.7-.6zM60 57.8c.6 0 .9-.5.7-1 0-.3-.4-.5-.6-.4a.8.8 0 00-.7.7c0 .4.2.7.6.7zm21.2 15.7c0 .4.3.8.7.7.4 0 .7-.3.7-.6 0-.4-.3-.7-.7-.7-.3 0-.7.2-.7.6zM89 61c0-.4-.3-.7-.7-.7-.3 0-.7.3-.6.7 0 .4.2.7.7.7.4 0 .6-.3.6-.7zm-8.8 40.4c0-.4-.3-.7-.6-.8-.5-.1-.8.3-.8.7 0 .3.2.5.6.6.3.1.7-.2.8-.5zm-28.5-44c0 .4.4.7.7.7.4 0 .7-.3.7-.7 0-.3-.4-.6-.7-.6a.7.7 0 00-.7.6zm9.8 52.6c0-.5-.2-.7-.5-.7-.4 0-.8.4-.8.9 0 .3.5.6.8.5.3-.2.5-.5.5-.7zM50.6 96.4c0-.4-.3-.7-.7-.6-.3 0-.5.1-.6.4v.7a.7.7 0 00.8.2.7.7 0 00.5-.7zm33.6-42c.3 0 .6-.3.6-.7 0-.3-.3-.6-.6-.6-.4 0-.7.3-.7.7 0 .3.3.6.7.6zM56.3 65c-.3 0-.6.3-.6.7 0 .3.3.7.7.6a.7.7 0 00.6-.7c0-.4-.3-.6-.7-.6zm43-10.6a.6.6 0 00-.7-.7c-.3 0-.7.3-.7.7 0 .3.3.6.6.6.4 0 .7-.3.7-.6zM82.5 48c0-.3-.3-.6-.7-.6-.3 0-.6.2-.6.6 0 .3.4.6.7.6a.6.6 0 00.6-.6z" fill="#FF65BE"></path><path d="M53.7 12.2a32 32 0 0110 2.2 14.7 14.7 0 012.5 1.6 1 1 0 001 0l.4-.4 1.7-1.1c1.5-.9 3-1.5 4.8-1.8l2-.2 2.1-.3h2.3a69 69 0 012.7.2 40.6 40.6 0 0113.6 3.9 60.4 60.4 0 0117.9 12.3l2.8 2.8 1.6 1.7a116.9 116.9 0 012 2.4l1.5 2.2.3.5c.8 1.2 1.6 2.5 2.6 3.6a14 14 0 002.2 2.1l2 1.6a15 15 0 012.3 2.2c.5.6.6 1.4.6 2.2 0 .4-.3.8-.6 1l-.9.8c-1 .8-2.1 1.5-3.3 2.1l-2.9 1.6a25.3 25.3 0 00-6.3 5.1l-2.3 2.8a87.5 87.5 0 00-3.3 5.1l-2.7 4a30.8 30.8 0 01-8 7c-1.4.9-2.8 1.5-4.2 2-1.7.4-3.3.9-5 1.2-.8.2-1.3 0-1.7-.7-.3-.4-.4-.9-.5-1.3v-1.8c0-.7.2-1.3.5-2a6 6 0 011.8-2.1 4 4 0 011.5-.7c2.4-.5 4.8-1.2 7-2.2 2-1 3.9-2 5.5-3.5.7-.5 1.3-1.2 1.9-1.8l.8-1 1.4-1.3 3-3 2.3-2.2a92.6 92.6 0 016.7-5.4l1.6-1 1-.6.4-.6v-.6a1 1 0 00-.4-.3c-.7-.3-1.2-.9-1.8-1.4l-2.2-2a82 82 0 01-6-6l-1.3-1.7c-.3-.4-.4-.7-.3-1.2 0-.3 0-.6-.4-.7l-.4-.1-1.4-.4c-.6-.1-1.2-.4-1.8-.7l-3-1.9a244.2 244.2 0 01-3-2.2c-.2-.3-.2-.5 0-.7l.1-.2c.2-.3 0-.7-.2-.9l-.8-.4c-.8-.3-1.6-.5-2.3-.9-1.1-.4-2.1-1-3.2-1.7l-1.7-1.1c-1.4-.8-2.8-1.4-4.3-1.8a491.3 491.3 0 01-3-1c-.3-.2-.4-.5-.2-.7l.4-.4.5-.2.7-.5c.3-.4.1-.8-.4-1a1 1 0 00-.4 0 27.6 27.6 0 01-7.2 1.6l-1.6.2H74l-.4-.1-2.3-.2c-1-.1-2-.2-2.8-.5l-1.2-.3c-.4-.2-.9-.2-1.3-.1l-.7.1-2 .3-2.5.2-1.8.1-2.3.3a29.5 29.5 0 01-6.7-.1l-3-.6h-.5-.2c-.4.1-.6.6-.3 1l.3.4c.2.2.2.3 0 .5l-.6.5c-.5.3-1 .6-1.7.8a45 45 0 01-9.1 2.6l-1.3.2-.7.2c-.3.2-.4.4-.3.7a.5.5 0 00.2.4l.4.2h.2c.2.1.2.3.1.4 0 0 0 .2-.2.2l-.8.7-1.9 1.3-2.8 2-5.6 3.8c-.8.5-1.6 1-2.4 1.3l-1 .4-.5.2c-.3.1-.5.4-.5.7 0 .6-.3 1-.5 1.6a55.9 55.9 0 01-3.7 4.5c-.8.9-1.7 1.6-2.6 2.4l-.8.7a16.4 16.4 0 01-2 1.6c-.3.2-.3.5-.1.8l.3.4.5.3a30 30 0 015.2 3.6 74.8 74.8 0 018.6 8l1.9 2 1.3 1.4a20 20 0 004.5 3.3 30.5 30.5 0 007.3 3c.6.1.8.8.6 1.3-.1.4-.4.7-.7 1l-.8.9c-.8.7-1.3 1.6-1.5 2.6l-.1.7c0 .3-.2.5-.7.3l-.8-.4-3.1-1.8A23.4 23.4 0 0124 72a93 93 0 01-3.4-5.2 47.2 47.2 0 00-5.8-7.5 27.4 27.4 0 00-6-4.5c-1-.5-2.1-1-3.1-1.7-1-.5-2-1.2-2.8-1.9-.6-.4-1-1-1.1-1.8l.1-1c.3-.6.6-1 1-1.4.7-.8 1.4-1.4 2.2-2 .8-.4 1.6-1 2.3-1.7l1.4-1.6a165.2 165.2 0 003.6-5.1l1.8-2.2 2-2.3 2.4-2.4a53.6 53.6 0 017.8-6.8c2.2-1.6 4.5-3.1 6.9-4.4a51.3 51.3 0 0119-6.3l1.3-.1z" fill="#07B8BA"></path><path d="M84.2 33v-1.5-3l-.2-2.2v-.6c0-.3.2-.5.5-.5h.4c1 .2 2.1.4 3.1.8.9.2 1.6.6 2.4 1a32.5 32.5 0 016.1 4.3l.7.7.2.2c.3.3.4.7.3 1a20.6 20.6 0 01-6 9.8c-.3.2-.6.2-.9 0a1171.6 1171.6 0 01-4-4.7L84.9 36l-.5-.8-.2-.8V33z" fill="#FEED01"></path><path d="M52.5 29v-1.8c0-.7.1-1 .8-1.1l3.3-.9 4-1 3.6-.8h1c.3-.1.5 0 .8 0a.6.6 0 01.4.3l.2.5v.8l.1 1.4v1.2l.2 2.6a23.2 23.2 0 010 2c0 .5-.2.9-.7 1.1l-1.6.8c-2 .8-3.9 1.3-5.9 1.7a14.2 14.2 0 01-4.8 0c-.5-.1-.9-.5-1-1l-.1-1.2-.3-2.2V29zM82.6 29.9V32l-.2 1.7v.9c-.2.4-.4.7-.9.9l-.7.2c-.6.1-1.2.2-1.8.1a21.9 21.9 0 01-9.3-2.5c-.3-.2-.5-.6-.6-1l-.2-.8-.3-2.5-.3-2.8a98 98 0 01-.1-2.2c0-.2.2-.4.4-.4l.8-.1 2.1.5 3.4.8 5.1 1.3 1.8.5c.6.2.8.4.8 1v2.2zM50.9 27.1v4a118.4 118.4 0 010 3.7c-.1.3-.3.7-.6.9l-.6.5a21.9 21.9 0 01-8.9 3 7.5 7.5 0 01-2-.3 1 1 0 01-.7-.7l-.2-.7-.5-3-.2-1V33a.8.8 0 01.3-.7l.3-.3 2.5-2c1.8-1.3 3.8-2.4 5.9-3.3L49 26l1.2-.3h.1c.3 0 .5 0 .6.3V27zM36 62v2.4l-.2 1.8-.1 1.7v.4a262.2 262.2 0 01-.3 2.3c0 .4-.4.5-.7.4-.2 0-.3-.2-.5-.3l-2-1.4-2.4-2.1-1.4-1.3A36.6 36.6 0 0123 59c-.2-.4-.2-.9-.1-1.4 0-.4.1-.7.3-1.1.1-.5.5-.8 1-1H26c2.3.3 4.3 1.1 6.3 2.1a18.6 18.6 0 013 1.9c.5.3.7.8.7 1.4v1.2zM98.6 62v-1c0-.6.1-1 .6-1.4l.7-.5a23.3 23.3 0 019-3.6l1.6.1c.4 0 .7.3.9.7l.3 1.2c0 .3 0 .5-.2.7l-.6.9-1.6 2-3.7 5-1.2 1.4-1.2 1.2a183 183 0 01-3 2.2l-.4.1c-.3 0-.5 0-.6-.3v-.5l-.3-2.6-.2-2.6v-1.6l-.1-1.4zM64 112.2c-.1-.7 0-1.3.1-2 .3-1.3.8-2.6 1.6-3.7.8-1 1.6-1.8 2.7-2.3 1-.6 2.2-.8 3.4-.7a3 3 0 012 1.1l.5 1 .2.4c.2.3.7.3 1 0v-.5-.4c.1-.7.6-1 1.3-1 .4.2.7.4.9.7.4.5.6 1.1.6 1.8a2.4 2.4 0 01-.7 2c-.5.3-1 0-1.2-.3l-.3-.5a1 1 0 00-.7-.6c-.4-.1-.7 0-1 .3a2 2 0 00-.4.4c-.6 1-1.5 1.4-2.5 1.6-.8.1-1.5 0-2.3-.2l-.5-.1a1 1 0 00-.7 0 .4.4 0 00-.2.5c0 .2 0 .4.2.6.4.4.8.8 1.4 1 1 .5 1.9.6 2.9.4.4 0 .8-.3 1.2-.5l.4-.3.2-.1c.1 0 .3-.1.4 0 .1.1.1.3 0 .4l-.1.5a3 3 0 01-1.3 1c-.4.2-1 .4-1.4.4-1.1.2-2.2 0-3.2-.4-.7-.3-1.3-.7-1.7-1.3a3 3 0 01-.5-1l-.2-.6-.2-.4c-.3-.3-.8-.3-1 .2v.7c.1.8.5 1.5 1 2 .4.7 1 1.1 1.6 1.6l.6.4c.4.3.5.7.5 1.2-.1.7-.4 1.3-.9 1.9-.2.3-.6.5-1 .5a1 1 0 01-.8-.3c-.4-.3-.8-.7-1-1.3a8.5 8.5 0 01-1-4.1zM36 38.7v1.1c0 .6-.2 1.1-.7 1.5l-2.2 1.4a23.8 23.8 0 01-6.8 2.5h-2c-.3 0-.6-.1-.8-.3-.2-.3-.2-.5-.1-.7A235.2 235.2 0 0127 40l1.3-1.4 1.5-1.7 1-1 1.6-1.7 1.7-2 .6-.7.3-.2.4.1.1.7.2 2 .1 1.7v.6l.1 2.3zM107.8 44.2c-1 0-1.9-.2-2.8-.4a21.4 21.4 0 01-7.8-4 .6.6 0 010-.5l.2-.6 1.6-3c.3-.8.7-1.5 1.3-2.2l.3-.3c.2-.3.7-.3 1 0 .1 0 .2 0 .3.2l2 2.2 1.8 2 2 2.2 1.6 2 .2.3c.3.3.4.6.2 1-.1.6-.5 1-1 1l-1 .1zM43.2 76a6 6 0 01-1 3.6c-.7 1-1.6 1.8-2.6 2.3l-1.4.3c-.7 0-1.1-.4-1.4-1a2 2 0 01-.2-1c0-.8.4-1.5.9-2.1a8 8 0 011.3-1.3l1.7-1.5c.5-.5 1-1 1.3-1.6l.3-.3c.2-.2.5-.3.7 0l.2.5c.2.7.3 1.4.2 2zM93 88.5v-.4c.2-.3.4-.5.7-.3l.5.2a16.1 16.1 0 013.2 2.8c.4.4.7 1 .8 1.5l.3 1c0 .4 0 .8-.2 1.2-.1.3-.3.7-.6 1a2 2 0 01-1.8.3c-.4 0-.7-.3-1-.5a2 2 0 01-.6-.8 22.8 22.8 0 01-1.2-5.4v-.6zM37 69.2l.2-1.1v-1l.4-2.2c0-.7.2-1.3.3-1.9l.2-.5c.1-.3.4-.6.7-.7h.2c.6-.1 1.3-.2 1.9 0h.3v.9c-.5 1-.9 2.2-1.2 3.2l-1.1 2.7-.5 1.2-.2.4c-.2.2-.5.3-.8.1a1 1 0 01-.3-.7v-.4zM71.5 126.6c0-.3 0-.7.2-1 .3-.4.6-.7 1.2-.7H74c.5 0 1 .2 1.4.5a2.3 2.3 0 11-2.8 3.7c-.7-.5-1-1.2-1.2-2v-.5zM97.5 69c0 .5-.2 1-.7 1.1-.2.2-.4.1-.6-.1l-.1-.5-.6-1.8L94 63l-.2-.7c-.1-.3 0-.5.3-.6h.7l.9.1c.4.1.7.4.9.8l.2 1 .5 3.2.2 2v.1z" fill="#FFFDDF"></path><path d="M75 68.3c0 .8-.2 1.6-.6 2.2l-.2.5c-.1.3 0 .5.2.7l.6.4a16.7 16.7 0 019.1 14.3v.7a14.3 14.3 0 01-2.7 8.4c-.3.3-.4.7-.5 1.1-.1.5 0 .9.2 1.3l1 1 1.4.8a96.6 96.6 0 012.5 1.5v.6c-.1.2-.3.3-.6.2-.2 0-.4 0-.6-.2l-1.7-.8a23 23 0 00-5.5-1.7l-1.8-.2-1.5-.1H71.9a22.8 22.8 0 00-5.1 1 23.1 23.1 0 00-10.8 7l-1.7 2.2-.2.4-.3.2c-.3.2-.6.2-.9 0a.8.8 0 01-.4-.7l.1-.5.5-.8 1.3-1.9c.7-1 1-2.2 1.3-3.4.3-.9.2-1.8-.2-2.7l-.8-1.6-.4-.7-.5-.8a18.6 18.6 0 01-3.1-9.6v-1.4c0-.8.3-1.6.5-2.4l.2-1 .1-1.6c.2-1 .5-2 1-3l2-3a23.6 23.6 0 013.3-3.2c.3-.2.7 0 1 .2l.2.3c.2.2.4.2.6.2h.2l1-.5c.2-.2.3-.4.3-.7l.1-1.5A17.3 17.3 0 0163 63l1.1-2 .2-.3c.4-.4 1-.4 1.3 0l.3.5.2.6.4.4a.4.4 0 00.5 0l.4-.5.3-.7a20 20 0 012-3.3l.2-.1c.5-.3 1 0 1 .3l.2.7.2 1c.3 1.4.8 2.6 1.6 3.8l.6.9a8 8 0 011.4 3.3v.7zm-7.4 5.3a11.9 11.9 0 00-8.4 3.4c-.2.3-.3.5-.3.8v.8l.1 1.3v1.2c-.1 1-.3 2-.7 2.8l-.6 1.3-1 3.9c-.2.4-.1.8 0 1.2l.2.4a13 13 0 006.9 6.5c1 .4 2.2.7 3.4.9a7 7 0 002 0 45.8 45.8 0 013.8-.7 11.5 11.5 0 007.2-7.7 12 12 0 00-.9-8.9 13.1 13.1 0 00-11.7-7.2zM52.7 82c0 .4 0 .9.2 1.3.2.5.4 1 .8 1.3.5.4 1 .6 1.6.4.4 0 .7-.2 1-.5.4-.4.6-.8.8-1.3a9.2 9.2 0 00.6-3.2v-.7-.7l-.3-2v-1.4l-.1-.3-.1-.3c-.1-.2-.3-.3-.5-.2l-.3.3a16.2 16.2 0 00-3.2 5 7 7 0 00-.5 2.3zm15-15.5c-.1.7 0 1.4.2 2 .1.4.4.7.7 1l1 .7 1.1.2c1 0 1.7-.3 2.2-1 .3-.4.5-.9.6-1.4v-.5a5 5 0 00-.7-1.9L71 63a2 2 0 00-.4-.4c-.3-.3-.7-.4-1.2-.2-.4 0-.7.3-1 .6l-.4.9a6 6 0 00-.5 2.5zm15.1 20.4v-1l-.2-1.6a15 15 0 00-6-9.3l-.1.1.1.3.5.5a14 14 0 014.8 12.8 13.2 13.2 0 01-3.4 6.8c-.2.4 0 .6.4.6l.6-.3.4-.4c2-2.5 2.9-5.4 3-8.5zm-29.4.2v.7a15.4 15.4 0 005 9c.2.2.4.2.6.2.3 0 .5-.2.4-.6a1.4 1.4 0 00-.4-.7l-1.4-1.4a14 14 0 01-3.2-7.3.8.8 0 00-.4-.5h-.5l-.1.3v.3zM62 73.4l.5-.2 2.6-.7.6-.1.3-.2c.1 0 0-.3 0-.4a.7.7 0 00-.5-.1 14.2 14.2 0 00-3.6 1l-.2.2a.3.3 0 000 .3c0 .2 0 .2.3.2zM74.3 49.6c.4 0 .8.3.9.7 0 .2 0 .4-.2.6-.4.4-1.3.3-1.5-.3a.7.7 0 01.1-.6c.1-.2.4-.4.7-.4zM39.7 56.7c0 .4-.3.8-.7.8a.8.8 0 01-.8-.8c0-.4.4-.8.8-.8s.8.4.7.8zM51.7 76.3a.7.7 0 01-.6-.3c-.3-.4-.2-.7.1-1 .3-.3.7-.3 1 0 .2.2.2.4.2.7 0 .3-.2.6-.7.6zM39.5 50.6c0-.5.3-.8.7-.8.6 0 .8.4.8.8a.8.8 0 01-.7.7c-.4 0-.8-.3-.8-.7zM47.7 67.2c0-.4.4-.7.8-.7a.8.8 0 01.7.8c0 .3-.4.7-.7.7-.5 0-.8-.4-.8-.8zM76 56.5c0 .4-.5.9-1 .8 0 0-.2 0-.3-.2-.4-.4-.2-1.1.3-1.3.5-.1 1 .3 1 .7zM59.1 49c.4 0 .8.4.8.8s-.4.7-.7.7a.8.8 0 01-.8-.8.7.7 0 01.7-.7zM50.6 50.2a.7.7 0 01-.7-.7c0-.4.3-.8.7-.7.5 0 .8.3.8.7 0 .3-.4.7-.8.7zM85.3 64.3c0-.5.4-.8.7-.7.4 0 .7.3.7.7a.8.8 0 01-.7.7.7.7 0 01-.7-.7zM92.5 54c-.4 0-.7-.2-.7-.6 0-.4.3-.7.7-.8.4 0 .7.4.7.8a.7.7 0 01-.7.7zM83.8 105.1c.4 0 .7.4.7.8 0 .3-.3.7-.6.7a.7.7 0 01-.8-.7c0-.4.3-.7.7-.8zM78.4 63.3c.4 0 .8.4.8.7 0 .4-.3.7-.7.7-.5 0-.8-.3-.8-.7 0-.3.3-.7.7-.7z" fill="#000"></path><path d="M65.6 102.5c0 .4-.3.7-.7.6h-.3a.7.7 0 01-.4-.7.7.7 0 01.7-.7c.4 0 .7.4.7.8zM60 57.8c-.3 0-.6-.3-.5-.7a.8.8 0 01.7-.7c.2 0 .6.1.6.4.2.5-.1 1-.6 1H60zM81.3 73.5c0-.4.4-.7.7-.6.4 0 .7.3.7.7 0 .3-.3.6-.7.6-.4 0-.7-.3-.7-.7zM89 61c0 .4-.3.7-.7.7-.5 0-.7-.3-.7-.7 0-.4.3-.7.6-.7.4 0 .7.3.7.7zM80 101.4c0 .3-.4.6-.7.5-.4 0-.6-.3-.6-.6 0-.4.3-.8.8-.7.3 0 .6.4.6.8zM51.6 57.4a.7.7 0 01.7-.6c.3 0 .7.3.7.6 0 .4-.3.7-.7.7-.3 0-.7-.3-.7-.7zM61.4 110c0 .2-.2.5-.5.7-.3.1-.7-.2-.8-.5 0-.5.4-.9.8-1 .3 0 .5.3.5.8zM50.6 96.4a.7.7 0 01-.5.7.7.7 0 01-.8-.2.5.5 0 010-.7c.1-.2.3-.4.6-.4.4 0 .7.2.7.6zM84.2 54.4c-.4 0-.7-.3-.7-.6 0-.4.3-.7.7-.7.3 0 .6.3.6.6 0 .4-.3.7-.6.7zM56.3 65c.4-.1.7.1.7.5a.7.7 0 01-.6.7c-.4 0-.7-.2-.7-.6 0-.4.3-.7.6-.7zM99.2 54.3c0 .3-.3.7-.7.6-.3 0-.6-.3-.6-.6 0-.4.4-.7.7-.7a.6.6 0 01.6.7zM82.6 48.1a.6.6 0 01-.6.6c-.3 0-.7-.3-.7-.6 0-.4.3-.6.6-.6.4 0 .7.3.7.6z" fill="#000"></path><path d="M67.6 73.6a12.8 12.8 0 018.6 3.3 13.1 13.1 0 014.3 7.7 11.5 11.5 0 01-2.7 9.5c-1.3 1.5-3 2.6-4.8 3.3a44.2 44.2 0 00-3.8.6 7 7 0 01-2 0 12.7 12.7 0 01-7.4-3.4 13 13 0 01-2.9-3.9c0-.1 0-.3-.2-.4V89a174.6 174.6 0 012.3-8v-1.2-1.3-.8c0-.3 0-.5.2-.7l.8-.8a11.9 11.9 0 017.6-2.7zM68.9 95v-.5c.2-.4.4-.5.8-.4l.6.2c.6.1 1 0 1.3-.5l.2-.4 1-1.9a687.4 687.4 0 003-4.5c.2-.6.4-1.4.3-2.2 0-.5-.2-1-.5-1.5s-.7-1-1.2-1.3l-1.6-1a5 5 0 01-.5-.4 1 1 0 01-.3-1l.1-.4.6-1.4.1-.6c0-.3-.1-.5-.5-.6h-.2l-.7.2c-.5.2-1 .3-1.6.3-.5 0-.8-.3-.9-.7V76v-.5c0-.2 0-.5-.2-.7 0-.3-.4-.3-.6 0l-.2.4v.4l-.1.6c-.1.4-.3.6-.7.6h-.7l-.8-.2c-.6 0-1 .2-1.2.7l-.3.7a14 14 0 01-2 3.1l-1.1 2c-.3.7-.5 1.4-.5 2.1.1 1.2.6 2 1.6 2.6.4.3.8.4 1.3.5l.5.2c.5.3.7.7.6 1.3l-.2.6-.8 1.7-.2.5v.4c.2.4.5.4.8.4h.6c.6-.2 1.2-.2 1.8-.2l.6.1a.8.8 0 01.6.6v.7l.2 1.2c0 .2 0 .4.2.6.1.3.5.3.7 0V96c.1-.2.2-.5.1-.8V95z" fill="#FEED01"></path><path d="M52.7 81.9c0-.8.2-1.6.5-2.3a16.1 16.1 0 013.6-5.2c.1-.2.3-.1.4.1v.3l.1.3.1 1.5.2 2v.6l.1.7v.1c0 1.1-.1 2.2-.6 3.2-.2.4-.4.9-.8 1.2-.3.3-.6.4-1 .5-.6.2-1.1 0-1.6-.4-.4-.3-.6-.8-.8-1.3l-.2-1.3zM67.6 66.4c0-.9.2-1.7.5-2.5l.5-.9c.2-.3.5-.5.9-.7.5 0 .9 0 1.2.3l.4.4 1.7 2.5c.3.6.6 1.2.7 1.9v.5c0 .5-.3 1-.6 1.4-.5.7-1.3 1-2.2 1a3 3 0 01-1-.2l-1.1-.7c-.3-.3-.6-.6-.7-1a5 5 0 01-.3-2z" fill="#FFFDDF"></path><path d="M82.8 86.8a14.1 14.1 0 01-3.3 9 1 1 0 01-.6.2c-.4 0-.6-.2-.4-.6l.2-.4c.5-.5 1-1 1.3-1.7a13.2 13.2 0 002-8 14 14 0 00-5-9.5l-.4-.5-.1-.3V75a.1.1 0 01.2 0 3 3 0 01.8.5 16 16 0 015 8.8c.2.6.3 1.1.3 1.7v.9zM53.4 87v-.3l.1-.3h.5a.8.8 0 01.4.5l.2.7a14 14 0 004.4 8l.2.3.2.5c0 .3-.1.5-.4.5l-.5-.1-.5-.4a15.4 15.4 0 01-4.6-8.7v-.4-.3zM62 73.4c-.1 0-.2 0-.3-.2a.3.3 0 010-.3l.3-.2.6-.3c1-.4 2-.6 3-.7h.4c.2.2.2.4 0 .5l-.2.2h-.6l-2.6.8-.5.2z" fill="#FEED01"></path><path d="M69 95v.3l-.1.8-.1.4c-.2.3-.6.3-.7 0l-.2-.6-.1-1.2-.1-.7a.8.8 0 00-.6-.6h-2.4l-.6.1c-.3 0-.6 0-.8-.4v-.4l.2-.5.8-1.7.2-.6c.1-.6 0-1-.6-1.2l-.5-.2c-.5-.2-.9-.3-1.3-.6a3 3 0 01-1.6-2.6c0-.7.2-1.4.5-2 .3-.8.7-1.5 1.2-2a14 14 0 002.2-4c.3-.4.6-.6 1.2-.6l.8.1.7.1c.4 0 .6-.2.7-.6v-.6-.4l.3-.4c.2-.3.5-.3.6 0l.2.7v.8c.1.4.4.6.9.7l1.6-.3.7-.1h.2c.4 0 .6.2.5.5l-.1.6-.6 1.4-.1.4c0 .4 0 .7.3 1l.5.3 1.6 1.1c.5.4 1 .8 1.2 1.3.3.5.5 1 .5 1.5 0 .8 0 1.6-.4 2.3l-.9 1.5a366.6 366.6 0 01-3.2 5.2c-.4.5-.7.6-1.3.5l-.6-.2c-.4-.1-.6 0-.7.4l-.1.5zm-.2-8.3v.5c0 .5.2.8.7 1h.3a11 11 0 012.3 1c.3 0 .6 0 .7-.3v-.7a3.5 3.5 0 00-2-2.7c-.3-.2-.8-.3-1.3-.2a.7.7 0 00-.6.4v.6c-.1.1 0 .2 0 .4zm-1.2-3.3v-.7c-.1-.4-.4-.6-.8-.7h-.2l-1.5-.5-.6-.1c-.3 0-.5 0-.6.3v.5c.1.4.4.9.7 1.2.2.4.5.6.8.8.4.2.9.4 1.3.4.6 0 .9-.3.9-.9v-.3zm0 3.7l-.1-.4c-.1-.3-.3-.3-.6-.1l-.4.8c0 .2 0 .4.3.5a.5.5 0 00.5 0c.2-.2.3-.5.3-.8zm1.3-4.4v.2c0 .1 0 .2.2.3a.4.4 0 00.5-.1l.4-.8-.2-.4a.7.7 0 00-.7.2 1 1 0 00-.2.6z" fill="#000"></path><path d="M68.8 86.7v-.5l.1-.5a.7.7 0 01.6-.4c.5 0 1 0 1.4.2 1 .6 1.8 1.4 2 2.7v.7c-.2.3-.5.4-.8.3a11 11 0 00-2.6-1 1 1 0 01-.7-1v-.5zM67.6 83.4v.3c0 .6-.3.9-.9.9-.4 0-.9-.2-1.3-.4-.3-.2-.6-.4-.8-.8-.3-.4-.6-.8-.7-1.2v-.5c0-.2.3-.4.6-.3l.6.1 1.5.4h.2c.4.2.7.4.7.8l.1.7zM67.6 87.1c0 .3 0 .6-.3.8a.5.5 0 01-.5 0c-.2 0-.4-.3-.3-.5 0-.3.2-.6.4-.8.3-.2.5-.2.6 0l.1.5zM68.9 82.7c0-.2 0-.4.2-.6a.7.7 0 01.7-.2l.2.4c0 .3-.2.5-.4.8a.4.4 0 01-.5 0c-.1 0-.2 0-.2-.2v-.2z" fill="#FEED01"></path><path d="M38.3 11.3c.5 0 .6.4.5.7l-.5.6-.8 1v.2l.6-.3 2.8-1.9 2.5-1.5.7-.4a1.2 1.2 0 01.8-.1c.4 0 .5.3.4.7l-.1.2-1 1a48.6 48.6 0 00-1 1.2h.2l1.4-.8.4-.2 2.2-1a29.5 29.5 0 014-1.5h.2c.3.2.4.5.1.8l-.3.3-1.5 1.1-1 1-.4.4v.1a.1.1 0 000 .2l.5-.1a130.2 130.2 0 003.9-1.3l1-.3h1.2l.3.1c.2.1.2.3 0 .5a25.8 25.8 0 00-3.4 1.6l-1.6 1a26.4 26.4 0 00-4.6 3l-1.3 1.1a16.3 16.3 0 00-1 .8H43c-.2 0-.5-.2-.4-.5l.1-.5.4-.7.2-.4v-.2a.1.1 0 00-.1-.1 14.5 14.5 0 00-1 .6l-1.4 1c-.8.5-1.7 1.1-2.5 1.8l-1.2 1-.7.6-.6.5-.5.1c-.3 0-.5-.2-.5-.6l.2-.5.6-1 .2-.5c0-.1 0-.2-.2-.1l-.5.2-1.4 1.2-3.3 3.3-1 1-.6.9-.5.3c-.3 0-.5-.2-.6-.5v-.3l.5-1.4.5-1.3.2-.5v-.2a.1.1 0 00-.2-.1 14.4 14.4 0 00-2.4 1.9l-.9 1-1.4 1.6-.6.8-.3.3a.6.6 0 01-.6 0 .5.5 0 01-.2-.4c0-.2 0-.4.2-.6l.6-1.2.2-.4.2-.5a27.6 27.6 0 013-4.2l.6-.7 1-1.1 1.6-1.5.2-.2 1.3-1.2 1.1-1a55.5 55.5 0 016-3.9z" fill="#FFFDDF"></path></g><defs><clipPath id="lunchMoney_svg__clip0"><path fill="#fff" d="M0 0h134.6v131H0z"></path></clipPath></defs></svg>