<svg xmlns="http://www.w3.org/2000/svg" width="160" height="60" viewBox="0 0 160 60" fill="none">
<path d="M66.7783 20.362C66.9763 20.0511 66.985 19.6594 67.3157 19.4739C67.3386 19.4826 67.3778 19.487 67.3843 19.5033C67.4974 19.7914 67.7129 19.882 68.011 19.9474C68.3678 20.0249 68.6072 20.3533 68.6213 20.6992C68.6376 21.092 68.8193 21.3746 68.9999 21.6812C69.0859 21.8274 69.1435 21.99 69.2099 22.146C69.2621 22.2682 69.3089 22.3926 69.36 22.5148C69.5265 22.9141 69.681 23.3189 69.8648 23.7085C70.0498 24.0991 70.0846 24.5181 70.1738 24.9294C70.2794 25.4149 70.4915 25.8776 70.6504 26.3522C70.7842 26.7505 70.9822 27.1193 71.0616 27.5459C71.1356 27.943 71.3401 28.314 71.4696 28.7014C71.6448 29.2262 71.809 29.7565 71.9679 30.2867C72.0092 30.4253 72.0549 30.5399 72.2105 30.5639C72.4216 30.5977 72.5891 30.4024 72.5162 30.1776C72.365 29.7139 72.4498 29.2611 72.5336 28.8039C72.5619 28.6522 72.5543 28.493 72.5521 28.3369C72.5423 27.5251 72.5336 26.7145 72.5151 25.9027C72.4966 25.0691 72.4683 24.2365 72.4444 23.4029C72.4433 23.3626 72.4248 23.3168 72.439 23.284C72.6076 22.8934 72.4662 22.4995 72.4564 22.1078C72.4488 21.8078 72.5217 21.5601 72.7654 21.3691C72.835 21.3146 72.9014 21.2338 72.9275 21.152C73.0145 20.8749 72.909 20.7406 72.5913 20.6883C72.5543 20.6817 72.5217 20.6534 72.4553 20.6195C72.4825 20.5399 72.4923 20.4461 72.5412 20.3817C72.6446 20.2453 72.7545 20.1089 72.8861 20.002C73.0874 19.8372 73.2985 19.6768 73.5258 19.5557C73.7075 19.4586 73.924 19.4935 74.1003 19.6026C74.5551 19.8841 75.049 19.8929 75.5549 19.8492C75.6321 19.8427 75.7094 19.8394 75.7986 19.8339C75.828 19.9038 75.878 19.966 75.8715 20.0216C75.8225 20.5072 75.8247 21.0047 75.6126 21.4575C75.5527 21.5852 75.4483 21.6965 75.3482 21.8001C75.1306 22.0293 75.0925 22.1482 75.1806 22.3577C75.2764 22.5879 75.4548 22.6206 75.6702 22.5857C75.7072 22.5803 75.7475 22.5955 75.8051 22.6054C76.0075 23.0473 75.8215 23.3844 75.4994 23.703C75.3591 23.7652 75.1241 23.5764 75.0272 23.8285C75.0044 23.8896 75.0327 24.0336 75.0631 24.0413C75.2046 24.0794 75.3547 24.0827 75.569 24.1056C75.7431 24.2453 75.6778 24.5246 75.7072 24.7592C75.7812 25.3637 75.8247 25.9725 75.865 26.5813C75.8758 26.7505 75.8225 26.9239 75.8258 27.0942C75.8323 27.4259 75.8715 27.7565 75.8726 28.0882C75.878 29.5939 75.8824 31.0996 75.8737 32.6053C75.8639 34.23 75.8508 35.8535 75.816 37.4771C75.804 38.0292 75.9368 38.5846 75.7605 39.1367C75.7127 39.2883 75.7943 39.4771 75.7921 39.6484C75.7877 39.9627 75.7257 40.0467 75.4809 40.1307C75.2046 40.2256 75.0251 40.1776 74.8466 39.9692C74.7879 39.9005 74.7237 39.8317 74.6486 39.7826C74.4202 39.6353 74.2983 39.4433 74.2842 39.1618C74.2667 38.8115 74.1536 38.7133 73.8087 38.6293C73.3703 38.5235 73.0482 38.2431 72.7871 37.8884C72.7349 37.8175 72.6816 37.7084 72.6979 37.6299C72.7817 37.2218 72.5314 36.9305 72.3748 36.6031C72.2899 36.4242 72.1953 36.2911 71.9853 36.2496C71.7764 36.2081 71.6513 36.0663 71.5762 35.8579C71.5011 35.6495 71.3728 35.4608 71.2933 35.2534C71.2476 35.1345 71.2346 34.9948 71.2368 34.865C71.2411 34.6402 71.19 34.4711 70.9985 34.3151C70.7178 34.0859 70.5579 33.7804 70.5285 33.392C70.5122 33.1825 70.3925 32.9621 70.2652 32.7853C69.9443 32.3369 69.8812 31.8056 69.7517 31.2971C69.6516 30.9021 69.6048 30.5006 69.3959 30.1318C69.2208 29.8241 69.1272 29.4717 68.9858 29.1443C68.9183 28.9872 68.8411 28.829 68.7399 28.6926C68.6159 28.5257 68.4048 28.5584 68.3373 28.7559C68.2916 28.8879 68.3004 29.0407 68.2927 29.1836C68.234 30.1776 68.1752 31.1705 68.1198 32.1645C68.0969 32.5628 68.0741 32.9599 68.0632 33.3582C68.0403 34.2223 68.0207 35.0865 68.0088 35.9506C67.9946 37.0538 67.9914 38.1569 67.9794 39.26C67.9729 39.8273 67.7009 40.1339 67.1406 40.1438C66.5324 40.1536 65.9231 40.1165 65.315 40.1001C65.068 40.0936 64.9168 39.9637 64.8613 39.7292C64.8287 39.5884 64.8069 39.4422 64.8036 39.2981C64.796 38.9523 64.7884 38.6042 64.8069 38.2594C64.8167 38.0794 64.8472 37.883 64.9298 37.7281C65.0201 37.56 65.0517 37.3974 65.0071 37.2316C64.8374 36.6064 64.8656 35.9681 64.8559 35.332C64.8472 34.8028 64.8602 34.2747 64.8515 33.7455C64.8461 33.392 64.8167 33.0385 64.8036 32.6839C64.7971 32.5246 64.8036 32.3642 64.8036 32.2038C64.8036 31.9419 64.8004 31.679 64.8036 31.4171C64.8178 30.3795 64.8352 29.3418 64.8493 28.3042C64.8526 28.038 64.8472 27.7706 64.8548 27.5044C64.8885 26.2147 64.919 24.925 64.9657 23.6354C64.9766 23.3473 65.0582 23.0614 65.0909 22.7734C65.1224 22.4908 65.2116 22.2016 64.9233 21.9649C64.8319 21.8896 64.7982 21.7019 64.7982 21.5644C64.796 21.1335 64.8733 20.7003 65.1235 20.3511C65.4858 19.8459 65.9786 19.5546 66.4769 20.1569C66.5107 20.1973 66.5466 20.2387 66.589 20.2693C66.6325 20.3031 66.6836 20.3184 66.7783 20.362ZM66.1375 35.9026C66.1603 36.1241 66.1636 36.3249 66.2049 36.5169C66.2528 36.7417 66.379 36.8192 66.6053 36.8115C66.8218 36.8039 66.9556 36.7046 66.9937 36.4929C67.0111 36.3926 67.0166 36.2736 66.9785 36.1831C66.8479 35.8699 66.701 35.5633 66.5498 35.26C66.5259 35.212 66.4291 35.1552 66.3932 35.1694C66.3159 35.2011 66.2147 35.2676 66.1995 35.3364C66.1571 35.5284 66.1538 35.7292 66.1375 35.9026ZM66.9306 37.7488C66.936 37.5393 66.8403 37.3767 66.7097 37.3942C66.5215 37.4193 66.5139 37.584 66.5009 37.7237C66.4835 37.9103 66.5846 38.0379 66.7239 38.0248C66.8903 38.0107 66.936 37.8972 66.9306 37.7488ZM73.8664 21.1302C73.8642 20.996 73.8 20.9098 73.6542 20.9032C73.5128 20.8978 73.4051 20.9731 73.4225 21.1095C73.4323 21.1869 73.5335 21.2895 73.6129 21.3135C73.7347 21.3506 73.8479 21.2938 73.8664 21.1302ZM73.7543 21.7728C73.887 21.8514 73.9599 21.93 74.023 21.9223C74.0894 21.9136 74.146 21.823 74.2069 21.7685C74.1471 21.7139 74.0905 21.6201 74.0263 21.6146C73.9621 21.6103 73.8892 21.691 73.7543 21.7728Z" fill="#828282"/>
<path d="M106.543 20.9119C106.617 21.1923 106.67 21.393 106.721 21.5894C106.922 21.6058 106.988 21.5131 106.991 21.3548C106.993 21.2348 106.984 21.1137 106.996 20.9948C107.027 20.7165 107.203 20.5267 107.482 20.4962C107.57 20.4863 107.667 20.5496 107.759 20.5791C107.714 20.6794 107.682 20.7886 107.62 20.8769C107.588 20.9217 107.482 20.9119 107.447 20.9566C107.395 21.0242 107.337 21.1257 107.353 21.1966C107.37 21.2665 107.473 21.3603 107.541 21.3636C107.693 21.3701 107.868 21.3647 107.995 21.2948C108.153 21.2086 108.288 21.0646 108.404 20.9239C108.625 20.6565 108.613 20.5758 108.393 20.2747C108.36 20.2277 108.322 20.1339 108.344 20.1033C108.472 19.9255 108.6 19.7411 108.761 19.5971C108.835 19.5316 108.985 19.5491 109.102 19.5371C109.231 19.524 109.363 19.5207 109.525 19.512C109.551 19.7444 109.603 19.9648 109.594 20.1819C109.577 20.6456 109.689 21.1137 109.387 21.5611C109.16 21.8971 109.303 22.3161 109.412 22.686C109.629 23.4258 109.709 24.1535 109.455 24.9075C109.374 25.1486 109.409 25.4334 109.409 25.6974C109.408 26.387 109.421 27.0777 109.421 27.7673C109.421 28.0029 109.39 28.2397 109.387 28.4754C109.379 29.1541 109.377 29.8327 109.376 30.5125C109.375 30.8049 109.426 31.0842 109.503 31.3723C109.578 31.6527 109.556 31.9822 109.491 32.2713C109.404 32.6554 109.369 32.9969 109.491 33.3952C109.616 33.8033 109.6 34.2615 109.607 34.699C109.615 35.1639 109.603 35.6309 109.555 36.0924C109.5 36.6292 109.345 37.1322 109.095 37.6287C108.843 38.1317 108.453 38.495 108.112 38.9107C107.857 39.2206 107.512 39.3788 107.16 39.5195C106.87 39.6352 106.612 39.8163 106.287 39.8665C105.676 39.9604 105.076 40.1055 104.449 40.1088C103.575 40.1131 102.699 40.1578 101.824 40.1818C100.607 40.2146 99.4263 40.0247 98.2894 39.5817C97.9478 39.4486 97.5855 39.3439 97.2743 39.1573C96.9077 38.938 96.5301 38.6892 96.2592 38.3674C96.021 38.0837 95.7512 37.7694 95.7892 37.3133C95.8121 37.034 95.712 36.7536 95.5967 36.4743C95.4868 36.2102 95.4944 35.8742 95.5292 35.5785C95.5782 35.1617 95.5455 34.7623 95.4813 34.3521C95.4291 34.0149 95.4161 33.6625 95.4487 33.3232C95.5107 32.6849 95.5455 32.0531 95.4346 31.4159C95.4008 31.2239 95.4356 31.0198 95.4433 30.8224C95.452 30.5845 95.4813 30.3455 95.4748 30.1077C95.4639 29.7629 95.415 29.4203 95.4074 29.0755C95.3823 27.9178 95.3475 26.7602 95.3595 25.6025C95.3671 24.8606 95.4509 24.1186 95.4955 23.3767C95.5053 23.2184 95.5042 23.0559 95.4792 22.8998C95.3845 22.2954 95.3192 21.6942 95.415 21.0788C95.4715 20.7133 95.4661 20.339 95.4846 19.968C95.5205 19.2425 95.8795 19.1268 96.5334 19.1683C96.9773 19.1956 97.4125 19.3527 97.8498 19.4596C98.1947 19.5447 98.3198 19.6996 98.3133 20.0553C98.309 20.2757 98.3144 20.4536 98.5298 20.6085C98.6375 20.686 98.6778 20.9108 98.6832 21.0712C98.7017 21.6036 98.6897 22.1372 98.6897 22.6707C98.6897 23.5501 98.6952 24.4307 98.6876 25.3101C98.6832 25.7487 98.6353 26.1863 98.6419 26.6249C98.6538 27.4487 98.7093 28.2724 98.7126 29.0962C98.718 30.626 98.6985 32.1568 98.6908 33.6865C98.6887 34.1219 98.6604 34.5605 98.7006 34.9926C98.7376 35.3875 98.878 35.7618 99.089 36.1077C99.348 36.5332 99.7864 36.6783 100.206 36.8114C100.553 36.9216 100.936 36.9304 101.304 36.9653C101.658 36.9991 102.015 37.0395 102.368 37.0242C103.079 36.9947 103.791 36.9522 104.496 36.8682C104.817 36.83 105.166 36.7361 105.425 36.5572C105.629 36.4165 105.748 36.1175 105.846 35.8665C106.197 34.9697 106.234 34.0073 106.377 33.0689C106.457 32.5507 106.423 32.0149 106.434 31.4868C106.438 31.2588 106.44 31.0395 106.58 30.8387C106.675 30.7012 106.688 30.5354 106.586 30.387C106.399 30.1153 106.387 29.8142 106.422 29.5043C106.455 29.2064 106.434 28.9249 106.276 28.6554C106.213 28.5485 106.192 28.4045 106.19 28.2768C106.178 27.2381 106.17 26.1983 106.175 25.1595C106.176 24.9653 106.224 24.7656 106.286 24.5801C106.374 24.3161 106.358 24.0772 106.279 23.8077C106.114 23.2425 106.023 22.6696 106.438 22.1459C106.511 22.0542 106.579 21.8688 106.535 21.7869C106.385 21.5098 106.465 21.2501 106.543 20.9119ZM98.3068 37.4148C98.1273 37.333 98.0032 37.3995 97.9108 37.5261C97.7465 37.7519 97.7976 38.0106 97.8411 38.255C97.864 38.3837 98.1055 38.4012 98.1632 38.2735C98.2829 38.0018 98.4297 37.7236 98.3068 37.4148ZM98.0772 31.6134C98.0718 31.8851 98.1436 32.0215 98.285 32.0127C98.4188 32.004 98.5331 31.8229 98.5353 31.6178C98.5374 31.4192 98.4254 31.2686 98.2807 31.2893C98.0925 31.3155 98.0707 31.4585 98.0772 31.6134ZM106.584 32.3226C106.577 32.4743 106.629 32.5867 106.797 32.5998C106.96 32.6118 107.05 32.4917 107.044 32.2692C107.04 32.1208 107.036 31.9615 106.841 31.9364C106.697 31.9189 106.584 32.0979 106.584 32.3226ZM101.331 38.4928C101.558 38.4099 101.588 38.2451 101.562 38.0673C101.552 38.0018 101.492 37.908 101.438 37.8938C101.38 37.8785 101.286 37.9265 101.238 37.9767C101.108 38.1109 101.14 38.2724 101.331 38.4928ZM96.5019 32.159C96.3843 32.2822 96.2658 32.3521 96.2669 32.4197C96.2679 32.495 96.3735 32.6183 96.4464 32.627C96.5116 32.6358 96.6346 32.531 96.6563 32.4557C96.6727 32.3936 96.5791 32.2986 96.5019 32.159Z" fill="#828282"/>
<path d="M57.539 19.2469C57.8034 19.4008 57.9992 19.4815 58.2375 19.427C58.4137 19.3877 58.5269 19.4957 58.5737 19.6856C58.6487 19.9922 58.7521 20.2911 58.8315 20.5977C58.8674 20.7374 58.8968 20.8869 58.887 21.0287C58.8685 21.2938 58.8174 21.5546 59.0861 21.739C59.1187 21.7619 59.122 21.835 59.1307 21.8874C59.1905 22.2671 59.2471 22.6468 59.3048 23.0254C59.3918 23.5874 59.4103 24.1722 59.5855 24.7057C59.7781 25.2884 59.7639 25.882 59.8651 26.4657C59.9217 26.7898 60.0664 27.0964 60.1414 27.4182C60.2676 27.9594 60.3721 28.5072 60.4831 29.0516C60.4939 29.1029 60.5005 29.1629 60.4841 29.2109C60.3601 29.5895 60.4123 29.8929 60.6909 30.2235C60.8758 30.4428 60.9095 30.8094 60.9585 31.1193C61.0303 31.5775 61.0706 32.038 61.2316 32.481C61.3023 32.6774 61.2958 32.9 61.3447 33.1062C61.509 33.8023 61.7005 34.493 61.8474 35.1924C61.9834 35.8405 62.0682 36.4995 62.1901 37.1509C62.263 37.5404 62.3903 37.9212 62.4479 38.313C62.5165 38.7843 62.56 39.2622 62.5709 39.739C62.5774 40.0172 62.4751 40.0805 62.2053 40.1045C61.7038 40.1504 61.2022 40.2093 60.6963 40.0827C60.5418 39.93 60.5668 39.7608 60.656 39.5786C60.8878 39.1105 60.8214 38.9709 60.3297 38.8705C60.2796 38.8607 60.2328 38.8378 60.1621 38.8138C60.1762 38.7297 60.1795 38.6523 60.2034 38.5825C60.2687 38.3828 60.2285 38.2355 60.0555 38.0947C59.9271 37.99 59.8205 37.8383 59.7498 37.6867C59.6062 37.3779 59.5148 37.0451 59.3624 36.7417C59.2406 36.4995 59.0611 36.2868 58.9055 36.062C58.8609 35.9976 58.8 35.9431 58.7641 35.8743C58.5552 35.4739 58.2429 35.2742 57.7784 35.2939C57.6195 35.3004 57.4367 35.2404 57.2986 35.1553C57.0048 34.9742 57.0179 34.9632 56.7742 35.1913C56.7133 35.248 56.6153 35.2906 56.5337 35.2928C56.2835 35.3015 56.0311 35.2928 55.7809 35.2808C55.4371 35.2644 55.1226 35.3691 54.8278 35.5241C54.7364 35.5721 54.6461 35.6932 54.6254 35.7947C54.5058 36.3784 54.4057 36.9654 54.3012 37.5524C54.2414 37.8907 54.1816 38.2289 54.1326 38.5683C54.0902 38.8705 54.051 39.1738 54.0314 39.4783C53.9999 39.9769 53.8388 40.1547 53.3482 40.1493C52.6867 40.1427 52.0241 40.122 51.3626 40.1002C51.0069 40.0882 50.8796 39.9681 50.9111 39.6004C50.9427 39.2316 51.0732 38.8705 51.0928 38.5028C51.1353 37.7161 51.4083 36.9752 51.5052 36.1973C51.5835 35.5732 51.7804 34.9643 51.9218 34.349C51.9839 34.0773 52.0415 33.8045 52.0981 33.5328C52.1122 33.4684 52.1025 33.3953 52.1286 33.3375C52.5463 32.397 52.5801 31.3844 52.6921 30.3849C52.7182 30.1525 52.827 29.93 52.876 29.6987C52.9304 29.439 52.9587 29.1738 53.0022 28.912C53.0261 28.769 53.0566 28.6272 53.0903 28.4864C53.1393 28.2824 53.1904 28.0794 53.2459 27.8776C53.3014 27.6746 53.3765 27.4761 53.42 27.2709C53.494 26.9229 53.5734 26.5737 53.6093 26.2213C53.6397 25.918 53.6245 25.6245 53.853 25.3702C53.9814 25.2273 54.0292 25.0265 53.9683 24.8116C53.9019 24.5748 53.9466 24.3435 54.051 24.1144C54.1696 23.8547 54.162 23.5448 54.397 23.3244C54.459 23.2655 54.4198 23.0975 54.4263 22.9785C54.4492 22.529 54.4688 22.0783 54.4971 21.6288C54.5014 21.5513 54.5188 21.4608 54.5634 21.4019C54.843 21.032 54.8561 20.5999 54.8028 20.1787C54.7538 19.7947 55.0073 19.5688 55.2097 19.3648C55.3457 19.2273 55.6547 19.2437 55.8897 19.2251C56.0855 19.2098 56.2868 19.2404 56.4848 19.2557C56.7644 19.2775 57.0092 19.3571 57.094 19.6692C57.1299 19.8034 57.2213 19.9038 57.3464 19.8525C57.4324 19.8176 57.4977 19.6899 57.5358 19.5906C57.563 19.5153 57.539 19.415 57.539 19.2469ZM58.4758 31.5764C58.4583 31.2458 58.4475 30.9141 58.4235 30.5846C58.3746 29.9343 58.2788 29.2971 58.0047 28.6927C57.8915 28.4439 57.8545 28.1591 57.7882 27.8907C57.7653 27.8012 57.7795 27.6943 57.7359 27.6179C57.4955 27.1946 57.5423 26.7167 57.4683 26.2628C57.4542 26.1733 57.4476 26.0773 57.4085 25.9987C57.3149 25.8121 57.2017 25.6354 57.1017 25.4521C57.032 25.3233 56.9754 25.188 56.9047 25.0604C56.8253 24.9141 56.6969 24.8509 56.537 24.9032C56.376 24.9556 56.3814 25.08 56.4021 25.2273C56.4173 25.3386 56.3825 25.4597 56.3586 25.5743C56.3129 25.7936 56.2411 26.0085 56.2106 26.2289C56.1508 26.6752 56.1355 27.1291 56.0594 27.5721C55.9223 28.3653 55.7471 29.152 55.5992 29.9442C55.4708 30.6348 55.3533 31.3288 55.2401 32.0227C55.1673 32.4679 55.2869 32.7417 55.8081 32.6272C56.2857 32.5224 56.7742 32.4679 57.2583 32.3959C57.5009 32.3599 57.7729 32.4068 57.9144 32.1187C57.935 32.0773 58.0319 32.0718 58.0961 32.0554C58.4279 31.9692 58.4877 31.8983 58.4758 31.5764ZM57.5096 23.9452C57.5978 23.9136 57.6924 23.9103 57.7316 23.8612C57.8447 23.7183 57.9492 23.5655 58.0319 23.403C58.1417 23.1913 58.1624 22.9752 57.972 22.7854C57.9263 22.7396 57.8774 22.6894 57.8513 22.6315C57.7827 22.4799 57.6826 22.3839 57.5129 22.4482C57.3323 22.517 57.3203 22.6763 57.3464 22.8443C57.3987 23.1935 57.4498 23.5426 57.5096 23.9452ZM57.341 21.4237C57.4944 21.5895 57.5793 21.6877 57.6717 21.7794C57.7882 21.895 57.9155 21.93 58.0547 21.8132C58.1918 21.6997 58.2397 21.4837 58.1842 21.3146C58.1254 21.1378 57.9894 21.0854 57.8447 21.1378C57.6826 21.1946 57.539 21.3069 57.341 21.4237ZM57.9405 20.3173C57.8632 20.3828 57.7523 20.4319 57.7207 20.5126C57.6674 20.6479 57.799 20.7079 57.8991 20.7177C58.0841 20.7363 58.1679 20.8541 58.2669 20.9851C58.3093 21.0407 58.4388 21.0756 58.5062 21.0527C58.5715 21.0309 58.6455 20.9229 58.6466 20.8519C58.6477 20.7843 58.5682 20.7036 58.5062 20.6501C58.4181 20.5748 58.3147 20.5148 58.2146 20.4559C58.1385 20.41 58.0547 20.374 57.9405 20.3173ZM56.6969 22.721C56.8656 22.5737 56.8558 22.4188 56.7263 22.2649C56.611 22.1296 56.3629 22.0576 56.2193 22.1373C56.1355 22.1831 56.0322 22.2791 56.0278 22.3577C56.0246 22.4275 56.1312 22.5344 56.2128 22.5715C56.3651 22.6414 56.5348 22.673 56.6969 22.721ZM53.9226 36.0085C53.8019 35.8678 53.7398 35.7434 53.6408 35.6965C53.5288 35.6441 53.3873 35.8198 53.3971 35.9791C53.4058 36.1144 53.4787 36.218 53.6169 36.1951C53.7094 36.1787 53.791 36.0925 53.9226 36.0085ZM59.6888 36.6817C59.9173 36.4646 59.963 36.35 59.8422 36.2562C59.7846 36.2115 59.6388 36.2126 59.5746 36.2551C59.4364 36.3479 59.4691 36.4504 59.6888 36.6817ZM55.733 22.7592C55.6253 22.6556 55.5665 22.5661 55.4849 22.5333C55.4512 22.5203 55.3359 22.6195 55.3163 22.685C55.2837 22.793 55.325 22.9152 55.4621 22.912C55.535 22.9109 55.6068 22.8345 55.733 22.7592ZM56.1029 34.3588C56.0344 34.4493 55.9593 34.505 55.9571 34.5628C55.9549 34.6239 56.0213 34.6872 56.0583 34.7494C56.1181 34.6937 56.2041 34.6468 56.2269 34.5792C56.2422 34.5355 56.1638 34.4602 56.1029 34.3588ZM56.0257 24.6905C56.0387 24.889 56.0452 25.0036 56.055 25.1466C56.3248 24.9665 56.3248 24.9665 56.0257 24.6905Z" fill="#828282"/>
<path d="M25.1762 34.5254C25.1762 35.5587 25.3112 36.5898 24.8792 37.5631C24.6714 38.0312 24.4342 38.4884 24.1068 38.8888C24.0339 38.9772 23.9349 39.0437 23.8402 39.1266C23.6738 38.9892 23.6814 38.8473 23.7749 38.7229C24.1405 38.2319 24.0263 37.826 23.5845 37.4583C23.4573 37.3525 23.3778 37.1419 23.1689 37.227C22.9677 37.3089 22.997 37.5118 23.0199 37.6798C23.0482 37.8893 22.9894 38.0628 22.8991 38.2505C22.7642 38.5309 22.7076 38.8113 22.9285 39.1114C23.1265 39.3809 23.034 39.5762 22.7512 39.7769C22.1974 40.1697 21.5707 40.1152 20.9495 40.0999C20.8799 40.0977 20.8081 40.0388 20.7439 39.9963C20.4751 39.8184 20.4523 39.8173 20.1944 40.0279C20.0922 40.1108 19.9954 40.2003 19.8539 40.3236C19.7397 40.2537 19.6059 40.1828 19.4851 40.0933C19.373 40.0104 19.2893 39.9995 19.1685 40.0923C18.9161 40.2854 18.8138 40.2494 18.6746 39.957C18.6365 39.8762 18.5886 39.8009 18.5342 39.7027C18.383 39.7595 18.2524 39.8075 18.0871 39.8697C18.0555 39.7879 18.0109 39.7104 17.9989 39.6296C17.9783 39.4867 18.0076 39.3056 17.8031 39.2969C17.6225 39.2903 17.6269 39.454 17.6018 39.586C17.5877 39.6591 17.5409 39.7267 17.5115 39.7933C17.2417 39.8369 17.0317 39.7191 16.8947 39.55C16.6542 39.2532 16.355 39.0765 16.0199 38.9117C15.7806 38.7939 15.5782 38.5778 15.3954 38.3738C15.2399 38.2003 15.39 38.0279 15.5347 37.8348C15.3802 37.7377 15.2453 37.6525 15.0582 37.5347C15.0712 37.2412 14.871 36.9848 14.6589 36.7251C14.4902 36.52 14.4326 36.2789 14.611 36.0301C14.7503 35.8348 14.7252 35.6307 14.6154 35.4289C14.5773 35.3591 14.5468 35.286 14.5174 35.227C14.598 35.0503 14.6665 34.8833 14.747 34.7229C14.8602 34.496 14.6774 34.3858 14.5338 34.2309C14.6252 34.1283 14.7024 34.0257 14.7949 33.9384C15.0701 33.6798 15.056 33.5402 14.7274 33.358C14.7057 33.346 14.6937 33.3187 14.7209 33.3525C14.6893 33.1026 14.7198 32.8801 14.6306 32.7284C14.3499 32.2516 14.5338 31.8544 14.7927 31.4714C15.0136 31.1441 15.0244 31.1583 14.7405 30.8539C14.6643 30.772 14.5882 30.6575 14.5784 30.5505C14.5512 30.2603 14.5468 29.9657 14.5577 29.6744C14.574 29.2641 14.5958 28.8517 14.6491 28.4447C14.6741 28.2549 14.7514 28.0596 14.8536 27.897C14.9494 27.7464 14.9559 27.6231 14.8558 27.4976C14.6665 27.2598 14.6752 27.0012 14.6883 26.711C14.7111 26.2352 14.6708 25.7551 14.6415 25.2783C14.6056 24.6826 14.5251 24.0879 14.5229 23.4922C14.5218 23.2292 14.6121 22.9281 14.7579 22.711C14.9254 22.4622 14.9864 22.2036 15.0103 21.9319C15.0277 21.7322 15.093 21.5751 15.2235 21.4344C15.5847 21.0448 15.9111 20.6117 16.3169 20.2767C16.6379 20.0127 16.9643 19.6766 17.4571 19.7159C17.5181 19.7202 17.6247 19.6482 17.6432 19.5904C17.7509 19.2489 18.0381 19.2805 18.2927 19.2663C18.7377 19.2412 19.1826 19.2369 19.6276 19.2183C19.6907 19.2161 19.7625 19.1954 19.8115 19.1583C20.1857 18.8735 20.6024 18.9554 20.9963 19.0568C21.376 19.154 21.7372 19.3285 22.1071 19.4649C22.1811 19.4922 22.2605 19.514 22.3388 19.5195C23.021 19.5664 23.4486 20.017 23.8685 20.4818C24.0002 20.628 24.1492 20.7568 24.2776 20.9063C24.6508 21.3405 24.9032 21.8468 25.1295 22.3683C25.1556 22.4294 25.1643 22.5058 25.2067 22.5506C25.5418 22.9008 25.5048 23.3198 25.4482 23.7486C25.4287 23.8926 25.445 24.0421 25.4265 24.1861C25.4047 24.3553 25.3753 24.5255 25.3275 24.6891C25.2317 25.0176 25.0315 25.1725 24.6605 25.1627C24.0785 25.1474 23.4953 25.1878 22.9122 25.2107C22.3715 25.2314 21.9863 24.8768 21.9559 24.3323C21.9417 24.0683 21.9472 23.7966 21.8884 23.5424C21.7415 22.9095 21.4685 22.3476 20.8701 22.0116C20.8124 21.9799 20.758 21.9341 20.696 21.9199C20.0073 21.7595 19.3654 21.8217 18.7768 22.2702C18.2252 22.6902 18.0044 23.2456 17.9783 23.9188C17.9543 24.5287 17.8999 25.1365 17.8499 25.7442C17.8118 26.2036 17.9413 26.64 18.0153 27.0841C18.0414 27.2401 18.0631 27.3994 18.062 27.5566C18.049 28.6073 18.025 29.658 18.0131 30.7088C18.0055 31.4278 18.0044 32.1479 18.0131 32.867C18.0218 33.5271 18.0544 34.1872 18.0609 34.8473C18.0631 35.1114 18.0435 35.3787 17.9989 35.6384C17.9358 35.9984 18.0566 36.3116 18.2622 36.568C18.4102 36.7524 18.5103 36.9281 18.5494 37.1572C18.5941 37.4191 18.6931 37.4736 18.9596 37.478C19.1413 37.4812 19.323 37.5118 19.5025 37.5424C19.8387 37.5991 20.1727 37.6711 20.51 37.7235C20.7123 37.7551 20.8723 37.6405 20.9985 37.5009C21.1388 37.3449 21.2487 37.1616 21.3847 37.0001C21.8046 36.5014 21.8471 35.8915 21.9069 35.2849C21.9254 35.1026 21.9602 34.9215 22.0005 34.7426C22.0364 34.58 22.143 34.4982 22.3149 34.4971C23.2157 34.4905 24.1177 34.4796 25.0185 34.4731C25.0511 34.4654 25.0881 34.4916 25.1762 34.5254ZM18.8508 39.3318C19.1348 39.3732 19.1326 39.371 19.2914 39.1725C19.3306 39.1234 19.3839 39.0808 19.4394 39.0492C19.6004 38.9575 19.62 38.8211 19.5417 38.676C19.4546 38.5156 19.2914 38.532 19.1544 38.5822C18.8976 38.676 18.7605 39.035 18.8508 39.3318ZM17.2896 31.2281C17.0524 31.2336 16.9469 31.3241 16.9534 31.5151C16.9599 31.6962 17.1666 31.8457 17.419 31.8511C17.5692 31.8544 17.6812 31.7082 17.6704 31.5216C17.6584 31.3154 17.5366 31.2216 17.2896 31.2281ZM15.192 31.3722C15.1909 31.5347 15.2105 31.6678 15.3835 31.6842C15.514 31.6962 15.6478 31.5053 15.6381 31.3383C15.6283 31.1692 15.5053 31.0263 15.3759 31.0503C15.1811 31.0874 15.205 31.2532 15.192 31.3722ZM16.6096 36.6225C16.2919 36.5647 16.1788 36.6924 16.1124 36.8757C16.095 36.9237 16.1222 37.0295 16.1548 37.0426C16.2168 37.0677 16.3322 37.0721 16.3637 37.0339C16.4518 36.9302 16.5084 36.7993 16.6096 36.6225ZM16.9806 37.8751C17.0698 38.0705 17.1862 38.161 17.3538 38.0279C17.4027 37.9886 17.4288 37.8315 17.394 37.7933C17.2472 37.6329 17.1199 37.7355 16.9806 37.8751ZM15.6729 22.0858C15.7458 21.9494 15.8208 21.8675 15.823 21.7824C15.8252 21.7268 15.7229 21.6679 15.6663 21.61C15.6032 21.681 15.5053 21.7442 15.489 21.825C15.4792 21.8806 15.5804 21.9592 15.6729 22.0858ZM15.6391 22.1108C15.4781 22.221 15.4564 22.3509 15.5739 22.4775C15.6043 22.5102 15.7436 22.5015 15.7762 22.4633C15.9035 22.3116 15.8176 22.2058 15.6391 22.1108ZM17.8901 22.9695C17.6649 22.8615 17.5235 22.8321 17.3734 23.0056C17.5376 23.2194 17.6769 23.1059 17.8901 22.9695ZM22.3867 24.436C22.452 24.6259 22.5455 24.6346 22.6402 24.5658C22.6663 24.5473 22.6445 24.46 22.6445 24.4054C22.5629 24.4142 22.4824 24.424 22.3867 24.436ZM17.48 21.8152C17.4822 21.7792 17.4843 21.7432 17.4876 21.7082C17.4234 21.7137 17.3581 21.7191 17.2939 21.7257C17.2928 21.7486 17.2928 21.7715 17.2918 21.7955C17.3538 21.8021 17.4169 21.8086 17.48 21.8152Z" fill="#828282"/>
<path d="M123.499 20.8212C123.84 21.0493 124.018 21.0482 124.278 20.8518C124.43 20.7372 124.475 20.6041 124.382 20.4372C124.311 20.3095 124.209 20.1906 124.352 20.0236C124.579 20.0411 124.727 20.3324 125.024 20.2211C125.343 20.1022 125.134 19.7814 125.32 19.6014C125.576 19.7039 125.71 19.8938 125.746 20.148C125.783 20.1709 125.804 20.1884 125.827 20.1982C126.369 20.4175 126.364 20.4164 126.432 19.8436C126.443 19.7519 126.505 19.6079 126.57 19.5905C126.847 19.5163 127.013 19.3188 127.19 19.1213C127.254 19.0504 127.356 19.0122 127.477 18.9358C127.555 19.2326 127.651 19.4715 127.588 19.7388C127.554 19.8829 127.511 20.04 127.667 20.136C127.827 20.2364 127.993 20.1578 128.107 20.0553C128.292 19.8894 128.454 19.7028 128.509 19.4355C128.578 19.0907 128.888 18.9325 129.2 19.0755C129.271 19.1082 129.305 19.226 129.351 19.2959C129.209 19.4857 128.882 19.4104 128.924 19.7072C128.947 19.8687 129.061 19.9843 129.214 19.9963C129.464 20.016 129.527 19.7967 129.598 19.5599C129.836 19.5894 130.058 19.6003 130.271 19.6483C130.502 19.6996 130.722 19.801 130.952 19.8512C131.077 19.8785 131.149 19.9287 131.16 20.0487C131.172 20.1731 131.106 20.2451 130.981 20.2691C130.752 20.3117 130.572 20.4262 130.555 20.675C130.533 21.0002 130.457 21.3439 130.737 21.6123C130.752 21.6276 130.786 21.6232 130.847 21.6341C131.172 21.2566 131.01 20.6881 131.346 20.2582C131.467 20.4328 131.597 20.5899 131.695 20.7667C132.009 21.3319 132.325 21.897 132.608 22.4775C132.709 22.6859 132.747 22.938 132.758 23.1736C132.781 23.6788 132.776 24.1862 132.767 24.6925C132.762 24.9882 132.662 25.0711 132.375 25.0678C131.618 25.058 130.861 25.0504 130.105 25.0373C129.974 25.0351 129.835 25.0274 129.714 24.9838C129.493 24.9041 129.326 24.7743 129.318 24.4972C129.311 24.1796 129.274 23.8621 129.244 23.5457C129.204 23.1049 129.047 22.7165 128.809 22.3346C128.427 21.7225 127.839 21.7836 127.267 21.7683C127.031 21.7617 126.789 21.7999 126.559 21.8556C126.445 21.8829 126.349 21.9952 126.248 22.0716C125.672 22.5026 125.452 23.1049 125.435 23.7977C125.42 24.4502 125.42 25.1027 125.406 25.7552C125.394 26.3226 125.371 26.8899 125.36 27.4573C125.357 27.6068 125.378 27.7574 125.39 27.9538C125.144 27.8861 124.959 27.8359 124.781 27.7868C124.556 28.0825 124.557 28.1884 124.784 28.4044C124.899 28.5146 125.028 28.6117 125.131 28.7317C125.214 28.8299 125.309 28.951 125.323 29.07C125.361 29.3962 125.357 29.7268 125.372 30.0563C125.381 30.2538 125.405 30.4502 125.405 30.6477C125.407 32.3007 125.409 33.9538 125.404 35.6057C125.403 35.8796 125.416 36.1665 125.194 36.3717C125.242 36.6324 125.423 36.7263 125.622 36.8212C125.848 36.9281 126.081 37.0361 126.272 37.1933C127.011 37.801 128.464 37.6188 128.987 36.5484C129.172 36.1698 129.251 35.8097 129.246 35.4082C129.243 35.1573 129.246 34.9074 129.25 34.6564C129.253 34.3924 129.371 34.2527 129.635 34.2473C130.564 34.2309 131.493 34.2276 132.422 34.2135C132.611 34.2102 132.72 34.2767 132.754 34.4742C132.805 34.7732 132.892 35.0678 132.923 35.3678C132.939 35.5304 132.87 35.7017 132.84 35.8697C132.808 36.0389 132.759 36.2069 132.75 36.376C132.738 36.5844 132.682 36.7514 132.532 36.9107C132.433 37.0154 132.38 37.1867 132.358 37.3351C132.283 37.8697 132.053 38.3291 131.653 38.6717C131.224 39.0394 130.771 39.3842 130.293 39.6842C130.022 39.8545 129.689 39.9396 129.373 40.0181C128.846 40.1491 128.312 40.2527 127.779 40.3509C127.644 40.376 127.462 40.3847 127.364 40.3149C127.168 40.1742 126.966 40.1829 126.756 40.1873C126.327 40.196 125.909 40.1763 125.518 39.9625C125.417 39.9068 125.291 39.8828 125.173 39.8719C124.932 39.849 124.738 39.7824 124.543 39.6002C124.373 39.4409 124.094 39.3973 123.862 39.3045C123.444 39.1376 123.158 38.8114 122.871 38.4851C122.827 38.436 122.797 38.3695 122.745 38.3356C122.564 38.2211 122.516 38.053 122.521 37.8555C122.528 37.5249 122.394 37.2544 122.134 37.0656C122.003 36.9696 121.991 36.8616 121.986 36.7252C121.962 35.9701 121.929 35.2151 121.91 34.4589C121.898 33.9789 121.893 33.4988 121.911 33.0198C121.943 32.1851 122.009 31.3504 122.033 30.5157C122.043 30.1589 121.995 29.7988 121.948 29.4442C121.891 29.0045 121.872 28.5735 122.021 28.1458C122.064 28.0236 122.072 27.8818 122.061 27.7519C122.019 27.2369 121.923 26.723 121.919 26.208C121.909 25.13 121.916 24.0509 121.976 22.9751C122.004 22.4721 122.219 22.0083 122.637 21.6625C122.889 21.453 123.095 21.1889 123.326 20.9532C123.367 20.9041 123.428 20.8725 123.499 20.8212ZM122.889 24.8474C122.684 24.9456 122.444 24.8561 122.381 25.1093C122.313 25.3842 122.382 25.6024 122.638 25.7334C122.61 25.9396 122.43 26.1131 122.604 26.3335C122.704 26.2789 122.8 26.1895 122.907 26.1753C123.227 26.1327 123.346 25.9571 123.38 25.6472C123.409 25.3766 123.47 25.3471 123.759 25.3733C123.982 25.394 124.199 25.4562 124.422 25.4846C124.608 25.5086 124.807 25.5163 124.921 25.3242C125.029 25.1398 125.016 24.9434 124.924 24.7503C124.71 24.2986 124.296 24.0902 123.876 23.8927C123.832 23.8719 123.765 23.8632 123.722 23.8807C123.426 23.9931 123.123 24.0967 122.84 24.2397C122.645 24.3389 122.633 24.4764 122.749 24.6674C122.781 24.7197 122.825 24.7667 122.889 24.8474ZM127.089 21.1867C127.087 20.9325 126.816 20.5975 126.628 20.603C126.517 20.6063 126.371 20.6772 126.312 20.7656C126.275 20.8212 126.35 20.9773 126.408 21.0656C126.469 21.1606 126.558 21.2533 126.657 21.3035C126.753 21.3515 126.882 21.369 126.986 21.346C127.041 21.334 127.074 21.2107 127.089 21.1867ZM123.034 21.8414C122.806 21.8414 122.679 21.932 122.706 22.0716C122.745 22.2833 122.93 22.2735 123.081 22.2855C123.273 22.3008 123.414 22.1895 123.383 22.0563C123.338 21.8589 123.164 21.8589 123.034 21.8414ZM125.323 22.052C125.182 21.9527 125.113 21.8709 125.032 21.8545C124.904 21.8283 124.849 21.92 124.849 22.0454C124.849 22.16 124.877 22.2811 125.007 22.2648C125.095 22.2528 125.174 22.1556 125.323 22.052ZM123.258 28.7645C123.334 28.6368 123.401 28.5713 123.409 28.4993C123.426 28.3651 123.355 28.2669 123.206 28.2767C123.075 28.2855 123.018 28.388 123.049 28.4971C123.073 28.579 123.159 28.6423 123.258 28.7645ZM124.167 22.9292C124.08 23.0449 123.988 23.1136 123.992 23.178C123.995 23.2413 124.086 23.3417 124.149 23.3504C124.206 23.358 124.334 23.2577 124.33 23.2162C124.321 23.1311 124.243 23.0536 124.167 22.9292ZM123.662 21.4824C123.814 21.5992 123.919 21.5926 124.032 21.4355C123.894 21.3122 123.786 21.2435 123.662 21.4824ZM123.196 37.1791C123.321 37.023 123.353 36.9401 123.196 36.8397C123.196 36.9478 123.196 37.0285 123.196 37.1791Z" fill="#828282"/>
<path d="M43.2824 21.6036C43.0866 21.9277 42.8146 22.1688 42.7743 22.5725C42.7319 22.9915 42.683 23.4018 42.7134 23.8295C42.7352 24.147 42.6416 24.4939 42.5198 24.794C42.4066 25.0733 42.4371 25.273 42.6264 25.4792C42.6699 25.5261 42.6949 25.5905 42.7428 25.6734C42.4186 26.0051 42.3914 26.4012 42.5655 26.806C42.6634 27.033 42.8113 27.2403 42.9484 27.4487C43.1127 27.6996 43.0572 27.824 42.7537 27.8687C42.6362 27.8862 42.5121 27.8982 42.4088 27.9484C42.3392 27.9833 42.251 28.0902 42.2608 28.1492C42.275 28.2353 42.3577 28.3554 42.4338 28.3761C42.6231 28.4274 42.8255 28.4416 43.0224 28.4503C43.4728 28.471 43.9243 28.4776 44.3747 28.4961C44.4781 28.5005 44.5804 28.5354 44.6848 28.5496C44.8154 28.567 44.9622 28.6216 45.0743 28.5812C45.4225 28.4579 45.7521 28.5725 46.0883 28.614C46.5344 28.6696 46.6181 28.8736 46.3614 29.2534C46.3396 29.2861 46.3211 29.321 46.2907 29.3712C46.3472 29.5087 46.419 29.6505 46.4636 29.8011C46.5061 29.944 46.4538 30.0302 46.3004 30.1066C45.7652 30.3728 45.194 30.3205 44.6315 30.3335C44.143 30.3445 43.6534 30.3194 43.1649 30.3172C42.7765 30.315 42.6808 30.4067 42.7145 30.7875C42.7417 31.0973 42.7363 31.3963 42.6199 31.6898C42.5872 31.7738 42.5698 31.8731 42.5763 31.9626C42.5927 32.2048 42.4958 32.3968 42.3609 32.5878C42.1248 32.9217 42.1499 32.9882 42.3468 33.3374C42.4599 33.5381 42.5078 33.7771 42.5709 34.004C42.6101 34.1437 42.6329 34.2899 42.6416 34.4339C42.6568 34.6816 42.6536 34.9315 42.6623 35.1802C42.6699 35.4039 42.6764 35.6265 42.6938 35.8502C42.721 36.2201 42.7548 36.5889 42.7874 36.9587C42.8211 37.3319 42.9375 37.4443 43.3162 37.4519C44.6826 37.4803 46.0491 37.5043 47.4156 37.5348C47.6648 37.5403 47.9139 37.573 48.2109 37.597C48.2479 37.908 48.2827 38.1939 48.3154 38.4797C48.3393 38.6903 48.3306 38.9096 48.3883 39.1093C48.4459 39.3101 48.5047 39.4737 48.3349 39.6581C48.2707 39.728 48.299 39.8818 48.2805 40.0346C48.1946 40.0553 48.0967 40.0957 47.9977 40.1011C47.099 40.148 46.2004 40.2048 45.3017 40.2244C44.6533 40.2386 44.0027 40.2037 43.3531 40.183C42.8516 40.1666 42.3424 40.0749 41.8507 40.1306C41.1304 40.2124 40.4287 40.0455 39.7161 40.0684C39.2319 40.0848 39.0481 39.7542 39.3016 39.3483C39.4648 39.0864 39.5213 38.8464 39.3124 38.5801C39.2537 38.5059 39.2265 38.3903 39.2232 38.2921C39.2102 37.9069 39.2091 37.5218 39.2113 37.1366C39.2124 37.0188 39.22 36.8955 39.257 36.7853C39.3364 36.5507 39.3614 36.3303 39.2559 36.0902C39.2178 36.0029 39.2602 35.8633 39.3027 35.7618C39.3462 35.6549 39.4321 35.5665 39.5072 35.4596C39.4332 35.3581 39.3516 35.2697 39.2983 35.1661C39.233 35.0384 39.1492 34.8987 39.1471 34.7634C39.1405 34.3281 39.1569 33.8906 39.1895 33.4552C39.2004 33.3046 39.2874 33.1606 39.3494 32.9871C39.3255 32.9435 39.2994 32.8627 39.2472 32.8071C39.1036 32.6543 39.097 32.4776 39.1177 32.2855C39.1525 31.9691 39.1775 31.6516 39.2091 31.3352C39.2385 31.0439 39.2635 30.7536 39.4811 30.5223C39.6258 30.3685 39.6008 30.2168 39.4463 30.0717C39.2613 29.8982 39.2069 29.7083 39.3549 29.4661C39.4038 29.3854 39.3886 29.2315 39.3473 29.1355C39.2102 28.8224 39.1699 28.5016 39.1786 28.1633C39.1917 27.6571 39.171 27.1508 39.1852 26.6445C39.1982 26.2201 39.2308 25.7967 39.2776 25.3745C39.2907 25.2545 39.369 25.1301 39.4452 25.0297C39.6573 24.7525 39.6639 24.4754 39.4463 24.2059C39.1503 23.8393 39.121 23.5622 39.3919 23.1955C39.5311 23.0079 39.5529 22.8551 39.4419 22.6511C39.3549 22.4907 39.307 22.3074 39.2493 22.1306C39.2298 22.0706 39.2058 21.991 39.2287 21.9397C39.3636 21.6407 39.2983 21.3625 39.2298 21.0537C39.1547 20.7111 39.1949 20.339 39.2069 19.9811C39.2221 19.5501 39.4234 19.4018 39.8543 19.3036C40.0425 19.261 40.2481 19.2992 40.4461 19.2948C40.9498 19.2839 41.4536 19.2577 41.9573 19.2588C42.5937 19.2599 43.2313 19.2916 43.8678 19.2937C44.4498 19.2959 45.033 19.2523 45.6139 19.2708C46.1927 19.2894 46.7726 19.3439 47.3482 19.4116C47.7855 19.4629 47.866 19.5796 47.89 20.0335C47.8921 20.087 47.8921 20.1415 47.9063 20.1917C48.0434 20.7002 47.9324 21.1563 47.656 21.596C47.4929 21.8557 47.3025 22.0226 47.0239 21.9277C46.4082 21.7193 45.8315 21.8338 45.231 21.9942C44.8926 22.0848 44.5216 22.0717 44.1648 22.0706C43.9276 22.0695 43.6969 21.9997 43.5359 21.788C43.4815 21.7204 43.3901 21.6811 43.2824 21.6036ZM47.7997 39.7313C47.9139 39.6756 48.0521 39.6516 48.1021 39.5719C48.1826 39.4443 48.1554 39.2861 48.0325 39.1748C47.9552 39.106 47.8693 39.0417 47.7768 38.9959C47.6735 38.9446 47.5603 38.8998 47.4472 38.8802C47.3253 38.8595 47.1512 38.8235 47.086 38.8857C47.0152 38.9533 47.0098 39.1322 47.0359 39.2501C47.0588 39.3526 47.1469 39.4716 47.2394 39.5217C47.4091 39.6145 47.6027 39.6614 47.7997 39.7313ZM40.3525 33.2555C40.2818 33.249 40.2057 33.2337 40.1306 33.237C39.938 33.2457 39.7944 33.3766 39.7879 33.5545C39.7803 33.7509 39.9032 33.8327 40.0773 33.8709C40.4635 33.956 40.6006 33.8207 40.5114 33.4345C40.5005 33.3865 40.4972 33.3363 40.4907 33.2915C40.6583 33.1595 40.9955 33.2173 40.9205 32.8693C40.544 32.7613 40.5233 32.7744 40.3525 33.2555ZM39.9609 35.2872C40.2111 35.2042 40.4341 35.1322 40.6539 35.0559C40.7768 35.0133 40.8846 34.9216 40.8323 34.794C40.7953 34.7056 40.6757 34.6303 40.5756 34.5954C40.482 34.5616 40.3656 34.5779 40.2611 34.5889C39.8358 34.6325 39.727 34.8791 39.9609 35.2872ZM41.756 33.6461C41.7495 33.4541 41.6581 33.3788 41.4753 33.3865C41.2893 33.3952 41.273 33.5218 41.2719 33.6625C41.2708 33.8338 41.3687 33.8949 41.5265 33.8862C41.6842 33.8764 41.7702 33.8 41.756 33.6461ZM46.1514 19.7837C46.1438 19.6865 46.1351 19.5905 46.1275 19.4934C46.0807 19.5021 46.0187 19.4945 45.9904 19.5218C45.8718 19.6407 45.9479 19.7225 46.1514 19.7837Z" fill="#828282"/>
<path d="M139.042 26.0215C138.927 26.015 138.85 26.0117 138.771 26.0073C138.581 25.9975 138.47 26.0925 138.435 26.2747C138.399 26.4623 138.478 26.5998 138.663 26.6315C138.879 26.6697 138.993 26.7908 139.114 26.9686C139.198 27.0919 139.393 27.1759 139.551 27.2054C140.189 27.3265 140.828 27.4301 141.484 27.4203C142.158 27.4105 142.833 27.4531 143.537 27.4727C143.554 27.5873 143.581 27.6887 143.581 27.7902C143.586 28.4427 143.587 29.0963 143.582 29.7487C143.58 30.0586 143.532 30.1274 143.218 30.1426C142.856 30.1601 142.494 30.2605 142.13 30.0532C141.946 29.9484 141.695 30.015 141.484 30.1383C141.365 30.207 141.219 30.243 141.081 30.2605C140.846 30.291 140.608 30.3117 140.372 30.3063C140.079 30.2997 139.851 30.3456 139.658 30.6183C139.566 30.7482 139.309 30.7886 139.12 30.8169C138.716 30.8769 138.616 30.9544 138.475 31.3461C138.436 31.4552 138.317 31.5349 138.242 31.6331C138.197 31.692 138.122 31.7815 138.139 31.824C138.17 31.8982 138.256 31.9866 138.33 31.9964C138.456 32.015 138.591 31.9822 138.721 31.9626C139.006 31.92 139.085 32.003 139.15 32.2768C139.394 33.2937 139.296 34.3347 139.396 35.3592C139.446 35.8709 139.586 36.3761 139.715 36.8769C139.747 37.0024 139.872 37.1421 139.991 37.1988C140.311 37.3537 140.639 37.4825 141.021 37.4279C141.292 37.3897 141.576 37.4388 141.854 37.4497C142.143 37.4618 142.431 37.4781 142.721 37.4836C142.901 37.4869 143.012 37.5589 143.088 37.7291C143.123 37.8065 143.234 37.8829 143.32 37.8949C143.445 37.9113 143.487 37.8055 143.496 37.6833C143.509 37.524 143.624 37.4487 143.771 37.4508C144.192 37.4585 144.618 37.441 145.033 37.5032C145.393 37.5567 145.456 37.6974 145.445 38.0684C145.437 38.3096 145.321 38.5441 145.497 38.7973C145.554 38.878 145.406 39.105 145.346 39.2632C145.327 39.3101 145.29 39.3504 145.27 39.3799C145.274 39.4268 145.268 39.4596 145.281 39.4781C145.541 39.8633 145.485 40.0139 145.016 40.0531C144.502 40.0957 143.982 40.0913 143.465 40.1C143.068 40.1066 142.671 40.1033 142.272 40.1011C140.6 40.0913 138.927 40.0815 137.255 40.0706C137.072 40.0695 136.888 40.0662 136.705 40.0618C136.489 40.0575 136.27 39.8731 136.266 39.6309C136.253 38.9391 136.267 38.2473 136.269 37.5556C136.527 37.0733 136.508 36.5998 136.279 36.1044C136.22 35.9768 136.289 35.7607 136.354 35.6101C136.517 35.2359 136.549 34.866 136.39 34.4896C136.279 34.2255 136.255 33.9539 136.256 33.6713C136.261 32.5518 136.248 31.4323 136.266 30.3128C136.27 30.0412 136.341 29.764 136.426 29.5032C136.511 29.2436 136.523 29.0068 136.377 28.7777C136.258 28.5933 136.283 28.4372 136.335 28.2234C136.41 27.9157 136.39 27.5731 136.353 27.2523C136.258 26.4329 136.183 25.6156 136.283 24.7929C136.311 24.5594 136.405 24.3347 136.432 24.1012C136.45 23.9539 136.404 23.7979 136.375 23.6484C136.344 23.4945 136.264 23.344 136.263 23.1912C136.253 22.0859 136.256 20.9817 136.258 19.8764C136.258 19.7717 136.267 19.6615 136.298 19.5633C136.356 19.3843 136.475 19.2785 136.68 19.273C137.342 19.2578 138.003 19.2251 138.665 19.2141C139.34 19.2032 140.023 19.2698 140.691 19.1956C141.393 19.117 142.084 19.2589 142.785 19.1858C143.347 19.1268 143.924 19.1956 144.494 19.213C144.783 19.2218 145.083 19.5109 145.107 19.8382C145.132 20.1819 145.119 20.5289 145.11 20.8737C145.108 20.961 145.07 21.0581 145.022 21.1334C144.922 21.2872 144.87 21.4214 144.974 21.6091C145.057 21.7597 144.98 21.8546 144.795 21.8688C144.494 21.8917 144.191 21.9081 143.888 21.9124C142.893 21.9266 141.896 21.9212 140.901 21.9506C140.478 21.9626 140.057 22.0314 139.64 22.099C139.542 22.1154 139.423 22.2168 139.381 22.3107C139.274 22.5453 139.118 22.6893 138.877 22.7842C138.745 22.8355 138.634 22.973 138.548 23.0963C138.44 23.2512 138.571 23.3614 138.663 23.4782C138.708 23.536 138.735 23.6222 138.741 23.6975C138.758 23.9812 138.834 24.2419 138.964 24.4951C139.015 24.5955 139.025 24.7231 139.036 24.8388C139.062 25.1159 139.084 25.3941 139.092 25.6735C139.098 25.7869 139.062 25.8971 139.042 26.0215ZM137.456 25.0777C137.634 24.7799 137.621 24.5518 137.442 24.3631C137.266 24.1765 136.836 24.2027 136.477 24.4383C136.622 24.9588 137.138 24.8584 137.456 25.0777ZM141.416 19.9932C141.423 19.775 141.305 19.5764 141.161 19.5578C141.022 19.5404 140.912 19.68 140.903 19.883C140.892 20.1187 140.998 20.2736 141.177 20.2834C141.322 20.2921 141.411 20.183 141.416 19.9932ZM137.134 26.0215C137.138 25.8153 136.983 25.6058 136.834 25.6156C136.696 25.6255 136.575 25.7869 136.572 25.967C136.568 26.1535 136.675 26.2714 136.855 26.2801C137.033 26.2888 137.13 26.1983 137.134 26.0215ZM144.548 39.0024C144.579 39.1311 144.551 39.3057 144.76 39.3188C144.922 39.3286 145.008 39.2108 145.004 38.9904C145.001 38.7602 144.924 38.6434 144.773 38.6423C144.632 38.6423 144.545 38.7798 144.548 39.0024ZM141.974 39.5687C141.977 39.3647 141.923 39.2828 141.783 39.2817C141.61 39.2806 141.555 39.3985 141.547 39.5425C141.536 39.7084 141.66 39.8753 141.78 39.8622C141.953 39.8426 141.979 39.7127 141.974 39.5687Z" fill="#828282"/>
<path d="M28.233 30.5704C27.7957 30.2442 27.7924 29.7815 27.8 29.3113C27.8065 28.901 27.8011 28.4908 27.8011 28.0565C27.8838 28.0412 27.9567 28.027 28.0307 28.015C28.2515 27.9801 28.3353 27.8863 28.282 27.7117C28.22 27.5055 28.0894 27.5339 27.9414 27.6222C27.9164 27.6375 27.8718 27.619 27.7989 27.6124C27.8359 27.512 27.8609 27.4302 27.8958 27.3527C27.9839 27.1596 27.9893 26.9709 27.8925 26.7788C27.7043 26.4035 27.6662 26.0467 28.0644 25.7434C27.9763 25.6113 27.8979 25.4935 27.8076 25.3571C28.0764 24.8945 28.0415 24.4166 27.8305 23.9267C27.7783 23.8045 27.8087 23.6462 27.7989 23.4455C27.9643 23.5611 28.0753 23.6473 28.196 23.7204C28.3146 23.7925 28.4539 23.8416 28.5561 23.7106C28.6562 23.5819 28.5529 23.4924 28.455 23.4139C28.4343 23.3975 28.4093 23.3789 28.4006 23.356C28.2961 23.0789 28.1036 23.0079 27.825 23.1443C27.7783 22.7439 27.6705 22.374 27.9643 22.0521C27.9904 22.0238 28.0154 21.9801 28.0143 21.9452C27.9926 21.5459 28.3266 21.3975 28.5616 21.1945C28.6573 21.1116 28.8358 21.1182 28.9783 21.0985C29.2459 21.0614 29.3319 20.9916 29.3047 20.8072C29.2796 20.6337 29.0795 20.4766 28.8912 20.5191C28.7411 20.553 28.6018 20.6402 28.4234 20.7188C28.3353 20.649 28.2243 20.5606 28.1166 20.4755C28.1384 20.4111 28.1416 20.3522 28.1656 20.3424C28.517 20.1896 28.666 19.8536 28.8717 19.5688C28.9021 19.5262 28.9326 19.4815 28.9685 19.4422C29.2459 19.1433 29.4918 19.1989 29.6278 19.6223C29.6822 19.5753 29.7388 19.5448 29.7681 19.4979C29.8682 19.3397 29.9988 19.3331 30.1468 19.4095C30.409 19.5437 30.6516 19.6157 30.9072 19.3669C31.0302 19.2469 31.1771 19.3331 31.226 19.5131C31.2325 19.5382 31.2391 19.5655 31.2402 19.5917C31.263 20.386 31.2902 21.1803 31.3065 21.9747C31.3152 22.4122 31.3185 22.8508 31.2978 23.2884C31.275 23.7641 31.2195 24.2387 31.1803 24.7144C31.1738 24.793 31.1694 24.8748 31.1803 24.9534C31.3076 25.8481 31.1847 26.7254 31.0171 27.6015C30.9703 27.8481 30.9366 28.1002 30.9334 28.35C30.9225 29.1629 30.9225 29.9758 30.9312 30.7886C30.9399 31.5328 30.9464 32.2791 30.9888 33.021C31.028 33.7095 31.1194 34.3937 31.176 35.0811C31.2053 35.4378 31.2075 35.7968 31.2217 36.1547C31.2304 36.3544 31.2249 36.5551 31.251 36.7526C31.3043 37.1531 31.6209 37.4411 32.0257 37.452C33.1931 37.4837 34.3604 37.5077 35.5278 37.5328C35.6345 37.535 35.7411 37.5284 35.8466 37.535C36.1164 37.5502 36.1839 37.6059 36.1882 37.8667C36.1969 38.4515 36.2002 39.0374 36.1861 39.6223C36.1784 39.954 36.0479 40.0696 35.7073 40.0718C34.033 40.086 32.3597 40.098 30.6853 40.1023C29.9825 40.1045 29.2796 40.0827 28.5768 40.0751C28.1014 40.0707 27.8327 39.8274 27.8065 39.3353C27.7826 38.8967 27.7793 38.4569 27.7783 38.0183C27.7772 37.6724 27.8174 37.3255 27.7967 36.9807C27.7478 36.1503 27.9142 35.3396 27.9958 34.5224C28.0165 34.3195 28.0285 34.1362 27.8903 33.955C27.8174 33.859 27.7859 33.7095 27.7848 33.5841C27.7739 32.9043 27.775 32.2256 27.7804 31.5459C27.7826 31.272 27.8609 31.0232 28.0579 30.8181C28.1188 30.7526 28.1634 30.6708 28.233 30.5704ZM28.6769 32.9534C28.6878 32.7625 28.7161 32.5835 28.6987 32.4089C28.6932 32.3489 28.5812 32.2627 28.5105 32.254C28.4365 32.2442 28.2972 32.2976 28.2831 32.3489C28.2406 32.506 28.2069 32.685 28.2406 32.8399C28.2798 33.0265 28.4604 32.9796 28.6769 32.9534ZM30.1935 25.5317C30.1881 25.2982 30.0815 25.1498 29.9205 25.1585C29.766 25.1683 29.6931 25.2633 29.6931 25.4193C29.6931 25.6572 29.8367 25.8645 30.0031 25.847C30.2099 25.8274 30.1892 25.6648 30.1935 25.5317ZM30.9965 22.3827C30.8235 22.2835 30.7473 22.2147 30.6614 22.1951C30.4982 22.158 30.3524 22.2518 30.3839 22.3718C30.4046 22.4504 30.5123 22.5606 30.5776 22.5595C30.6853 22.5573 30.7919 22.4755 30.9965 22.3827ZM29.5146 27.6037C29.4048 27.6943 29.321 27.763 29.2383 27.8317C29.3123 27.8918 29.3787 27.9889 29.4602 28.0019C29.5799 28.0227 29.7094 27.9594 29.6985 27.811C29.6942 27.7477 29.5952 27.691 29.5146 27.6037ZM29.2796 23.2262C29.1676 23.1476 29.0903 23.0549 29.0392 23.068C28.9739 23.0843 28.8836 23.188 28.888 23.2491C28.8912 23.3102 28.9924 23.404 29.0588 23.4117C29.111 23.4193 29.1763 23.3178 29.2796 23.2262ZM29.3743 19.8819C29.2405 19.8328 29.1154 19.8066 29.0022 19.9398C29.2851 20.1612 29.3134 20.1569 29.3743 19.8819Z" fill="#828282"/>
<path d="M87.6458 40.316C87.2389 40.5288 86.9016 40.7186 86.5524 40.8812C86.3642 40.9685 86.1542 41.0492 85.9529 41.0547C85.8017 41.058 85.6472 40.9358 85.4438 40.8474C85.4166 40.8616 85.3371 40.903 85.2577 40.9434C84.9041 41.1256 84.7975 41.1103 84.4787 40.8408C84.4309 40.8005 84.3689 40.7393 84.3188 40.7437C83.8107 40.7874 83.3625 40.5626 82.9077 40.4066C82.6716 40.3258 82.4747 40.1142 82.2767 39.9429C82.1831 39.8621 82.1603 39.7432 82.2582 39.6232C82.5237 39.298 82.7696 38.9554 83.0481 38.6412C83.2983 38.3586 83.5942 38.1218 83.9293 37.9363C84.0849 37.8501 84.2155 37.8676 84.3776 37.9331C85.0815 38.2189 85.7886 38.2473 86.4915 37.9101C86.7123 37.8043 86.9952 37.8097 87.1214 37.5402C87.1758 37.4246 87.24 37.3122 87.2977 37.1976C87.351 37.0929 87.3858 36.9729 87.4587 36.8845C87.8373 36.4262 87.9069 35.8839 87.9102 35.3198C87.9124 34.974 87.9037 34.627 87.9156 34.2811C87.9243 34.0312 87.9396 33.7814 88.1115 33.5653C88.2083 33.4442 88.1735 33.3067 88.1027 33.1573C88.0157 32.9729 87.9493 32.7612 87.9406 32.5582C87.9124 31.9603 87.9178 31.3613 87.9091 30.7623C87.8819 29.0733 87.8558 27.3842 87.8264 25.6952C87.8242 25.5632 87.8014 25.4322 87.7883 25.3002C87.7655 25.0722 87.8101 25.0023 88.0288 24.9805C88.1974 24.9631 88.3932 25.0089 88.4585 24.7863C88.5173 24.5899 88.5129 24.4055 88.3682 24.2244C88.2855 24.1207 88.2442 23.9636 88.2333 23.8261C88.2115 23.5752 88.2311 23.3199 88.2246 23.0678C88.2181 22.7678 88.1887 22.7339 87.9069 22.6488C87.6121 22.5605 87.611 22.5463 87.6045 22.2375C87.5871 21.4944 87.5783 20.7503 87.5305 20.0084C87.4968 19.4813 87.8514 19.1726 88.3606 19.4148C88.5347 19.4966 88.6783 19.5065 88.848 19.417C89.1537 19.2577 89.4638 19.2053 89.8021 19.3559C89.9153 19.4061 90.0785 19.3591 90.2156 19.3395C90.3679 19.3177 90.5169 19.2762 90.6943 19.238C90.8499 19.5796 90.9924 19.8872 91.1284 20.1971C91.1545 20.256 91.1926 20.3422 91.1697 20.3859C90.9663 20.7721 91.1273 21.1715 91.1142 21.5632C91.087 22.4273 91.0729 23.2904 91.0598 24.1546C91.0533 24.5812 91.062 25.0067 91.0566 25.4333C91.0555 25.5763 91.0326 25.7181 91.0207 25.8621C90.8085 25.9309 90.5452 25.7749 90.4451 26.0607C90.9043 26.4459 91.0413 26.9663 91.0577 27.5359C91.0609 27.6559 91.0566 27.7759 91.0587 27.896C91.0762 28.7994 91.0816 29.7039 91.1164 30.6074C91.136 31.1278 90.9119 31.6439 91.1034 32.1698C91.1393 32.268 91.0762 32.4033 91.0577 32.5212C91.0218 32.7481 91.0348 32.962 91.1164 33.1867C91.1752 33.3504 91.1752 33.5501 91.1523 33.7268C91.1023 34.1076 91.0587 34.4786 91.0946 34.8714C91.1414 35.3962 91.0827 35.9309 91.0685 36.46C91.0664 36.5528 91.0479 36.6488 91.0609 36.7394C91.1458 37.2969 90.9358 37.7966 90.7062 38.268C90.518 38.6553 90.2515 39.0187 89.9599 39.3384C89.6346 39.6941 89.2462 39.9931 88.8752 40.3062C88.7175 40.4393 88.5173 40.4404 88.3552 40.3215C88.0821 40.1207 87.8264 39.8959 87.5642 39.6799C87.5337 39.6548 87.5087 39.5991 87.4804 39.5991C87.3727 39.597 87.2411 39.5773 87.1606 39.6286C87.0344 39.7104 87.0833 39.8534 87.1725 39.9385C87.3129 40.0694 87.4739 40.1807 87.6458 40.316ZM88.5989 34.8932C88.8284 34.855 89.0515 34.8332 89.2647 34.7743C89.3474 34.7514 89.4399 34.6532 89.4649 34.5703C89.4812 34.5168 89.3985 34.3935 89.3311 34.3629C89.182 34.2931 89.1287 34.1949 89.0906 34.0378C89.0058 33.6886 88.7446 33.621 88.465 33.8589C88.3758 33.9352 88.3149 34.0432 88.2311 34.1251C88.0734 34.2789 88.0788 34.447 88.1626 34.6313C88.2507 34.8234 88.4096 34.891 88.5989 34.8932ZM89.3844 27.0482C89.3789 27.2642 89.4812 27.4257 89.6368 27.4453C89.788 27.4639 89.9196 27.3002 89.924 27.0874C89.9283 26.8627 89.8272 26.7296 89.6466 26.7252C89.4801 26.7208 89.3909 26.831 89.3844 27.0482ZM85.4372 40.579C85.4623 40.2396 85.5265 39.9429 85.1652 39.777C84.9683 40.0236 84.9346 40.28 85.0086 40.579C85.1522 40.579 85.2773 40.579 85.4372 40.579ZM84.8356 38.6521C84.6768 38.6521 84.5473 38.6357 84.4254 38.6586C84.3645 38.6706 84.2731 38.7557 84.2742 38.8059C84.2764 38.8823 84.3275 38.987 84.3917 39.0274C84.6158 39.1714 84.7823 39.0481 84.8356 38.6521ZM89.491 23.0362C89.7423 22.8736 89.8239 22.723 89.7347 22.5866C89.6694 22.4873 89.479 22.4633 89.3833 22.5419C89.2538 22.6488 89.2897 22.8114 89.491 23.0362Z" fill="#828282"/>
<path d="M114.443 35.4508C114.428 35.4159 114.419 35.3548 114.398 35.3505C114.073 35.2741 114.054 35.0177 114.068 34.7634C114.091 34.3401 114.132 33.9167 114.175 33.4945C114.182 33.4214 114.214 33.3308 114.266 33.2861C114.493 33.0919 114.44 32.8824 114.351 32.6423C114.254 32.3827 114.195 32.1077 114.124 31.8393C114.11 31.7902 114.104 31.7334 114.114 31.6843C114.19 31.2948 114.274 30.9064 114.348 30.5158C114.374 30.3739 114.384 30.2288 114.387 30.0848C114.391 29.9004 114.368 29.7225 114.484 29.5469C114.53 29.477 114.501 29.3166 114.451 29.2283C114.192 28.7645 114.058 28.2746 114.09 27.7411C114.096 27.6352 114.097 27.5272 114.09 27.4214C114.042 26.7449 114.124 26.0935 114.476 25.4879C114.39 25.345 114.31 25.2119 114.226 25.0733C114.453 24.7089 114.706 25.1661 114.966 25.0177C114.947 24.938 114.949 24.8256 114.897 24.7504C114.767 24.5605 114.609 24.3892 114.467 24.2059C114.429 24.1568 114.391 24.0902 114.39 24.0313C114.378 23.5348 114.206 23.0308 114.481 22.5463C114.517 22.483 114.468 22.351 114.427 22.267C114.375 22.1622 114.288 22.075 114.219 21.9768C114.137 21.8578 114.115 21.7302 114.203 21.6047C114.355 21.3865 114.293 21.1824 114.187 20.9675C113.934 20.4612 114.042 19.98 114.349 19.5458C114.436 19.4225 114.631 19.3188 114.782 19.309C115.507 19.2588 116.235 19.2435 116.962 19.2184C117.174 19.2108 117.316 19.3101 117.38 19.5152C117.399 19.5785 117.437 19.6418 117.439 19.7051C117.452 20.3281 117.459 20.95 117.465 21.573C117.466 21.6658 117.435 21.7585 117.44 21.8502C117.488 23.1257 117.436 24.4012 117.459 25.6756C117.462 25.8829 117.429 26.0695 117.31 26.2408C117.18 26.4296 117.181 26.6194 117.247 26.8442C117.353 27.1988 117.359 27.5381 116.987 27.7967C116.702 27.9953 116.742 28.2103 117.045 28.4176C117.109 28.4612 117.167 28.518 117.225 28.5703C117.479 28.7973 117.466 28.7929 117.366 29.1311C117.328 29.2588 117.348 29.4105 117.363 29.548C117.381 29.7029 117.449 29.8556 117.451 30.0095C117.454 30.555 117.437 31.1017 117.428 31.6472C117.422 31.9648 117.295 32.1895 116.998 32.3477C116.463 32.6336 116.46 32.9522 116.958 33.3352C117.031 33.3908 117.1 33.4541 117.159 33.5239C117.363 33.7684 117.35 34.004 117.127 34.2277C116.834 34.5212 116.836 34.5201 117.065 34.8856C117.114 34.9631 117.182 35.0548 117.176 35.1344C117.135 35.7444 117.448 36.2965 117.452 36.8944C117.455 37.4934 117.436 38.0924 117.43 38.6914C117.427 38.9577 117.429 39.225 117.432 39.4912C117.435 39.7869 117.319 39.9833 117.094 40.0531C116.868 40.123 116.725 40.0586 116.537 39.8098C116.524 39.7924 116.492 39.7891 116.444 39.7694C116.224 40.1099 115.909 40.1066 115.548 40.0084C115.269 39.932 114.975 39.8796 114.687 39.8731C114.421 39.8676 114.269 39.7215 114.132 39.5414C114.004 39.3734 114.059 39.2512 114.281 39.237C114.455 39.2272 114.564 39.1584 114.609 39.0035C114.657 38.8376 114.559 38.734 114.426 38.6424C113.995 38.3434 113.94 38.1077 114.207 37.6505C114.317 37.4618 114.332 37.2861 114.27 37.0799C114.197 36.8409 114.122 36.5987 114.211 36.3379C114.237 36.2615 114.195 36.1557 114.169 36.0673C114.032 35.608 114.032 35.6025 114.443 35.4508ZM115.94 33.1235C115.906 33.0821 115.875 33.0537 115.854 33.0209C115.628 32.6511 115.327 32.6478 115.109 33.0068C115.034 33.1301 114.934 33.237 114.845 33.3516C114.758 33.4639 114.628 33.5698 114.72 33.7324C114.812 33.8982 114.972 33.8949 115.137 33.8698C115.305 33.8447 115.438 33.7749 115.517 33.62C115.556 33.5436 115.597 33.4683 115.653 33.3603C115.741 33.4738 115.797 33.5621 115.87 33.6341C115.973 33.7367 116.093 33.848 116.252 33.7684C116.405 33.692 116.403 33.5327 116.4 33.3843C116.397 33.2294 116.328 33.1312 116.165 33.1235C116.087 33.1202 116.01 33.1235 115.94 33.1235ZM116.105 35.4116C116.072 35.2959 116.051 35.2206 116.031 35.1443C115.98 34.9544 115.915 34.7667 115.883 34.5736C115.783 33.992 115.771 33.9844 115.278 34.2932C115.222 34.3281 115.154 34.3412 115.098 34.3761C115.009 34.4328 114.893 34.4809 114.847 34.5649C114.782 34.6838 114.734 34.8355 114.745 34.9675C114.759 35.1344 114.92 35.1333 115.057 35.1366C115.149 35.1388 115.247 35.1824 115.332 35.1628C115.593 35.1006 115.74 35.1737 115.78 35.4541C115.788 35.5065 115.91 35.5938 115.949 35.5807C116.015 35.5556 116.059 35.4639 116.105 35.4116ZM116.557 21.2544C116.677 21.2708 116.767 21.3024 116.849 21.2883C116.91 21.2784 116.96 21.2086 117.015 21.1661C116.957 21.1082 116.904 21.0144 116.837 21.0013C116.701 20.9762 116.586 21.0329 116.557 21.2544ZM114.948 29.5785C114.882 29.6527 114.808 29.7018 114.813 29.7367C114.824 29.8033 114.882 29.8622 114.92 29.9233C114.972 29.8753 115.054 29.8349 115.066 29.7782C115.077 29.7323 115.005 29.6669 114.948 29.5785Z" fill="#828282"/>
<path d="M106.304 19.884C106.382 19.4573 106.569 19.2926 106.959 19.309C106.931 19.7029 106.638 19.9603 106.304 19.884Z" fill="#828282"/>
<path d="M66.1379 35.9024C66.1543 35.7278 66.1575 35.5282 66.2 35.3361C66.2152 35.2674 66.3175 35.2008 66.3936 35.1692C66.4295 35.155 66.5264 35.2118 66.5503 35.2598C66.7015 35.5631 66.8495 35.8697 66.979 36.1828C67.017 36.2734 67.0116 36.3923 66.9942 36.4927C66.9561 36.7043 66.8223 36.8036 66.6058 36.8113C66.3784 36.8189 66.2533 36.7414 66.2054 36.5167C66.1641 36.3246 66.1608 36.125 66.1379 35.9024Z" fill="#828282"/>
<path d="M66.9305 37.7486C66.9348 37.897 66.8902 38.0094 66.7238 38.0247C66.5845 38.0367 66.4833 37.9101 66.5007 37.7235C66.5138 37.5838 66.5214 37.4191 66.7096 37.394C66.8413 37.3776 66.9359 37.5391 66.9305 37.7486Z" fill="#828282"/>
<path d="M73.8676 21.1304C73.849 21.2944 73.7357 21.3512 73.6136 21.3151C73.5341 21.2911 73.4327 21.1883 73.4229 21.1107C73.4054 20.973 73.5123 20.8976 73.655 20.9042C73.8011 20.9097 73.8665 20.996 73.8676 21.1304Z" fill="#828282"/>
<path d="M73.7546 21.7731C73.8898 21.6901 73.9628 21.6103 74.0282 21.6157C74.0925 21.6212 74.1492 21.7141 74.2091 21.7699C74.1481 21.8245 74.0914 21.9152 74.0249 21.924C73.9606 21.9316 73.8876 21.8518 73.7546 21.7731Z" fill="#828282"/>
<path d="M98.3062 37.4149C98.4302 37.7226 98.2833 38.0019 98.1625 38.2725C98.1049 38.4012 97.8644 38.3827 97.8405 38.2539C97.797 38.0095 97.7459 37.7509 97.9101 37.5251C98.0026 37.3996 98.1266 37.3331 98.3062 37.4149Z" fill="#828282"/>
<path d="M98.0773 31.6136C98.0707 31.4586 98.0925 31.3157 98.2807 31.2895C98.4265 31.2688 98.5375 31.4193 98.5353 31.6179C98.5331 31.823 98.4189 32.0042 98.2851 32.0129C98.1426 32.0216 98.0718 31.8852 98.0773 31.6136Z" fill="#828282"/>
<path d="M106.583 32.3225C106.582 32.0977 106.695 31.9188 106.839 31.9374C107.034 31.9625 107.038 32.1207 107.042 32.2701C107.048 32.4916 106.958 32.6127 106.795 32.6007C106.628 32.5877 106.578 32.4753 106.583 32.3225Z" fill="#828282"/>
<path d="M101.331 38.4928C101.141 38.2713 101.108 38.1109 101.237 37.9767C101.285 37.9265 101.381 37.8785 101.438 37.8938C101.492 37.9079 101.552 38.0018 101.562 38.0673C101.588 38.2451 101.557 38.4099 101.331 38.4928Z" fill="#828282"/>
<path d="M96.5023 32.1589C96.5796 32.2989 96.6734 32.3929 96.6559 32.4563C96.6352 32.5328 96.5121 32.6366 96.4456 32.6279C96.3736 32.6181 96.2679 32.4956 96.2658 32.4202C96.2647 32.3535 96.3846 32.2825 96.5023 32.1589Z" fill="#828282"/>
<path d="M58.4757 31.5763C58.4887 31.8982 58.4278 31.9691 58.096 32.0542C58.0329 32.0706 57.935 32.076 57.9143 32.1175C57.7718 32.4055 57.5009 32.3586 57.2582 32.3946C56.7741 32.4666 56.2856 32.5212 55.808 32.6259C55.2868 32.7405 55.1661 32.4666 55.2401 32.0214C55.3543 31.3275 55.4707 30.6347 55.5991 29.9429C55.7471 29.1508 55.9222 28.3641 56.0593 27.5708C56.1355 27.1278 56.1507 26.6739 56.2105 26.2277C56.2399 26.0062 56.3117 25.7912 56.3585 25.573C56.3824 25.4584 56.4183 25.3373 56.402 25.226C56.3813 25.0787 56.3748 24.9543 56.5369 24.902C56.6969 24.8496 56.8252 24.9129 56.9047 25.0591C56.9743 25.1868 57.0309 25.3231 57.1016 25.4508C57.2017 25.6341 57.3148 25.8109 57.4084 25.9974C57.4475 26.076 57.453 26.172 57.4682 26.2615C57.5422 26.7154 57.4954 27.1933 57.7359 27.6166C57.7794 27.693 57.7652 27.7989 57.7881 27.8894C57.8555 28.1589 57.8925 28.4426 58.0046 28.6914C58.2777 29.2959 58.3745 29.9331 58.4235 30.5834C58.4474 30.914 58.4583 31.2457 58.4757 31.5763Z" fill="#828282"/>
<path d="M57.51 23.9452C57.4502 23.5426 57.4001 23.1934 57.3457 22.8443C57.3196 22.6762 57.3316 22.5169 57.5122 22.4482C57.6808 22.3838 57.782 22.4809 57.8506 22.6315C57.8767 22.6893 57.9256 22.7395 57.9713 22.7853C58.1617 22.9752 58.141 23.1912 58.0312 23.4029C57.9474 23.5644 57.844 23.7182 57.7309 23.8612C57.6928 23.9103 57.5982 23.9136 57.51 23.9452Z" fill="#828282"/>
<path d="M57.3422 21.4237C57.5402 21.308 57.6838 21.1956 57.8459 21.1378C57.9906 21.0865 58.1266 21.1378 58.1853 21.3145C58.2408 21.4837 58.193 21.6997 58.0559 21.8132C57.9166 21.9288 57.7893 21.8939 57.6729 21.7793C57.5804 21.6877 57.4956 21.5884 57.3422 21.4237Z" fill="#828282"/>
<path d="M57.9407 20.3174C58.0549 20.3741 58.1387 20.4101 58.2159 20.4559C58.316 20.516 58.4194 20.5749 58.5075 20.6502C58.5695 20.7036 58.6489 20.7844 58.6478 20.852C58.6468 20.923 58.5728 21.031 58.5075 21.0528C58.44 21.0757 58.3095 21.0408 58.2681 20.9852C58.1691 20.8531 58.0843 20.7364 57.9004 20.7178C57.8003 20.708 57.6687 20.6469 57.722 20.5127C57.7525 20.4319 57.8634 20.3818 57.9407 20.3174Z" fill="#828282"/>
<path d="M56.6966 22.7208C56.5345 22.6739 56.3648 22.6422 56.2135 22.5724C56.1319 22.5342 56.0242 22.4284 56.0286 22.3585C56.0329 22.28 56.1363 22.1839 56.2201 22.1381C56.3637 22.0585 56.6117 22.1294 56.727 22.2658C56.8554 22.4185 56.8652 22.5724 56.6966 22.7208Z" fill="#828282"/>
<path d="M53.9237 36.0083C53.7909 36.0923 53.7104 36.1785 53.618 36.1949C53.4809 36.2178 53.4069 36.1141 53.3982 35.9788C53.3884 35.8195 53.5298 35.6428 53.6419 35.6963C53.7409 35.7421 53.8029 35.8676 53.9237 36.0083Z" fill="#828282"/>
<path d="M59.689 36.6825C59.4678 36.4507 59.4362 36.348 59.5746 36.2551C59.6389 36.2124 59.7838 36.2103 59.8427 36.2562C59.9636 36.3502 59.9179 36.4649 59.689 36.6825Z" fill="#828282"/>
<path d="M55.7339 22.7594C55.6074 22.8348 55.5355 22.9113 55.4625 22.9124C55.3241 22.9157 55.2827 22.7933 55.3164 22.6851C55.3372 22.6195 55.4516 22.52 55.4854 22.5332C55.5671 22.5659 55.6271 22.6556 55.7339 22.7594Z" fill="#828282"/>
<path d="M56.1031 34.3586C56.1641 34.4603 56.2426 34.5357 56.2274 34.5794C56.2045 34.6472 56.1173 34.6942 56.0584 34.7499C56.0214 34.6876 55.9549 34.6243 55.9571 34.563C55.9593 34.5051 56.0345 34.4494 56.1031 34.3586Z" fill="#828282"/>
<path d="M56.0269 24.6904C56.3266 24.9669 56.3265 24.967 56.0563 25.1473C56.0465 25.0041 56.0388 24.8904 56.0269 24.6904Z" fill="#828282"/>
<path d="M18.8497 39.3308C18.7594 39.034 18.8965 38.6751 19.1532 38.5812C19.2903 38.531 19.4535 38.5147 19.5406 38.6751C19.6189 38.8191 19.5993 38.9555 19.4383 39.0482C19.3828 39.0799 19.3295 39.1224 19.2903 39.1715C19.1315 39.3712 19.1337 39.3723 18.8497 39.3308Z" fill="#828282"/>
<path d="M17.2882 31.2271C17.5352 31.2206 17.6571 31.3155 17.669 31.5206C17.6799 31.7072 17.5679 31.8534 17.4177 31.8501C17.1653 31.8446 16.9586 31.6952 16.9521 31.5141C16.9455 31.322 17.0511 31.2326 17.2882 31.2271Z" fill="#828282"/>
<path d="M15.1907 31.3712C15.2038 31.2522 15.1798 31.0864 15.3757 31.0493C15.5051 31.0253 15.6281 31.1682 15.6379 31.3373C15.6477 31.5032 15.5138 31.6953 15.3833 31.6832C15.2092 31.6669 15.1896 31.5338 15.1907 31.3712Z" fill="#828282"/>
<path d="M16.6102 36.6217C16.5088 36.7988 16.4533 36.9299 16.365 37.0338C16.3323 37.072 16.2168 37.0665 16.1557 37.0425C16.123 37.0294 16.0958 36.9223 16.1132 36.8753C16.1786 36.6917 16.292 36.5638 16.6102 36.6217Z" fill="#828282"/>
<path d="M16.9807 37.8746C17.1202 37.7347 17.2477 37.6308 17.3938 37.7926C17.4286 37.8309 17.4025 37.9883 17.3534 38.0276C17.1867 38.161 17.069 38.0702 16.9807 37.8746Z" fill="#828282"/>
<path d="M15.6723 22.0855C15.5797 21.9599 15.4783 21.8801 15.4892 21.8232C15.5045 21.7434 15.6036 21.679 15.6669 21.6079C15.7224 21.6658 15.826 21.7249 15.8238 21.7806C15.8205 21.8659 15.7453 21.9489 15.6723 22.0855Z" fill="#828282"/>
<path d="M15.6382 22.1099C15.8158 22.205 15.903 22.311 15.7755 22.4629C15.7439 22.5012 15.6033 22.5099 15.5728 22.4771C15.4551 22.3503 15.478 22.2203 15.6382 22.1099Z" fill="#828282"/>
<path d="M17.8889 22.9686C17.6756 23.105 17.5364 23.2196 17.3721 23.0046C17.5222 22.83 17.6636 22.8606 17.8889 22.9686Z" fill="#828282"/>
<path d="M22.3868 24.4351C22.4827 24.4231 22.5645 24.4144 22.6451 24.4045C22.6451 24.4603 22.6669 24.5466 22.6408 24.5652C22.5449 24.634 22.4522 24.6253 22.3868 24.4351Z" fill="#828282"/>
<path d="M17.48 21.8143C17.4168 21.8077 17.3536 21.8 17.2904 21.7935C17.2915 21.7705 17.2915 21.7465 17.2926 21.7235C17.3569 21.7181 17.4223 21.7126 17.4866 21.7061C17.4844 21.7432 17.4822 21.7793 17.48 21.8143Z" fill="#828282"/>
<path d="M122.888 24.8474C122.825 24.7667 122.781 24.7209 122.748 24.6674C122.631 24.4764 122.643 24.339 122.839 24.2397C123.121 24.0978 123.424 23.9942 123.721 23.8807C123.765 23.8643 123.83 23.872 123.875 23.8927C124.296 24.0902 124.708 24.2986 124.923 24.7503C125.014 24.9434 125.027 25.1399 124.919 25.3243C124.806 25.5163 124.607 25.5086 124.421 25.4846C124.199 25.4563 123.981 25.3941 123.758 25.3733C123.469 25.3472 123.408 25.3766 123.379 25.6472C123.345 25.9571 123.225 26.1328 122.906 26.1753C122.799 26.1895 122.703 26.279 122.603 26.3335C122.43 26.1131 122.61 25.9396 122.637 25.7334C122.381 25.6025 122.312 25.3843 122.38 25.1093C122.443 24.8562 122.682 24.9445 122.888 24.8474Z" fill="#828282"/>
<path d="M127.088 21.1868C127.073 21.2119 127.04 21.3341 126.985 21.3461C126.881 21.3691 126.752 21.3505 126.656 21.3036C126.557 21.2545 126.469 21.1607 126.407 21.0657C126.349 20.9763 126.274 20.8213 126.311 20.7657C126.37 20.6773 126.516 20.6053 126.627 20.6031C126.814 20.5976 127.085 20.9315 127.088 21.1868Z" fill="#828282"/>
<path d="M123.034 21.8413C123.164 21.8588 123.338 21.8588 123.384 22.0574C123.414 22.1905 123.274 22.3007 123.081 22.2865C122.93 22.2745 122.745 22.2833 122.706 22.0726C122.68 21.9319 122.807 21.8413 123.034 21.8413Z" fill="#828282"/>
<path d="M125.325 22.0523C125.175 22.1561 125.097 22.2534 125.006 22.2643C124.877 22.2807 124.848 22.1594 124.848 22.0446C124.848 21.919 124.904 21.8271 125.031 21.8534C125.114 21.8709 125.183 21.9528 125.325 22.0523Z" fill="#828282"/>
<path d="M123.259 28.7654C123.159 28.6419 123.072 28.5785 123.05 28.4976C123.018 28.3883 123.076 28.2855 123.207 28.2768C123.356 28.267 123.426 28.3653 123.41 28.4998C123.403 28.573 123.335 28.6375 123.259 28.7654Z" fill="#828282"/>
<path d="M124.166 22.9294C124.243 23.0551 124.321 23.1317 124.33 23.2169C124.334 23.2595 124.206 23.359 124.149 23.3514C124.086 23.3426 123.993 23.2421 123.991 23.1787C123.988 23.1142 124.079 23.0453 124.166 22.9294Z" fill="#828282"/>
<path d="M123.662 21.4826C123.785 21.2422 123.893 21.3121 124.033 21.4356C123.919 21.593 123.815 21.5996 123.662 21.4826Z" fill="#828282"/>
<path d="M123.196 37.1798C123.196 37.0289 123.196 36.9481 123.196 36.8398C123.353 36.9404 123.321 37.0235 123.196 37.1798Z" fill="#828282"/>
<path d="M47.7984 39.7314C47.6015 39.6616 47.4078 39.6146 47.2381 39.523C47.1456 39.4728 47.0575 39.3539 47.0347 39.2513C47.0085 39.1345 47.0129 38.9545 47.0847 38.8869C47.15 38.8247 47.3241 38.8607 47.4459 38.8814C47.5591 38.8999 47.6722 38.9447 47.7756 38.9971C47.868 39.0429 47.954 39.1073 48.0312 39.176C48.1553 39.2873 48.1814 39.4455 48.1009 39.5732C48.0508 39.6517 47.9126 39.6758 47.7984 39.7314Z" fill="#828282"/>
<path d="M40.3519 33.2554C40.5227 32.7742 40.5433 32.7611 40.9209 32.8692C40.9948 33.2183 40.6587 33.1605 40.4911 33.2914C40.4976 33.3362 40.4998 33.3864 40.5118 33.4344C40.5999 33.8217 40.4639 33.957 40.0777 33.8708C39.9036 33.8326 39.7807 33.7508 39.7883 33.5544C39.7948 33.3776 39.9395 33.2456 40.131 33.2369C40.205 33.2336 40.2811 33.2489 40.3519 33.2554Z" fill="#828282"/>
<path d="M39.9597 35.2872C39.7258 34.8791 39.8346 34.6336 40.2622 34.5889C40.3666 34.578 40.4819 34.5616 40.5766 34.5954C40.6756 34.6314 40.7963 34.7056 40.8333 34.794C40.8856 34.9206 40.7768 35.0133 40.6549 35.0559C40.433 35.1322 40.211 35.2043 39.9597 35.2872Z" fill="#828282"/>
<path d="M41.7569 33.6466C41.771 33.8007 41.6849 33.8772 41.5269 33.887C41.3699 33.8958 41.2708 33.8346 41.2719 33.6629C41.2729 33.523 41.2893 33.3952 41.4757 33.3864C41.6588 33.3777 41.7503 33.4542 41.7569 33.6466Z" fill="#828282"/>
<path d="M46.1502 19.7842C45.9464 19.723 45.8702 19.641 45.9889 19.5218C46.0173 19.4945 46.0794 19.5022 46.1263 19.4934C46.1339 19.5907 46.1426 19.688 46.1502 19.7842Z" fill="#828282"/>
<path d="M137.457 25.0776C137.138 24.8583 136.621 24.9587 136.477 24.4382C136.836 24.2026 137.266 24.1764 137.442 24.363C137.622 24.5517 137.635 24.7798 137.457 25.0776Z" fill="#828282"/>
<path d="M141.416 19.9933C141.41 20.1832 141.321 20.2912 141.177 20.2835C140.998 20.2737 140.891 20.1188 140.902 19.8831C140.912 19.6802 141.022 19.5416 141.16 19.558C141.305 19.5765 141.422 19.7762 141.416 19.9933Z" fill="#828282"/>
<path d="M137.133 26.0217C137.13 26.1984 137.032 26.289 136.855 26.2802C136.675 26.2715 136.568 26.1526 136.571 25.9671C136.574 25.7871 136.695 25.6256 136.833 25.6158C136.982 25.606 137.138 25.8155 137.133 26.0217Z" fill="#828282"/>
<path d="M144.548 39.0025C144.544 38.7799 144.631 38.6425 144.774 38.6436C144.925 38.6447 145.002 38.7614 145.005 38.9916C145.009 39.212 144.923 39.3298 144.761 39.32C144.552 39.3058 144.579 39.1313 144.548 39.0025Z" fill="#828282"/>
<path d="M141.975 39.5689C141.979 39.7129 141.953 39.8427 141.78 39.8613C141.66 39.8744 141.537 39.7074 141.547 39.5416C141.556 39.3986 141.61 39.2797 141.783 39.2808C141.925 39.284 141.977 39.3648 141.975 39.5689Z" fill="#828282"/>
<path d="M28.6765 32.9533C28.46 32.9784 28.2794 33.0253 28.2402 32.8398C28.2076 32.6849 28.2402 32.5059 28.2826 32.3488C28.2968 32.2964 28.436 32.243 28.51 32.2539C28.5818 32.2637 28.6928 32.3488 28.6982 32.4088C28.7146 32.5834 28.6874 32.7623 28.6765 32.9533Z" fill="#828282"/>
<path d="M30.1925 25.5317C30.187 25.6648 30.2077 25.8274 30.0021 25.8481C29.8356 25.8645 29.692 25.6583 29.692 25.4204C29.692 25.2644 29.7649 25.1684 29.9194 25.1596C30.0804 25.1498 30.187 25.2982 30.1925 25.5317Z" fill="#828282"/>
<path d="M30.9964 22.3828C30.7929 22.4756 30.6863 22.5574 30.5775 22.5596C30.5111 22.5618 30.4045 22.4505 30.3838 22.3719C30.3523 22.2508 30.4981 22.157 30.6613 22.1952C30.7472 22.2159 30.8223 22.2835 30.9964 22.3828Z" fill="#828282"/>
<path d="M29.5145 27.6038C29.5951 27.6912 29.6943 27.748 29.6987 27.8114C29.7096 27.9601 29.5799 28.0235 29.46 28.0027C29.3783 27.9885 29.3118 27.8912 29.2377 27.8322C29.3205 27.7644 29.4044 27.6956 29.5145 27.6038Z" fill="#828282"/>
<path d="M29.2796 23.2264C29.1772 23.3183 29.1107 23.4188 29.0584 23.4123C28.9919 23.4035 28.8906 23.3106 28.8873 23.2494C28.884 23.1882 28.9734 23.0843 29.0388 23.068C29.0889 23.0559 29.1663 23.1488 29.2796 23.2264Z" fill="#828282"/>
<path d="M29.3757 19.8821C29.3146 20.1575 29.2863 20.1619 29.0029 19.94C29.1163 19.8067 29.2416 19.834 29.3757 19.8821Z" fill="#828282"/>
<path d="M88.5988 34.8933C88.4095 34.8912 88.2506 34.8235 88.1625 34.6304C88.0787 34.4471 88.0733 34.2779 88.231 34.1241C88.3159 34.0423 88.3768 33.9342 88.4649 33.8579C88.7446 33.6189 89.0046 33.6876 89.0905 34.0368C89.1286 34.195 89.1819 34.2932 89.331 34.362C89.3973 34.3925 89.48 34.5158 89.4648 34.5693C89.4398 34.6522 89.3473 34.7504 89.2646 34.7733C89.0524 34.8333 88.8283 34.8552 88.5988 34.8933Z" fill="#828282"/>
<path d="M89.3845 27.0484C89.3899 26.8313 89.4791 26.7211 89.6467 26.7255C89.8262 26.7298 89.9284 26.8629 89.9241 27.0877C89.9197 27.3005 89.7881 27.4641 89.6369 27.4456C89.4813 27.4259 89.379 27.2655 89.3845 27.0484Z" fill="#828282"/>
<path d="M85.4372 40.5791C85.2762 40.5791 85.151 40.5791 85.0074 40.5791C84.9345 40.2801 84.9672 40.0237 85.1641 39.7771C85.5275 39.9429 85.4622 40.2397 85.4372 40.5791Z" fill="#828282"/>
<path d="M84.8349 38.6521C84.7827 39.0482 84.6152 39.1715 84.39 39.0275C84.3269 38.9871 84.2746 38.8824 84.2725 38.806C84.2714 38.7558 84.3628 38.6707 84.4237 38.6587C84.5466 38.6358 84.6761 38.6521 84.8349 38.6521Z" fill="#828282"/>
<path d="M89.4913 23.0361C89.2901 22.8113 89.2542 22.6487 89.3836 22.5429C89.4794 22.4643 89.6698 22.4883 89.735 22.5876C89.8243 22.724 89.7427 22.8746 89.4913 23.0361Z" fill="#828282"/>
<path d="M115.94 33.1236C116.009 33.1236 116.087 33.1203 116.164 33.1247C116.327 33.1323 116.397 33.2305 116.399 33.3855C116.401 33.5338 116.404 33.6931 116.251 33.7695C116.092 33.8481 115.972 33.7379 115.869 33.6353C115.797 33.5633 115.742 33.4749 115.652 33.3615C115.596 33.4684 115.556 33.5448 115.516 33.6211C115.437 33.7761 115.304 33.8459 115.137 33.871C114.971 33.8961 114.811 33.9005 114.719 33.7335C114.628 33.571 114.757 33.4651 114.844 33.3527C114.933 33.2382 115.033 33.1312 115.109 33.008C115.326 32.649 115.627 32.6523 115.854 33.0221C115.874 33.0538 115.905 33.0811 115.94 33.1236Z" fill="#828282"/>
<path d="M116.105 35.4115C116.059 35.4638 116.016 35.5555 115.948 35.5795C115.909 35.5937 115.787 35.5064 115.78 35.4529C115.739 35.1725 115.592 35.0994 115.331 35.1616C115.246 35.1812 115.148 35.1376 115.056 35.1354C114.919 35.1321 114.757 35.1332 114.744 34.9663C114.733 34.8343 114.781 34.6826 114.846 34.5637C114.892 34.4796 115.008 34.4316 115.097 34.3749C115.153 34.34 115.221 34.3269 115.277 34.292C115.771 33.9821 115.782 33.9897 115.882 34.5724C115.916 34.7655 115.98 34.9532 116.03 35.1431C116.052 35.2205 116.072 35.2958 116.105 35.4115Z" fill="#828282"/>
<path d="M116.558 21.2549C116.586 21.0331 116.702 20.9762 116.838 21.0014C116.906 21.0134 116.958 21.1085 117.017 21.1664C116.961 21.209 116.911 21.2779 116.85 21.2888C116.767 21.3019 116.678 21.2713 116.558 21.2549Z" fill="#828282"/>
<path d="M114.948 29.5786C115.005 29.6671 115.077 29.7327 115.067 29.7786C115.055 29.8354 114.972 29.8759 114.921 29.9239C114.883 29.8617 114.825 29.8037 114.814 29.7371C114.808 29.7021 114.882 29.6529 114.948 29.5786Z" fill="#828282"/>
</svg>