<svg xmlns="http://www.w3.org/2000/svg" width="160" height="60" viewBox="0 0 160 60" fill="none">
<path d="M67.8169 25.4156C68.3325 25.4832 68.8955 25.4842 69.4091 25.643C70.0738 25.8488 70.7482 26.096 71.2165 26.6738C71.4666 26.9821 71.701 26.9526 71.9724 26.6096C72.093 26.4712 72.2298 26.3477 72.3799 26.242C72.6138 26.0619 72.8398 25.8587 73.1013 25.7319C73.3649 25.602 73.586 25.3997 73.7388 25.1487C73.8005 25.0544 73.9361 25.0115 74.0319 24.9355C74.2727 24.7431 74.5223 24.558 74.7439 24.3434C74.955 24.1396 75.0976 23.8406 75.3359 23.698C75.6009 23.5411 75.8585 23.4124 75.9986 23.1252C76.4357 23.0433 76.4515 22.5938 76.6844 22.3333C76.978 22.0047 77.2479 21.6553 77.5326 21.3188C77.7117 21.1067 77.9007 20.9034 78.0803 20.6917C78.1257 20.6439 78.1569 20.5845 78.1706 20.52C78.2165 20.1504 78.4321 19.8736 78.6462 19.5899C78.7293 19.4686 78.7981 19.3382 78.8515 19.2011C78.9995 18.871 79.1174 18.5286 79.2797 18.2069C79.5886 17.5956 79.5264 16.9117 79.6873 16.2718C79.7643 15.9644 79.8037 15.6476 79.8516 15.3343C79.8723 15.1991 79.8723 15.0609 79.8797 14.9238C79.8935 14.6514 79.9177 14.381 79.9162 14.1067C79.9133 13.675 79.9034 13.2427 79.8753 12.812C79.85 12.5616 79.8115 12.3128 79.7598 12.0665C79.6903 11.6717 79.6769 11.2691 79.3992 10.9232C79.2511 10.7367 79.2344 10.4496 79.1209 10.227C78.9717 9.9192 78.7942 9.626 78.5905 9.35123C78.4597 9.18298 78.2451 9.07691 78.0665 8.94863C77.7156 8.69798 77.3688 8.43993 77.0051 8.20852C76.9035 8.14388 76.7491 8.16214 76.6188 8.14487C76.5695 8.13796 76.5152 8.15079 76.4757 8.13056C76.2527 8.01707 76.04 7.88038 75.8111 7.78269C75.6201 7.70128 75.4085 7.6105 75.2096 7.6179C74.8968 7.62925 74.6363 7.51231 74.3605 7.41116C74.2456 7.37147 74.126 7.34693 74.0047 7.33814C73.4225 7.28436 72.8334 7.27301 72.2591 7.17383C71.9073 7.11364 71.5984 7.20146 71.2722 7.25623C71.0749 7.28978 70.8701 7.3031 70.6688 7.32826C70.4675 7.35343 70.2687 7.37762 70.0703 7.40871C69.8463 7.44571 69.6262 7.49654 69.4003 7.53403C69.1743 7.57153 68.9473 7.60015 68.7208 7.63272C68.4458 7.67087 68.1709 7.70836 67.8959 7.7452C67.8465 7.75162 67.7863 7.74028 67.7513 7.76544C67.2579 8.11428 66.6322 8.01214 66.1018 8.24355C65.5403 8.48778 64.967 8.70833 64.3976 8.93037C64.2239 8.99846 64.034 9.0251 63.8608 9.09468C63.6057 9.1973 63.358 9.31967 63.1093 9.44006C62.7699 9.60091 62.4437 9.7879 62.0475 9.7953C61.9192 9.79777 61.7885 9.89398 61.6671 9.95862C61.3365 10.1392 61.0138 10.3346 60.6803 10.5088C60.5525 10.5759 60.3946 10.5853 60.2663 10.6509C59.9905 10.793 59.7236 10.9504 59.4556 11.1093C59.1635 11.2834 58.8937 11.4773 58.5611 11.5997C58.2369 11.7191 57.9739 12.0043 57.6813 12.212C57.5111 12.3324 57.336 12.4444 57.1603 12.5574C56.9847 12.6704 56.7991 12.7972 56.6176 12.9151C56.0842 13.2605 55.5454 13.6014 55.0179 13.9572C54.8092 14.0978 54.6262 14.2774 54.4258 14.4333C54.2911 14.5384 54.1619 14.6741 54.0069 14.7245C53.7489 14.8088 53.5856 14.9761 53.4065 15.1646C53.1849 15.3984 52.9047 15.5766 52.6511 15.7798C52.4537 15.9382 52.2484 16.0902 52.059 16.2604C51.6717 16.6122 51.2972 16.9773 50.9123 17.3316C50.4914 17.7194 50.0572 18.0939 49.6433 18.4891C49.4035 18.7181 49.1957 18.9796 48.9653 19.2189C48.875 19.3126 48.7586 19.3802 48.6624 19.469C48.5321 19.5894 48.3708 19.698 48.2923 19.848C48.0456 20.3138 47.6218 20.6068 47.2808 20.9799C47.0183 21.267 46.7603 21.5581 46.5022 21.8487C46.222 22.1635 45.9378 22.4759 45.6634 22.7971C45.1764 23.3709 44.6125 23.9018 44.238 24.5423C43.8817 25.1506 43.4115 25.6583 43.0272 26.2361C42.4287 27.1341 41.808 28.0173 41.2016 28.9094C41.1218 29.0332 41.0484 29.161 40.9815 29.2923C40.869 29.499 40.7575 29.7067 40.6514 29.9169C40.5744 30.0694 40.5034 30.2253 40.4363 30.3817C40.3968 30.4715 40.3914 30.5894 40.3287 30.6541C39.9365 31.0567 39.8299 31.6133 39.5506 32.0776C39.2666 32.535 39.0671 33.0397 38.9615 33.5677C38.8589 34.1055 38.589 34.6117 38.3921 35.1317C38.3319 35.2906 38.2678 35.4485 38.2081 35.6079C38.1656 35.7219 38.1385 35.8433 38.0857 35.9533C37.9692 36.1906 37.8701 36.4136 37.9461 36.7013C37.9885 36.8616 37.9308 37.0615 37.8785 37.2317C37.7862 37.5341 37.6619 37.8238 37.5563 38.1248C37.5367 38.1864 37.5278 38.251 37.5301 38.3157C37.5301 38.7825 37.4971 39.2325 37.3327 39.6874C37.2163 40.0115 37.2578 40.3954 37.2439 40.7536C37.2326 41.0551 37.2336 41.3581 37.2439 41.6595C37.2582 42.001 37.2785 42.3434 37.3204 42.6824C37.3663 43.0554 37.4314 43.4259 37.5045 43.7945C37.5454 44.0022 37.617 44.204 37.6781 44.4078C37.8035 44.8219 37.9301 45.2354 38.0581 45.6482C38.0772 45.7275 38.1073 45.8037 38.1474 45.8747C38.623 46.5891 39.0745 47.3224 39.5935 48.0042C39.8605 48.3556 40.2429 48.6225 40.5863 48.9116C40.7269 49.03 40.91 49.0972 41.0614 49.2077C41.2395 49.3355 41.3994 49.4889 41.576 49.6192C41.7377 49.7397 41.9068 49.8499 42.0823 49.9493C42.288 50.0637 42.5017 50.1649 42.7168 50.2611C42.8934 50.34 43.076 50.4091 43.2596 50.4713C43.6094 50.5946 43.9607 50.7121 44.3115 50.832C44.4432 50.8774 44.571 50.9425 44.7062 50.9657C45.5756 51.1137 46.4331 51.3273 47.3302 51.3002C47.6045 51.2918 47.8813 51.4078 48.1596 51.4482C48.4719 51.4916 48.7877 51.5139 49.102 51.5425C49.1415 51.5459 49.1834 51.5252 49.2224 51.5301C49.5401 51.5671 49.8564 51.6288 50.1747 51.6397C50.3903 51.6481 50.6098 51.5938 50.826 51.5588C51.3889 51.4685 51.9583 51.4014 52.5109 51.2686C52.785 51.2089 53.0657 51.186 53.3458 51.2006C53.6912 51.2075 54.0449 51.0629 54.3893 50.9657C55.1689 50.7451 55.945 50.5137 56.7227 50.2868C56.8102 50.2669 56.8963 50.241 56.9802 50.2093C57.3488 50.042 57.71 49.857 58.083 49.7016C58.3144 49.6054 58.5655 49.559 58.8029 49.4761C59.3012 49.3019 59.7591 49.0103 60.3043 48.9664C60.4039 48.9561 60.4971 48.9125 60.5688 48.8426C60.997 48.3886 61.6256 48.3057 62.1304 47.9899C62.4797 47.7714 62.8883 47.6495 63.2524 47.4516C63.7976 47.1556 64.3147 46.8102 64.8663 46.5265C65.3716 46.2674 65.8038 45.9112 66.2577 45.589C66.3762 45.5046 66.5444 45.4903 66.6905 45.444C66.7595 45.4222 66.8528 45.4267 66.8957 45.3818C67.3196 44.9377 67.85 44.6535 68.3695 44.3397C68.8674 44.0392 69.3011 43.6332 69.7629 43.2725C69.8083 43.2374 69.8443 43.1851 69.8942 43.1619C70.6634 42.8077 71.214 42.1697 71.8594 41.6556C71.9734 41.5648 72.1135 41.5076 72.2408 41.4345C72.5517 41.2544 72.8585 41.0832 73.0895 40.7827C73.308 40.4985 73.6085 40.279 73.8429 40.0051C74.287 39.4875 74.8189 39.8601 74.9708 40.2898C75.1322 40.7452 75.0966 40.7956 74.7202 41.1227C74.3255 41.4681 73.9618 41.85 73.5602 42.1865C73.1279 42.5477 72.6656 42.8718 72.2201 43.2172C71.8643 43.4925 71.517 43.7787 71.1607 44.0535C70.8696 44.278 70.5686 44.4872 70.278 44.7137C70.091 44.8617 69.9326 45.0468 69.7353 45.1755C69.2769 45.4716 68.7978 45.737 68.3375 46.0341C67.9126 46.3094 67.5115 46.6207 67.0867 46.8951C66.8109 47.0737 66.4946 47.1911 66.2252 47.3776C65.5188 47.8686 64.7627 48.2837 63.9693 48.6161C63.7552 48.7059 63.5746 48.8796 63.3772 49.0039C63.2129 49.1079 63.0415 49.2 62.8641 49.2797C62.6248 49.3838 62.3667 49.448 62.1339 49.5634C61.5842 49.8353 61.0484 50.1387 60.4982 50.4076C60.2224 50.5423 59.8963 50.5862 59.6412 50.7481C59.1626 51.0515 58.6366 51.1606 58.0978 51.2652C57.9008 51.312 57.7126 51.3905 57.5407 51.4976C57.0927 51.7551 56.6245 51.9175 56.1015 51.9461C55.8617 51.9589 55.6258 52.0571 55.3895 52.1208C54.8926 52.255 54.4027 52.4074 53.8994 52.5219C53.5505 52.6018 53.1899 52.6329 52.8346 52.6832C52.5213 52.7271 52.2085 52.7789 51.8937 52.8066C51.2587 52.8628 50.6232 52.9309 49.9862 52.9477C49.0551 52.9724 48.131 52.8776 47.2038 52.772C46.6035 52.7086 46.0094 52.5959 45.4276 52.435C45.0225 52.3201 44.5888 52.3097 44.1822 52.1952C43.2763 51.9387 42.3596 51.6964 41.5558 51.1808C41.1912 50.9474 40.8083 50.7476 40.4412 50.53C39.8817 50.1984 39.333 49.8072 38.9812 49.2091C38.8682 49.0167 38.6334 48.8968 38.4553 48.7419C38.4039 48.7016 38.3576 48.6554 38.3171 48.6042C37.9465 48.0704 37.5577 47.5498 37.2064 47.0095C37.0584 46.7801 37.0056 46.491 36.8793 46.2443C36.3972 45.3038 36.3139 44.2529 36.0405 43.2552C35.9566 42.9513 35.9482 42.6256 35.9226 42.3084C35.9122 42.1811 35.9522 42.0503 35.9621 41.92C35.9754 41.7345 36.0223 41.5401 35.9843 41.3645C35.8454 40.7587 35.8694 40.1269 36.0538 39.5334C36.189 39.0963 36.1841 38.6177 36.269 38.1623C36.3795 37.5702 36.5157 36.9781 36.6435 36.3899C36.6721 36.2209 36.712 36.0539 36.7629 35.8901C36.9528 35.3587 37.1576 34.8328 37.352 34.3028C37.4196 34.1188 37.4645 33.9259 37.5306 33.7408C37.766 33.0797 37.9722 32.4052 38.2554 31.7647C38.4844 31.2462 38.8159 30.7735 39.0853 30.2717C39.2003 30.0576 39.2447 29.8044 39.3685 29.5977C39.7883 28.8971 40.2203 28.2038 40.6647 27.518C41.0052 26.99 41.3614 26.471 41.7226 25.9564C41.9999 25.5616 42.3033 25.1842 42.5796 24.788C42.7277 24.5748 42.8204 24.3217 42.9768 24.1154C43.561 23.3452 44.1457 22.5755 44.8464 21.9006C45.0363 21.7175 45.1241 21.4313 45.3057 21.2355C45.7952 20.708 46.3123 20.2062 46.8131 19.6886C46.9833 19.513 47.1323 19.3166 47.3001 19.138C47.7974 18.6066 48.28 18.0599 48.8035 17.5556C49.4513 16.932 50.1293 16.3394 50.8037 15.7443C51.498 15.132 52.1966 14.5246 52.9081 13.9325C53.1706 13.7134 53.4765 13.5467 53.7607 13.3538C54.5801 12.7972 55.3993 12.24 56.2184 11.6821C56.7518 11.3185 57.2718 10.9331 57.8215 10.5966C58.1437 10.3992 58.5216 10.2946 58.8576 10.113C59.2667 9.89151 59.6471 9.61671 60.0561 9.39665C60.4079 9.20767 60.7849 9.06457 61.149 8.89779C61.3498 8.80602 61.5437 8.69648 61.7475 8.61409C62.3001 8.39156 62.8532 8.17004 63.4128 7.96577C64.3192 7.63518 65.2285 7.31151 66.1423 7.00165C66.3949 6.91629 66.6732 6.90789 66.9317 6.82944C67.1903 6.75098 67.4449 6.62271 67.7029 6.52255C67.961 6.42239 68.2319 6.34738 68.5195 6.42633C68.6008 6.44437 68.685 6.44437 68.7662 6.42633C69.4239 6.30248 70.0812 6.17369 70.7399 6.04837C70.8198 6.03307 70.9165 5.99903 70.9816 6.02864C71.3201 6.18011 71.6418 5.99804 71.9684 6.00002C72.3671 6.00298 72.7658 6.04937 73.164 6.07453C73.3436 6.08588 73.5237 6.10511 73.7033 6.10067C74.2106 6.08498 74.7154 6.17838 75.1835 6.37453C75.283 6.41394 75.3893 6.43355 75.4963 6.43225C76.0469 6.43225 76.528 6.62961 76.9982 6.9C77.2553 7.04802 77.5484 7.14029 77.837 7.23009C78.325 7.38304 78.6526 7.73286 78.9773 8.097C79.0947 8.22874 79.2447 8.33137 79.372 8.45226C79.557 8.62495 79.7588 8.7858 79.9148 8.98168C80.382 9.56538 80.6055 10.2764 80.8601 10.9607C80.9924 11.3125 81.0165 11.7092 81.0629 12.0887C81.1438 12.7513 81.2198 13.4154 81.2657 14.081C81.284 14.3445 81.2164 14.6144 81.1882 14.8813C81.1804 14.9544 81.1389 15.0343 81.1596 15.0974C81.2667 15.4428 81.1419 15.7576 81.0723 16.0843C80.9968 16.4425 80.9983 16.8185 80.908 17.1698C80.7353 17.8433 80.5389 18.5123 80.3159 19.171C80.2172 19.4621 80.0342 19.7251 79.8817 19.9965C79.4934 20.6873 79.1115 21.3869 78.7034 22.0688C78.5584 22.3116 78.3581 22.5237 78.1637 22.7339C77.7892 23.142 77.4009 23.5367 77.0219 23.9408C76.8764 24.0962 76.7496 24.2689 76.5996 24.4199C76.382 24.639 76.1555 24.8487 75.9251 25.0564C75.6537 25.3031 75.3848 25.5498 75.0996 25.7817C74.5075 26.2593 73.9154 26.7364 73.3041 27.1909C72.9526 27.4445 72.5867 27.6776 72.2082 27.889C71.9936 28.0129 71.9235 28.1796 71.8668 28.414C71.6887 29.1541 71.6083 29.9362 70.9634 30.4863C70.7867 30.6343 70.7004 30.889 70.5563 31.0824C70.4606 31.2111 70.317 31.3054 70.2267 31.4371C69.7047 32.2014 68.9542 32.7323 68.2832 33.3417C67.8964 33.6831 67.484 33.9944 67.0497 34.2727C66.8084 34.4316 66.5188 34.5194 66.2444 34.625C66.0535 34.6997 65.8564 34.7573 65.6553 34.7972C65.4021 34.8516 65.1444 34.8826 64.8856 34.89C64.7649 34.8955 64.6457 34.8623 64.5452 34.7953C64.4448 34.7283 64.3683 34.631 64.327 34.5175C64.2805 34.4214 64.2253 34.3297 64.1622 34.2436C63.8771 33.8035 63.8968 33.3639 64.1958 32.9213C64.3034 32.7614 64.3483 32.5601 64.4509 32.3968C64.5712 32.1963 64.7139 32.0101 64.8762 31.8417C65.121 31.6054 65.3786 31.3827 65.6479 31.1746C65.9933 30.9008 66.3515 30.6418 66.7043 30.3768C66.7368 30.3521 66.7832 30.3359 66.803 30.3038C67.247 29.5365 68.1455 29.3169 68.7273 28.6938C69.1072 28.2872 69.6687 28.0524 70.1463 27.7351C70.214 27.6818 70.2769 27.6227 70.3343 27.5585C70.2696 27.4928 70.2159 27.4075 70.1369 27.3641C69.6553 27.0956 69.121 27.0044 68.5837 26.9471C67.9615 26.8805 67.3368 26.8371 66.7122 26.7951C66.5728 26.7847 66.4327 26.8015 66.2997 26.8445C66.1711 26.8913 66.0323 26.9026 65.8978 26.8773C65.7633 26.8519 65.6381 26.7908 65.5354 26.7004C65.157 26.3915 64.8407 26.0338 64.9305 25.4886C65.0445 24.7978 65.4732 24.5738 66.1196 24.4934C66.2118 24.4811 66.3012 24.4527 66.3836 24.4095C66.6214 24.2862 66.8528 24.152 67.0877 24.0237C67.2589 23.9299 67.4395 23.8505 67.6018 23.7434C67.9284 23.5278 68.2516 23.3058 68.5654 23.0714C68.9049 22.8178 69.2626 22.578 69.5572 22.2755C69.9208 21.9035 70.2282 21.4762 70.5573 21.0711C70.6082 21.0066 70.652 20.9368 70.688 20.8629C70.8183 20.6054 70.7408 20.4633 70.4527 20.4628C69.6751 20.4628 68.895 20.4159 68.1297 20.6271C67.9057 20.6888 67.6595 20.6695 67.4355 20.7312C67.1217 20.8185 66.8227 20.9596 66.5104 21.0534C66.2152 21.1411 65.9154 21.2122 65.6124 21.2665C65.2038 21.3405 64.8229 21.4777 64.4914 21.7254C64.2994 21.868 64.1593 21.8142 64.0404 21.6307C63.9555 21.5004 63.8662 21.3726 63.7828 21.2414C63.6086 20.9655 63.7226 20.7632 64.0152 20.6276C64.3754 20.4603 64.702 20.22 65.0415 20.0093C65.1303 19.9541 65.2122 19.8411 65.2991 19.8391C65.6874 19.8282 65.9854 19.589 66.3298 19.4715C66.7137 19.3403 67.0931 19.1878 67.4868 19.0965C67.6743 19.0531 67.8909 19.1533 68.0922 19.1459C68.2659 19.1385 68.4376 19.0472 68.6093 19.0309C68.8812 19.0087 69.1555 19.0309 69.4284 19.0151C69.6692 19.0028 69.908 18.9604 70.1488 18.9441C70.3057 18.9337 70.4719 18.9149 70.6195 18.9549C70.9574 19.0467 71.3063 19.133 71.6122 19.2954C71.8737 19.434 72.225 19.5707 72.2398 19.9314C72.2546 20.292 72.3424 20.6305 72.3933 20.9794C72.41 21.0963 72.2837 21.2838 72.1702 21.3583C72.0741 21.4191 71.993 21.501 71.9332 21.5978C71.8734 21.6946 71.8363 21.8037 71.8249 21.9168C71.8189 21.9573 71.8249 22.019 71.8002 22.0338C71.4972 22.2311 71.3808 22.5849 71.1346 22.8163C70.5849 23.3319 69.981 23.7898 69.4348 24.3089C68.9419 24.7682 68.3241 25.0105 67.8169 25.4156ZM70.3333 29.3244L70.279 29.2498C70.2115 29.2764 70.1456 29.3069 70.0817 29.3411C69.5702 29.6623 69.0868 30.0261 68.6365 30.4286C68.3488 30.6802 68.0172 30.8806 67.7227 31.1248C67.4942 31.3148 67.2944 31.5393 67.0773 31.7435C66.5602 32.229 66.0411 32.7101 65.5255 33.2001C65.4792 33.2445 65.4762 33.3363 65.4555 33.4063C65.5329 33.4147 65.6158 33.4448 65.6859 33.4265C65.7698 33.4043 65.8443 33.3431 65.9203 33.2948C66.1961 33.1186 66.4679 32.9356 66.7467 32.7654C67.2036 32.4861 67.7222 32.2942 68.0419 31.8249C68.0764 31.7756 68.1436 31.745 68.1934 31.7031C68.4297 31.5057 68.6937 31.334 68.895 31.106C69.3159 30.6299 69.7037 30.1252 70.1034 29.6308C70.1838 29.5316 70.2558 29.4265 70.3318 29.3244H70.3333Z" fill="#828282"/>
<path d="M84.1571 31.4351C85.3522 31.4351 86.2116 32.1345 86.4148 33.1806L85.5645 33.4816C85.4507 32.7987 84.9248 32.3377 84.1571 32.3377C83.1412 32.3377 82.4565 33.1345 82.4565 34.1065C82.4565 35.2448 83.1565 36.0256 84.2174 36.0256C85.0381 36.0256 85.7074 35.4986 85.7905 34.6859L86.7085 34.8891C86.573 36.0842 85.5343 36.9282 84.2402 36.9282C82.5897 36.9282 81.5158 35.7695 81.5158 34.1964C81.5135 32.6387 82.5521 31.4351 84.1571 31.4351Z" fill="#828282"/>
<path d="M88.1979 33.157V33.4803C88.4085 33.202 88.717 33.0364 89.1313 33.0364C89.7932 33.0364 90.2297 33.4729 90.2126 34.5417L89.2793 34.6937C89.2846 34.6411 89.2871 34.5883 89.2867 34.5355C89.2867 34.1069 89.1159 33.9037 88.8052 33.9037C88.4592 33.9037 88.1956 34.1968 88.1956 34.8291V36.816H87.2549V33.157H88.1979Z" fill="#828282"/>
<path d="M92.3811 33.0432C93.397 33.0432 94.0447 33.7831 94.0447 34.8195V35.2406H91.4483C91.5536 35.783 91.9224 36.0988 92.4341 36.0988C92.8626 36.0988 93.2018 35.8353 93.2769 35.429L94.1346 35.5872C93.9992 36.384 93.2917 36.9264 92.4187 36.9264C91.2975 36.9264 90.5599 36.0988 90.5599 34.9913C90.5599 33.8838 91.2827 33.0432 92.3811 33.0432ZM92.3811 33.84C91.9372 33.84 91.606 34.1035 91.4779 34.5172H93.2166C93.1939 34.1513 92.8706 33.8428 92.3811 33.8428V33.84Z" fill="#828282"/>
<path d="M96.0388 34.5731L96.814 34.4377V34.3238C96.814 34.0529 96.5954 33.8275 96.1743 33.8275C95.723 33.8275 95.4817 34.1058 95.5118 34.527L94.6468 34.4593C94.6012 33.5265 95.324 33.0444 96.1515 33.0444C97.1674 33.0444 97.6944 33.5789 97.6944 34.3614V36.8149H96.8214V36.4239C96.6785 36.672 96.3627 36.9276 95.8806 36.9276C95.0377 36.9276 94.6388 36.3556 94.6388 35.8366C94.6388 35.0996 95.1282 34.7307 96.0388 34.5731ZM96.0616 36.0932C96.4981 36.0932 96.814 35.7768 96.814 35.2879V35.1525L96.1669 35.2663C95.8254 35.3266 95.5272 35.4319 95.5272 35.7182C95.5272 35.9424 95.7378 36.0932 96.0616 36.0932Z" fill="#828282"/>
<path d="M98.7935 33.1574V32.1045H99.7343V33.1574H101.472V33.9701H99.7343V35.5505C99.7343 35.8966 99.93 36.077 100.239 36.077C100.562 36.077 100.765 35.8289 100.727 35.3696L101.623 35.4601C101.668 36.3633 101.066 36.9273 100.276 36.9273C99.3427 36.9273 98.7963 36.3855 98.7963 35.513V33.9712H98.1942V33.1574H98.7935Z" fill="#828282"/>
<path d="M102.684 31.4649C102.763 31.4624 102.841 31.4758 102.914 31.5042C102.988 31.5326 103.055 31.5755 103.111 31.6302C103.167 31.685 103.212 31.7505 103.243 31.823C103.274 31.8954 103.29 31.9733 103.29 32.052C103.29 32.1306 103.274 32.2085 103.243 32.2809C103.212 32.3534 103.167 32.4189 103.111 32.4737C103.055 32.5284 102.988 32.5713 102.914 32.5997C102.841 32.6281 102.763 32.6415 102.684 32.639C102.531 32.6343 102.387 32.5703 102.28 32.4607C102.174 32.3512 102.115 32.2046 102.115 32.052C102.115 31.8994 102.174 31.7527 102.28 31.6432C102.387 31.5336 102.531 31.4696 102.684 31.4649ZM103.166 33.1575V36.8147H102.225V33.1575H103.166Z" fill="#828282"/>
<path d="M104.889 33.157V33.5031C105.138 33.2185 105.492 33.0364 105.958 33.0364C106.763 33.0364 107.23 33.5936 107.23 34.474V36.8142H106.289V34.6482C106.289 34.1439 106.078 33.8804 105.649 33.8804C105.19 33.8804 104.889 34.2344 104.889 34.8286V36.8154H103.949V33.157H104.889Z" fill="#828282"/>
<path d="M109.533 33.068C109.728 33.0631 109.923 33.101 110.102 33.1789C110.281 33.2569 110.442 33.3731 110.572 33.5193V33.1574H111.512V36.6945C111.512 37.8379 110.745 38.621 109.623 38.621C108.592 38.621 107.847 38.0035 107.877 37.0553L108.78 36.9273C108.773 37.4093 109.065 37.8003 109.631 37.8003C110.197 37.8003 110.572 37.4093 110.572 36.7321V36.2802C110.323 36.5511 109.977 36.7167 109.533 36.7167C108.539 36.7093 107.832 35.9199 107.832 34.9029C107.832 33.8859 108.539 33.068 109.533 33.068ZM109.676 35.8374C110.21 35.8374 110.572 35.4458 110.572 34.904C110.572 34.3622 110.21 33.9712 109.676 33.9712C109.141 33.9712 108.773 34.3696 108.773 34.904C108.773 35.4384 109.134 35.8374 109.676 35.8374Z" fill="#828282"/>
<path d="M84.1571 39.5007C85.3522 39.5007 86.2116 40.2008 86.4148 41.2468L85.5645 41.5479C85.4507 40.8649 84.9248 40.4039 84.1571 40.4039C83.1412 40.4039 82.4565 41.2007 82.4565 42.1722C82.4565 43.3105 83.1565 44.0913 84.2174 44.0913C85.0381 44.0913 85.7074 43.5649 85.7905 42.7521L86.7085 42.9553C86.573 44.1505 85.5343 44.9945 84.2402 44.9945C82.5897 44.9945 81.5158 43.8358 81.5158 42.2627C81.5135 40.705 82.5521 39.5007 84.1571 39.5007Z" fill="#828282"/>
<path d="M89.5889 44.8812V44.5346C89.3408 44.8191 88.9868 45.0012 88.5201 45.0012C87.7153 45.0012 87.2487 44.4446 87.2487 43.5642V41.2234H88.1894V43.3912C88.1894 43.8954 88.4 44.1584 88.8291 44.1584C89.2878 44.1584 89.5889 43.805 89.5889 43.2102V41.2234H90.5314V44.8812H89.5889Z" fill="#828282"/>
<path d="M92.253 39.6139V44.8811H91.3123V39.6133L92.253 39.6139Z" fill="#828282"/>
<path d="M93.4874 39.5313C93.566 39.5288 93.6443 39.5422 93.7177 39.5706C93.7911 39.599 93.858 39.6419 93.9145 39.6966C93.971 39.7514 94.0159 39.8169 94.0465 39.8894C94.0772 39.9618 94.093 40.0397 94.093 40.1183C94.093 40.197 94.0772 40.2749 94.0465 40.3473C94.0159 40.4198 93.971 40.4853 93.9145 40.5401C93.858 40.5948 93.7911 40.6377 93.7177 40.6661C93.6443 40.6945 93.566 40.7078 93.4874 40.7054C93.3349 40.7006 93.1902 40.6367 93.084 40.5271C92.9777 40.4176 92.9183 40.2709 92.9183 40.1183C92.9183 39.9657 92.9777 39.8191 93.084 39.7096C93.1902 39.6 93.3349 39.536 93.4874 39.5313ZM93.9689 41.2244V44.8811H93.0287V41.2233L93.9689 41.2244Z" fill="#828282"/>
<path d="M95.693 41.2241V41.5707C95.9411 41.2861 96.2945 41.104 96.7612 41.104C97.5665 41.104 98.0332 41.6606 98.0332 42.541V44.8813H97.0924V42.7135C97.0924 42.2098 96.8819 41.9463 96.4527 41.9463C95.994 41.9463 95.693 42.2997 95.693 42.8945V44.8813H94.7522V41.2235L95.693 41.2241Z" fill="#828282"/>
<path d="M100.103 42.639L100.878 42.5036V42.3897C100.878 42.1188 100.66 41.8929 100.238 41.8929C99.7865 41.8929 99.5458 42.1712 99.5759 42.5929L98.7103 42.5252C98.6653 41.5918 99.3875 41.1104 100.216 41.1104C101.232 41.1104 101.759 41.6447 101.759 42.4273V44.8814H100.885V44.4898C100.743 44.7385 100.426 44.9941 99.9447 44.9941C99.1018 44.9941 98.7029 44.4221 98.7029 43.903C98.7029 43.166 99.1923 42.7972 100.103 42.639ZM100.125 44.1591C100.562 44.1591 100.878 43.8433 100.878 43.3544V43.2184L100.23 43.3322C99.8889 43.3925 99.5907 43.4978 99.5907 43.7835C99.5907 44.0089 99.8019 44.1591 100.125 44.1591Z" fill="#828282"/>
<path d="M103.475 41.2241V41.5479C103.685 41.2696 103.994 41.104 104.408 41.104C105.07 41.104 105.506 41.5405 105.489 42.6088L104.556 42.7596C104.561 42.707 104.564 42.6542 104.563 42.6014C104.563 42.1723 104.393 41.9691 104.082 41.9691C103.736 41.9691 103.472 42.2628 103.472 42.8951V44.8813H102.531V41.2235L103.475 41.2241Z" fill="#828282"/>
<path d="M107.441 45.8601C107.99 45.8601 108.359 45.4685 108.359 44.8356V44.3467C108.111 44.6404 107.749 44.8208 107.277 44.8208C106.472 44.8208 105.998 44.2642 105.998 43.3832L105.983 41.2234H106.922V43.2028C106.922 43.715 107.141 43.978 107.585 43.978C108.051 43.978 108.36 43.624 108.36 43.0298V41.2234H109.301V44.7981C109.301 45.8897 108.556 46.687 107.442 46.687C106.441 46.687 105.711 46.0928 105.763 45.1447L106.651 45.024C106.628 45.5738 106.974 45.8601 107.441 45.8601Z" fill="#828282"/>
<path d="M84.1571 47.5669C85.3522 47.5669 86.2116 48.2664 86.4148 49.313L85.5645 49.6135C85.4507 48.9305 84.9248 48.4695 84.1571 48.4695C83.1412 48.4695 82.4565 49.2663 82.4565 50.2384C82.4565 51.3766 83.1565 52.1575 84.2174 52.1575C85.0381 52.1575 85.7074 51.6305 85.7905 50.8177L86.7085 51.0209C86.573 52.2161 85.5343 53.0607 84.2402 53.0607C82.5897 53.0607 81.5158 51.9014 81.5158 50.3289C81.5135 48.7706 82.5521 47.5669 84.1571 47.5669Z" fill="#828282"/>
<path d="M89.0322 49.177C90.1704 49.177 90.9359 50.0352 90.9359 51.1263C90.9359 52.2173 90.1682 53.0613 89.0322 53.0613C87.8962 53.0613 87.1205 52.2184 87.1205 51.1263C87.1205 50.0341 87.8956 49.177 89.0322 49.177ZM89.0322 52.1575C89.5888 52.1575 89.9951 51.721 89.9951 51.1263C89.9951 50.5315 89.5888 50.0802 89.0322 50.0802C88.4756 50.0802 88.0612 50.5321 88.0612 51.1263C88.0612 51.7204 88.4676 52.1575 89.0322 52.1575Z" fill="#828282"/>
<path d="M92.4488 49.2904V49.6814C92.6446 49.3655 92.9457 49.1692 93.3373 49.1692C93.8187 49.1692 94.1574 49.3798 94.3156 49.7952C94.5114 49.4111 94.85 49.1692 95.3167 49.1692C96.0087 49.1692 96.398 49.583 96.398 50.4184L96.4128 52.9471H95.5022V50.637C95.5022 50.193 95.3366 50.0109 95.0133 50.0109C94.6519 50.0109 94.4186 50.2898 94.4186 50.9067L94.4334 52.9459H93.553V50.6358C93.553 50.1919 93.3822 50.0098 93.0487 50.0098C92.6873 50.0098 92.4466 50.2887 92.4466 50.8902V52.9448H91.5439V49.2876L92.4488 49.2904Z" fill="#828282"/>
<path d="M98.0933 49.2904V49.6814C98.289 49.3655 98.5901 49.1692 98.9817 49.1692C99.4632 49.1692 99.8018 49.3798 99.96 49.7952C100.155 49.4111 100.494 49.1692 100.961 49.1692C101.653 49.1692 102.042 49.583 102.042 50.4184L102.057 52.9471H101.147V50.637C101.147 50.193 100.981 50.0109 100.657 50.0109C100.296 50.0109 100.063 50.2898 100.063 50.9067L100.078 52.9459H99.1974V50.6358C99.1974 50.1919 99.0266 50.0098 98.6931 50.0098C98.3317 50.0098 98.091 50.2887 98.091 50.8902V52.9448H97.1901V49.2876L98.0933 49.2904Z" fill="#828282"/>
<path d="M105.168 52.9477V52.6017C104.92 52.8862 104.566 53.0684 104.1 53.0684C103.294 53.0684 102.828 52.5112 102.828 51.6308V49.2905H103.768V51.4577C103.768 51.962 103.979 52.2255 104.408 52.2255C104.867 52.2255 105.168 51.8715 105.168 51.2773V49.2905H106.109V52.9477H105.168Z" fill="#828282"/>
<path d="M107.833 49.2901V49.6361C108.081 49.3515 108.435 49.1694 108.902 49.1694C109.706 49.1694 110.173 49.7266 110.173 50.607V52.9473H109.232V50.78C109.232 50.2758 109.022 50.0123 108.593 50.0123C108.134 50.0123 107.833 50.3663 107.833 50.9605V52.9473H106.892V49.2901H107.833Z" fill="#828282"/>
<path d="M111.407 47.5972C111.563 47.5972 111.712 47.659 111.822 47.769C111.932 47.8791 111.994 48.0283 111.994 48.1839C111.994 48.3395 111.932 48.4888 111.822 48.5988C111.712 48.7089 111.563 48.7707 111.407 48.7707C111.251 48.7707 111.102 48.7089 110.992 48.5988C110.882 48.4888 110.82 48.3395 110.82 48.1839C110.82 48.0283 110.882 47.8791 110.992 47.769C111.102 47.659 111.251 47.5972 111.407 47.5972ZM111.888 49.2903V52.9475H110.948V49.2903H111.888Z" fill="#828282"/>
<path d="M112.995 49.2902V48.239H113.935V49.2925H115.674V50.1052H113.935V51.6856C113.935 52.0317 114.131 52.2121 114.44 52.2121C114.764 52.2121 114.967 51.9639 114.929 51.5047L115.824 51.5952C115.869 52.4984 115.268 53.0629 114.477 53.0629C113.544 53.0629 112.998 52.5211 112.998 51.6481V50.1052H112.395V49.2925L112.995 49.2902Z" fill="#828282"/>
<path d="M116.886 47.5972C117.042 47.5972 117.191 47.659 117.301 47.769C117.411 47.8791 117.473 48.0283 117.473 48.1839C117.473 48.3395 117.411 48.4888 117.301 48.5988C117.191 48.7089 117.042 48.7707 116.886 48.7707C116.73 48.7707 116.581 48.7089 116.471 48.5988C116.361 48.4888 116.299 48.3395 116.299 48.1839C116.299 48.0283 116.361 47.8791 116.471 47.769C116.581 47.659 116.73 47.5972 116.886 47.5972ZM117.367 49.2903V52.9475H116.427V49.2903H117.367Z" fill="#828282"/>
<path d="M119.798 49.177C120.814 49.177 121.461 49.9169 121.461 50.9532V51.375H118.865C118.97 51.9168 119.339 52.2326 119.851 52.2326C120.28 52.2326 120.618 51.9691 120.694 51.5628L121.552 51.721C121.416 52.5178 120.709 53.0607 119.836 53.0607C118.715 53.0607 117.977 52.2327 117.977 51.1257C117.977 50.0188 118.699 49.177 119.798 49.177ZM119.798 49.9738C119.354 49.9738 119.023 50.2373 118.895 50.651H120.634C120.611 50.2834 120.287 49.9749 119.798 49.9749V49.9738Z" fill="#828282"/>
<path d="M123.584 52.2023C123.99 52.2023 124.193 52.0447 124.193 51.8489C124.193 51.6907 124.073 51.5404 123.511 51.4801C122.623 51.397 122.149 50.9605 122.149 50.2849C122.149 49.6379 122.743 49.1711 123.526 49.1711C123.848 49.1702 124.161 49.2756 124.417 49.4712C124.673 49.6668 124.857 49.9415 124.941 50.2525L124.15 50.5012C124.06 50.1927 123.842 50.0345 123.524 50.0345C123.261 50.0345 123.072 50.1171 123.072 50.2827C123.072 50.4261 123.155 50.5314 123.607 50.5763C124.6 50.6742 125.105 51.0954 125.105 51.8028C125.105 52.5478 124.472 53.06 123.585 53.06C122.726 53.06 122.079 52.5102 121.914 51.6901L122.787 51.5194C122.869 51.9383 123.147 52.2023 123.584 52.2023Z" fill="#828282"/>
</svg>