<svg xmlns="http://www.w3.org/2000/svg" width="160" height="60" viewBox="0 0 160 60" fill="none">
<path d="M81.1427 18.8737C80.8836 18.9049 80.6245 18.9361 80.3643 18.9653C80.291 18.9734 80.2167 18.9804 80.1433 18.9804C79.5095 18.9814 78.8747 18.9845 78.2409 18.9784C78.1013 18.9774 77.9617 18.9411 77.8221 18.927C77.6965 18.9139 77.5699 18.9049 77.4434 18.9008C76.9321 18.8847 76.4199 18.8787 75.9086 18.8545C75.4656 18.8334 75.0187 18.8203 74.5817 18.7508C74.194 18.6893 73.8093 18.6621 73.4186 18.649C73.1042 18.6389 72.7908 18.5775 72.4774 18.5362C72.2112 18.5019 71.945 18.4284 71.6809 18.4355C71.1164 18.4506 70.572 18.3176 70.0185 18.2572C69.7172 18.2239 69.4158 18.2068 69.1145 18.1816C68.7338 18.1494 68.3522 18.0889 67.9805 18.0013C67.7455 17.9449 67.5114 17.9872 67.2814 17.9459C67.2744 17.9449 67.2673 17.9469 67.2613 17.9459C66.8234 17.8784 66.3854 17.8119 65.9475 17.7434C65.8752 17.7323 65.8019 17.7011 65.7305 17.7051C65.3107 17.7243 64.8989 17.6396 64.482 17.6165C64.2178 17.6014 63.9607 17.5631 63.7096 17.4815C63.6473 17.4613 63.577 17.4593 63.5097 17.4603C62.9502 17.4684 62.3928 17.4271 61.8373 17.3656C61.6907 17.3495 61.541 17.3526 61.3943 17.3375C61.2808 17.3264 61.1693 17.2992 61.0568 17.281C60.9514 17.2639 60.8449 17.2428 60.7384 17.2367C60.6038 17.2287 60.4682 17.2337 60.3336 17.2347C60.0514 17.2367 59.7752 17.2377 59.4949 17.3183C59.2067 17.4009 58.8993 17.4251 58.599 17.4553C58.371 17.4785 58.1691 17.545 57.9802 17.6749C57.9079 17.7243 57.8075 17.7525 57.7191 17.7545C57.6046 17.7575 57.5684 17.6709 57.6287 17.5732C57.6427 17.551 57.6628 17.5309 57.6819 17.5117C58.0295 17.1561 58.376 16.8005 58.7245 16.4459C58.9505 16.2163 59.1665 15.9745 59.4106 15.766C59.6597 15.5524 59.8877 15.3147 60.1709 15.1374C60.3839 15.0034 60.5627 14.8151 60.7575 14.6519C60.7887 14.6257 60.8158 14.5934 60.8509 14.5753C61.1754 14.4051 61.4496 14.1673 61.7238 13.9276C61.7389 13.9145 61.7539 13.8984 61.772 13.8913C62.1045 13.7634 62.3385 13.4874 62.6459 13.3181C62.9844 13.1318 63.2948 12.895 63.6252 12.6946C63.8422 12.5626 64.0762 12.4599 64.2982 12.336C64.473 12.2393 64.6417 12.1305 64.8115 12.0257C64.8396 12.0086 64.8607 11.9713 64.8898 11.9643C65.0756 11.9199 65.2243 11.8041 65.389 11.7165C65.6432 11.5815 65.9124 11.4737 66.1705 11.3457C66.4106 11.2269 66.6456 11.0959 66.8836 10.971C66.9188 10.9529 66.958 10.9337 66.9961 10.9297C67.1609 10.9146 67.3105 10.8733 67.4351 10.7524C67.4742 10.7141 67.5466 10.689 67.6028 10.691C67.7354 10.697 67.8238 10.6174 67.9313 10.565C68.1834 10.4422 68.4436 10.3324 68.7087 10.2437C68.8483 10.1974 68.997 10.1853 69.1175 10.0886C69.1326 10.0765 69.1527 10.0694 69.1718 10.0624C69.458 9.96971 69.7543 9.90625 70.0205 9.75717C70.0587 9.73601 70.1129 9.74205 70.1602 9.74205C70.2917 9.74105 70.4112 9.70579 70.5207 9.63226C70.6463 9.54764 70.7859 9.5154 70.9386 9.49928C71.0692 9.48618 71.2027 9.44388 71.3223 9.38847C71.5041 9.30386 71.6899 9.26759 71.8878 9.25751C71.9842 9.25248 72.0887 9.22729 72.1731 9.18095C72.3448 9.08828 72.5236 9.05202 72.7144 9.03893C72.8531 9.02885 72.9957 9.00669 73.1263 8.96136C73.4015 8.86566 73.6777 8.78608 73.973 8.79615C74.0453 8.79917 74.1197 8.77902 74.192 8.76593C74.3889 8.72765 74.5857 8.68736 74.7826 8.64808C74.8358 8.638 74.8901 8.63498 74.9423 8.62088C75.2446 8.53727 75.552 8.52115 75.8614 8.56145C75.9769 8.57656 76.0643 8.54834 76.1235 8.45567C76.224 8.29752 76.3706 8.2683 76.5434 8.26931C77.2787 8.27334 78.0139 8.27334 78.7492 8.26931C78.9079 8.2683 79.0384 8.29751 79.1339 8.43854C79.2142 8.5564 79.3227 8.5836 79.4693 8.5554C79.6039 8.53021 79.7486 8.54734 79.8892 8.55741C80.1172 8.57252 80.3442 8.59569 80.5712 8.61785C80.6988 8.62994 80.8243 8.6511 80.9519 8.66117C81.1799 8.6783 81.4039 8.70348 81.6229 8.78406C81.7253 8.82134 81.8499 8.79817 81.9644 8.80019C82.3772 8.80724 82.781 8.86466 83.1717 9.00266C83.2461 9.02885 83.3304 9.04295 83.4088 9.04194C83.6971 9.0359 83.9683 9.10843 84.2364 9.20111C84.3901 9.2545 84.5448 9.2837 84.7085 9.29378C84.8592 9.30385 85.0069 9.36228 85.1565 9.39955C85.2992 9.43481 85.4408 9.47309 85.5834 9.50533C85.72 9.53656 85.8626 9.54764 85.9942 9.59196C86.1981 9.66046 86.393 9.74004 86.614 9.75817C86.7767 9.77127 86.9334 9.8579 87.0941 9.90423C87.2156 9.93949 87.3402 9.96266 87.4617 9.9949C87.5592 10.0211 87.6656 10.0352 87.749 10.0866C87.8866 10.1702 88.0343 10.1933 88.1859 10.2256C88.3024 10.2497 88.4119 10.3052 88.5244 10.3455C88.6369 10.3857 88.7504 10.426 88.8639 10.4653C88.9895 10.5096 89.115 10.554 89.2416 10.5973C89.3611 10.6386 89.4817 10.6789 89.6022 10.7161C89.6404 10.7282 89.6846 10.7222 89.7207 10.7373C89.9668 10.8441 90.2109 10.9549 90.457 11.0617C90.5423 11.0989 90.6318 11.1282 90.7201 11.1604C90.7453 11.1695 90.7764 11.1695 90.7965 11.1856C91.0516 11.384 91.3841 11.4112 91.6563 11.5714C91.7427 11.6218 91.8421 11.6479 91.9345 11.6882C91.9958 11.7154 92.0531 11.7487 92.1133 11.7789C92.1957 11.8202 92.276 11.8696 92.3624 11.8978C92.5482 11.9582 92.6206 12.0741 92.5653 12.2665C92.5412 12.3491 92.5101 12.4337 92.4649 12.5062C92.3845 12.6341 92.263 12.7409 92.271 12.9112C92.1264 13.0764 92.05 13.2819 91.9456 13.4713C91.9104 13.5347 91.8682 13.5952 91.8311 13.6586C91.817 13.6818 91.813 13.711 91.7979 13.7322C91.3459 14.3688 90.8728 14.9903 90.3063 15.5303C89.9758 15.8456 89.6404 16.1659 89.2657 16.4228C88.9583 16.6333 88.6681 16.8781 88.3205 17.0363C88.1458 17.1158 87.9931 17.2438 87.7952 17.277C87.76 17.283 87.7239 17.3173 87.6998 17.3475C87.6305 17.4352 87.5371 17.4694 87.4326 17.4624C87.3492 17.4573 87.299 17.4926 87.2418 17.548C87.1815 17.6054 87.0991 17.6427 87.0208 17.6769C86.8992 17.7313 86.7747 17.7767 86.6511 17.826C86.5577 17.8633 86.4673 17.9288 86.3719 17.9358C86.1821 17.9499 86.0254 18.0325 85.8616 18.1121C85.7742 18.1544 85.6708 18.1645 85.5754 18.1897C85.4408 18.2259 85.2951 18.2431 85.1746 18.3065C85.0249 18.3851 84.8743 18.4234 84.7115 18.4234C84.5348 18.4224 84.367 18.4465 84.1993 18.509C83.9401 18.6067 83.6719 18.6742 83.3897 18.6561C83.3304 18.652 83.2641 18.652 83.2099 18.6732C82.9156 18.786 82.6042 18.7941 82.2979 18.8243C81.9162 18.8606 81.5345 18.8888 81.1518 18.92C81.1458 18.9059 81.1437 18.8898 81.1427 18.8737Z" fill="#828282"/>
<path d="M90.553 47.711C89.7976 47.711 89.0413 47.7121 88.2859 47.7101C88.1925 47.7101 88.0981 47.698 88.0047 47.6909C87.8058 47.6768 87.6682 47.5761 87.5738 47.4008C87.5296 47.3192 87.4593 47.2517 87.4061 47.1751C87.1941 46.8729 87.0023 46.5586 86.7702 46.2675C86.4609 45.8787 86.1977 45.4536 85.9124 45.0456C85.808 44.8975 85.6925 44.7565 85.589 44.6084C85.4625 44.4281 85.3439 44.2407 85.2194 44.0594C85.1742 43.9929 85.1189 43.9335 85.0717 43.868C84.8718 43.59 84.672 43.311 84.4741 43.0309C84.3817 42.901 84.22 42.8436 84.0422 42.8869C83.9006 42.9221 83.8051 43.0047 83.775 43.1568C83.7208 43.4268 83.6575 43.6958 83.6042 43.9657C83.5761 44.1108 83.5641 44.2589 83.5369 44.4039C83.5128 44.5359 83.4877 44.6699 83.4466 44.7978C83.3772 45.0104 83.316 45.2209 83.321 45.4496C83.323 45.5553 83.3039 45.6682 83.2657 45.7659C83.1492 46.0651 83.0779 46.3693 83.0799 46.6916C83.0799 46.7571 83.0558 46.8236 83.0397 46.8881C83.0006 47.0442 82.9574 47.2003 82.9212 47.3575C82.86 47.6234 82.7836 47.6708 82.5877 47.699C82.5285 47.708 82.4672 47.711 82.4069 47.711C81.2599 47.7121 80.1128 47.7131 78.9657 47.709C78.8462 47.709 78.7226 47.6929 78.6071 47.6617C78.4183 47.6103 78.3681 47.5015 78.4153 47.3071C78.5499 46.7511 78.6805 46.193 78.8161 45.6369C78.8884 45.3428 78.9758 45.0527 79.0431 44.7575C79.0853 44.5742 79.0983 44.3848 79.1325 44.1994C79.1475 44.1138 79.1696 44.0262 79.2098 43.9506C79.2912 43.7965 79.3163 43.6313 79.3243 43.4631C79.3334 43.2787 79.3705 43.1065 79.4428 42.9342C79.4991 42.8002 79.5222 42.6491 79.5393 42.5031C79.5593 42.3278 79.5754 42.1535 79.6578 41.9954C79.7412 41.8352 79.7743 41.666 79.7713 41.4877C79.7683 41.3436 79.7974 41.2086 79.8577 41.0757C79.9591 40.853 80.0244 40.6203 80.0164 40.3705C80.0144 40.3111 80.0184 40.2436 80.0435 40.1922C80.1871 39.9021 80.2283 39.5908 80.2665 39.2745C80.2856 39.1164 80.3589 38.9663 80.4031 38.8101C80.4372 38.6872 80.4623 38.5613 80.4935 38.4384C80.5497 38.2168 80.609 37.9972 80.6642 37.7756C80.6954 37.6517 80.7185 37.5258 80.7476 37.4009C80.7918 37.2115 80.838 37.0221 80.8812 36.8327C80.9184 36.6695 80.9525 36.5063 80.9857 36.3421C81.0118 36.2172 81.0319 36.0913 81.059 35.9674C81.1142 35.7176 81.1735 35.4698 81.2307 35.22C81.2368 35.1938 81.2388 35.1666 81.2458 35.1404C81.3764 34.6176 81.514 34.0958 81.6376 33.5719C81.7641 33.035 81.8776 32.4941 81.9971 31.9552C82.0062 31.9159 82.0142 31.8766 82.0263 31.8373C82.0936 31.6116 82.1568 31.387 82.1799 31.1483C82.196 30.977 82.2734 30.8128 82.3166 30.6436C82.3507 30.5076 82.3728 30.3676 82.4039 30.2306C82.4381 30.0805 82.4682 29.9294 82.5164 29.7833C82.5677 29.6292 82.6179 29.4791 82.6229 29.3129C82.6269 29.194 82.653 29.0711 82.6932 28.9593C82.7846 28.7034 82.8609 28.4496 82.8539 28.1726C82.8519 28.0829 82.8901 27.9872 82.9282 27.9026C83.0297 27.678 83.0729 27.4412 83.094 27.1985C83.103 27.0998 83.1271 26.999 83.1593 26.9053C83.2457 26.6565 83.3441 26.4137 83.3391 26.1428C83.3371 26.0581 83.3742 25.9715 83.3953 25.8869C83.4676 25.5928 83.539 25.2986 83.6133 25.0055C83.6464 24.8755 83.6896 24.7476 83.7208 24.6166C83.7619 24.4404 83.7971 24.2621 83.8332 24.0848C83.8574 23.9659 83.8614 23.84 83.9056 23.7302C84.002 23.4965 84.0673 23.2617 84.0683 23.0059C84.0693 22.8427 84.2019 22.7379 84.3194 22.6573C84.5293 22.5133 84.7594 22.4005 84.9773 22.2695C85.138 22.1728 85.2917 22.061 85.4534 21.9653C85.7015 21.8182 85.9536 21.6782 86.2037 21.5342C86.2208 21.5241 86.2409 21.516 86.256 21.5039C86.491 21.2984 86.7742 21.1745 87.0424 21.0224C87.4131 20.8109 87.7787 20.5903 88.1443 20.3697C88.3271 20.2589 88.5039 20.137 88.6847 20.0231C88.7349 19.9919 88.7902 19.9597 88.8474 19.9486C89.0383 19.9113 89.1809 20.0534 89.1468 20.2458C89.1317 20.3314 89.0965 20.414 89.0794 20.4996C89.0513 20.6376 89.0363 20.7776 89.0051 20.9146C88.971 21.0647 88.9288 21.2128 88.8826 21.3599C88.8203 21.5593 88.7691 21.7588 88.755 21.9703C88.746 22.1023 88.7068 22.2373 88.6576 22.3612C88.5581 22.615 88.5029 22.8759 88.4778 23.1469C88.4718 23.2134 88.4607 23.2839 88.4316 23.3423C88.3221 23.565 88.2819 23.7997 88.2628 24.0445C88.2518 24.1815 88.1915 24.3144 88.1584 24.4504C88.1142 24.6328 88.074 24.8161 88.0348 24.9994C88.0158 25.0911 88.0218 25.1928 87.9856 25.2764C87.8892 25.5021 87.845 25.7378 87.8028 25.9776C87.7526 26.2687 87.6702 26.5538 87.6009 26.8419C87.5236 27.1632 87.4312 27.4815 87.3719 27.8059C87.3116 28.1383 87.2142 28.4587 87.1238 28.783C87.0826 28.9301 87.0836 29.0892 87.0515 29.2404C87.0264 29.3582 86.9792 29.471 86.941 29.5869C86.9239 29.6383 86.8928 29.6886 86.8918 29.741C86.8827 30.1591 86.6939 30.5368 86.6306 30.9418C86.6005 31.1352 86.5613 31.3235 86.5011 31.5119C86.4438 31.6892 86.4338 31.8816 86.3976 32.066C86.3765 32.1717 86.3494 32.2765 86.3162 32.3782C86.2389 32.6089 86.1696 32.8396 86.1626 33.0864C86.1606 33.172 86.1314 33.2587 86.1023 33.3403C86.0089 33.6082 85.9466 33.8822 85.9105 34.1653C85.8884 34.3375 85.8241 34.5037 85.7809 34.673C85.7417 34.8291 85.7065 34.9863 85.6664 35.1424C85.6091 35.364 85.5468 35.5836 85.4916 35.8052C85.4655 35.909 85.4504 36.0148 85.4273 36.1195C85.3901 36.2898 85.3721 36.4671 85.3078 36.6262C85.2385 36.7975 85.2807 36.9254 85.3831 37.0553C85.4846 37.1853 85.6171 37.1833 85.7477 37.1279C85.8452 37.0866 85.9406 37.0302 86.0199 36.9617C86.4538 36.5879 86.8787 36.2041 87.3157 35.8334C87.7194 35.4899 88.1383 35.1625 88.5431 34.82C88.9238 34.4977 89.2914 34.1612 89.6701 33.8379C89.9362 33.6112 90.2145 33.3977 90.4857 33.1761C90.6002 33.0824 90.7157 32.9877 90.8181 32.8819C90.9738 32.7227 91.1546 32.6512 91.3786 32.6512C92.822 32.6553 94.2664 32.6532 95.7098 32.6522C95.7972 32.6522 95.8876 32.6563 95.9709 32.6361C96.1095 32.6039 96.207 32.6714 96.2974 32.752C96.3747 32.8215 96.3988 32.9121 96.3365 33.0078C96.3004 33.0642 96.2632 33.1237 96.214 33.167C95.9267 33.4208 95.6294 33.6636 95.3462 33.9215C95.0237 34.2156 94.7154 34.5259 94.395 34.8231C94.2222 34.9832 94.0364 35.1293 93.8576 35.2824C93.6537 35.4557 93.4478 35.6269 93.2479 35.8042C92.9204 36.0943 92.599 36.3915 92.2726 36.6826C91.5835 37.2971 90.8945 37.9106 90.2034 38.523C90.0678 38.6429 89.9202 38.7507 89.7846 38.8706C89.6942 38.9502 89.6168 39.0459 89.5284 39.1285C89.3557 39.2886 89.1759 39.4417 89.0021 39.6019C88.8082 39.7812 88.7781 39.9192 88.8886 40.162C88.9328 40.2597 88.9971 40.3484 89.0543 40.439C89.1005 40.5136 89.1528 40.5841 89.198 40.6596C89.417 41.0213 89.6359 41.3829 89.8529 41.7466C90.1341 42.22 90.4103 42.6975 90.6946 43.1699C90.8121 43.3664 90.9447 43.5527 91.0662 43.7461C91.0974 43.7965 91.1124 43.8569 91.1375 43.9123C91.1566 43.9547 91.1697 44.005 91.2008 44.0352C91.2912 44.1229 91.3605 44.2166 91.3686 44.3475C91.3706 44.3727 91.3877 44.3979 91.4017 44.4201C91.5966 44.7102 91.7985 44.9963 91.9863 45.2914C92.2023 45.6319 92.4042 45.9804 92.6161 46.3239C92.7216 46.4952 92.8521 46.6523 92.9395 46.8316C93.0169 46.9898 93.1173 47.1288 93.2077 47.2769C93.3524 47.5136 93.2419 47.701 92.9606 47.7101C92.7517 47.7161 92.5428 47.711 92.3328 47.711C91.7402 47.711 91.1466 47.711 90.553 47.711Z" fill="#828282"/>
<path d="M58.0892 36.9815C57.3409 36.9815 56.5916 36.9805 55.8433 36.9825C55.6454 36.9835 55.5289 37.1195 55.4295 37.2656C55.3893 37.325 55.3722 37.4016 55.3531 37.4731C55.2979 37.6816 55.2437 37.8901 55.1955 38.0997C55.1593 38.2568 55.1332 38.416 55.102 38.5741C55.096 38.6074 55.088 38.6406 55.0779 38.6728C54.9684 39.0405 54.8901 39.4163 54.8047 39.789C54.7374 40.0821 54.641 40.3682 54.6119 40.6714C54.6048 40.7439 54.5667 40.8124 54.5476 40.884C54.5024 41.0532 54.4582 41.2224 54.416 41.3917C54.3778 41.5478 54.3417 41.705 54.3075 41.8621C54.2643 42.0595 54.2252 42.257 54.184 42.4544C54.1669 42.533 54.1599 42.6166 54.1297 42.6901C54.0192 42.9611 53.966 43.2422 53.9349 43.5343C53.9158 43.7116 53.8274 43.8798 53.7812 44.0561C53.745 44.1911 53.729 44.3321 53.6988 44.4691C53.6546 44.6665 53.6034 44.862 53.5592 45.0584C53.518 45.2417 53.4849 45.4261 53.4417 45.6094C53.4126 45.7333 53.3935 45.8653 53.3372 45.9761C53.2488 46.1504 53.2077 46.3317 53.2057 46.5211C53.2046 46.6742 53.1755 46.8142 53.1042 46.9482C52.9997 47.1446 52.9997 47.3642 52.9706 47.5768C52.9616 47.6432 52.9606 47.7158 52.9314 47.7732C52.7999 48.0391 52.7587 48.3252 52.7295 48.6143C52.7064 48.848 52.5648 49.0223 52.4443 49.2087C52.4332 49.2248 52.4172 49.2409 52.4001 49.25C52.2223 49.3406 52.0435 49.4303 51.8647 49.5189C51.8466 49.528 51.8256 49.531 51.8085 49.5411C51.5875 49.668 51.3675 49.798 51.1455 49.9229C50.9296 50.0448 50.7116 50.1646 50.4926 50.2825C50.2687 50.4034 50.0427 50.5212 49.8157 50.6371C49.6007 50.7469 49.3827 50.8496 49.1698 50.9635C48.9388 51.0884 48.7138 51.2223 48.4858 51.3523C48.4335 51.3825 48.3843 51.4208 48.3281 51.4419C48.2025 51.4903 48.081 51.5397 47.9836 51.6394C47.9434 51.6797 47.8791 51.7008 47.8208 51.719C47.7023 51.7552 47.5968 51.7049 47.5757 51.58C47.5386 51.3614 47.5074 51.1387 47.6792 50.9494C47.7686 50.8506 47.8007 50.7328 47.7997 50.5958C47.7997 50.484 47.8188 50.3641 47.861 50.2613C47.9645 50.0145 48.0026 49.7567 48.0378 49.4958C48.0498 49.4031 48.0649 49.3094 48.086 49.2187C48.1503 48.9367 48.2166 48.6546 48.2839 48.3726C48.3281 48.1892 48.3793 48.0079 48.4215 47.8246C48.4606 47.6543 48.4918 47.4831 48.5259 47.3118C48.5531 47.1728 48.5742 47.0338 48.6063 46.8958C48.7278 46.378 48.8554 45.8623 48.9739 45.3435C49.0603 44.9637 49.1346 44.5809 49.217 44.1991C49.2652 43.9755 49.3215 43.7529 49.3707 43.5293C49.3998 43.3983 49.4179 43.2643 49.447 43.1324C49.4862 42.9551 49.5324 42.7788 49.5726 42.6015C49.6529 42.2469 49.7222 41.8903 49.8126 41.5377C49.9141 41.1398 49.9643 40.7309 50.1069 40.342C50.1481 40.2302 50.1481 40.1043 50.1722 39.9864C50.2004 39.8484 50.2355 39.7114 50.2646 39.5734C50.3159 39.3236 50.3631 39.0728 50.4163 38.8229C50.4384 38.7182 50.4605 38.6104 50.5017 38.5127C50.5841 38.3162 50.6222 38.1148 50.6343 37.9032C50.6403 37.7985 50.6684 37.6887 50.7126 37.593C50.8131 37.3744 50.8533 37.1477 50.8794 36.91C50.9005 36.7186 50.9808 36.5353 51.026 36.3459C51.0632 36.1897 51.0833 36.0286 51.1174 35.8714C51.1516 35.7143 51.1797 35.5521 51.2379 35.403C51.3143 35.2056 51.3464 35.0011 51.3866 34.7966C51.4228 34.6122 51.483 34.4329 51.5262 34.2496C51.5644 34.0864 51.5955 33.9222 51.6287 33.758C51.6458 33.6724 51.6427 33.5767 51.6809 33.5021C51.8075 33.2553 51.8446 32.9914 51.8738 32.7225C51.8818 32.6499 51.9109 32.5794 51.931 32.5089C51.9782 32.3417 52.0465 32.1765 52.0666 32.0062C52.0847 31.8561 52.1229 31.7181 52.1681 31.5761C52.2193 31.4169 52.2504 31.2507 52.2886 31.0875C52.3157 30.9697 52.3388 30.8508 52.3659 30.734C52.377 30.6886 52.4001 30.6453 52.4122 30.6C52.5297 30.1436 52.6452 29.6873 52.7607 29.231C52.7245 28.9479 52.9254 28.7263 52.9596 28.4614C52.9696 28.3828 52.9746 28.3042 52.9867 28.2267C52.9967 28.1612 53.0058 28.0937 53.0289 28.0322C53.1343 27.7472 53.2348 27.4631 53.2589 27.1549C53.2689 27.0239 53.3433 26.9 53.3774 26.769C53.4206 26.6008 53.4528 26.4296 53.4899 26.2593C53.507 26.1807 53.508 26.0921 53.5451 26.0246C53.6677 25.806 53.6938 25.5653 53.733 25.3255C53.738 25.2923 53.739 25.257 53.7521 25.2268C53.9851 24.6899 54.1177 24.1147 54.4019 23.5959C54.5506 23.3239 54.7073 23.059 54.868 22.794C55.1342 22.3548 55.4787 21.9942 55.8433 21.6417C56.0824 21.41 56.3375 21.2075 56.6228 21.0383C56.8186 20.9224 57.0055 20.7925 57.2003 20.6756C57.2626 20.6383 57.3379 20.6222 57.4083 20.598C57.4464 20.5849 57.4936 20.588 57.5227 20.5648C57.6835 20.4379 57.8693 20.3925 58.0682 20.3754C58.1013 20.3724 58.1334 20.3603 58.1646 20.3472C58.715 20.1135 59.2956 20.0087 59.8872 19.9695C60.1956 19.9493 60.507 19.9382 60.8163 19.9473C61.0303 19.9533 61.2442 19.9896 61.4551 20.0299C61.6721 20.0722 61.8861 20.1337 62.1 20.1911C62.1703 20.2102 62.2356 20.2475 62.3049 20.2747C62.4044 20.314 62.5048 20.3512 62.6052 20.3875C62.6304 20.3966 62.6605 20.3946 62.6826 20.4066C62.8634 20.5074 63.0562 20.592 63.2189 20.7159C63.4861 20.9204 63.7463 21.137 63.9853 21.3727C64.3339 21.7182 64.6724 22.0738 64.9014 22.519C64.9958 22.7024 65.1364 22.8646 65.2218 23.0509C65.3172 23.2564 65.4237 23.4579 65.5101 23.6654C65.6196 23.9263 65.5372 24.0734 65.2921 24.2053C65.1163 24.3 64.9516 24.4179 64.7819 24.5237C64.7367 24.5519 64.6885 24.5771 64.6402 24.5992C64.6161 24.6103 64.585 24.6073 64.5629 24.6204C64.3751 24.7332 64.1892 24.847 64.0024 24.9619C63.8076 25.0817 63.6127 25.2016 63.4188 25.3235C63.3334 25.3769 63.2501 25.4343 63.1657 25.4877C63.1095 25.524 63.0542 25.5632 62.9929 25.5904C62.6494 25.7395 62.555 25.6428 62.4355 25.4061C62.33 25.1956 62.1944 25.0012 62.0849 24.7926C61.9684 24.572 61.7715 24.4249 61.6088 24.2477C61.5787 24.2154 61.5275 24.2003 61.4853 24.1812C61.0242 23.9666 60.5431 23.89 60.0328 23.9122C59.6753 23.9273 59.3599 24.0532 59.0555 24.2003C58.8245 24.3121 58.6116 24.4824 58.4579 24.703C58.3313 24.8843 58.2068 25.0656 58.1023 25.2641C58.0019 25.4555 57.9486 25.6458 57.9185 25.8534C57.9004 25.9783 57.8462 26.0981 57.815 26.222C57.7769 26.3711 57.7417 26.5212 57.7096 26.6713C57.6825 26.7962 57.6664 26.9232 57.6382 27.0481C57.59 27.2576 57.5358 27.4661 57.4856 27.6746C57.4293 27.9033 57.35 28.129 57.3239 28.3616C57.2676 28.8593 57.121 29.3358 57.0326 29.8263C56.9794 30.1235 56.903 30.4166 56.8427 30.7128C56.8136 30.8578 56.8066 31.0069 56.7754 31.151C56.7363 31.3283 56.679 31.5015 56.6358 31.6778C56.5976 31.834 56.5695 31.9921 56.5354 32.1483C56.5093 32.2722 56.4942 32.4011 56.451 32.519C56.3837 32.7003 56.4078 32.8625 56.5113 33.0186C56.5826 33.1264 56.681 33.1909 56.8096 33.202C56.8628 33.207 56.9171 33.204 56.9713 33.204C58.1927 33.204 59.4141 33.204 60.6355 33.203C60.7289 33.203 60.8234 33.1939 60.9168 33.1828C61.2743 33.1405 61.4873 33.3641 61.421 33.7207C61.3999 33.8336 61.3647 33.9434 61.3406 34.0552C61.3055 34.2123 61.2774 34.3715 61.2402 34.5276C61.2 34.6978 61.1478 34.8651 61.1126 35.0353C61.0634 35.272 61.0272 35.5108 60.983 35.7485C60.969 35.8281 60.9599 35.9107 60.9318 35.9852C60.8495 36.2008 60.8113 36.4255 60.7842 36.6531C60.7621 36.8435 60.6837 36.9261 60.4969 36.9664C60.4186 36.9825 60.3372 36.9876 60.2568 36.9876C59.5346 36.9896 58.8124 36.9886 58.0913 36.9886C58.0892 36.9876 58.0892 36.9845 58.0892 36.9815Z" fill="#828282"/>
<path d="M66.3791 32.644C67.027 32.644 67.6739 32.644 68.3217 32.644C68.5136 32.644 68.6582 32.784 68.6341 32.9834C68.605 33.2232 68.5598 33.4639 68.4905 33.6936C68.4372 33.8699 68.3941 34.0411 68.379 34.2245C68.3669 34.3756 68.3268 34.5307 68.2665 34.6697C68.1982 34.8279 68.149 34.984 68.155 35.1563C68.161 35.3215 68.1299 35.4766 68.0526 35.6247C67.9481 35.8261 67.935 36.0508 67.9099 36.2724C67.8979 36.3782 67.8768 36.4839 67.8436 36.5847C67.7592 36.8416 67.6879 37.0984 67.6638 37.3704C67.6518 37.5024 67.6056 37.6333 67.5594 37.7582C67.486 37.9557 67.4549 38.1602 67.4208 38.3667C67.3786 38.6185 67.3002 38.8633 67.242 39.1121C67.2158 39.2229 67.2008 39.3367 67.1767 39.4476C67.1445 39.5916 67.1204 39.7397 67.0702 39.8777C67.0009 40.0701 66.9617 40.2645 66.9356 40.467C66.9165 40.6181 66.8573 40.7652 66.8191 40.9142C66.789 41.0311 66.7628 41.1489 66.7367 41.2658C66.6895 41.4753 66.6393 41.6849 66.5981 41.8964C66.5097 42.3437 66.4856 42.798 66.573 43.2432C66.6554 43.6673 66.8552 44.042 67.2098 44.311C67.3273 44.3996 67.4539 44.4762 67.5764 44.5578C67.5925 44.5689 67.6116 44.582 67.6297 44.584C68.0094 44.6243 68.369 44.7794 68.7567 44.7754C69.0269 44.7724 69.296 44.7764 69.5492 44.6595C69.5914 44.6404 69.6376 44.6233 69.6828 44.6152C70.177 44.5286 70.5858 44.2788 70.9494 43.9473C71.1131 43.7983 71.2859 43.6472 71.4064 43.4648C71.551 43.2452 71.7389 43.0377 71.764 42.7536C71.767 42.7144 71.78 42.67 71.8031 42.6398C71.9357 42.4635 71.9649 42.2621 71.9749 42.0485C71.9799 41.9437 72.0261 41.841 72.0583 41.7383C72.1015 41.5982 72.1547 41.4602 72.1939 41.3182C72.2431 41.1439 72.2813 40.9676 72.3265 40.7924C72.4189 40.4337 72.5143 40.0751 72.6067 39.7165C72.7734 39.0637 72.9533 38.413 73.0979 37.7552C73.1993 37.2949 73.3761 36.8536 73.4203 36.3782C73.4334 36.2341 73.5107 36.0971 73.5479 35.9531C73.579 35.8302 73.5921 35.7022 73.6182 35.5773C73.6383 35.4786 73.6574 35.3789 73.6935 35.2852C73.7819 35.0575 73.8502 34.8269 73.8623 34.5801C73.8653 34.5206 73.8814 34.4592 73.9045 34.4038C74.015 34.1338 74.0591 33.8487 74.1114 33.5627C74.1546 33.3209 74.258 33.0882 74.3424 32.8545C74.3906 32.7215 74.5071 32.6863 74.6377 32.6873C74.9129 32.6883 75.1871 32.6893 75.4624 32.6893C75.9194 32.6893 76.3764 32.6863 76.8334 32.6903C77.2834 32.6943 77.7324 32.7074 78.1814 32.7115C78.309 32.7125 78.4365 32.6893 78.5631 32.6913C78.774 32.6953 78.8704 32.8343 78.7871 33.0298C78.6826 33.2745 78.6414 33.5334 78.5832 33.7893C78.4405 34.4128 78.2808 35.0324 78.1352 35.6559C78.0769 35.9047 78.0378 36.1576 77.9865 36.4074C77.9333 36.6643 77.8771 36.9201 77.8198 37.175C77.8007 37.2596 77.7766 37.3442 77.7485 37.4268C77.6822 37.6182 77.636 37.8116 77.6089 38.0151C77.5817 38.2256 77.4944 38.4271 77.4421 38.6346C77.414 38.7444 77.409 38.8603 77.3859 38.9721C77.3567 39.1161 77.3186 39.2592 77.2884 39.4032C77.2483 39.5936 77.2111 39.784 77.1709 39.9744C77.1448 40.0993 77.1378 40.2323 77.0865 40.3451C76.9901 40.5586 76.9509 40.7813 76.9258 41.0099C76.9148 41.1087 76.8857 41.2074 76.8565 41.3031C76.7782 41.5599 76.6898 41.8118 76.6777 42.0878C76.6707 42.2449 76.6044 42.4001 76.5582 42.5542C76.52 42.6831 76.4608 42.807 76.4296 42.937C76.3533 43.2553 76.1906 43.5333 76.0459 43.8204C75.9495 44.0118 75.8541 44.2052 75.7416 44.3876C75.615 44.5931 75.4784 44.7935 75.3298 44.9839C74.9792 45.4312 74.5784 45.8331 74.1526 46.2058C73.8703 46.4536 73.5659 46.6783 73.2586 46.8948C73.0728 47.0258 72.8638 47.1235 72.662 47.2293C72.5032 47.3129 72.3576 47.4297 72.1658 47.4358C72.1386 47.4368 72.1105 47.472 72.0864 47.4952C72.0061 47.5728 71.9136 47.6111 71.8011 47.6302C71.6987 47.6483 71.6053 47.7118 71.5058 47.7491C71.3943 47.7914 71.2829 47.8437 71.1673 47.8619C71.0267 47.884 70.8931 47.9112 70.7646 47.9787C70.6661 48.0311 70.5536 48.0634 70.4431 48.0875C70.0484 48.1711 69.6526 48.2527 69.2549 48.3253C69.1183 48.3505 68.9756 48.3484 68.836 48.3555C68.7416 48.3605 68.6462 48.3505 68.5538 48.3625C68.0917 48.424 67.6317 48.4119 67.1656 48.3857C66.6624 48.3575 66.1833 48.2296 65.6961 48.1278C65.4782 48.0825 65.2602 48.0533 65.0693 47.9223C65.0171 47.8861 64.9418 47.878 64.8765 47.8689C64.766 47.8538 64.6686 47.8226 64.5862 47.742C64.5531 47.7098 64.5109 47.6765 64.4677 47.6695C64.31 47.6433 64.1884 47.5466 64.0498 47.4801C63.5466 47.2404 63.1448 46.8827 62.7882 46.4657C62.7008 46.363 62.6044 46.2683 62.52 46.1625C62.1102 45.6498 61.9003 45.0464 61.7848 44.4117C61.7386 44.1559 61.7627 43.8869 61.7567 43.623C61.7557 43.5756 61.7697 43.5283 61.7657 43.482C61.7265 43.0297 61.8471 42.5985 61.9365 42.1623C61.9646 42.0243 61.9877 41.8843 62.0168 41.7463C62.052 41.5821 62.0871 41.4169 62.1323 41.2557C62.1906 41.0482 62.2488 40.8437 62.2579 40.6241C62.2639 40.4861 62.3181 40.3481 62.3593 40.2131C62.4246 40.0006 62.4819 39.789 62.502 39.5634C62.517 39.3922 62.5894 39.2259 62.6316 39.0557C62.6677 38.9066 62.6958 38.7545 62.73 38.6044C62.7611 38.4674 62.7842 38.3264 62.8304 38.1944C62.9017 37.9889 62.957 37.7834 62.972 37.5648C62.9791 37.4591 63.0102 37.3523 63.0484 37.2536C63.1348 37.0329 63.2121 36.8113 63.2131 36.5696C63.2131 36.5293 63.2151 36.486 63.2312 36.4497C63.3909 36.0669 63.408 35.6469 63.5385 35.257C63.6219 35.0072 63.6852 34.7543 63.7274 34.4944C63.7475 34.3705 63.8108 34.2537 63.8409 34.1298C63.8811 33.9676 63.9062 33.8014 63.9413 33.6382C63.9654 33.5264 63.9936 33.4156 64.0227 33.3058C64.0518 33.195 64.085 33.0862 64.1141 32.9754C64.1302 32.9169 64.1372 32.8555 64.1573 32.7991C64.2035 32.6671 64.2618 32.6309 64.3994 32.6309C65.0603 32.6309 65.7212 32.6309 66.3821 32.6309C66.3791 32.6409 66.3791 32.6419 66.3791 32.644Z" fill="#828282"/>
<path d="M95.5334 44.0803C95.5666 43.8134 95.5957 43.5454 95.6349 43.2795C95.6881 42.9198 95.7273 42.5562 95.8107 42.2036C95.9081 41.7906 95.9131 41.3574 96.0869 40.9626C96.111 40.9082 96.1191 40.8447 96.1231 40.7853C96.1401 40.5354 96.1954 40.2957 96.2677 40.0539C96.3521 39.7719 96.3752 39.4707 96.4576 39.1866C96.5309 38.9328 96.5821 38.6769 96.6193 38.417C96.6323 38.3243 96.6715 38.2357 96.6936 38.144C96.7398 37.9546 96.783 37.7652 96.8272 37.5759C96.8362 37.5366 96.8443 37.4963 96.8533 37.457C96.9819 36.9483 97.1104 36.4386 97.241 35.9299C97.3234 35.6105 97.4108 35.2922 97.4911 34.9729C97.5192 34.8621 97.5313 34.7472 97.5554 34.6354C97.5765 34.5367 97.5926 34.436 97.6287 34.3423C97.7222 34.1015 97.7935 33.8577 97.7995 33.5958C97.8005 33.5304 97.8206 33.4629 97.8407 33.3994C97.8859 33.2513 97.9401 33.1063 97.9833 32.9572C98.0376 32.7698 98.1179 32.6983 98.3118 32.6953C98.4122 32.6933 98.5127 32.7104 98.6141 32.7094C98.7477 32.7084 98.8823 32.6933 99.0159 32.6953C99.3323 32.6993 99.6487 32.7134 99.9651 32.7164C100.079 32.7174 100.193 32.6953 100.307 32.6953C100.826 32.6933 101.345 32.6933 101.865 32.6953C101.946 32.6953 102.027 32.7033 102.106 32.7205C102.332 32.7708 102.467 32.9793 102.423 33.206C102.405 33.2987 102.371 33.3873 102.351 33.48C102.309 33.6633 102.271 33.8477 102.232 34.032C102.231 34.0381 102.232 34.0461 102.231 34.0522C102.121 34.4883 102.008 34.9245 101.902 35.3607C101.857 35.543 101.824 35.7284 101.788 35.9127C101.776 35.9722 101.769 36.0326 101.757 36.091C101.689 36.4003 101.624 36.7106 101.55 37.0188C101.502 37.2213 101.422 37.4187 101.387 37.6232C101.318 38.0443 101.153 38.4452 101.094 38.8612C101.02 39.377 100.833 39.8656 100.789 40.3853C100.78 40.4901 100.743 40.5969 100.697 40.6936C100.618 40.8638 100.583 41.0401 100.589 41.2235C100.594 41.3897 100.561 41.5478 100.49 41.6949C100.405 41.8762 100.369 42.0646 100.37 42.264C100.372 42.5622 100.373 42.8594 100.37 43.1576C100.368 43.3046 100.411 43.4356 100.485 43.5605C100.516 43.6119 100.555 43.6643 100.566 43.7217C100.619 43.9896 100.8 44.1619 100.991 44.3352C101.161 44.4913 101.361 44.5598 101.576 44.6263C101.89 44.723 102.204 44.7472 102.528 44.7633C102.86 44.7804 103.169 44.7391 103.474 44.6192C103.516 44.6021 103.565 44.6011 103.61 44.591C103.676 44.5759 103.747 44.5729 103.804 44.5417C103.962 44.455 104.122 44.3734 104.282 44.2918C104.5 44.18 104.687 44.0037 104.88 43.8466C105.086 43.6794 105.245 43.4709 105.373 43.2382C105.392 43.2029 105.426 43.1777 105.449 43.1445C105.493 43.084 105.55 43.0276 105.57 42.9591C105.686 42.5663 105.886 42.2046 106.003 41.8128C106.094 41.5025 106.176 41.1902 106.281 40.884C106.354 40.6704 106.361 40.4347 106.42 40.2141C106.489 39.9542 106.581 39.7014 106.589 39.4274C106.592 39.3296 106.629 39.2259 106.676 39.1393C106.789 38.9287 106.788 38.699 106.821 38.4734C106.84 38.3485 106.882 38.2246 106.933 38.1087C107 37.9566 107.022 37.8015 107.037 37.6383C107.05 37.4933 107.087 37.3472 107.137 37.2112C107.2 37.0389 107.262 36.8707 107.264 36.6833C107.265 36.5141 107.297 36.3519 107.372 36.1938C107.425 36.081 107.438 35.948 107.466 35.8231C107.519 35.5934 107.566 35.3627 107.622 35.134C107.733 34.6757 107.864 34.2224 107.959 33.761C108.016 33.4911 108.057 33.2191 108.148 32.9572C108.228 32.7275 108.315 32.654 108.56 32.654C109.573 32.653 110.584 32.654 111.597 32.653C111.806 32.653 112.014 32.6469 112.223 32.6439C112.348 32.6419 112.395 32.6721 112.43 32.791C112.445 32.8423 112.45 32.8977 112.451 32.9511C112.453 33.1808 112.45 33.4115 112.453 33.6412C112.454 33.749 112.424 33.8416 112.341 33.9121C112.24 33.9978 112.21 34.1076 112.206 34.2365C112.204 34.3221 112.185 34.4118 112.152 34.4914C112.061 34.711 111.996 34.9356 111.991 35.1754C111.989 35.2549 111.973 35.3365 111.952 35.4141C111.885 35.6679 111.806 35.9188 111.743 36.1726C111.687 36.4003 111.647 36.633 111.598 36.8627C111.557 37.053 111.515 37.2434 111.475 37.4338C111.457 37.5195 111.458 37.6141 111.42 37.6897C111.309 37.9123 111.27 38.149 111.238 38.3908C111.223 38.5026 111.193 38.6164 111.153 38.7222C111.079 38.9126 111.03 39.106 111.019 39.3115C111.013 39.4243 110.98 39.5362 110.954 39.648C110.897 39.8907 110.84 40.1325 110.78 40.3733C110.737 40.5425 110.684 40.7087 110.641 40.8789C110.613 40.9898 110.599 41.1036 110.574 41.2154C110.536 41.3796 110.495 41.5418 110.452 41.705C110.427 41.7966 110.386 41.8843 110.372 41.977C110.32 42.3356 110.144 42.6519 110.039 42.9924C110.018 43.0619 109.964 43.1213 109.933 43.1878C109.891 43.2785 109.856 43.3731 109.82 43.4658C109.81 43.491 109.816 43.5232 109.802 43.5444C109.699 43.6925 109.636 43.8607 109.555 44.0189C109.408 44.3029 109.226 44.5719 109.032 44.8277C108.793 45.144 108.526 45.4402 108.274 45.7464C107.998 46.0839 107.633 46.3186 107.305 46.5936C107.139 46.7326 106.977 46.8646 106.776 46.9553C106.613 47.0288 106.47 47.1477 106.313 47.2383C106.104 47.3592 105.901 47.5002 105.676 47.5798C105.436 47.6644 105.207 47.7742 104.968 47.8538C104.791 47.9132 104.608 47.9505 104.436 48.0321C104.352 48.0714 104.255 48.1036 104.165 48.1046C103.829 48.1067 103.521 48.2416 103.196 48.294C102.943 48.3353 102.694 48.3776 102.436 48.3655C102.263 48.3575 102.087 48.3867 101.914 48.4038C101.59 48.435 101.27 48.428 100.948 48.3726C100.805 48.3474 100.652 48.3867 100.505 48.3706C100.278 48.3464 100.053 48.3071 99.8295 48.2628C99.5854 48.2144 99.3433 48.155 99.1023 48.0956C99.0179 48.0754 98.9365 48.0422 98.8532 48.014C98.7145 47.9666 98.5739 47.9243 98.4373 47.8709C98.2143 47.7843 97.9913 47.6846 97.7844 47.5748C97.3756 47.3582 96.9829 47.0993 96.6715 46.7457C96.4636 46.51 96.2225 46.3005 96.0959 45.9973C96.0367 45.8563 95.9292 45.7374 95.8649 45.5984C95.5977 45.0353 95.5515 44.582 95.5334 44.0803Z" fill="#828282"/>
<path d="M92.3328 16.2294C92.4292 16.0844 92.5457 15.9877 92.6873 15.9162C92.7637 15.8779 92.83 15.8174 92.9023 15.7701C93.1544 15.6059 93.4075 15.4417 93.6616 15.2795C93.6998 15.2553 93.746 15.2392 93.7902 15.2261C93.9258 15.1888 94.0654 15.1617 94.1639 15.0438C94.187 15.0156 94.2332 15.0005 94.2714 14.9914C94.9001 14.8383 95.5289 14.7073 96.1848 14.802C96.444 14.8393 96.7071 14.8443 96.9532 14.9481C96.9954 14.9662 97.0456 14.9733 97.0918 14.9723C97.2857 14.9703 97.4625 15.0075 97.6222 15.1294C97.6804 15.1737 97.7728 15.1858 97.8512 15.1899C98.03 15.1989 98.1997 15.2231 98.3353 15.3551C98.3544 15.3732 98.3775 15.3954 98.4016 15.3994C98.6116 15.4326 98.7984 15.5193 98.9682 15.6462C98.9732 15.6502 98.9802 15.6552 98.9862 15.6552C99.2765 15.6492 99.4915 15.8426 99.7114 15.9776C99.9093 16.0985 100.139 16.1489 100.322 16.306C100.493 16.4521 100.72 16.5306 100.903 16.6646C101.205 16.8862 101.529 17.0736 101.83 17.2972C102.05 17.4604 102.28 17.6095 102.508 17.7626C102.679 17.8774 102.857 17.9822 103.025 18.1021C103.374 18.3529 103.713 18.6148 104.064 18.8636C104.337 19.057 104.617 19.2394 104.898 19.4217C105.039 19.5124 105.186 19.5939 105.333 19.6725C105.386 19.7007 105.448 19.7078 105.505 19.7269C105.594 19.7561 105.695 19.7702 105.768 19.8216C105.926 19.9334 106.1 19.9515 106.283 19.9727C106.461 19.9939 106.637 20.0442 106.814 20.0865C106.906 20.1087 106.968 20.1631 106.974 20.2689C106.98 20.3696 106.916 20.425 106.842 20.4532C106.731 20.4955 106.612 20.5197 106.495 20.5459C106.346 20.5791 106.194 20.6033 106.044 20.6376C105.836 20.6859 105.63 20.7433 105.421 20.7917C105.105 20.8642 104.79 20.9337 104.474 21.0012C104.395 21.0183 104.314 21.0314 104.234 21.0314C104.052 21.0294 103.874 21.0496 103.695 21.0899C103.532 21.1261 103.361 21.1201 103.194 21.1342C103.141 21.1392 103.083 21.1402 103.034 21.1583C102.615 21.3155 102.182 21.2581 101.753 21.2379C101.391 21.2208 101.029 21.1835 100.668 21.1533C100.6 21.1483 100.528 21.1503 100.469 21.1251C100.265 21.0385 100.051 21.0455 99.838 21.0334C99.7586 21.0284 99.6783 21.0123 99.5999 20.9921C99.3337 20.9226 99.0676 20.8511 98.8034 20.7746C98.6939 20.7423 98.5895 20.694 98.483 20.6537C98.3765 20.6134 98.2701 20.5751 98.1636 20.5358C98.1445 20.5288 98.1244 20.5227 98.1073 20.5126C97.9356 20.4079 97.7658 20.3011 97.5549 20.2991C97.4163 20.1419 97.2144 20.0996 97.0386 20.01C96.7955 19.8861 96.5605 19.744 96.3264 19.602C96.1597 19.5013 96 19.3884 95.8383 19.2797C95.6294 19.1386 95.4144 19.0046 95.2135 18.8515C94.9051 18.6158 94.6008 18.372 94.3055 18.1202C94.0544 17.9066 93.8143 17.681 93.5742 17.4544C93.3834 17.275 93.2026 17.0847 93.0138 16.9033C92.83 16.7281 92.6391 16.5598 92.4553 16.3856C92.4041 16.3402 92.3719 16.2818 92.3328 16.2294Z" fill="#828282"/>
</svg>