<svg xmlns="http://www.w3.org/2000/svg" width="160" height="60" viewBox="0 0 160 60" fill="none">
<path d="M24.9062 41.4042C24.3681 41.4042 23.8294 41.4197 23.2925 41.397C23.0567 41.3869 22.8251 41.2898 22.5893 41.2475C22.3659 41.207 22.1385 41.1862 21.9134 41.157C21.8736 41.1516 21.8308 41.1534 21.7946 41.1391C21.4364 40.9956 21.0783 40.8514 20.7219 40.7037C20.403 40.5715 20.0757 40.4553 19.7716 40.2951C19.3814 40.0902 19.0037 39.8602 18.6325 39.6214C17.5479 38.9245 16.6101 38.0548 15.8267 37.0369C15.1876 36.2065 14.6424 35.3077 14.2771 34.3136C14.1203 33.8865 13.9273 33.4671 13.8216 33.0276C13.641 32.2741 13.4367 31.5218 13.464 30.7313C13.4842 30.1387 13.4373 29.5424 13.4777 28.9521C13.511 28.4631 13.5021 27.9645 13.7058 27.491C13.8364 27.1872 13.862 26.8399 13.9736 26.526C14.1756 25.9578 14.3573 25.3735 14.6371 24.8439C14.9869 24.1828 15.4021 23.5526 15.835 22.9414C16.3518 22.2123 16.9956 21.5953 17.6875 21.0318C18.1959 20.6178 18.737 20.2527 19.3197 19.9483C19.6 19.8018 19.8542 19.6004 20.1417 19.473C20.4921 19.3169 20.8627 19.2037 21.2291 19.0876C21.6597 18.9512 22.0904 18.8088 22.5299 18.7117C22.907 18.6283 23.2972 18.5682 23.6827 18.5634C24.6657 18.5515 25.6486 18.5741 26.6316 18.589C26.7777 18.5914 26.9297 18.6081 27.0681 18.6522C27.9822 18.9458 28.9123 19.1757 29.7895 19.5998C30.9839 20.177 32.0251 20.9341 32.9695 21.8561C33.8348 22.7008 34.5481 23.6592 35.0856 24.7308C35.5471 25.651 35.8863 26.6202 36.0936 27.6482C36.2741 28.5417 36.3311 29.4286 36.3317 30.3269C36.3317 30.8105 36.3181 31.302 36.2343 31.7761C36.1345 32.3414 35.9807 32.9013 35.8002 33.4469C35.6154 34.0056 35.4028 34.5602 35.145 35.0879C34.3575 36.6985 33.2528 38.0596 31.8131 39.13C31.2779 39.5279 30.7256 39.9139 30.1394 40.2278C29.6262 40.5029 29.0554 40.6691 28.5096 40.8824C28.4597 40.902 28.3926 40.8979 28.357 40.9306C28.1212 41.148 27.8105 41.0998 27.5367 41.1802C26.6738 41.4334 25.7959 41.4864 24.9062 41.4042ZM27.3508 26.4826C27.2974 26.3056 27.2208 26.1716 27.2214 26.0376C27.2249 24.7421 27.2416 23.4471 27.2534 22.1516C27.254 22.0986 27.2546 22.0438 27.2433 21.9926C27.1976 21.7817 27.0663 21.7233 26.8953 21.8395C26.7421 21.9437 26.5959 22.0587 26.4409 22.1605C25.9189 22.5036 25.4051 22.8622 24.867 23.1785C24.4406 23.4293 24.2665 23.7408 24.2748 24.2566C24.3063 26.2824 24.2748 28.3088 24.2933 30.3352C24.3022 31.2865 24.4714 32.2097 25.0547 33.0025C25.648 33.8079 26.3578 34.4482 27.3888 34.6233C27.4791 34.6388 27.5611 34.6989 27.6508 34.7252C27.8171 34.774 27.984 34.8252 28.1544 34.8538C28.8547 34.9718 29.5104 34.724 30.1619 34.5471C30.5795 34.4333 30.9608 34.1736 31.2975 33.8769C32.3203 32.9763 32.8667 31.8648 32.8548 30.4776C32.8453 29.4012 32.4676 28.4816 31.7822 27.6792C31.4413 27.2795 31.0237 26.9901 30.5432 26.7494C30.0437 26.4992 29.5436 26.2961 28.996 26.2556C28.4662 26.2163 27.9234 26.1687 27.3508 26.4826ZM16.9291 29.6318C16.9291 29.9695 16.9202 30.3072 16.932 30.6444C16.9409 30.8969 17.0621 30.9541 17.2634 30.8165C17.4624 30.6807 17.6537 30.5324 17.8592 30.4073C18.0914 30.2655 18.2048 30.2935 18.3587 30.5181C18.7156 31.0387 19.0738 31.5593 19.4188 32.0876C20.1458 33.2003 20.8627 34.3195 21.5879 35.4334C22.1889 36.3566 22.7942 37.2769 23.4 38.1978C23.4588 38.2871 23.5211 38.3783 23.5978 38.4509C23.7053 38.5522 23.8353 38.5736 23.9666 38.4879C24.5249 38.1204 25.0832 37.7528 25.6403 37.3835C25.8535 37.2418 25.8909 37.0476 25.7478 36.8314C25.4437 36.3727 25.1355 35.917 24.8326 35.4572C24.301 34.6507 23.77 33.8442 23.2426 33.0353C22.7657 32.3032 22.2994 31.5652 21.8189 30.8356C21.3984 30.197 20.9625 29.5686 20.5396 28.9319C20.1755 28.3839 19.8251 27.8263 19.4598 27.2795C19.2389 26.949 19.1623 26.9424 18.8469 27.1568C18.5374 27.3677 18.225 27.5744 17.912 27.7805C17.6768 27.9353 17.4416 28.0908 17.2023 28.2379C17.0116 28.3553 16.9243 28.5185 16.9285 28.7419C16.9326 29.0373 16.9291 29.3345 16.9291 29.6318Z" fill="#828282"/>
<path d="M88.4869 30.0138C88.4869 27.0951 88.4869 24.1764 88.4869 21.2577C88.4869 21.1767 88.4857 21.0957 88.4869 21.0147C88.494 20.6079 88.5884 20.5102 88.9858 20.512C90.5751 20.5179 92.1645 20.5269 93.7545 20.5328C94.5224 20.5358 95.2904 20.5334 96.0583 20.5334C96.3517 20.5334 96.6451 20.5275 96.9379 20.5382C97.0425 20.5418 97.147 20.5811 97.2492 20.6138C97.4024 20.6627 97.5497 20.7419 97.7059 20.7681C98.7429 20.9438 99.6677 21.4001 100.516 21.985C101.316 22.5354 101.965 23.255 102.491 24.0847C102.971 24.8418 103.311 25.6584 103.564 26.5102C103.789 27.2684 103.953 28.0434 103.947 28.8451C103.945 29.1811 104.007 29.5182 103.992 29.853C103.954 30.7 103.917 31.5494 103.823 32.391C103.776 32.8098 103.614 33.2184 103.485 33.6252C103.375 33.9701 103.245 34.3096 103.11 34.6456C102.675 35.7249 101.988 36.6285 101.15 37.4213C100.517 38.0187 99.7817 38.4625 98.987 38.7978C98.5819 38.9688 98.1472 39.07 97.7255 39.2023C96.9059 39.4596 96.0619 39.4626 95.2143 39.4602C93.2205 39.4536 91.2261 39.4584 89.2322 39.4584C89.1515 39.4584 89.0707 39.4596 88.9899 39.4578C88.5415 39.4489 88.488 39.3959 88.4875 38.9336C88.4863 35.9596 88.4869 32.9867 88.4869 30.0138ZM94.6822 23.9078C93.717 23.9078 93.0441 23.9084 92.3712 23.9072C92.1657 23.9066 92.0635 24.0186 92.0742 24.2378C92.0861 24.479 92.1087 24.7208 92.1081 24.9621C92.0974 28.5693 92.0837 32.1766 92.0707 35.7838C92.0701 36.0263 92.1835 36.1186 92.4246 36.0715C92.5024 36.0566 92.5814 36.0292 92.6592 36.031C93.2104 36.0418 93.761 36.0668 94.3122 36.0715C94.9554 36.0769 95.5998 36.0787 96.2424 36.0572C96.8791 36.0364 97.4499 35.7946 98.0106 35.5027C98.6176 35.1864 99.0642 34.7194 99.417 34.15C99.8393 33.4685 100.086 32.7288 100.246 31.9377C100.495 30.7041 100.512 29.4813 100.311 28.2465C100.207 27.6062 100.061 26.973 99.7799 26.391C99.4509 25.7108 99.025 25.0931 98.377 24.6613C97.9055 24.3468 97.4048 24.0686 96.8447 24.012C96.0316 23.9304 95.2096 23.9304 94.6822 23.9078Z" fill="#828282"/>
<path d="M56.4087 32.6394C56.4087 30.5987 56.398 28.5586 56.4176 26.5185C56.4217 26.095 56.5215 25.6685 56.61 25.2509C56.6848 24.8983 56.8001 24.5534 56.91 24.2092C57.2271 23.218 57.8531 22.4353 58.5955 21.7348C59.1069 21.2524 59.6973 20.8723 60.3381 20.6114C60.8008 20.4232 61.2819 20.2284 61.8004 20.2082C61.8806 20.2052 61.9726 20.21 62.038 20.1736C62.4763 19.9294 62.9503 20.0587 63.407 20.0122C63.8982 19.9622 64.3216 20.1659 64.7772 20.2368C65.2215 20.3059 65.661 20.422 66.0928 20.5513C66.2917 20.6108 66.4687 20.7484 66.6534 20.8551C67.5117 21.3489 68.2547 21.9677 68.832 22.7867C69.36 23.5355 69.7175 24.3622 69.8987 25.2462C70.0383 25.9264 70.1006 26.634 70.1042 27.3298C70.1232 31.127 70.1131 34.9237 70.1131 38.721C70.1131 38.8157 70.1149 38.9104 70.1125 39.0045C70.1042 39.3708 70.0317 39.4453 69.654 39.456C69.4253 39.4625 69.1961 39.4578 68.9668 39.4578C68.2933 39.4578 67.6192 39.4614 66.9456 39.456C66.5554 39.453 66.5121 39.3946 66.5133 39.0075C66.5168 37.5344 66.518 36.062 66.515 34.5889C66.5139 34.1905 66.4663 34.1482 66.0738 34.147C64.1738 34.1428 62.2744 34.1392 60.3744 34.138C60.053 34.138 59.9461 34.2637 59.9509 34.5842C59.9711 36.0548 59.9901 37.5255 60.002 38.9962C60.0049 39.3631 59.9153 39.4524 59.5482 39.4548C58.6454 39.4614 57.7426 39.4602 56.8399 39.456C56.4455 39.4542 56.4087 39.4137 56.4087 39.0045C56.4075 36.8828 56.4087 34.7611 56.4087 32.6394ZM63.2437 30.6982C63.2437 30.6892 63.2437 30.6803 63.2437 30.6714C64.1726 30.6714 65.1021 30.6725 66.031 30.6708C66.4913 30.6702 66.515 30.6487 66.5162 30.1948C66.5186 29.1548 66.5198 28.1148 66.5156 27.0754C66.5133 26.537 66.4741 26.0146 66.2804 25.491C65.8819 24.4147 65.114 23.8297 64.0217 23.6594C63.5911 23.5921 63.1492 23.5962 62.7032 23.6171C62.1615 23.6421 61.7072 23.8512 61.2819 24.0984C60.628 24.4784 60.23 25.0973 60.1113 25.8543C60.0406 26.3041 60.0186 26.7639 60.0091 27.2202C59.9931 27.9897 60.0085 28.7599 60.0026 29.5295C60.0008 29.7701 59.977 30.0114 59.9562 30.2514C59.9301 30.5516 60.0709 30.6999 60.3785 30.6994C61.3336 30.6964 62.2886 30.6982 63.2437 30.6982Z" fill="#828282"/>
<path d="M40.1265 29.9845C40.1265 27.0384 40.1265 24.0917 40.1265 21.1456C40.1265 21.0372 40.1205 20.9288 40.1294 20.8216C40.1484 20.5893 40.2298 20.5119 40.462 20.5113C41.4046 20.5083 42.3466 20.5077 43.2891 20.5089C43.5873 20.5095 43.7168 20.6417 43.7138 20.9145C43.7049 21.7115 43.6978 22.5085 43.696 23.3054C43.693 24.7517 43.6942 26.1979 43.696 27.6442C43.6966 28.0635 43.7471 28.1237 44.1515 28.1248C46.1056 28.1284 48.0596 28.1284 50.0137 28.1248C50.4211 28.1243 50.4763 28.0623 50.4763 27.6513C50.4775 25.5022 50.4769 23.3537 50.4769 21.2046C50.4769 21.1099 50.4746 21.0152 50.4775 20.9211C50.4894 20.569 50.5666 20.5113 50.9194 20.5148C51.7949 20.5232 52.6703 20.525 53.5452 20.5178C53.9176 20.5148 54.0055 20.5804 54.018 20.9443C54.0203 21.0116 54.0186 21.0795 54.0186 21.1468C54.0186 27.0396 54.0186 32.9323 54.0186 38.8251C54.0186 39.4565 54.0174 39.4577 53.3926 39.4583C52.6109 39.4589 51.8293 39.4595 51.0477 39.4583C50.4817 39.4577 50.4763 39.4529 50.4763 38.8995C50.4757 36.6152 50.4763 34.3315 50.4763 32.0472C50.4763 31.9525 50.4823 31.8578 50.4769 31.7637C50.4692 31.6231 50.392 31.5361 50.2524 31.5224C50.1325 31.5105 50.0101 31.5111 49.8895 31.5111C47.9895 31.5099 46.089 31.5093 44.189 31.5075C43.7791 31.5069 43.693 31.5915 43.693 31.9888C43.6942 34.2052 43.6936 36.4216 43.6948 38.6387C43.6948 38.7864 43.6877 38.9383 43.7162 39.0818C43.7578 39.2915 43.6562 39.3886 43.481 39.4321C43.3782 39.4571 43.2678 39.4577 43.1603 39.4577C42.3115 39.4595 41.4622 39.4606 40.6135 39.4583C40.1354 39.4571 40.1253 39.4446 40.1247 38.9472C40.1265 35.9582 40.1265 32.9716 40.1265 29.9845Z" fill="#828282"/>
<path d="M82.5289 32.6273C82.5289 30.8439 82.5301 29.0599 82.5277 27.2766C82.5271 26.9269 82.5253 26.5767 82.5034 26.2282C82.4446 25.2889 81.9884 24.555 81.224 24.0565C80.8593 23.8182 80.4377 23.574 79.9417 23.6759C79.8693 23.6908 79.7861 23.6437 79.7071 23.6395C79.4559 23.6264 79.2046 23.6151 78.9528 23.6127C78.8328 23.6115 78.7123 23.6312 78.5917 23.6431C77.5719 23.742 76.855 24.2739 76.3751 25.1709C76.1512 25.5903 76.1067 26.0442 76.0609 26.4969C76.0372 26.7327 76.1197 26.977 76.1203 27.217C76.1245 31.0953 76.1233 34.9729 76.1233 38.8512C76.1233 39.401 76.0746 39.454 75.5282 39.4564C74.6527 39.4606 73.7767 39.46 72.9006 39.4564C72.4665 39.4546 72.4207 39.4082 72.4201 38.959C72.4184 34.8782 72.4148 30.7974 72.4267 26.7167C72.4279 26.345 72.5306 25.9733 72.5894 25.6022C72.6043 25.5099 72.6423 25.4199 72.65 25.327C72.7159 24.5556 73.0645 23.8921 73.4263 23.2309C73.7268 22.6817 74.1099 22.1915 74.5815 21.793C75.0073 21.4332 75.4866 21.1295 75.9671 20.843C76.3193 20.6327 76.7042 20.4695 77.0902 20.3271C77.3118 20.2455 77.5636 20.2479 77.8018 20.2104C77.9212 20.1919 78.0506 20.1919 78.1569 20.1431C78.7366 19.8756 79.3466 20.0299 79.937 20.037C80.4246 20.043 80.93 20.1526 81.3927 20.3146C82.4077 20.6702 83.3764 21.133 84.1486 21.9169C84.8464 22.6251 85.3566 23.4448 85.71 24.3847C85.9446 25.0095 85.9357 25.6826 86.1953 26.2949C86.2499 26.4242 86.2315 26.588 86.2315 26.7363C86.2333 30.8034 86.2333 34.8705 86.2321 38.9382C86.2321 39.3754 86.1656 39.4504 85.7177 39.4546C84.8019 39.4624 83.8854 39.4606 82.969 39.4552C82.5966 39.4528 82.5319 39.3843 82.5301 38.9918C82.5259 37.7487 82.5283 36.5056 82.5283 35.2624C82.5289 34.3839 82.5289 33.5053 82.5289 32.6273Z" fill="#828282"/>
<path d="M118.733 29.9523C118.733 28.6955 118.73 27.4387 118.734 26.1819C118.737 25.3932 118.922 24.6433 119.185 23.9017C119.458 23.131 119.912 22.4924 120.499 21.9462C120.901 21.5716 121.352 21.2582 121.882 21.0772C122.199 20.9694 122.516 20.8621 122.825 20.7365C123.272 20.5548 123.743 20.5381 124.211 20.5363C126.246 20.5286 128.281 20.5327 130.315 20.5327C130.571 20.5327 130.827 20.519 131.08 20.5363C131.36 20.5554 131.422 20.6394 131.423 20.9211C131.425 21.8259 131.428 22.7313 131.431 23.6361C131.431 23.8868 131.363 23.981 131.109 24.0024C130.883 24.0215 130.654 24.0072 130.426 24.0072C128.553 24.0072 126.68 24.0018 124.807 24.0119C124.435 24.0137 124.051 24.0048 123.708 24.2055C123.663 24.2317 123.606 24.2377 123.554 24.2472C123.044 24.3366 122.528 24.8089 122.445 25.314C122.373 25.75 122.335 26.1932 122.307 26.6352C122.282 27.039 122.293 27.4452 122.286 27.8503C122.28 28.191 122.389 28.3054 122.741 28.3179C122.836 28.3214 122.93 28.3185 123.024 28.3185C125.167 28.3185 127.309 28.3179 129.452 28.3191C129.932 28.3191 129.983 28.3685 129.985 28.8516C129.988 29.6086 129.988 30.3651 129.985 31.1222C129.983 31.5755 129.928 31.6309 129.469 31.6315C127.488 31.6327 125.507 31.6321 123.527 31.6321C123.297 31.6321 123.069 31.6315 122.839 31.6321C122.316 31.6333 122.281 31.6779 122.298 32.2212C122.31 32.572 122.291 32.924 122.306 33.2749C122.321 33.6507 122.338 34.029 122.393 34.4006C122.507 35.1774 122.968 35.6062 123.741 35.8046C124.207 35.9243 124.669 35.944 125.141 35.944C127.001 35.9434 128.86 35.9434 130.72 35.944C130.827 35.944 130.936 35.9374 131.043 35.9475C131.358 35.9779 131.431 36.0726 131.428 36.3877C131.421 37.2657 131.418 38.1443 131.418 39.0223C131.418 39.3475 131.354 39.4303 131.038 39.4553C130.931 39.4637 130.823 39.4583 130.715 39.4583C128.734 39.4583 126.754 39.4535 124.773 39.4613C124.1 39.4637 123.442 39.4077 122.784 39.2415C121.639 38.9526 120.691 38.3617 119.955 37.4563C119.478 36.8696 119.17 36.1804 118.972 35.4418C118.767 34.677 118.72 33.9033 118.731 33.117C118.744 32.0609 118.733 31.0066 118.733 29.9523Z" fill="#828282"/>
<path d="M142.052 20.509C143.345 20.509 144.638 20.5114 145.931 20.5078C146.306 20.5066 146.511 20.6746 146.531 21.0624C146.548 21.3995 146.536 21.7378 146.533 22.0756C146.529 22.586 146.519 23.0959 146.519 23.6064C146.519 23.8149 146.405 23.9656 146.152 24.0049C145.995 24.0287 145.831 24.0073 145.67 24.0079C143.703 24.021 141.736 24.0025 139.771 24.0621C138.885 24.0889 138.536 24.5368 138.41 25.3784C138.384 25.5553 138.481 25.7769 138.582 25.9407C138.854 26.3839 139.26 26.7091 139.678 27.0004C140.799 27.7819 141.963 28.5032 143.06 29.3163C144.031 30.0352 144.949 30.8322 145.62 31.8621C146.013 32.4643 146.256 33.1225 146.383 33.8373C146.522 34.6187 146.396 35.3812 146.198 36.112C145.976 36.9311 145.562 37.6857 144.866 38.2236C144.446 38.5482 144.034 38.9324 143.552 39.1135C143.041 39.3053 142.492 39.4661 141.916 39.4632C139.49 39.4501 137.064 39.4584 134.639 39.4566C134.211 39.456 134.181 39.4238 134.18 38.9938C134.177 38.2772 134.179 37.5613 134.178 36.8447C134.178 36.7363 134.185 36.6279 134.174 36.5207C134.12 35.9989 134.168 35.9435 134.695 35.9429C136.46 35.9423 138.226 35.9506 139.991 35.9369C140.43 35.9333 140.871 35.9691 141.306 35.8077C141.534 35.7231 141.705 35.6081 141.856 35.4324C142.3 34.9172 142.309 34.3442 141.873 33.8247C141.498 33.3792 141.028 33.0462 140.556 32.7174C139.767 32.1688 138.992 31.5988 138.182 31.0836C137.51 30.6559 136.907 30.1484 136.314 29.626C135.561 28.9625 134.928 28.1965 134.53 27.2672C134.368 26.8884 134.245 26.4756 134.202 26.0676C134.1 25.117 134.256 24.1991 134.618 23.3026C134.983 22.399 135.611 21.7462 136.392 21.2214C136.653 21.0457 136.968 20.9486 137.259 20.8176C137.307 20.7955 137.369 20.7961 137.411 20.7663C137.831 20.4715 138.309 20.534 138.777 20.5334C139.868 20.5322 140.96 20.5328 142.052 20.5328C142.052 20.5251 142.052 20.5173 142.052 20.509Z" fill="#828282"/>
<path d="M105.982 27.1319C105.982 25.1591 105.982 23.1863 105.982 21.2129C105.982 21.1051 105.975 20.9961 105.986 20.8889C106.014 20.6107 106.129 20.5083 106.404 20.5089C107.333 20.5089 108.262 20.5083 109.19 20.5101C109.466 20.5107 109.581 20.6381 109.575 20.958C109.571 21.1724 109.527 21.3857 109.527 21.5995C109.524 25.4373 109.521 29.2751 109.528 33.1128C109.53 33.6626 109.563 34.2124 109.763 34.7413C109.974 35.2995 110.345 35.6443 110.927 35.7885C111.389 35.9028 111.851 35.9487 112.325 35.9463C113.902 35.9374 115.478 35.9428 117.055 35.9428C117.136 35.9428 117.217 35.938 117.297 35.9445C117.554 35.9648 117.662 36.0833 117.662 36.3293C117.662 37.1763 117.664 38.0239 117.665 38.871C117.665 38.9657 117.67 39.061 117.659 39.1545C117.637 39.3368 117.542 39.4523 117.345 39.4535C117.25 39.4541 117.156 39.4571 117.062 39.4571C115.216 39.4571 113.37 39.4642 111.524 39.4541C110.751 39.4499 110.02 39.248 109.291 38.9829C108.358 38.644 107.636 38.0555 107.073 37.2693C106.795 36.8803 106.583 36.4342 106.4 35.9892C106.12 35.3114 106.034 34.593 106.03 33.8562C106.018 31.6148 105.982 29.3733 105.955 27.1319C105.964 27.1319 105.973 27.1319 105.982 27.1319Z" fill="#828282"/>
<path d="M28.4622 32.6712C27.9218 32.5998 27.4211 32.3347 27.0012 31.8933C26.6923 31.5687 26.5795 31.1494 26.4345 30.7491C26.3835 30.6079 26.3918 30.4203 26.4357 30.2732C26.6775 29.4643 27.1568 28.8448 27.939 28.4904C28.0091 28.4588 28.0952 28.4558 28.1742 28.4523C28.3221 28.4463 28.4712 28.4618 28.6179 28.4481C29.4114 28.3718 29.959 28.8251 30.329 29.4107C30.917 30.3422 30.7857 31.231 30.0041 32.053C29.6014 32.4759 29.0835 32.6015 28.4622 32.6712Z" fill="#828282"/>
</svg>