<svg xmlns="http://www.w3.org/2000/svg" width="160" height="60" viewBox="0 0 160 60" fill="none">
<path d="M17.5607 26.0134C17.5607 26.1615 17.5607 26.3068 17.5607 26.453C17.5607 30.5556 17.5607 34.6583 17.5607 38.7609C17.5607 38.8468 17.5607 38.9327 17.5607 39.0186C17.5598 39.5149 17.5243 39.5505 17.0112 39.5523C16.4963 39.5542 15.9824 39.5533 15.4675 39.5533C14.7694 39.5533 14.0705 39.556 13.3724 39.5514C13.2303 39.5505 13.0881 39.5231 12.9341 39.5076C12.9341 33.153 12.9341 26.8314 12.9341 20.4631C13.0817 20.4467 13.2221 20.4156 13.3633 20.4165C15.36 20.4211 17.3566 20.4293 19.3542 20.4366C19.4152 20.4366 19.4763 20.4321 19.5373 20.4284C19.9237 20.4028 20.0704 20.486 20.2153 20.8397C20.5352 21.6192 20.8459 22.4025 21.1685 23.1811C21.4064 23.756 21.667 24.3217 21.9003 24.8984C22.202 25.6433 22.479 26.3973 22.7825 27.1412C22.9392 27.5232 23.1297 27.8915 23.3101 28.2635C23.3411 28.3284 23.3903 28.3869 23.4413 28.439C23.6318 28.6346 23.7402 28.6254 23.9298 28.428C24.1922 28.1557 24.3143 27.8065 24.4629 27.4739C24.6014 27.1631 24.7044 26.8359 24.8329 26.5206C25.0534 25.9796 25.283 25.4413 25.5063 24.9012C25.7214 24.383 25.9364 23.8639 26.146 23.3438C26.4021 22.7096 26.6509 22.0726 26.9079 21.4383C27.0081 21.1906 27.1147 20.9448 27.2314 20.7044C27.338 20.4841 27.5066 20.3946 27.7681 20.4193C28.1081 20.4512 28.4534 20.4366 28.7961 20.4366C30.3772 20.4375 31.9574 20.4375 33.5385 20.4366C33.7462 20.4366 33.954 20.4275 34.1627 20.4193C34.447 20.4083 34.5673 20.5015 34.6102 20.783C34.6247 20.8799 34.6229 20.9786 34.6229 21.0773C34.6238 27.0589 34.6238 33.0406 34.6238 39.0223C34.6238 39.0469 34.6238 39.0716 34.6238 39.0963C34.6165 39.4902 34.5664 39.5478 34.1791 39.5523C33.6524 39.5587 33.1257 39.5542 32.598 39.5542C31.8508 39.5542 31.1035 39.5551 30.3553 39.5533C30.246 39.5533 30.1339 39.5514 30.0272 39.5295C29.8687 39.4966 29.7657 39.4006 29.7621 39.2252C29.7602 39.1392 29.7602 39.0533 29.7602 38.9674C29.7602 34.8648 29.7593 30.7622 29.763 26.6596C29.763 26.4905 29.8177 26.3214 29.8149 26.1532C29.8131 26.0573 29.7694 25.9101 29.7028 25.8818C29.6363 25.8526 29.4805 25.9129 29.4294 25.9823C29.2162 26.2693 29.0622 26.5947 29.0339 26.9557C29.0203 27.1311 28.9747 27.281 28.9146 27.4437C28.8289 27.6768 28.8289 27.9409 28.7624 28.1831C28.6968 28.4253 28.602 28.6611 28.5081 28.895C28.335 29.3255 28.1919 29.7751 27.9641 30.1754C27.7062 30.6287 27.3845 31.0492 27.0628 31.4622C26.7156 31.9073 26.2618 32.2437 25.7879 32.5389C25.5145 32.7088 25.2047 32.8277 24.8976 32.9309C24.7609 32.9775 24.5832 32.8971 24.4401 32.9346C23.9289 33.0671 23.4258 33.0561 22.9173 32.9318C22.7888 32.9008 22.6503 32.9081 22.5182 32.8916C22.4362 32.8816 22.3496 32.8724 22.2749 32.8414C21.3508 32.453 20.5516 31.9009 19.9757 31.0601C19.6795 30.6269 19.4179 30.1773 19.2029 29.6947C18.8684 28.9426 18.6215 28.1685 18.4556 27.3642C18.3672 26.9374 18.2551 26.5142 18.0373 26.1276C17.928 25.9357 17.7995 25.8946 17.5607 26.0134Z" fill="#828282"/>
<path d="M106.134 28.312C105.449 28.312 104.764 28.3193 104.078 28.3074C103.873 28.3037 103.664 28.2626 103.467 28.2041C103.362 28.1731 103.255 28.0844 103.189 27.993C102.82 27.4812 102.511 26.9274 102.068 26.4677C101.661 26.0445 101.21 25.6936 100.698 25.3975C99.9757 24.978 99.1947 24.8317 98.3873 24.8199C97.7412 24.8107 97.0878 24.8445 96.4499 24.9396C96.0389 25.0008 95.6507 25.2128 95.2488 25.3481C94.8643 25.4779 94.5371 25.699 94.209 25.9339C93.7853 26.2364 93.449 26.6121 93.182 27.048C92.9861 27.367 92.7902 27.6987 92.6744 28.0506C92.5377 28.4655 92.4493 28.9051 92.4092 29.341C92.3646 29.8245 92.3819 30.3162 92.4074 30.8033C92.4192 31.0309 92.5468 31.2521 92.5614 31.4796C92.5869 31.8964 92.7756 32.2601 92.9414 32.6156C93.161 33.0854 93.4955 33.4948 93.8828 33.8549C94.3922 34.3284 94.9982 34.6528 95.6461 34.8456C96.1519 34.9964 96.6677 35.1792 97.2118 35.1801C97.8342 35.181 98.4557 35.1829 99.0781 35.1765C99.1847 35.1756 99.2922 35.139 99.3961 35.1088C99.5246 35.0714 99.6486 35.0111 99.7789 34.9827C100.713 34.7817 101.52 34.343 102.182 33.6557C102.433 33.3961 102.64 33.0927 102.854 32.8003C102.988 32.6147 103.08 32.3954 103.224 32.219C103.5 31.8836 103.859 31.6889 104.303 31.6889C105.443 31.688 106.583 31.6871 107.723 31.6889C108.217 31.6898 108.279 31.7538 108.283 32.2355C108.289 32.7646 108.199 33.2691 108.064 33.7873C107.756 34.9644 107.087 35.8948 106.245 36.7192C105.777 37.178 105.276 37.6075 104.755 38.006C104.376 38.2957 103.968 38.5543 103.507 38.7216C103.168 38.8441 102.854 39.0342 102.52 39.1749C102.286 39.2736 102.043 39.354 101.796 39.418C101.162 39.5825 100.543 39.8293 99.8718 39.8147C99.7871 39.8128 99.6996 39.8174 99.6167 39.8348C98.8056 40.0075 97.9827 39.9581 97.1635 39.9572C97.0186 39.9572 96.8746 39.9088 96.7297 39.8932C96.3415 39.8512 95.9514 39.8256 95.5641 39.7735C95.3482 39.7443 95.1386 39.673 94.9253 39.6209C94.7831 39.5862 94.6401 39.5569 94.4997 39.5176C94.3138 39.4655 94.1298 39.407 93.9466 39.3476C93.8773 39.3257 93.8126 39.2864 93.7425 39.269C92.894 39.0616 92.1431 38.6494 91.4095 38.1888C90.5739 37.6633 89.8622 37.0007 89.2616 36.2266C88.8761 35.7303 88.5198 35.2048 88.2847 34.6089C88.1653 34.3055 87.9521 34.0304 87.8774 33.7188C87.758 33.2216 87.4919 32.7655 87.4828 32.2391C87.48 32.0938 87.4527 31.9448 87.4108 31.8059C87.265 31.3197 87.2285 30.8189 87.2194 30.3171C87.2066 29.6445 87.193 28.9691 87.336 28.3037C87.4026 27.9939 87.4299 27.6731 87.5183 27.3697C87.6395 26.9502 87.7917 26.5389 87.9484 26.1313C88.0487 25.8718 88.1835 25.6259 88.2975 25.371C88.6848 24.5046 89.2589 23.7734 89.9004 23.0834C90.3597 22.5899 90.9029 22.2051 91.4387 21.8094C91.6592 21.6467 91.9226 21.5425 92.1696 21.4173C92.4593 21.2711 92.7528 21.1303 93.0444 20.9878C93.0772 20.9713 93.1109 20.9558 93.1456 20.9457C93.5374 20.8242 93.9302 20.7054 94.3229 20.5829C94.415 20.5546 94.5052 20.518 94.5963 20.486C94.7112 20.4458 94.8232 20.3928 94.9417 20.3681C95.3217 20.2877 95.7026 20.2054 96.0863 20.146C96.3624 20.1031 96.644 20.0757 96.9238 20.072C97.6592 20.0619 98.3946 20.0519 99.1291 20.0757C99.4663 20.0866 99.8017 20.1753 100.138 20.2319C100.185 20.2402 100.23 20.2813 100.275 20.2804C100.824 20.2694 101.322 20.4961 101.835 20.6377C102.228 20.7465 102.601 20.9284 102.981 21.0837C103.205 21.176 103.429 21.2729 103.645 21.3807C104.058 21.5855 104.488 21.7655 104.87 22.0187C105.406 22.3733 105.934 22.7553 106.336 23.2689C106.686 23.7167 107.022 24.1792 107.332 24.6563C107.501 24.9176 107.595 25.2284 107.739 25.508C107.926 25.869 108 26.2648 108.114 26.6477C108.242 27.0745 108.302 27.5095 108.279 27.9537C108.265 28.2388 108.162 28.3421 107.86 28.3458C107.284 28.354 106.708 28.3485 106.132 28.3485C106.134 28.3348 106.134 28.3238 106.134 28.312Z" fill="#828282"/>
<path d="M67.0533 32.9409C66.8073 33.0671 66.626 33.1941 66.4838 33.3906C65.8377 34.2881 65.1843 35.1801 64.5291 36.0711C63.7946 37.071 63.0564 38.0681 62.3192 39.0652C62.2326 39.1822 62.1469 39.301 62.0458 39.4042C61.9902 39.4609 61.9073 39.5048 61.8298 39.5194C61.6986 39.545 61.5628 39.5505 61.4288 39.5505C59.7502 39.5523 58.0707 39.5523 56.3921 39.5514C56.2818 39.5514 56.1698 39.5578 56.0631 39.5358C55.8654 39.4965 55.8034 39.3055 55.9319 39.1447C56.4404 38.5077 56.9589 37.878 57.4592 37.2337C58.13 36.3682 58.7833 35.4899 59.4513 34.6217C59.8815 34.0623 60.3298 33.5167 60.759 32.9565C61.2612 32.2994 61.7469 31.6304 62.2454 30.9705C62.4941 30.6406 62.7557 30.3207 63.0118 29.9954C62.4103 29.2222 61.8271 28.4764 61.2502 27.7261C60.9103 27.2837 60.5868 26.8286 60.2442 26.389C59.8332 25.8626 59.4067 25.349 58.9929 24.8234C58.6849 24.4323 58.3897 24.0302 58.0862 23.6353C57.5896 22.9883 57.0929 22.3412 56.5917 21.6969C56.3903 21.4383 56.1661 21.197 55.9793 20.9283C55.9128 20.8323 55.8909 20.6724 55.9128 20.5536C55.9392 20.4101 56.0932 20.4128 56.2171 20.4128C57.9814 20.4156 59.7457 20.4192 61.5099 20.4202C61.7742 20.4202 61.9683 20.5143 62.1278 20.7382C62.6791 21.5114 63.246 22.2736 63.8082 23.0386C64.3486 23.7734 64.8918 24.5054 65.4349 25.2384C65.8031 25.7346 66.1685 26.2336 66.543 26.7253C66.841 27.1174 67.1618 27.1138 67.4552 26.7189C68.095 25.8589 68.7338 24.998 69.3699 24.1344C69.9321 23.3703 70.4889 22.6017 71.0485 21.8358C71.32 21.4639 71.5825 21.0846 71.8723 20.7272C72.0263 20.5371 72.2359 20.4174 72.5056 20.4183C74.2453 20.4211 75.9849 20.4147 77.7246 20.4128C77.7857 20.4128 77.8467 20.4183 77.9069 20.4275C78.1183 20.4604 78.1465 20.5143 78.1128 20.7199C78.0673 20.9968 77.8413 21.1504 77.6918 21.3505C77.0949 22.1502 76.4743 22.9316 75.8628 23.7194C75.2741 24.478 74.6845 25.2365 74.0986 25.9969C73.5709 26.6806 73.0506 27.3697 72.522 28.0524C72.1129 28.5815 71.6991 29.1079 71.2799 29.6298C71.0585 29.9067 71.0457 30.0557 71.2417 30.3134C71.6991 30.912 72.1484 31.518 72.6104 32.1129C73.19 32.8605 73.7851 33.5962 74.3638 34.3447C74.8777 35.0101 75.3735 35.6891 75.8856 36.3563C76.2702 36.858 76.6675 37.3506 77.0585 37.8478C77.3902 38.2691 77.7228 38.6886 78.0518 39.1109C78.2295 39.3393 78.1611 39.5057 77.8759 39.5413C77.7793 39.5532 77.68 39.5477 77.5824 39.5477C75.9284 39.5477 74.2735 39.5486 72.6195 39.5468C72.4856 39.5468 72.3434 39.5559 72.2195 39.5176C72.1001 39.4801 71.9661 39.4106 71.8932 39.3138C71.4868 38.7672 71.1031 38.2042 70.6994 37.6559C70.2019 36.9796 69.6888 36.3133 69.1885 35.6398C68.7821 35.0923 68.3847 34.5394 67.9801 33.9901C67.8216 33.7744 67.6667 33.556 67.4926 33.354C67.355 33.2051 67.1964 33.0771 67.0533 32.9409Z" fill="#828282"/>
<path d="M130.973 30.0099C130.973 27.0615 130.973 24.1132 130.973 21.1649C130.973 21.079 130.97 20.9931 130.974 20.9072C130.987 20.5919 131.13 20.4356 131.447 20.4173C131.618 20.4072 131.789 20.4347 131.96 20.4347C136.666 20.4356 141.372 20.4356 146.078 20.4347C146.237 20.4347 146.395 20.4127 146.555 20.41C146.918 20.4027 147.046 20.5197 147.062 20.8797C147.07 21.0762 147.063 21.2727 147.063 21.4692C147.063 22.194 147.065 22.9187 147.062 23.6435C147.062 24.0584 146.967 24.1461 146.572 24.1443C143.693 24.1315 140.814 24.1123 137.935 24.1196C137.514 24.1205 137.094 24.2476 136.674 24.317C136.65 24.3207 136.627 24.3326 136.604 24.3408C136.449 24.3911 136.256 24.3326 136.148 24.5208C136.014 24.7539 135.848 24.9714 135.861 25.2611C135.887 25.8597 135.793 26.4638 135.94 27.0579C136.042 27.4692 136.548 27.8027 136.97 27.7662C137.179 27.7488 137.393 27.8055 137.604 27.8055C139.541 27.8091 141.476 27.8036 143.413 27.811C143.764 27.8119 144.123 27.8146 144.448 27.9919C144.488 28.0139 144.561 28.0376 144.585 28.0184C144.774 27.8631 144.904 28.0431 145.044 28.1043C145.619 28.3538 145.957 28.8236 146.136 29.4021C146.193 29.5876 146.177 29.8234 146.118 30.0126C145.964 30.5134 145.654 30.9137 145.212 31.2016C145.122 31.2592 145.046 31.3451 144.915 31.2775C144.877 31.2574 144.803 31.2985 144.749 31.3177C144.489 31.4091 144.223 31.5891 143.972 31.5699C143.741 31.5517 143.503 31.5188 143.267 31.5188C141.661 31.5169 140.056 31.5151 138.451 31.5197C138.011 31.5206 137.567 31.5124 137.131 31.5654C136.787 31.6074 136.431 31.7098 136.174 31.9666C135.931 32.2097 135.854 32.5332 135.857 32.8787C135.864 33.4563 135.861 34.033 135.858 34.6106C135.856 35.0849 136.028 35.4633 136.446 35.7109C136.486 35.7347 136.534 35.7658 136.577 35.763C137.035 35.7374 137.484 35.8453 137.94 35.8444C140.661 35.8389 143.382 35.8425 146.102 35.8407C146.285 35.8407 146.469 35.8133 146.651 35.8188C146.902 35.827 147 35.9202 147.044 36.1679C147.059 36.252 147.06 36.3388 147.06 36.4247C147.061 37.3094 147.062 38.1932 147.06 39.0778C147.059 39.4919 147.006 39.5476 146.595 39.5503C145.774 39.5549 144.953 39.5522 144.132 39.5522C140.002 39.5522 135.872 39.5522 131.742 39.5503C131.571 39.5503 131.401 39.5302 131.23 39.5165C131.049 39.5028 130.974 39.3931 130.97 39.2222C130.968 39.1245 130.969 39.0258 130.969 38.927C130.973 35.955 130.973 32.9829 130.973 30.0099Z" fill="#828282"/>
<path d="M38.2153 30.0485C38.2153 27.1002 38.2153 24.1519 38.2153 21.2045C38.2153 21.0692 38.2116 20.933 38.2298 20.8005C38.2663 20.5282 38.3984 20.4249 38.6764 20.4258C39.5831 20.4304 40.4899 20.4359 41.3966 20.4359C45.379 20.4368 49.3622 20.4368 53.3446 20.4359C53.5159 20.4359 53.6872 20.4167 53.8586 20.4249C54.1757 20.4395 54.327 20.5921 54.3288 20.912C54.3343 21.8451 54.3333 22.7792 54.3288 23.7132C54.327 24.0349 54.2759 24.0925 53.9442 24.1199C53.751 24.1364 53.5551 24.1117 53.3601 24.1117C50.6399 24.1108 47.9187 24.0989 45.1985 24.1217C44.6663 24.1263 44.1305 24.2396 43.6074 24.353C43.375 24.4032 43.1946 24.6125 43.1408 24.8657C43.098 25.0676 43.0816 25.2788 43.0834 25.4853C43.087 25.9624 43.087 26.4413 43.1299 26.9156C43.17 27.3717 43.5801 27.7445 44.0266 27.7765C44.2945 27.7957 44.5643 27.8058 44.834 27.8067C46.5746 27.8094 48.3142 27.8167 50.0548 27.8039C50.7456 27.7985 51.4208 27.8844 52.0806 28.0699C52.683 28.239 53.3273 28.8833 53.32 29.6501C53.3136 30.373 52.9646 30.8656 52.4087 31.1663C51.9868 31.3938 51.4883 31.5291 50.9698 31.5245C49.0706 31.5099 47.1706 31.5181 45.2714 31.5191C44.7219 31.52 44.176 31.5282 43.6593 31.7676C43.385 31.8947 43.2119 32.0967 43.1408 32.3699C43.0861 32.5792 43.087 32.8059 43.0834 33.0252C43.0761 33.5653 43.0725 34.1064 43.0843 34.6465C43.0916 34.9902 43.1199 35.3329 43.4461 35.5586C43.6083 35.671 43.7614 35.7716 43.9756 35.7752C44.5005 35.7844 45.0254 35.8392 45.5503 35.8401C48.2705 35.8474 50.9916 35.8428 53.7118 35.8438C53.834 35.8438 53.967 35.8264 54.0754 35.8684C54.2459 35.9352 54.3324 36.085 54.3324 36.2779C54.3315 37.2485 54.3352 38.2191 54.3288 39.1887C54.327 39.4227 54.2568 39.4912 54.029 39.5315C53.9214 39.5506 53.8103 39.5525 53.7 39.5525C48.7371 39.5534 43.7733 39.5534 38.8103 39.5534C38.7611 39.5534 38.7119 39.5552 38.6636 39.5525C38.3009 39.5342 38.218 39.4465 38.218 39.0754C38.2153 36.0658 38.2153 33.0572 38.2153 30.0485Z" fill="#828282"/>
<path d="M110.43 27.3878C110.43 25.3114 110.43 23.2359 110.43 21.1594C110.43 21.0735 110.427 20.9876 110.431 20.9017C110.446 20.5745 110.616 20.4155 110.946 20.4173C112.024 20.4237 113.102 20.431 114.18 20.4356C114.388 20.4365 114.596 20.4265 114.804 20.4246C115.108 20.421 115.31 20.6019 115.339 20.9081C115.349 21.0178 115.342 21.1293 115.342 21.2398C115.342 24.9248 115.339 28.6107 115.346 32.2956C115.347 32.6118 115.373 32.9372 115.452 33.2415C115.518 33.4947 115.653 33.7414 115.805 33.9562C116.116 34.3958 116.529 34.7239 116.983 35.0209C117.286 35.2193 117.653 35.2348 117.934 35.4541C118.776 35.53 119.618 35.7411 120.467 35.5026C120.545 35.4806 120.631 35.4907 120.712 35.4779C120.842 35.456 120.974 35.4368 121.1 35.3993C121.273 35.3481 121.447 35.2933 121.609 35.2165C121.805 35.1233 122.005 35.0273 122.174 34.8948C122.684 34.4927 123.157 34.0494 123.409 33.4289C123.537 33.1117 123.619 32.7818 123.596 32.4327C123.588 32.3102 123.593 32.1869 123.593 32.0644C123.593 28.5513 123.593 25.0372 123.592 21.5241C123.592 21.3779 123.582 21.2307 123.564 21.0863C123.512 20.676 123.76 20.4118 124.176 20.4146C125.437 20.4219 126.699 20.4219 127.961 20.4191C128.308 20.4182 128.524 20.633 128.523 20.9913C128.516 23.3008 128.51 25.6093 128.506 27.9188C128.504 29.7247 128.505 31.5306 128.506 33.3366C128.506 33.8538 128.397 34.3538 128.276 34.8528C128.053 35.774 127.594 36.5755 126.986 37.2856C126.618 37.7152 126.259 38.1657 125.73 38.4308C125.506 38.5423 125.336 38.7781 125.107 38.8576C124.802 38.9627 124.569 39.2332 124.222 39.2305C124.187 39.2305 124.142 39.236 124.117 39.257C123.745 39.5613 123.291 39.4909 122.863 39.5385C122.486 39.5805 122.112 39.6426 121.734 39.6655C120.941 39.713 120.146 39.777 119.352 39.7688C118.401 39.7587 117.446 39.7624 116.501 39.5823C116.156 39.5165 115.797 39.5293 115.444 39.5083C115.407 39.5065 115.366 39.5248 115.335 39.5129C115.007 39.3868 114.676 39.2698 114.357 39.1245C114.094 39.0047 113.845 38.8539 113.594 38.7086C112.989 38.3558 112.464 37.9071 111.999 37.3834C111.576 36.9073 111.242 36.369 110.959 35.8051C110.783 35.4514 110.689 35.0529 110.581 34.6672C110.316 33.7168 110.446 32.7416 110.434 31.7774C110.417 30.3115 110.43 28.8492 110.43 27.3878Z" fill="#828282"/>
<path d="M84.8487 33.6237C84.8487 35.3053 84.8487 36.9869 84.8496 38.6685C84.8496 38.8157 84.8578 38.9619 84.8679 39.109C84.8852 39.3823 84.8086 39.4883 84.538 39.5349C84.4423 39.5514 84.343 39.5532 84.2454 39.5532C83.0207 39.5541 81.7968 39.5541 80.572 39.5532C80.4864 39.5532 80.3998 39.5559 80.315 39.5441C80.0672 39.5093 79.9642 39.3741 79.9651 39.1182C79.9724 35.5347 79.9788 31.9512 79.9861 28.3686C79.9861 28.2004 79.9769 28.0286 80.0079 27.865C80.0462 27.6621 80.1811 27.5525 80.4016 27.5589C80.6221 27.5653 80.8427 27.5598 81.0623 27.5598C82.103 27.5598 83.1437 27.5589 84.1844 27.5607C84.2947 27.5607 84.4049 27.5616 84.5134 27.5771C84.7084 27.6036 84.8177 27.727 84.8414 27.919C84.8542 28.0277 84.8487 28.1392 84.8487 28.2498C84.8487 30.0393 84.8487 31.8315 84.8487 33.6237Z" fill="#828282"/>
<path d="M82.3968 20.0674C82.5071 20.0674 82.6182 20.0784 82.7276 20.0656C83.186 20.0135 83.5578 20.2511 83.9223 20.4567C84.4791 20.7702 84.8509 21.271 85.0805 21.8642C85.158 22.0652 85.1972 22.291 85.2027 22.5067C85.2118 22.8476 85.2245 23.2003 85.1516 23.5294C85.0332 24.0649 84.7197 24.51 84.2977 24.8582C84.059 25.0556 83.7801 25.2055 83.5168 25.3728C83.4767 25.3983 83.4265 25.4102 83.3792 25.4221C82.7394 25.5756 82.0915 25.5958 81.4609 25.4203C81.0772 25.3133 80.7218 25.0885 80.4375 24.8052C79.7395 24.1097 79.4123 23.2725 79.6173 22.28C79.7577 21.5973 80.135 21.0599 80.6735 20.6203C80.9332 20.4083 81.2312 20.2712 81.5301 20.1597C81.7953 20.0601 82.1024 20.0729 82.3913 20.0354C82.3941 20.0455 82.3959 20.0564 82.3968 20.0674Z" fill="#828282"/>
</svg>