<svg xmlns="http://www.w3.org/2000/svg" fill="none" height="60" viewBox="0 0 160 60" width="160"><g fill="#828282"><path d="m34.2445 11.931c.0331-.1405.0839-.2512.0806-.3596-.0221-.5766.246-1.069.4579-1.57249.2152-.51235.5219-.96936.8982-1.38765.4656-.51677 1.0129-.91514 1.6175-1.23937.2715-.14496.5572-.31537.8518-.35189.3564-.04427.683-.20693 1.0681-.17263.3531.03099.7217-.1173 1.0847.02103.4866-.08742.9125.13057 1.3538.27221.2571.08299.5142.16267.7437.31206.1777.11619.3708.21025.544.33197.3939.27554.7635.57211 1.078.95056.4138.49574.7018 1.05457.9589 1.6344.0959.218.1268.4648.1886.6983.0442.1671.0883.333.1324.5001.0078.0288.021.0576.0221.0875.0188.3187.0188.3164.3354.322.2946.0044.5948-.0443.8706.1228.0552.0332.1401.0166.2119.0243.0607.0056.128-.0022.182.0211.3001.1317.6014.2622.8938.4094.1853.0941.3564.2147.5329.3253.2957.1848.5594.4028.8077.6518.5274.529.9191 1.1453 1.2115 1.8259.1357.3165.2483.6451.2053 1.0081-.0254.2135-.0034.4315-.0056.6484-.0011.135-.0044.2667.1049.3729.0342.0332.0629.0908.0617.1373-.0022.2423.0034.4857-.0264.7259-.0276.2213-.0784.4437-.1534.6529-.1059.2965-.2439.5809-.3674.8697-.2295.5334-.576.9926-.9677 1.4087-.2781.2943-.6014.5533-.9357.7835-.3222.2224-.6742.4061-1.0306.5687-.2129.0974-.459.1251-.6907.1815-.0397.01-.0894-.0044-.1214.0155-.3707.2224-.7812.1295-1.1729.135-1.078.0155-2.1571.0022-3.2351.0089-.1699.0011-.3399.052-.5109.0796-.0794.0133-.16.0388-.2394.0377-.1589-.0023-.2968.0365-.4392.1117-.1456.0786-.3244.0941-.4733.1682-.3608.1804-.7459.3353-1.0626.5777-.5285.4061-1.0074.8753-1.3373 1.4717-.3067.5544-.6058 1.111-.9125 1.6654-.0894.1605-.2063.3076-.288.4714-.1037.2092-.288.2601-.4855.2578-.1953-.0033-.3487-.0597-.4634-.2744-.4866-.9085-1.003-1.8015-1.5139-2.6956-.4104-.7182-.9235-1.3534-1.5988-1.838-.2615-.187-.5451-.3508-.8363-.4869-.4701-.2191-.8971-.498-1.28-.8444-.5031-.4548-.9643-.9494-1.2755-1.5591-.1523-.2977-.2196-.6407-.3829-.9307-.1975-.3541-.1809-.7502-.2604-1.1198-.0838-.3951-.128-.8344.0596-1.2394.0166-.0365.0232-.0797.0254-.1195.0386-.6341.2824-1.1995.5715-1.7528.3123-.5976.7514-1.0878 1.2358-1.5492.373-.3552.8066-.6252 1.2568-.841.3255-.1549.6631-.3331 1.0515-.3541.2395-.0133.4734-.1151.7139-.1505.1391-.021.2847.0144.4281.0144.0707-.0034.1391-.0277.2262-.0443z"/><path d="m70.8513 36.4439c.5428-1.0246 1.0526-1.9885 1.5646-2.9512.3111-.5854.6289-1.1674.9401-1.7539.3873-.7304.7679-1.4651 1.1541-2.1955.1755-.3331.3575-.6617.5374-.9926.2008-.3685.4093-.7325.6002-1.1054.3288-.6408.8187-1.1443 1.3351-1.6311.3884-.3663.8629-.5987 1.3053-.8809.1468-.0929.3608-.0808.5021-.1792.2383-.1649.5395-.0941.769-.2568.0078-.0055.0177-.011.0276-.0133.4105-.0663.8232-.0686 1.2844-.0896-.0331.1406-.0353.2335-.075.3076-.5606 1.0447-1.1299 2.0859-1.6904 3.1306-.3708.6927-.7305 1.3909-1.0979 2.0847-.4954.9373-.9898 1.8746-1.4885 2.8096-.331.6208-.6709 1.2383-1.003 1.8591-.4049.7558-.8099 1.5116-1.2071 2.2707-.4259.8122-.832 1.6344-1.2678 2.44-.3553.6562-.7128 1.3224-1.3406 1.7683-.2946.2092-.6223.3718-.9346.5566-.2913.1738-.6389.1605-.9489.2888-.1865.0775-.4171.0443-.6477.0631-.1236-.4304-.2306-.8288-.3542-1.2216-.075-.2424-.1787-.4748-.2615-.7149-.0563-.1616-.1037-.3264-.1501-.4913-.107-.3829-.2085-.7669-.3188-1.1486-.1578-.5467-.3035-1.0978-.4877-1.6356-.1633-.478-.3024-.9605-.4381-1.4463-.1125-.4005-.2659-.7901-.3895-1.1884-.1214-.3895-.2229-.7846-.342-1.1741-.0795-.2612-.1777-.5168-.2593-.7779-.064-.2048-.1104-.4139-.1744-.6186-.0904-.2888-.1909-.5732-.2835-.8609-.0188-.0576-.0133-.1218-.0309-.1804-.0464-.1516-.0993-.301-.1501-.4515-.0232.0022-.0463.0044-.0706.0067-.1148.3618-.2295.7248-.3432 1.0866-.0816.2623-.1633.5234-.2427.7857-.1225.3995-.245.8-.3674 1.1995-.0773.2523-.1567.5035-.2318.7569-.1302.4393-.2548.8809-.3861 1.3202-.0696.2312-.1523.4592-.224.6905-.128.4183-.2516.8376-.3785 1.257-.0706.2313-.1445.4615-.2174.6916-.1191.3774-.2571.7503-.3519 1.1343-.2108.8587-.6157 1.6067-1.3032 2.1578-.2703.2169-.5494.4814-.9345.519-.2152.2047-.5197.1394-.7702.2512-.1578.0708-.3608.0376-.544.0509-.2791-.5245-.5495-1.028-.8165-1.5337-.2284-.4327-.4546-.8665-.683-1.2991-.3851-.7315-.7679-1.464-1.1585-2.1922-.3266-.6097-.6665-1.2139-.9931-1.8236-.2118-.3951-.4072-.8001-.619-1.1962-.4369-.8167-.8816-1.6289-1.3175-2.4467-.4226-.7923-.8352-1.589-1.2545-2.3824-.2626-.4958-.512-1.0004-.7978-1.4817-.3034-.5102-.3486-1.0701-.2162-1.6013.1511-.6097.5208-1.1121 1.1243-1.4075.2362-.1151.4756-.1638.7239-.2025.2405-.0377.3177.0088.4369.2312.5374 1.0081 1.0747 2.0173 1.6099 3.0265.5108.9628 1.0184 1.9277 1.5282 2.8904.3994.7558.7977 1.5116 1.2015 2.2641.4723.8797.9534 1.7561 1.4267 2.6358.1744.3232.3355.654.5076.9783.0408.0774.1048.1427.1633.2202.0419-.0399.0772-.0565.0828-.0797.1004-.4659.2714-.9107.4203-1.3622.0773-.2313.1369-.4681.2086-.7005.128-.4149.2626-.8288.3862-1.2449.075-.2523.1291-.5101.1986-.7635.0563-.2047.118-.4072.1854-.6086.1324-.3951.2791-.7868.4027-1.1841.0684-.2213.0982-.4548.1589-.6783.0231-.0863.0938-.1593.1225-.2456.1147-.3497.2239-.7016.331-1.0546.1147-.3807.2184-.7647.3376-1.1431.1644-.5201.3818-1.0136.7205-1.4474.245-.3143.4921-.6142.8342-.8443.2339-.1583.4568-.342.7161-.4504.2074-.0863.3862-.2534.6322-.2501.0563.0011.1159-.0376.1689-.0675.1379-.0764.2725-.1096.438-.0885.1677.0199.3443-.0277.5164-.0443.1754-.0177.2869.0432.3376.2302.0861.322.1898.6407.2902.9583.1324.4172.2748.8299.4017 1.2482.1202.3984.2228.8023.3398 1.2017.0706.2424.1534.4803.2295.7204.0552.1749.1115.3486.1633.5245.0761.2612.1457.5246.2229.7857.0629.2125.1346.4227.2008.6352.0761.2423.1501.4858.2251.7292.0872.2811.1777.5622.2604.8443.0684.2346.1379.4703.1887.7082.0419.1981.1787.3541.1898.5755.011.2235.1313.4415.2008.6628.1169.3696.2383.737.3487 1.1088.0816.2722.1445.55.2239.8222.0276.0907.0762.1671.1369.2954z"/><path d="m89.4733 29.7115c-.0044.0807-.0099.1615-.0121.2434s-.0011.1649 0 .2468c.0276 2.9213.064 5.8416.0739 8.763.0022.6086-.2141 1.1751-.5793 1.6731-.0309.041-.0673.0786-.0927.1228-.2515.4261-.662.6562-1.0813.8698-.3784.1926-.7713.3442-1.206.3375-.3409-.0055-.3685-.0288-.3685-.3707-.0011-2.7709 0-5.5417 0-8.3126 0-1.9985-.0022-3.997.0033-5.9955 0-.1715.0441-.343.0706-.5134.021-.1317.0353-.2645.0728-.3917.0397-.1339.1026-.2612.1534-.3929.1512-.3862.3763-.7259.6698-1.0125.2317-.2268.5163-.3829.7944-.5522.4116-.2501.8584-.2611 1.3053-.3165.1247-.0154.2141.0421.2847.145.1368.2025.2791.4028.4182.6042.4457.6485.897 1.2936 1.3362 1.9465.4744.7038.9323 1.4197 1.409 2.1224.4645.6828.9489 1.3522 1.4157 2.0339.4733.6916.9312 1.3943 1.4024 2.087.2924.4305.6013.8487.8915 1.2803.3652.5422.7194 1.0933 1.0802 1.6388.106.1594.2174.3154.3476.5035.0265-.0652.0508-.0984.0508-.1316.0033-.4914.0066-.9816.0011-1.4729-.0022-.1737-.0353-.3475-.0364-.5201-.0045-.6186 0-1.236-.0022-1.8546-.0056-1.7617-.0155-3.5223-.0188-5.2839 0-.2855-.0144-.5799.0496-.8532.0607-.2612.1953-.5112.3333-.7458.3078-.5234.7426-.913 1.3031-1.1542.2019-.0874.3972-.1881.5971-.2778.045-.0199.1-.0165.151-.021.182-.0177.365-.0299.546-.0531.214-.0277.318.0553.317.2601-.009 2.0493-.021 4.0976-.024 6.147-.005 2.7089 0 5.4189-.003 8.1278 0 .2324.015.4703-.024.6972-.133.7746-.503 1.4208-1.1364 1.8922-.2748.2047-.5628.4106-.8761.5389-.2924.1195-.6256.1395-.9412.1992-.1754.0332-.2814-.0575-.3763-.2003-.3376-.5123-.6874-1.0169-1.0316-1.5248-.6952-1.0225-1.3914-2.045-2.0865-3.0675-.5915-.8698-1.1829-1.7395-1.7721-2.6104-.4116-.6075-.8198-1.2183-1.2325-1.8259-.4811-.7093-.9666-1.4164-1.4476-2.1257-.1435-.2114-.2759-.4294-.4215-.6396-.0729-.1051-.1611-.1981-.2428-.2966-.0198.0133-.0419.0244-.0651.0366z"/><path d="m114.124 38.8553c-.013-.187-.037-.3585-.036-.5289.005-.9152.017-1.8303.028-2.7455.002-.1449-.061-.2014-.23-.2002-1.243.0011-2.485.0022-3.727.0033-.072 0-.144.0022-.216-.0011-.33-.0155-.426-.1494-.32-.4582.075-.2191.177-.4304.24-.6528.094-.3309.315-.5843.536-.8156.189-.1981.412-.3795.672-.5145.405-.2103.825-.2634 1.268-.2612.944.0055 1.889-.0011 2.834.0022.778.0022 1.325.3608 1.678 1.0612.135.27.178.54.181.8222.007 1.5138.004 3.0276.003 4.5414 0 .7292-.318 1.3124-.875 1.7484-.216.1693-.514.2357-.78.3364-.236.0896-.477.1726-.72.2423-.29.083-.584.1494-.877.2236-.078.0199-.161.0287-.234.0619-.133.0598-.262.0941-.415.072-.093-.0144-.203.0243-.295.063-.193.083-.385.1041-.597.0952-.295-.0122-.593.0443-.888.0432-.326-.0011-.655-.072-.976-.0432-.341.031-.649-.0409-.963-.1394-.075-.0233-.161-.0067-.242-.0144-.079-.0078-.16-.0188-.238-.0354-.148-.0321-.294-.0697-.44-.104-.04-.0089-.082-.0111-.12-.0255-.396-.1472-.795-.2866-1.183-.4504-.23-.0962-.444-.2312-.663-.353-.77-.426-1.404-1.0191-1.983-1.6687-.242-.2711-.441-.5898-.619-.9096-.22-.3917-.448-.7901-.579-1.215-.129-.4227-.296-.8333-.381-1.2781-.086-.4526-.065-.9185-.191-1.3567-.085-.2965-.086-.5843-.089-.8797-.002-.1937.036-.374.092-.5655.084-.2877.064-.6064.086-.9118.005-.0608-.013-.1261.002-.1837.134-.4924.271-.9826.409-1.4739.226-.8034.585-1.5415 1.035-2.2431.395-.6186.879-1.153 1.414-1.6455.529-.4857 1.129-.8631 1.783-1.1574.308-.1384.605-.3575.925-.3984.302-.0376.55-.2988.874-.1881.348-.1837.731-.1527 1.105-.1848.335-.0288.668-.1029 1.001-.1007.343.0011.686.0708 1.031.1084.111.0122.225.0376.335.0266.22-.0221.428-.01.629.094.052.0266.119.02.179.0332.147.0332.293.0686.44.1063.04.0099.074.0376.114.0453.759.1483 1.264.6374 1.626 1.2792.256.4537.409.9583.338 1.4906-.037.2711-.136.5345-.223.7956-.038.114-.191.1428-.319.0775-.413-.2103-.82-.4327-1.238-.6319-.212-.1007-.442-.1593-.664-.239-.066-.0232-.128-.0575-.196-.0785-.074-.0233-.151-.0388-.227-.0576-.106-.0266-.213-.0509-.319-.0797-.048-.0132-.094-.0542-.141-.0553-.673-.0044-1.335-.2966-2.01-.1206-.363.0952-.737.0985-1.102.2158-.387.125-.773.239-1.112.4625-.38.2501-.783.4902-1.099.8123-.479.4868-.869 1.0545-1.11 1.7096-.077.2103-.15.4216-.225.633-.003.0099-.009.0188-.01.0287-.033.4106-.267.7868-.2 1.2184.021.1372-.009.2877-.044.426-.107.4371-.102.8687-.003 1.3069.038.1649.018.3419.024.5134.004.0709-.002.1439.012.2125.139.6462.29 1.2914.598 1.8812.271.519.611.9959 1.062 1.3721.389.3243.821.5932 1.283.8056.252-.042.431.2324.691.1605.025-.0067.063.0066.087.0232.295.1981.636.1052.952.1561.313.0497.62.1261.939.0929.263-.0277.522-.0863.785-.0996.347-.0166.682-.0686 1.024-.1483.249-.0575.499-.1383.804-.1892z"/><path d="m118.979 37.5594c.304.1848.578.3508.854.5146.111.0664.22.1361.34.1859.274.1151.568.1925.829.332.29.156.594.2379.912.2921.059.01.114.0398.172.062.056.0221.113.0686.169.0664.471-.0188.904.2191 1.387.1682.406-.0432.821-.0056 1.231-.0111.152-.0022.305-.0133.455-.0365.206-.0321.393-.1815.617-.0941.308-.125.626-.2301.921-.3828.214-.1107.421-.2601.587-.4349.253-.2678.454-.5788.442-.9782-.002-.0576.024-.1173.041-.1749.012-.0387.05-.0797.044-.1129-.095-.5355-.185-1.0767-.702-1.3987-.171-.1073-.341-.2202-.524-.3043-.204-.0951-.437-.135-.629-.249-.231-.1372-.513-.083-.737-.239-.073-.0509-.202-.0099-.299-.0365-.3-.083-.596-.1793-.893-.2656-.057-.0166-.119-.0133-.178-.0221-.091-.0122-.195-.0022-.268-.0454-.13-.0763-.253-.1195-.406-.1007-.065.0078-.144-.0243-.202-.0597-.116-.0697-.226-.114-.372-.1096-.096.0033-.201-.1383-.291-.1272-.268.032-.442-.1771-.68-.228-.256-.0542-.491-.218-.728-.3475-.976-.5289-1.769-1.2338-2.181-2.3005-.099-.2568-.192-.5157-.28-.7758-.022-.0663-.022-.1405-.023-.2124-.007-.4526-.01-.9063-.013-1.3589 0-.0498.007-.1029.023-.1505.191-.5809.334-1.184.71-1.6831.216-.2855.445-.561.689-.8211.353-.374.789-.6551 1.242-.8742.291-.1405.572-.3508.92-.3629.184-.2059.496-.0753.689-.2623.019-.0188.06-.0277.087-.0232.297.0464.559-.0863.831-.1638.03-.0089.061-.0122.092-.0133.664-.0088 1.328-.0243 1.992-.021.274.0011.542.083.825.0299.12-.0233.258.0465.387.0774.119.0288.241.0974.355.0875.414-.0355.754.156 1.083.3485.529.3088.897.7691 1.051 1.37.071.2733.201.53.187.8321-.016.3242-.175.5954-.219.9218-.399-.1372-.752-.311-1.125-.3707-.3-.0476-.566-.239-.886-.1881-.072.011-.152-.052-.232-.0686-.137-.0288-.276-.0487-.414-.0709-.099-.0154-.203-.0165-.298-.0464-.277-.0852-.552-.1195-.846-.1074-.48.0211-.962.0011-1.443 0-.081 0-.168-.0088-.242.0155-.204.0686-.415.0941-.623.1372-.301.062-.604.1815-.869.3387-.358.2135-.676.4935-.836.9029-.033.0841-.051.1738-.069.2623-.013.0597.005.1328-.023.1815-.119.2058-.066.4072-.033.6252.092.6086.453.9793.982 1.2272.173.0807.334.187.504.2755.141.073.302.0564.455.1439.199.1128.455.125.685.1814.079.0189.156.0454.234.0653.115.0288.231.0543.346.083.068.0166.135.041.204.0554.169.0365.339.0686.506.1051.098.0221.196.0487.292.0774.038.0122.071.0443.111.052.243.0509.489.0875.728.1494.214.0554.425.1284.63.2103.306.1228.608.2578.908.3928.234.1051.481.1948.692.3375.286.1926.552.4172.809.6496.423.3818.739.8498.928 1.3843.085.2402.241.4703.194.7569-.019.1129.03.2446.073.3585.111.2889.077.5887.079.8853 0 .0487-.021.0985-.034.1472-.042.1671-.127.3364-.118.5002.018.3153-.126.5787-.224.8509-.259.7193-.73 1.2969-1.292 1.8049-.488.4415-1.055.7436-1.667.9715-.235.0874-.466.1859-.701.2745-.056.021-.118.0265-.179.0332-.06.0066-.13-.0111-.183.0121-.506.2136-1.057.2025-1.584.27-.554.0697-1.126.0045-1.689-.0055-.06-.0011-.117-.0343-.178-.0432-.199-.0298-.398-.0553-.598-.0829-.091-.0122-.189-.0089-.27-.0443-.171-.0742-.336-.1472-.531-.1107-.051.01-.112-.0398-.169-.0586-.125-.0387-.252-.0708-.374-.114-.205-.0719-.407-.1527-.612-.2235-.261-.0897-.502-.2092-.731-.3652-.418-.2833-.714-.6573-.919-1.1199-.25-.5621-.214-1.1364-.113-1.714.027-.1483.121-.2922.206-.4914z"/><path d="m41.4247 36.7472c-.3167.5156-.6356 1.0258-.9467 1.5403-.587.9694-1.1674 1.9432-1.7555 2.9114-.3388.5578-.6896 1.1088-1.0306 1.6655-.2085.3397-.4116.6838-.6157 1.0269-.1258.2113-.32.3452-.5318.4503-.0596.0299-.1633.0166-.2284-.0155-.6157-.3087-.6323-.3231-1.0251-.9571-.2902-.4681-.5726-.9417-.8584-1.4131-.7823-1.2936-1.5646-2.5861-2.3469-3.8797-.2163-.3586-.4337-.716-.6499-1.0745-.1214-.2025-.1313-.3619.022-.5245.181-.1915.3829-.3652.5893-.529.3045-.2412.6223-.4647.9334-.6971.309-.2302.6168-.4615.9269-.6905.2041-.1505.4126-.2955.6146-.4493.3067-.2346.6024-.4858.9169-.7093.2196-.1561.4138-.3475.683-.4393.1158-.0399.2008-.0277.3122-.0144.4458.0531.7161.3939 1.0505.623.3696.2523.7183.5356 1.0736.8089.3144.2412.6223.4891.9379.7292.3244.2468.6554.4858.9809.7315.1202.0907.235.1892.352.2833.0397.0321.075.0807.1202.0951.2659.0786.3553.3099.4756.5279z"/><path d="m55.4431 44.8817c.3906 0 .769.0023 1.1475-.0011.6157-.0055 1.2314-.011 1.8471-.0254.1302-.0033.2593-.041.3895-.0609.0905-.0144.1809-.0343.2714-.0343 1.1696-.0099 2.3403-.0188 3.5099-.0243.7691-.0033 1.5381.0077 2.3072.0011.6863-.0056 1.3803.031 2.0578-.0565.7183-.0918 1.4311-.0453 2.145-.0675.6863-.0221 1.3737-.0365 2.0601-.0376.5638-.0011 1.1276.0376 1.6904.0321.8407-.0077 1.6892.0266 2.5179-.0797.6466-.083 1.2832-.0531 1.9243-.0752.6356-.0221 1.2722-.0255 1.9078-.0244.7591.0012 1.5182.0155 2.2785.0211.1534.0011.3067-.0177.4612-.0177.1854-.0011.2394.0464.2439.2357.0077.3397.0033.6794.0033 1.0191 0 .2888.0055.5766-.0022.8654-.0067.2655-.0872.3585-.3531.3563-.3244-.0033-.6565.0675-.9721-.0742-.0442-.0199-.1015-.0121-.1523-.0132-1.1685-.0211-2.3381-.0487-3.5066-.0598-.6454-.0055-1.2909.0277-1.9375.0266-.8618-.0011-1.7301.042-2.5831-.0476-.7282-.0764-1.4542-.0089-2.1736-.0841-.7283-.0753-1.4543-.0365-2.1815-.0476-.5329-.0088-1.0658.0255-1.5999.0243-.8617-.0022-1.7301.0443-2.583-.0475-.7371-.0797-1.473-.01-2.2024-.0852-.7183-.0742-1.4355-.0377-2.1527-.0476-.5738-.0078-1.1486.0265-1.7224.0254-.811-.0022-1.6209-.011-2.4308-.0332-.2835-.0077-.5671-.0509-.8463-.1018-.2405-.0431-.3983-.2268-.5009-.4271-.373-.7326-.7227-1.4751-1.0869-2.2121-.2659-.5367-.5406-1.0689-.8087-1.6045-.2858-.571-.565-1.1442-.8519-1.7141-.2692-.5356-.5428-1.0678-.8143-1.6012-.1191-.2357-.2383-.4714-.3564-.7071-.0132-.0277-.022-.0576-.0275-.0874-.0265-.124-.0508-.249.0827-.3298.0993-.0597.2416-.0111.3354.1284.1998.2954.3906.5975.587.8963.2351.3574.4734.7137.7084 1.0723.6389.9727 1.2777 1.9475 1.9166 2.9202.4844.7326.9666 1.4651 1.4532 2.2054z"/><path d="m107.646 44.4488h2.987c.855.2158 1.732.0476 2.598.1428.637.0697 1.29-.0033 1.935-.0122.093-.0011.185-.0077.277-.0066 1.211.0121 2.425-.0233 3.631.0564.706.0476 1.409.0531 2.114.0642 1.302.0199 2.604.0277 3.905.0409.8.0078 1.611-.0597 2.398.0443.789.104 1.572.0299 2.355.0941.358.0287.718.0044 1.078.0099.115.0011.184-.0409.249-.1394.388-.5876.786-1.1675 1.177-1.7528.339-.5102.677-1.0225 1.01-1.5371.433-.6673.855-1.3412 1.29-2.0073.358-.5489.725-1.09 1.089-1.6344.102-.1528.267-.2092.386-.1339.084.0542.105.2733.039.4005-.456.8964-.91 1.7938-1.366 2.6912-.434.8543-.872 1.7053-1.3 2.5629-.423.8476-.832 1.703-1.255 2.5496-.152.301-.384.4349-.746.4913-.849.1317-1.697.0409-2.544.094-.663.0421-1.333-.0177-1.999-.011-.768.0066-1.536-.0421-2.306.0387-.488.0509-.984.0122-1.477.0166-.192.0022-.391-.0332-.571.0786-.023.0144-.06.0099-.09.0122-.031.0022-.062.0011-.093.0011-.934.0099-1.867.0276-2.801.0287-.82 0-1.641-.0299-2.461-.0254-.952.0055-1.912-.0288-2.856.0763-.666.0742-1.324.0476-1.986.072-.655.0243-1.313.0309-1.969.032-.554.0012-1.108-.032-1.662-.0265-.953.0099-1.908.0166-2.859.0708-.343.0199-.684.0919-1.033.0819-.36-.01-.44-.0808-.441-.4305-.002-.5765-.002-1.153 0-1.7296.001-.3032.038-.3186.343-.3153.707.0066 1.416-.0045 2.124-.0067.277-.0011.554 0 .832 0-.002.0056-.002.0122-.002.0177z"/><path d="m30.9865 42.2028c-.1246.0155-.2328.0398-.3409.0409-.8518.0033-1.7047-.0022-2.5566.0044-.182.0012-.2879-.0531-.3895-.2202-.4601-.7591-.9643-1.4905-1.4101-2.2585-.4403-.758-.9544-1.4762-1.302-2.2862-.1931-.4481-.3641-.9052-.5429-1.36-.0927-.2346-.1842-.4691-.2714-.706-.021-.0564-.0143-.1217-.0276-.1803-.0794-.3431-.1125-.7005-.2185-1.0314-.0662-.2058-.0717-.3961-.0772-.5986-.0154-.5854-.0541-1.1708-.0519-1.7551.0011-.6362.0309-1.2736.0629-1.9099.0067-.1273.085-.2501.1126-.3785.0684-.3187.1092-.644.1953-.9583.096-.353.2251-.6982.3476-1.0435.2725-.7724.6399-1.4961 1.0614-2.1987.6102-1.0181 1.3682-1.9056 2.2454-2.6968.1446-.1305.2836-.2666.427-.3961.0607-.0542.1247-.1063.1942-.1472.1744-.1062.2648-.0874.4017.0509.2659.2689.5186.5555.8088.7945.2548.2114.5528.3696.8341.5489.1346.0863.2748.1649.4314.2578-.0551.0509-.1026.1007-.1555.1406-.5252.3895-1.0394.7945-1.4797 1.2803-.6521.7193-1.2545 1.4773-1.6628 2.3703-.1898.4149-.3917.8255-.5572 1.2504-.0993.2545-.139.5312-.203.799-.0795.3352-.1589.6716-.2317 1.008-.0232.1096-.032.2247-.0331.3364-.0034.6363-.0067 1.2737.0022 1.91.0022.1604.0485.322.0783.4814.0132.0708.0497.1394.0519.2091.0099.4448.1268.8631.2868 1.2759.1722.4448.2858.9151.4778 1.35.2968.6706.683 1.2958 1.0703 1.9188.3509.5633.694 1.1309 1.0427 1.6953.3167.5135.6532 1.0158.9478 1.5415.1501.27.3785.5068.4314.8609z"/><path d="m37.5066 49.0412c.054-.0996.0805-.155.1125-.207.2792-.4636.5572-.9284.8386-1.3898.3453-.5666.694-1.1321 1.0405-1.6986.224-.3674.4623-.7271.6653-1.1055.1324-.2468.2935-.3508.5782-.3441.811.0177 1.6231.0055 2.4341.0066.1092 0 .2185.01.31.0133.021.042.0276.0509.0298.0608.0033.0089.0078.0222.0033.0288-1.7543 2.9236-3.5098 5.846-5.272 8.7796-.2019 0-.3862 0-.5704 0-.1843 0-.3674 0-.5429 0-.214-.3099-.363-.6496-.7017-.7702-.3741.0277-.5153.3098-.683.5455-.1203.1671-.2516.2479-.4591.228-.1732-.0166-.3508-.0177-.523 0-.2063.0221-.3199-.0786-.4159-.2423-.1909-.3265-.3917-.6463-.5893-.9694-.555-.9063-1.11-1.8126-1.6639-2.7189-.2284-.3751-.4513-.7535-.6819-1.1264-.2096-.3387-.4303-.6695-.6388-1.0092-.2505-.4084-.4921-.8222-.7393-1.2328-.2858-.4725-.5738-.9428-.8596-1.4153-.0198-.0321-.0264-.0719-.0397-.1073.2373-.0786 2.5334-.1074 3.2308-.0421.9378 1.5282 1.8879 3.0741 2.8677 4.6698.1699-.2169.3056-.3873.438-.5611.0563-.073.1137-.1471.1545-.229.1611-.3176.4513-.3475.7338-.2789.1445.0354.2747.1937.3795.3231.1854.2291.3432.4781.5639.7924z"/><path d="m41.6666 42.2001c.2737-.4415.5153-.8266.7525-1.2172.3068-.5046.6058-1.0136.9137-1.5171.2339-.3829.481-.758.7172-1.1398.4722-.7635.9599-1.5193 1.334-2.3371.1897-.4161.342-.8532.4755-1.2914.0916-.2987.1203-.6163.1832-.924.0342-.1693.1081-.3342.1158-.5035.0177-.4149.0056-.8321.0056-1.2482 0-.426.0441-.8587-.0133-1.277-.0507-.3674-.0761-.7469-.2229-1.1021-.0772-.1859-.0871-.3984-.1456-.5931-.1821-.6065-.4557-1.1719-.7547-1.7285-.5076-.945-1.1432-1.7894-1.9144-2.533-.0773-.0752-.1413-.1638-.2593-.3021.1655-.0122.2615-.0254.3575-.0254.6775-.0022 1.356.0044 2.0335-.0034.3454-.0044.6897-.0287 1.0339-.0497.1578-.0089.2748.0431.3652.177.533.799 1.0361 1.6145 1.3848 2.513.1986.5135.4204 1.0258.5451 1.5581.0805.3419.182.685.2394 1.038.0662.4061.0662.8133.1236 1.215.0739.5245.043 1.0468.0463 1.5702.0022.3995-.0121.8023-.0662 1.1963-.0562.4016-.1809.7934-.256 1.1928-.075.4017-.1908.7901-.3343 1.1686-.2052.5411-.406 1.0889-.6609 1.6067-.3012.612-.6499 1.2018-.9953 1.7916-.2372.405-.5053.7923-.7536 1.1907-.2869.4592-.576.9173-.8496 1.3843-.0949.1627-.2097.2346-.3939.2335-.9037-.0044-1.8074-.0011-2.7111-.0033-.0794.0022-.1566-.0188-.2957-.0399z"/><path d="m84.6132 31.9542v6.3629c0 .2877.0077.5754-.0044.862-.0045.1184-.0431.2379-.0817.3508-.0861.2501-.1523.5123-.2792.7414-.3321.5997-.7723 1.0999-1.42 1.3799-.203.0874-.395.2124-.6058.2667-.2218.0564-.4601.0564-.6918.0641-.1015.0034-.1666-.0708-.1688-.1825-.0011-.072-.0022-.1439-.0022-.2158 0-4.6543 0-9.3075-.0011-13.9617 0-.5522.1125-1.0823.3762-1.5603.3001-.5455.7393-.9837 1.2722-1.3002.3829-.228.8198-.3265 1.2667-.3597.2858-.021.3399.0255.3399.3254.0022 1.1121.0011 2.2242.0011 3.3363-.0011 1.2958-.0011 2.5938-.0011 3.8907z"/><path d="m40.8731 28.9346c1.1332.0221 2.0347 1.0026 2.0711 2.1103.0187.5599-.2527 1.0302-.6014 1.4341-.2791.3231-.6521.5798-1.089.602-1.2866.063-1.3296-.0753-1.9166-.6219-.4016-.374-.5495-.8687-.5705-1.4131-.0397-1.1066.9876-2.1656 2.1064-2.1114z"/><path d="m33.8057 30.9909c-.0045 1.0988-1.0505 2.1202-2.102 2.0936-1.0758-.0265-2.0402-.8365-2.0711-2.0748-.0287-1.1542.8695-2.0948 2.0755-2.1147 1.2402-.0199 2.1439 1.1586 2.0976 2.0959z"/><path d="m100.861 45.9328c-.38-.0786-.469-.01-.471.3651-.001.2368.005.4736-.002.7104-.006.1926-.045.2291-.238.2413-.072.0044-.145.0055-.2156-.0033-.1787-.0233-.2273-.0709-.2284-.2623-.0044-.7613-.032-1.5249.011-2.2851.0221-.3928.266-.7513.766-.7524.41-.0012.821-.0034 1.231.0022.384.0055.806.2921.87.6628.056.3253.058.6805-.219.945-.172.1638-.302.4117-.602.2877-.058.4028.156.6938.504.7016.141.0033.261.0431.289.1682.031.1427.014.301-.01.4481-.005.0366-.119.0808-.181.0797-.275-.0055-.553-.052-.771-.2224-.359-.2789-.641-.623-.733-1.0866zm-.34-.7791c.383.062 1.127.0487 1.386-.021.022-.0697.061-.1439.07-.2224.014-.1383-.069-.2468-.203-.249-.414-.0078-.829-.0022-1.276-.0022.008.1638.015.3209.023.4946z"/><path d="m87.1972 45.6009c-.0044.872-.7094 1.6477-1.6561 1.6544-1.1056.0077-1.5989-.8886-1.7335-1.6743.1081-.4271.2483-.8321.5572-1.1707.3421-.3741.768-.456 1.2391-.4659.8817-.0177 1.6022.7823 1.5933 1.6565zm-1.6595-.945c-.353-.0055-.5219.0686-.7282.2888-.2041.218-.2383.4748-.235.7591.0055.4471.4071.8377.8981.8444.5859.0088 1.0328-.3685 1.0416-.8787.0111-.6208-.3597-1.0047-.9765-1.0136z"/><path d="m95.3051 45.2921c.2825 0 .5473-.0033.8121.0011.1236.0022.2792.0089.3046.1505.0254.1439.0044.3054-.0408.446-.0166.0542-.1534.094-.2373.0974-.2835.0121-.5671.0044-.8529.0044-.064.27.1357.5533.4105.5566.4513.0055.9025.0011 1.3538.0022.1214 0 .2737-.0277.3035.1328.0286.1549.0198.3187.0011.4758-.0045.0365-.1137.0863-.1744.0852-.6046-.0044-1.2093-.0044-1.8117-.0376-.1336-.0078-.2825-.1184-.384-.2213-.1931-.1948-.3774-.4095-.384-.7093-.0088-.4216-.0177-.8432-.0132-1.2637.0044-.4869.3067-.789.694-1.0037.1302-.0719.3167-.0509.4767-.0531.4413-.0067.8816-.0022 1.3229-.0045.2571-.0011.3156.0487.3255.29.0122.3032-.0607.405-.3178.4116-.3586.0078-.7183.0022-1.0769.0033-.1026 0-.2052-.0044-.3078.0034-.3685.0265-.501.2257-.4039.6329z"/><path d="m89.0735 43.9542c.3685-.0066.3674-.0066.5009.3265.2439.6064.4866 1.2117.7338 1.817.0419.104.096.2036.1545.2999.1224.2014.4192.198.5274-.0122.107-.2092.1931-.4283.2858-.6452.2228-.5245.4435-1.049.6653-1.5746.0684-.1616.1865-.2202.3641-.2169.4094.0077.405-.0022.2582.3663-.2185.5455-.427 1.0955-.6433 1.6421-.0971.2446-.1732.5057-.3111.7249-.203.3231-.469.5942-.8993.5853-.4281-.0088-.7437-.25-.9092-.6573-.2758-.6772-.5649-1.3489-.8474-2.0239-.0518-.1228-.0993-.2468-.1511-.3685-.0839-.1937-.0409-.2623.1732-.2689.0419-.0022.0827.0044.0982.0055z"/><path d="m135.603 45.3726c-.037-.114-.068-.2103-.111-.3453-.109.2214-.254.2601-.421.1516-.07.0819-.128.1516-.191.2258-.148-.1129-.103-.2346-.105-.3408-.003-.1439.001-.2889.023-.4305.011-.0686.052-.1615.107-.1892.092-.0465.173.0111.227.1018.056.0941.124.1815.216.3132.084-.1262.155-.2192.21-.3221.054-.104.141-.1327.228-.0929.061.0288.13.1095.137.1726.019.1726.016.3497.004.5245-.012.2003-.058.228-.324.2313z"/><path d="m134.163 44.8172c-.289-.0531-.289-.0531-.272-.3663h.734c.046.1306.062.2667-.06.3342-.163.0908-.17.2103-.138.3608.009.0398.031.0973.014.1173-.043.0498-.102.1007-.161.1128-.03.0056-.107-.0686-.112-.1128-.014-.1417-.005-.2844-.005-.446z"/></g></svg>